<?xml version="1.0" encoding="UTF-8"?>
<svg id="Capa_2" data-name="Capa 2" xmlns="http://www.w3.org/2000/svg" width="210mm" height="209.99999mm" viewBox="0 0 595.27559 595.27557">
  <defs>
    <style>
      .cls-1 {
        fill: #fff;
      }
    </style>
  </defs>
  <polyline class="cls-1" points="306.87339 213.01653 287.57257 218.51342 293.7241 208.50564 262.17592 200.34167 292.17024 199.02805 300.82929 196.37739 257.57825 186.11079 286.91576 183.70249 296.36339 181.11892 284.72639 170.34736 275.52198 150.66779 296.15246 165.08635 310.87514 167.03831 306.87949 164.83653 294.30227 156.81641 318.70415 153.49364 319.85733 165.13319 339.77949 156.90379 325.08994 172.95839 342.34688 169.67775 331.27838 183.10262 333.87889 188.4032 332.94457 188.61224 337.28035 200.22922 334.49806 200.74239 336.97663 209.61926 333.53084 211.98562 337.38865 220.0363 343.23494 216.38723 357.76693 202.644 364.85324 183.30482 362.06033 177.73864 366.56261 171.31454 378.51609 171.73557 380.32977 179.84233 372.76419 185.17526 371.79504 202.00553 370.40567 213.14693 356.38756 231.77374 353.42539 280.88046 393.94211 343.41352 371.3241 378.58007 376.76514 402.90029 370.23915 413.40414 359.6316 375.77884 364.9014 372.89026 363.80596 350.69322 370.03203 340.12665 344.07758 318.73547 305.8153 369.08431 261.05461 400.7664 255.66691 417.82202 248.42051 444.60778 241.13873 442.67559 241.60248 418.34902 240.32851 405.25695 249.69789 401.23455 267.4821 370.69558 292.52953 358.127 320.96114 296.64738 314.2662 271.95982 296.97639 249.76289 268.59018 241.18317 256.29415 242.43977 222.95768 235.2728 210.41615 235.65506 202.81741 226.52112 201.82809 222.09905 201.33348 219.88828 218.201 216.60475 222.5108 226.20898 253.0278 228.11036 305.8185 223.98627"/>
</svg>