<?xml version="1.0" encoding="UTF-8"?>
<svg id="Capa_2" data-name="Capa 2" xmlns="http://www.w3.org/2000/svg" width="210mm" height="209.99999mm" viewBox="0 0 595.27559 595.27557">
  <path d="M351.18015,233.56882h-10.2319c-3.51107,0-6.35736-2.84629-6.35736-6.35736v-35.13306c0-9.31046-7.54762-16.85808-16.85808-16.85808h-51.77424c-4.0136,0-7.83861,1.70352-10.52356,4.68681l-35.25173,39.16871c-4.26371,4.73747-5.75018,11.35458-3.92231,17.46046l16.27621,54.36984c3.92569,13.11355,19.01667,19.18203,30.92802,12.43697l14.49167-8.20622c6.01094-3.40383,9.72646-9.77769,9.72646-16.68548v-5.41145c0-7.89832,6.40285-14.30117,14.30117-14.30117h1.41115c20.16688,0,30.26648,24.38261,16.00635,38.64275l-81.43585,81.43585c-5.16031,5.16031-8.05934,12.15919-8.05934,19.45697v4.33342c0,9.63598,7.8115,17.44748,17.44748,17.44748h79.80001c29.06566,0,52.62803-23.56237,52.62803-52.62803v-105.25622c0-15.79655-12.80563-28.60219-28.60219-28.60219Zm-43.5421-13.20931l-5.65371,14.92558-21.59301-6.21186c-10.65762-3.06587-16.1477-14.84255-11.64381-24.97638l2.91852-6.5668h20.20709c11.79409,0,19.94268,11.80012,15.76491,22.82945Z"/>
</svg>