<?xml version="1.0" encoding="UTF-8"?>
<svg id="Capa_2" data-name="Capa 2" xmlns="http://www.w3.org/2000/svg" width="210mm" height="209.99999mm" viewBox="0 0 595.27559 595.27557">
  <path d="M178.81815,400.33198h-8.28284c-.64133,0-1.16326-.52172-1.16326-1.16306v-8.39644c0-.23141,.06822-.45561,.19725-.64795,8.75197-13.04807,11.73745-29.30942,8.19088-44.61447-3.54627-15.30566-13.37895-28.59696-26.97669-36.46547-.35823-.20717-.58073-.59305-.58073-1.00698l.0006-8.39604c0-.17691,.04147-.35463,.11971-.51371,2.47077-5.02048,4.1852-10.36212,5.09551-15.87607,.08685-.52553,.51802-.92403,1.04865-.96931,.03396-.00301,.06872-.00441,.10258-.00441,.49287,0,.93305,.31416,1.09524,.78198,1.52159,4.38776,3.57472,8.57796,6.10249,12.45462,1.10515,1.695,2.96254,2.63987,4.87482,2.63987,.8474,0,1.70541-.18553,2.51374-.57361,2.63235-1.26383,3.91943-4.28357,3.00812-7.05768l-12.22321-37.20698c-.16479-.50189,.02975-1.05266,.47324-1.33957,.19104-.12382,.40321-.18653,.63021-.18653,.1689,0,.49558,.03947,.78539,.30374,10.5237,9.59697,24.16652,14.88231,38.41521,14.88231,8.51966,0,16.69041-1.82182,24.28533-5.41477,2.45955-1.16366,3.78359-3.87685,3.18733-6.53155-.59635-2.65469-2.95352-4.54123-5.67433-4.54123h-41.15636c-.64133,0-1.16326-.52172-1.16326-1.16306v-8.39644c0-.05349,.00321-.10418,.00972-.15487,.21288-1.65793-.29793-3.32728-1.40208-4.5821-1.10405-1.25482-2.69476-1.97409-4.36622-1.97409h-1.47471c-.64133,0-1.16306-.52172-1.16306-1.16306v-8.39664c0-.64133,.52172-1.16306,1.16306-1.16306,5.27122,0,9.5597,4.28838,9.5597,9.5597,0,.0539-.00321,.10499-.00992,.15668-.21228,1.65753,.29883,3.32628,1.40288,4.5809,1.10415,1.25462,2.69456,1.97349,4.36572,1.97349h50.41513c2.28975,0,4.50647,.82666,6.24173,2.32772,.34301,.29672,.71246,.54717,1.10035,.75093,.15467,.40972,.35773,.80683,.60988,1.18329,1.05186,1.57038,1.60784,3.40242,1.60784,5.29757,0,.06211-.00461,.12382-.01362,.18352-.08816,.57962-.08806,1.16907,.0001,1.74869,.03035,.19935,.02504,.50149-.17281,.80743-2.13758,3.30665-3.93746,6.85071-5.34946,10.53382-.63763,1.66314-.47794,3.52683,.43327,5.05734,.91131,1.53031,2.47377,2.55872,4.2398,2.79073,.48616,.06371,1.00297,.48947,1.00297,1.15284v4.19822c0,2.95623-2.40515,5.36128-5.36138,5.36128h-1.41781c-3.21188,0-5.81558,2.6038-5.81558,5.81568v.54216c0,2.95623-2.40515,5.36128-5.36148,5.36128h-4.19822c-.64133,0-1.16326-.52172-1.16326-1.16306v-4.19842c0-2.95623,2.40515-5.36128,5.36148-5.36128h1.41771c3.21188,0,5.81558-2.6038,5.81558-5.81568v-.54196c0-.20276,.01132-.40672,.03376-.60587,.17952-1.59863-.31105-3.20026-1.3553-4.42402-1.04415-1.22376-2.54861-1.96027-4.15555-2.0346-.87775-.04047-1.76372-.06111-2.63356-.06111-15.84231,0-31.13494,6.73711-41.95687,18.48388-1.5818,1.71684-1.98351,4.21345-1.0203,6.34001,.94377,2.08328,3.01834,3.41604,5.29676,3.41604,.04718,0,.2276-.00321,.27068-.00321h4.19832c.64133,0,1.16316,.52172,1.16316,1.16306v4.19822c0,2.4872-1.76021,4.68769-4.1854,5.23205-2.56534,.57602-4.42512,2.80135-4.53642,5.4282-.1113,2.62684,1.55365,5.00164,4.06108,5.79244,5.57205,1.75751,11.33674,2.64888,17.13369,2.64908,11.60652,0,22.79289-3.48376,32.34989-10.07461,.28861-.19855,.59145-.36284,.94928-.51431,.18954-.08014,.37707-.14906,.55598-.20396,17.48742-5.39053,31.40582-18.96353,37.23493-36.30859,2.87989-8.56955,3.67229-17.84375,2.29175-26.81981-.34281-2.22834-1.94273-4.05797-4.10566-4.6947-.54166-.15948-1.09443-.23702-1.6419-.23702-1.6386,0-3.23161,.69363-4.3527,1.95846-1.02101,1.15184-2.48339,1.8126-4.01209,1.8126h-4.19822c-.64133,0-1.16326-.52172-1.16326-1.16306v-3.32047c0-3.21188-2.6037-5.81568-5.81558-5.81568h-2.97266c-.21809,0-.42024-.0557-.60056-.16569-.10619-.06471-.21358-.12542-.32237-.18272-.04298-.1136-.08976-.2268-.14035-.339-.06722-.14886-.09988-.30454-.09988-.47564v-4.19842c0-2.38421,1.60233-4.50577,3.89679-5.15872,2.79043-.7944,4.56858-3.52383,4.16757-6.39731-.40091-2.87348-2.85845-5.01186-5.75978-5.01186h-41.88214c-5.27122,0-9.5597-4.28838-9.5597-9.5595,0-.64133,.52182-1.16306,1.16316-1.16306h65.73351c.09316,0,.18403,.01002,.27028,.03005,.44118,.10218,.88296,.15127,1.31733,.15127,2.63095,0,5.01326-1.79658,5.65119-4.46409,.57021-2.38381,2.76359-4.11387,5.21562-4.11387h4.19832c.64133,0,1.16326,.52172,1.16326,1.16306v4.19842c0,2.08609-1.23088,4.00027-3.13564,4.87682-1.45948,.67159-2.57595,1.91719-3.08495,3.44088-.5089,1.52369-.36474,3.19024,.3982,4.60414l.00561,.01082c6.77037,12.93587,18.10811,22.68611,31.92043,27.44672,5.98829,2.06385,12.23593,3.1103,18.56953,3.1103,8.15161,0,16.04997-1.70221,23.4773-5.05974,.0025-.0012,.09146-.04087,.15337-.06712,.70615-.29873,1.31212-.42134,2.08619-.42134h4.19842c.64133,0,1.16306,.52172,1.16306,1.16306v26.61425c0,1.87331,.9024,3.63202,2.42429,4.72455,1.00127,.71867,2.19027,1.09113,3.3918,1.09113,.6248,0,1.25281-.10058,1.85999-.30574,.88547-.29893,1.77364-.6235,2.63987-.96451,2.22313-.87555,3.68461-3.02174,3.68461-5.41117v-55.73233c0-5.27112,4.28838-9.5595,9.5596-9.5595,.64133,0,1.16326,.52172,1.16326,1.16306v46.95501c0,2.51084,1.61135,4.73818,3.99616,5.52377,.59856,.19715,1.21194,.29232,1.81862,.29232,1.8103,0,3.56039-.8473,4.67797-2.35977,5.84583-7.91099,9.56812-17.22104,10.76443-26.9238,.0584-.47384,.3943-.85912,.85581-.98174,.09837-.02605,.19885-.03927,.29843-.03927,.36484,0,.71316,.17451,.93175,.46703l29.97629,40.1067c.31626,.42315,.30734,1.00718-.02134,1.42031-.31556,.3967-.74351,.43958-.91281,.43958-.16028,0-.31696-.03326-.46572-.09877-7.2957-3.21368-15.01765-4.84316-22.95228-4.84316-11.73575,0-23.49704,3.76986-33.11745,10.61497-2.06154,1.46679-2.93819,4.09825-2.16823,6.50831,.76986,2.41006,3.00972,4.04595,5.53979,4.04595h29.87732c5.27132,0,9.5597,4.28838,9.5597,9.5597,0,.64133-.52172,1.16306-1.16316,1.16306h-52.20469c-3.21188,0-5.81558,2.6038-5.81558,5.81568v34.62121c0,5.27132-4.28858,9.5597-9.5598,9.5597-.64133,0-1.16316-.52172-1.16316-1.16306v-38.67517c0-2.35216-1.4169-4.47271-3.59005-5.3729-.71947-.29813-1.47521-.44298-2.22423-.44298-1.51358,0-3.00091,.59104-4.11357,1.70361l-24.43159,24.43159c-1.80559,1.80559-4.20624,2.79995-6.75965,2.79995s-4.95416-.99436-6.75975-2.79975c-.1126-.1128-.19985-.24523-.25866-.3937-.63282-1.59602-1.93853-2.8308-3.56731-3.37376-.59956-.19975-1.22046-.29833-1.83855-.29833-1.06118,0-2.11444,.29031-3.03947,.85732-1.49334,.91542-3.21258,1.39907-4.97209,1.39907-.64143,0-1.16316-.52172-1.16316-1.16306v-24.33121c0-2.41507-1.49264-4.57889-3.75023-5.43661-.67269-.25545-1.37193-.37927-2.06415-.37927-1.63088,0-3.2241,.68661-4.34979,1.95425-2.65009,2.98428-4.98611,6.24564-6.94327,9.69334-.2277,.40111-.50069,.75473-.85872,1.11237-.52002,.52032-1.02852,.86273-1.70281,1.14783-.16369,.06912-.32668,.13023-.48476,.18152-14.64038,4.74739-26.90627,15.40443-33.65069,29.23849-.09176,.18793-.23271,.34802-.40772,.46282l-3.37647,2.21351c-1.43834,.94287-2.38552,2.47417-2.58707,4.18219-.20146,1.70802,.36334,3.41764,1.54273,4.66946,1.67947,1.78255,2.6044,4.10806,2.6044,6.54798,0,.18192-.03687,.34641-.1125,.50289-.87164,1.80219-.75503,3.92614,.30865,5.62214,1.06368,1.696,2.92487,2.72562,4.92681,2.72562h6.55759c1.67937,0,3.27669-.72588,4.38115-1.99112,1.10435-1.26504,1.60794-2.94581,1.38124-4.60975-.00731-.05329-.01092-.10919-.01092-.16609v-4.19822c0-2.95623,2.40505-5.36128,5.36128-5.36128h4.19832c.64133,0,1.16316,.52172,1.16316,1.16306v4.19822c0,.87735-.20526,1.71203-.61018,2.48079-.91412,1.73627-.89118,3.81635,.06101,5.53198,.95218,1.71563,2.70538,2.83521,4.66234,2.97786,4.96548,.36184,8.85505,4.54964,8.85505,9.53426,0,.64133-.52172,1.16306-1.16316,1.16306h-60.28858c-3.11741,0-5.68034,2.45815-5.81057,5.57285-.12031,2.87729-2.47317,5.13107-5.35667,5.13107h-4.19822c-.64133,0-1.16306-.52172-1.16306-1.16306v-4.19822c0-1.60424,.679-2.75186,1.24861-3.43207,.18132-.21658,.34441-.44278,.48916-.6766,.24924-.1146,.49327-.24844,.72999-.40131,.69723-.4506,1.46649-.72568,2.28634-.81785,2.9421-.33038,5.16643-2.81858,5.16643-5.77922v-1.80539c0-2.13658-1.17147-4.10085-3.05109-5.11645-.86483-.46743-1.81571-.69924-2.76429-.69924-1.11287,0-2.22273,.31916-3.18754,.95108l-.21989,.14426c-1.76011,1.15364-3.47304,2.41727-5.0924,3.75644-.50189,.41493-.91682,.89739-1.2421,1.42392-.56259,.25806-1.09243,.61088-1.56597,1.05787-9.53355,9.00151-15.70657,21.13156-17.38193,34.15598-.07443,.57842-.5679,1.01479-1.14793,1.01479,0,0-.07994-.001-.11951-.001Zm46.29124-53.21167c-1.11707,0-2.22734,.32157-3.18904,.95208l-2.65349,1.73968c-2.1501,1.40969-3.11951,4.06398-2.38391,6.52754s3.00151,4.15174,5.57255,4.15174h3.2262c2.00204,0,3.86333-1.02982,4.92701-2.72602,1.06358-1.696,1.18009-3.81995,.30824-5.62214-.04298-.08876-.07393-.18292-.09206-.27969-.35863-1.91118-1.64861-3.51662-3.43778-4.27836-.73099-.31115-1.50606-.46482-2.27773-.46482Zm104.90225-74.09299c-5.39814,0-10.76423,.76635-15.9489,2.27763-.59275,.17271-1.19141,.35803-1.77925,.55077-2.38902,.78298-4.00458,3.01233-4.00458,5.52637v30.40555c0,2.35216,1.41701,4.47271,3.59015,5.3729,.71937,.29813,1.47521,.44278,2.22423,.44298,1.51358,0,3.00091-.59104,4.11357-1.70361l30.74435-30.74455c1.44596-1.44596,2.02618-3.54507,1.5283-5.52817-.49778-1.98331-2.00074-3.55949-3.958-4.15094-5.3762-1.62507-10.93102-2.44893-16.50989-2.44893Zm-147.50767,27.51404c-1.11627,0-2.22914,.32097-3.19575,.95669l-.01883,.01182c-1.66174,1.03583-2.69066,2.83802-2.73784,4.79548-.04708,1.95746,.89398,3.80733,2.50393,4.9219l.15778,.10879c.98704,.6774,2.13698,1.0206,3.29112,1.0206,.93445,0,1.87161-.225,2.72752-.6796,1.91318-1.016,3.10299-3.01132,3.08756-5.17755l-.0002-.14706c-.0017-2.13738-1.17568-4.10165-3.05741-5.11544-.86323-.46502-1.8118-.69563-2.75788-.69563Zm89.50624-77.31588c-.53134,0-1.06849,.07293-1.59843,.2244-2.49631,.71366-4.21726,2.9953-4.21726,5.59169v.71066c0,3.21188,2.6038,5.81568,5.81568,5.81568h.43457c2.0953,0,4.02862-1.12719,5.06085-2.95062,1.03233-1.82322,1.00397-4.06098-.07423-5.85756-.15918-.26527-.32047-.52894-.48416-.792-1.08101-1.73607-2.96564-2.74225-4.93703-2.74225Z"/>
  <path d="M178.93766,400.43552l-.11951-.001h-8.28284c-.69793,0-1.26584-.5678-1.26584-1.26564v-8.39644c0-.25185,.07423-.49588,.21468-.70505,8.73624-13.02463,11.71631-29.25672,8.17605-44.53413-3.53986-15.27841-13.35481-28.54567-26.92811-36.39995-.38979-.2254-.63192-.64534-.63192-1.09574l.0006-8.39604c0-.19254,.04498-.38568,.13023-.55899,2.46636-5.01146,4.17769-10.34349,5.08639-15.84742,.09447-.57181,.5637-1.00558,1.14112-1.05486,.57131-.05069,1.11487,.30213,1.3034,.8461,1.51889,4.37974,3.56831,8.56254,6.09157,12.43218,1.05877,1.62387,2.84894,2.59338,4.78887,2.59338,.85972,0,1.69049-.18954,2.46937-.5634,2.57666-1.23719,3.8471-4.21786,2.95502-6.93326l-12.22321-37.20698c-.17932-.54617,.03246-1.14563,.51501-1.45778,.20777-.13464,.43858-.20296,.68591-.20296,.18372,0,.53915,.04288,.85451,.33058,10.50487,9.57974,24.12305,14.85546,38.34609,14.85546,8.50423,0,16.66035-1.81841,24.24146-5.40496,2.4335-1.15124,3.72108-3.7899,3.13114-6.41634-.59004-2.62664-2.8823-4.46109-5.57425-4.46109h-41.15636c-.69803,0-1.26584-.5678-1.26584-1.26564v-8.39644c0-.0579,.00351-.113,.01052-.1679,.20907-1.62828-.29292-3.26898-1.37733-4.50136-1.08432-1.23238-2.64768-1.93923-4.28918-1.93923h-1.47471c-.69783,0-1.26564-.5678-1.26564-1.26564v-8.39664c0-.69783,.5678-1.26564,1.26564-1.26564,5.32782,0,9.66228,4.33446,9.66228,9.66228,0,.0585-.00351,.1138-.01072,.1699-.20847,1.62748,.29382,3.26778,1.37814,4.49996,1.08422,1.23198,2.64748,1.93863,4.28868,1.93863h50.41513c2.31439,0,4.55495,.83548,6.30885,2.35276,.33179,.28691,.69543,.53515,1.08091,.7377l.03456,.01803,.01372,.03646c.15377,.40732,.35533,.79841,.59916,1.16246,1.06318,1.58741,1.62517,3.43888,1.62517,5.35467,0,.06692-.00501,.13384-.01473,.19875-.08675,.57001-.08665,1.14783,0,1.71804,.03306,.21698,.02725,.54556-.18803,.87855-2.13387,3.30104-3.93045,6.83869-5.33984,10.51479-.63031,1.64431-.47524,3.45511,.42565,4.96818,.90089,1.51287,2.41908,2.51204,4.16496,2.74145,.52954,.06952,1.09223,.53274,1.09223,1.25462v4.19822c0,3.01273-2.45113,5.46386-5.46396,5.46386h-1.41781c-3.15017,0-5.713,2.56293-5.713,5.7131v.54216c0,3.01273-2.45113,5.46386-5.46406,5.46386h-4.19822c-.69803,0-1.26584-.5678-1.26584-1.26564v-4.19842c0-3.01273,2.45113-5.46386,5.46406-5.46386h1.41771c3.15017,0,5.713-2.56293,5.713-5.7131v-.54196c0-.20697,.01162-.41473,.03436-.61729,.17571-1.56457-.30955-3.14857-1.33135-4.34608-1.02171-1.19732-2.50964-1.926-4.08222-1.99873-.87785-.04047-1.76232-.06091-2.62885-.06091-15.81366,0-31.07884,6.72509-41.88144,18.45082-1.55705,1.68999-1.95055,4.13471-1.00227,6.22821,.92343,2.0384,2.96584,3.35573,5.2033,3.35573l.27068-.00321h4.19832c.69793,0,1.26574,.5678,1.26574,1.26564v4.19822c0,2.53488-1.79387,4.77745-4.26554,5.33223-2.51475,.5646-4.34729,2.75727-4.45638,5.33243s1.53141,4.91509,3.98945,5.69026c5.56233,1.7543,11.31661,2.64407,17.10284,2.64427,11.58558,0,22.75182-3.47755,32.29169-10.05638,.29592-.20356,.60327-.37025,.96751-.52433,.19414-.08215,.38448-.15207,.5659-.20777,17.45456-5.38031,31.34912-18.92926,37.16771-36.24307,2.87468-8.55392,3.66568-17.81149,2.28764-26.77153-.33519-2.17905-1.91839-3.98945-4.03323-4.61195-.52473-.15447-1.06739-.23281-1.61295-.23281-1.63369,0-3.19224,.70124-4.27596,1.924-1.04054,1.17388-2.53087,1.84707-4.08883,1.84707h-4.19822c-.69803,0-1.26584-.5678-1.26584-1.26564v-3.32047c0-3.15017-2.56283-5.7131-5.713-5.7131h-2.97266c-.23742,0-.45741-.06071-.65396-.18072-.10438-.06351-.20987-.12322-.31676-.17952l-.03436-.01803-.01382-.03646c-.04217-.1116-.08816-.22279-.13784-.33319-.07333-.16229-.10899-.33159-.10899-.51772v-4.19842c0-2.4301,1.63309-4.59192,3.97132-5.25729,2.72562-.77617,4.48573-3.47775,4.09404-6.28451-.39159-2.80696-2.82409-4.9235-5.6582-4.9235h-41.88214c-5.32782,0-9.66228-4.33446-9.66228-9.66208,0-.69783,.5678-1.26564,1.26574-1.26564h65.73351c.10128,0,.20005,.01102,.29352,.03266,.42575,.09857,.86112,.14866,1.29409,.14866,2.65109,0,4.93392-1.80339,5.55141-4.38535,.58113-2.42929,2.81658-4.19261,5.3154-4.19261h4.19832c.69793,0,1.26584,.5678,1.26584,1.26564v4.19842c0,2.12596-1.25422,4.07681-3.19535,4.96999-1.42782,.65696-2.53238,1.88914-3.03056,3.38018-.49788,1.49084-.35533,3.13955,.39119,4.523,6.76586,12.92725,18.08167,22.65726,31.86924,27.40926,5.97747,2.06004,12.21389,3.10469,18.53607,3.10469,8.13668,0,16.02142-1.6992,23.43503-5.05073,.0005-.0002,.09196-.04107,.15558-.06792,.72117-.30514,1.33716-.42956,2.12626-.42956h4.19842c.69793,0,1.26564,.5678,1.26564,1.26564v26.61425c0,1.83565,.89027,3.57071,2.38151,4.64121,.97703,.70124,2.12916,1.07189,3.33199,1.07189,.6226,0,1.23739-.10098,1.82713-.30033,.88266-.29793,1.76923-.6219,2.63516-.9627,2.19879-.86613,3.6196-2.95262,3.6196-5.3158v-55.73233c0-5.32762,4.33446-9.66208,9.66218-9.66208,.69793,0,1.26584,.5678,1.26584,1.26564v46.95501c0,2.47217,1.57759,4.65283,3.92564,5.42639,.57852,.19054,1.17959,.28711,1.78656,.28711,1.80499,0,3.52293-.86653,4.59542-2.3181,5.83542-7.89696,9.55098-17.19019,10.7452-26.87551,.06351-.51551,.42906-.93485,.93125-1.06829,.49888-.13143,1.03603,.06051,1.33867,.46542l29.97629,40.1067c.34411,.46041,.33449,1.09594-.02324,1.54573-.34341,.43156-.80883,.47825-.99306,.47825-.17451,0-.34511-.03606-.5071-.10739-7.28257-3.20807-14.9909-4.83455-22.9109-4.83455-11.71451,0-23.45466,3.76305-33.05794,10.59593-2.0336,1.44696-2.88951,4.0163-2.13007,6.3935,.75944,2.3774,2.94641,3.97463,5.44212,3.97463h29.87732c5.32782,0,9.66228,4.33446,9.66228,9.66228,0,.69783-.5678,1.26564-1.26574,1.26564h-52.20469c-3.15017,0-5.713,2.56293-5.713,5.7131v34.62121c0,5.32782-4.33446,9.66228-9.66238,9.66228-.69793,0-1.26574-.5678-1.26574-1.26564v-38.67517c0-2.3189-1.38435-4.39076-3.52673-5.27813-.69683-.28871-1.43203-.43517-2.18496-.43517-1.5266,0-2.96174,.59445-4.04104,1.67356l-24.43159,24.43159c-1.82493,1.82503-4.25132,2.83-6.83218,2.83s-5.00725-1.00498-6.83228-2.8298c-.12302-.12322-.21768-.26727-.2815-.42856-.6231-1.57138-1.90046-2.77931-3.5044-3.31406-.58363-.19454-1.19131-.29312-1.80609-.29312-1.05446,0-2.08699,.29111-2.98588,.84229-1.50927,.92504-3.24714,1.4141-5.02568,1.4141-.69793,0-1.26574-.5678-1.26574-1.26564v-24.33121c0-2.35717-1.48052-4.50356-3.68411-5.34064-.65105-.24724-1.33326-.37266-2.02768-.37266-1.63219,0-3.18964,.69984-4.27305,1.91979-2.64518,2.97867-4.9771,6.23422-6.93085,9.67591-.23241,.40932-.5106,.76976-.87535,1.13421-.52894,.52934-1.04795,.87915-1.73537,1.16987-.1672,.07052-.33299,.13263-.49307,.18453-14.61484,4.73918-26.85798,15.37698-33.59018,29.1858-.09988,.20476-.25325,.37887-.44358,.50369l-3.37647,2.21351c-1.4166,.92864-2.34294,2.42609-2.54149,4.10846-.19845,1.68217,.35393,3.35413,1.51548,4.58711,1.6975,1.80158,2.63235,4.15214,2.63235,6.6183,0,.19755-.04017,.37667-.12272,.54757-.86172,1.78155-.74832,3.8462,.30324,5.52296,1.05146,1.67656,2.86076,2.67753,4.83986,2.67753h6.55759c1.65002,0,3.21879-.71286,4.30391-1.95606,1.08502-1.2428,1.57959-2.89352,1.3568-4.52841-.00791-.0577-.01182-.11821-.01182-.17992v-4.19822c0-3.01273,2.45113-5.46386,5.46386-5.46386h4.19832c.69793,0,1.26574,.5678,1.26574,1.26564v4.19822c0,.89418-.20927,1.74509-.622,2.52867-.90109,1.71143-.87875,3.74302,.05991,5.43441,.93866,1.69099,2.65079,2.78452,4.5802,2.92517,5.01867,.36585,8.95012,4.59873,8.95012,9.63664,0,.69783-.5678,1.26564-1.26574,1.26564h-60.28858c-3.07243,0-5.57976,2.40465-5.70809,5.47448-.12262,2.93238-2.52056,5.22944-5.45915,5.22944h-4.19822c-.69793,0-1.26564-.5678-1.26564-1.26564v-4.19822c0-1.63509,.69202-2.80476,1.27255-3.49798,.17591-.20997,.3376-.43377,.48055-.66478l.01633-.02625,.02805-.01282c.24573-.113,.48706-.24563,.71727-.3943,.71046-.45921,1.49454-.73971,2.33052-.83367,2.89332-.32497,5.07527-2.76549,5.07527-5.67724v-1.80539c0-2.10131-1.14853-4.02732-2.9973-5.02629-.83147-.44939-1.77043-.68681-2.7155-.68681-1.11527,0-2.19809,.32317-3.13134,.93425l-.21979,.14426c-1.7563,1.15124-3.46653,2.41267-5.08329,3.74963-.48295,.39931-.89348,.86994-1.22026,1.39887l-.01633,.02645-.02815,.01282c-.5646,.25906-1.08211,.60868-1.53832,1.03924-9.51642,8.98528-15.67832,21.09369-17.35057,34.09447-.08104,.62971-.61829,1.10435-1.24971,1.10435Zm-22.36784-118.05491c-.03085,0-.06261,.0012-.09357,.00401-.48406,.04127-.87725,.40472-.95649,.88396-.91191,5.52377-2.62945,10.87503-5.10462,15.90452-.07143,.14526-.10919,.30714-.10919,.46843l-.0006,8.39604c0,.37747,.20286,.72929,.52954,.91822,13.62218,7.88274,23.4726,21.19767,27.02528,36.53098,3.55288,15.33271,.56209,31.62331-8.20561,44.69481-.11771,.17551-.17992,.37967-.17992,.59084v8.39644c0,.58483,.47584,1.06047,1.06068,1.06047l8.40366,.001c.52723,0,.97703-.3977,1.04485-.92524,1.67837-13.04787,7.8625-25.19975,17.41328-34.21749,.46492-.43898,.99145-.79661,1.56547-1.06348,.33579-.53735,.75554-1.016,1.24761-1.42292,1.62257-1.34177,3.339-2.60781,5.10162-3.76305l.21979-.14426c.96681-.63332,2.08849-.96791,3.24383-.96791,.97903,0,1.95175,.24603,2.81307,.71166,1.91519,1.03483,3.10489,3.02976,3.10489,5.2066v1.80539c0,3.01613-2.2603,5.5446-5.25759,5.8812-.80412,.09036-1.55846,.36024-2.24206,.80202-.22961,.14826-.46993,.2811-.71486,.3953-.14405,.23001-.30584,.4528-.48135,.66237-.55869,.66718-1.22467,1.79277-1.22467,3.36615v4.19822c0,.58483,.47574,1.06047,1.06047,1.06047h4.19822c2.8283,0,5.13618-2.21071,5.25419-5.0327,.13294-3.18022,2.73033-5.67123,5.91305-5.67123h60.28858c.58483,0,1.06057-.47564,1.06057-1.06047,0-4.93092-3.8478-9.07404-8.75989-9.43187-1.99863-.14566-3.77237-1.27866-4.74459-3.03036-.97242-1.7521-.99556-3.85662-.06211-5.62955,.397-.75393,.59836-1.57258,.59836-2.4331v-4.19822c0-.58483-.47574-1.06047-1.06057-1.06047h-4.19832c-2.89963,0-5.2587,2.35897-5.2587,5.2587v4.19822c0,.05209,.00331,.10338,.01002,.15207,.23071,1.69379-.2816,3.40362-1.40569,4.69129-1.12399,1.28768-2.74906,2.02618-4.45838,2.02618h-6.55759c-2.05012,0-3.92444-1.03683-5.01366-2.7737-1.08933-1.73687-1.20683-3.87565-.31416-5.72131,.06882-.14245,.10228-.29232,.10228-.45821,0-2.41367-.91502-4.71413-2.57645-6.47765-1.20333-1.27706-1.77554-3.00912-1.56998-4.7518,.20566-1.74268,1.16526-3.29402,2.63265-4.25592l3.37657-2.21351c.15948-.10458,.28801-.25064,.37176-.42215,6.75634-13.8585,19.04367-24.53477,33.7112-29.29098,.15447-.05009,.31476-.11019,.47644-.17852,.66157-.27969,1.16105-.61629,1.67025-1.12579,.35142-.35102,.61899-.69763,.84199-1.09053,1.96087-3.45411,4.3011-6.72128,6.9558-9.71077,1.12238-1.26383,2.73574-1.98872,4.42653-1.98872,.71947,0,1.42622,.12983,2.10061,.38588,2.28264,.86733,3.81635,3.09066,3.81635,5.53258v24.33121c0,.58483,.47574,1.06047,1.06057,1.06047,1.74068,0,3.44148-.47865,4.9185-1.38385,.93115-.57081,2.00074-.87254,3.09307-.87254,.63683,0,1.26634,.10218,1.87101,.30354,1.66154,.55398,2.98468,1.80539,3.63022,3.43327,.05349,.13504,.13283,.25585,.23592,.35903,1.78616,1.78596,4.16106,2.7697,6.68712,2.7697,2.52607,0,4.90096-.98374,6.68712-2.7699l24.43159-24.43159c1.11808-1.11798,2.6047-1.73366,4.1861-1.73366,.78008,0,1.54163,.15167,2.2635,.4508,2.21932,.91923,3.65336,3.06542,3.65336,5.46767v38.67517c0,.58483,.47574,1.06047,1.06057,1.06047,5.21472,0,9.45722-4.2425,9.45722-9.45712v-34.62121c0-3.26337,2.65489-5.91826,5.91816-5.91826h52.20469c.58483,0,1.06057-.47564,1.06057-1.06047,0-5.21462-4.2424-9.45712-9.45712-9.45712h-29.87732c-2.58527,0-4.85088-1.65473-5.63747-4.11728-.78679-2.46275,.09988-5.12426,2.2064-6.62311,9.63774-6.85752,21.42017-10.634,33.17695-10.634,7.94865,0,15.68483,1.63249,22.99365,4.85178,.13574,.05991,.27849,.09016,.42435,.09016,.15447,0,.54476-.03907,.83257-.40091,.29973-.37667,.30774-.90921,.01943-1.29489l-29.97629-40.1067c-.25365-.3394-.70234-.50129-1.12178-.39009-.42064,.1118-.72699,.46302-.78028,.89518-1.19842,9.72018-4.92741,19.04707-10.78376,26.97208-1.11096,1.50366-2.89061,2.40145-4.76042,2.40145-.62871,0-1.25141-.10018-1.85067-.29753-2.4324-.80122-4.06669-3.06021-4.06669-5.62114v-46.95501c0-.58483-.47584-1.06047-1.06068-1.06047-5.21462,0-9.45702,4.2423-9.45702,9.45692v55.73233c0,2.44813-1.4718,4.60955-3.74963,5.50653-.86904,.3422-1.75881,.66738-2.64458,.96631-.61098,.20657-1.24781,.31115-1.89285,.31115-1.246,0-2.43951-.38388-3.4516-1.11036-1.54483-1.10896-2.46706-2.90634-2.46706-4.8079v-26.61425c0-.58483-.47574-1.06047-1.06047-1.06047h-4.19842c-.75954,0-1.35239,.11981-2.04622,.41333-.0591,.02504-.14335,.06251-.15027,.06572-7.44126,3.36375-15.35434,5.06916-23.52038,5.06916-6.34492,0-12.60388-1.04825-18.60289-3.11591-13.83726-4.76923-25.19394-14.53409-31.97793-27.49621-.77838-1.44275-.92604-3.15057-.41023-4.6949,.51601-1.54473,1.66024-2.82099,3.13935-3.50159,1.8686-.85992,3.07594-2.73764,3.07594-4.78366v-4.19842c0-.58463-.47584-1.06047-1.06068-1.06047h-4.19832c-2.40505,0-4.55656,1.697-5.11584,4.03513-.63963,2.67473-3.00451,4.54283-5.75097,4.54283-.44849,0-.89949-.05169-1.34047-.15387-.07834-.01823-.16149-.02745-.24714-.02745h-65.73351c-.58483,0-1.06057,.47564-1.06057,1.06047,0,5.21462,4.2424,9.45692,9.45712,9.45692h41.88214c2.93589,0,5.45575,2.19268,5.86136,5.10022,.40582,2.90754-1.41751,5.70629-4.2411,6.51011-2.25048,.64053-3.82226,2.72141-3.82226,5.06015v4.19842c0,.15628,.02965,.29813,.09076,.43337,.04608,.10218,.08906,.20536,.12893,.30875,.09897,.05289,.19685,.10859,.29372,.1677,.16399,.09998,.34802,.15067,.54717,.15067h2.97266c3.26327,0,5.91816,2.65489,5.91816,5.91826v3.32047c0,.58483,.47584,1.06047,1.06068,1.06047h4.19822c1.49935,0,2.93369-.64815,3.93536-1.77814,1.12258-1.26644,2.73704-1.99292,4.42943-1.99292,.5651,0,1.12729,.08114,1.67085,.24123,2.19087,.64494,3.83087,2.52026,4.17809,4.77745,1.38305,8.9925,.58914,18.28332-2.29586,26.8681-5.83962,17.37632-19.78428,30.97416-37.30195,36.3739-.17491,.05369-.35863,.12121-.54627,.20055-.35112,.14846-.64694,.30875-.93115,.50429-9.57413,6.60267-20.78064,10.09264-32.40799,10.09264-5.80727-.0002-11.58218-.89318-17.16454-2.65389-2.5463-.80302-4.24571-3.2269-4.13271-5.89462,.113-2.66732,2.01136-4.93893,4.61646-5.52397,2.37871-.53394,4.10526-2.69216,4.10526-5.13187v-4.19822c0-.58483-.47574-1.06047-1.06057-1.06047l-4.469,.00321c-2.3178,0-4.43354-1.36461-5.39023-3.47635-.98224-2.16863-.57472-4.70111,1.03834-6.45181,10.84127-11.7678,26.16145-18.51694,42.03231-18.51694,.86964,0,1.75731,.02064,2.63826,.06131,1.62918,.07533,3.17051,.82987,4.22888,2.07046,1.05847,1.24039,1.56116,2.88129,1.37914,4.50196-.02194,.19514-.03306,.3951-.03306,.59445v.54196c0,3.26337-2.65489,5.91826-5.91816,5.91826h-1.41771c-2.89973,0-5.2589,2.35897-5.2589,5.2587v4.19842c0,.58483,.47584,1.06047,1.06068,1.06047h4.19822c2.89983,0,5.2589-2.35897,5.2589-5.2587v-.54216c0-3.26337,2.65489-5.91826,5.91816-5.91826h1.41781c2.89973,0,5.2588-2.35897,5.2588-5.2587v-4.19822c0-.60507-.47073-.99316-.91372-1.05106-1.8087-.23762-3.38128-1.27285-4.31463-2.84002-.93315-1.56757-1.09393-3.44329-.44088-5.1465,1.4144-3.68952,3.21749-7.24,5.35907-10.55286,.18042-.27889,.18523-.55438,.15748-.7363-.08976-.59064-.08986-1.1893,0-1.77955,.00821-.0547,.01242-.1114,.01242-.1681,0-1.87491-.54997-3.68712-1.59051-5.24046-.24523-.36625-.44929-.75894-.60677-1.16786-.38658-.20636-.75153-.45721-1.08532-.74592-1.71663-1.48482-3.90951-2.30267-6.17462-2.30267h-50.41513c-1.70021,0-3.31947-.73209-4.44275-2.00835-1.12319-1.27646-1.64351-2.97546-1.42762-4.66164,.00621-.04748,.00912-.09437,.00912-.14365,0-5.21462-4.2425-9.45712-9.45712-9.45712-.58473,0-1.06047,.47564-1.06047,1.06047v8.39664c0,.58463,.47574,1.06047,1.06047,1.06047h1.47471c1.70041,0,3.31997,.73229,4.44326,2.00895,1.12329,1.27666,1.64331,2.97606,1.42682,4.66284-.00601,.04648-.00892,.09296-.00892,.14185v8.39644c0,.58483,.47584,1.06047,1.06068,1.06047h41.15636c2.78863,0,5.16323,1.90036,5.77441,4.62137,.61108,2.72081-.72268,5.45404-3.24353,6.64675-7.60885,3.59956-15.79432,5.42459-24.32921,5.42459-14.27434,0-27.9417-5.29476-38.48434-14.90916-.26427-.24083-.56219-.27689-.71627-.27689-.20707,0-.40031,.0573-.57442,.1701-.40441,.26146-.58183,.76375-.43156,1.22136l12.22321,37.20698c.92403,2.81297-.39199,5.90063-3.06121,7.1823-.80673,.38728-1.66735,.58363-2.55812,.58363-2.00945,0-3.86393-1.00418-4.96077-2.68635-2.53228-3.88367-4.58911-8.08169-6.11341-12.47706-.14786-.42655-.54907-.71306-.99836-.71306Zm69.11188,78.21327h-3.2262c-2.59609,0-4.92811-1.73747-5.67083-4.22487-.74281-2.4878,.25475-5.21923,2.42599-6.64274l2.65349-1.73968c.96671-.63392,2.08889-.96891,3.24524-.96891,.80062,0,1.58049,.15908,2.3179,.47304,1.82483,.77697,3.13264,2.40445,3.49838,4.3539,.01653,.08796,.04468,.17331,.08365,.25385,.89278,1.84566,.77557,3.98444-.31365,5.72131-1.08933,1.73707-2.96374,2.7741-5.01396,2.7741Zm-.57231-13.37104c-1.11627,0-2.19949,.32337-3.13284,.93525l-2.65349,1.73968c-2.09581,1.37423-3.05891,4.01109-2.34184,6.41254,.71707,2.40125,2.96815,4.07841,5.47428,4.07841h3.2262c1.9792,0,3.7886-1.00117,4.84006-2.67793,1.05156-1.67676,1.16476-3.74141,.30284-5.52296-.04688-.09677-.08064-.19955-.10058-.30554-.35302-1.88173-1.61556-3.4529-3.37707-4.20283-.71186-.30294-1.46469-.45661-2.23756-.45661Zm88.98391-29.51678c-.78068-.0002-1.54223-.15187-2.2635-.4508-2.21942-.91943-3.65346-3.06562-3.65346-5.46767v-30.40555c0-2.56493,1.6377-4.82493,4.0752-5.62394,.58924-.19314,1.1889-.37867,1.78255-.55178,5.19408-1.51388,10.56979-2.28163,15.97755-2.28163,5.58928,0,11.15402,.82546,16.53954,2.45334,1.9807,.59846,3.52413,2.21712,4.02782,4.22407,.50389,2.00695-.09206,4.16256-1.55525,5.62575l-30.74435,30.74455c-1.11808,1.11798-2.6047,1.73366-4.1861,1.73366Zm15.91834-44.57621c-5.38833,0-10.7447,.76495-15.92024,2.27342-.59135,.1725-1.1889,.35743-1.77594,.54997-2.35306,.77116-3.93395,2.95282-3.93395,5.4288v30.40555c0,2.3189,1.38435,4.39056,3.52683,5.27813,.69623,.28851,1.43143,.43497,2.18496,.43517,1.5266,0,2.96174-.59425,4.04104-1.67356l30.74435-30.74455c1.4124-1.4125,1.98771-3.49338,1.50135-5.4306-.48626-1.93763-1.97619-3.49999-3.88817-4.07781-5.36639-1.62207-10.91109-2.44452-16.48023-2.44452Zm-147.50727,39.32933c-1.20102,0-2.35907-.35924-3.34912-1.03864l-.15798-.10899c-1.64381-1.13781-2.59639-3.01032-2.54831-5.00865,.04819-1.99833,1.08973-3.82276,2.78613-4.88023l.01863-.01162c.96651-.63572,2.0911-.97232,3.25025-.97232,.97643,0,1.94684,.24483,2.80656,.70785,1.91739,1.03303,3.1096,3.02775,3.1113,5.2058l.0002,.14686c.01573,2.21191-1.1882,4.23088-3.14205,5.26831-.85181,.4524-1.8116,.69162-2.77561,.69162Zm-.0004-11.81529c-1.11898,0-2.2045,.32497-3.13935,.93986l-.02074,.01302c-1.6379,1.0208-2.64327,2.78192-2.68976,4.71093-.04638,1.92921,.87314,3.73681,2.45975,4.83515l.15758,.10879c.95559,.65576,2.07357,1.00237,3.23292,1.00237,.93055,0,1.85708-.23081,2.67944-.66758,1.88603-1.00157,3.04829-2.95062,3.03306-5.08619l-.0002-.14766c-.0017-2.10252-1.15254-4.02812-3.00351-5.02528-.82987-.44719-1.76672-.68341-2.70919-.68341Zm89.9408-64.97346h-.43457c-3.26337,0-5.91826-2.65489-5.91826-5.91826v-.71066c0-2.62805,1.76482-4.96798,4.29159-5.69026,.53014-.15167,1.0774-.2284,1.62668-.2284,2.05784,0,3.93606,1.04324,5.02408,2.79053,.16399,.26367,.32558,.52773,.48506,.7934,1.09514,1.82503,1.12409,4.10906,.07553,5.96094-1.04845,1.85207-3.02184,3.00271-5.1501,3.00271Zm-.43457-12.34242c-.53014,0-1.05847,.07413-1.57028,.22039-2.43921,.69743-4.14282,2.95623-4.14282,5.49311v.71066c0,3.15017,2.56293,5.7131,5.7131,5.7131h.43457c2.05443,0,3.9595-1.11076,4.97159-2.89852,1.01219-1.78776,.98434-3.99266-.07293-5.75417-.15888-.26487-.31987-.52813-.48325-.7908-1.05036-1.68678-2.86346-2.69376-4.84997-2.69376Z"/>
</svg>