<?xml version="1.0" encoding="UTF-8"?>
<svg id="Capa_2" data-name="Capa 2" xmlns="http://www.w3.org/2000/svg" width="210mm" height="209.99999mm" viewBox="0 0 595.27559 595.27557">
  <defs>
    <style>
      .cls-1, .cls-2 {
        fill: #fff;
      }

      .cls-2 {
        fill-rule: evenodd;
      }
    </style>
  </defs>
  <g>
    <path class="cls-2" d="M196.03437,186.8101c-1.17111-.03165-2.50361,.1078-3.44681-.16628,1.36273-3.49385-.2768-8.18087-3.28955-8.81136-2.15863-.45179-6.15291,.4576-8.30369,1.82873-3.0475,1.94284-4.47203,10.16017-.78292,12.46913,1.75994,1.10132,3.37102,.753,6.10976,1.16381,.22605,.53542,.14792,1.39444,.15663,2.16104-3.74709,2.26606-14.47681-.37125-11.43716-11.97018,.49531-1.89092,2.27694-3.76496,3.44681-5.15389,1.41279-1.67723,2.94482-2.81693,4.54355-3.82349,12.75619-3.88531,14.42254,7.36623,13.00338,12.30248Z"/>
    <path class="cls-2" d="M202.30132,174.50762c2.16827,.36915,3.4444-.38967,4.85632,.16572,3.05683,1.20244,.93109,9.74547,5.01321,6.8169-.20429-1.44543-1.41372-1.82422-2.19269-2.66055,.34288-1.63075,1.46348-2.4366,1.87973-3.98977,1.44902,.95618,2.64244,2.18335,4.22973,2.99254-.73495,1.00087-.78236,2.52623,.62715,2.82627,2.3249-1.12728,.13735-4.02296,0-5.9854,1.87886,.11194,4.28344-.33323,5.48317,.4992,.65046,1.9196-2.89809,6.24285-.15694,6.81604,3.02184,.63228,.97763-5.51729,2.5075-7.31524,1.10138-.14551,3.1281,.09748,4.38636,.33261,.85116,1.70919-1.13031,2.36174-1.7231,3.65777-.68025,1.48586-.33712,3.48723-.94017,5.15358-.41377,1.1436-1.20059,1.66635-1.41007,2.82652-7.61614,.03047-17.09934,.7959-23.97027-.49889-.916-2.02041-.9746-4.95077-1.87973-6.98262-.50075-.35555-1.32619-.36643-2.19392-.33261-.12863-1.74695-1.4382-2.24189-1.56677-3.98977,3.52284-.71381,6.29051,.72741,7.83342,2.65993-.11225,3.05658,.61183,5.22485,3.13416,5.4862-.55477-1.73966-2.48852-3.45521-2.35062-6.48367-.37996-.81556-1.62079-.71864-1.56646-1.99476Z"/>
    <path class="cls-2" d="M282.98517,186.47755c-4.92963,1.11127-6.94819-2.25431-9.87009-3.8238-1.51936,.87892-3.57748,3.58533-6.58004,3.8238-3.64597,.28941-7.32272-2.238-5.48317-6.3177-7.6617-1.94921-14.48101,1.77922-19.42697,4.82159-.169-.80103,.78323-1.07962,1.25375-1.49643,1.63198-1.44753,3.52073-2.90805,5.63986-4.15611,3.13138-1.84499,6.43237-4.25322,10.49668-4.65556,3.45194-.34139,8.14464-.14878,11.59325-.16572,5.054-.02534,10.40588,3.45645,12.53366,6.98262,.8901,1.47498,1.27372,3.58922-.15694,4.98731Z"/>
    <path class="cls-2" d="M312.59586,185.31374c-1.32317-.90611-1.84561-2.91806-1.56702-4.98761,.06398-.47417,.69267-3.74376,1.09681-4.32239,.73551-1.05273,4.94712-2.41243,5.17045-.16628,.15756,1.5897-2.64423,3.01424-3.44674,4.32239-1.02319,1.66691-1.11374,2.83616-1.2535,5.15389Z"/>
    <path class="cls-2" d="M371.18978,175.00595c1.70016,3.05473-2.41663,5.3214-4.23059,3.15882-.46421,.27711-.81192,1.33497-1.56616,1.49643-2.21957,.47627-2.97326-2.63063-4.85688-3.32516-3.47518-1.28064-5.15933,2.3521-7.5199,3.99008-2.59626-1.56708-5.48916-3.70667-7.20651-5.65278,8.30183-.02565,17.58797-.61992,25.38004,.33261Z"/>
    <path class="cls-2" d="M394.69015,174.12129c.32866,.58129-.48412,1.10466-.78385,1.66246-1.26642,2.356-2.94427,5.96277-1.19039,9.11374-.7331,.38516-3.03693,.1452-3.29679-.10323-1.26191-3.91492-.40803-8.64564,2.1378-10.67297h3.13323Z"/>
    <path class="cls-2" d="M233.94813,175.33857c-.00964,.93232-.1944,1.67748-.6266,2.16129-.38151,.32149-1.3108,.15997-1.72309,0-.45575-.51793-.87644-1.56825-.4699-2.4939,.68149-.72951,2.37955-.23847,2.81959,.33261Z"/>
    <path class="cls-2" d="M285.33517,175.00595c1.59391,2.28961,3.0674,7.55878,.78323,10.14175-.74911-2.54162-1.10528-4.5294-2.50632-6.15143-1.07115-1.23984-1.72489-1.34733-3.00583-3.43834-1.00656-2.3092,3.61735-1.99167,4.72893-.55199Z"/>
    <path class="cls-2" d="M294.26546,176.00374c-.1075,5.31689-3.69462,6.94096-6.26702,9.64255,.79077-2.54224,1.68928-6.40912,1.88066-10.14144,1.13272-1.18705,3.77905-1.04278,4.38637,.49889Z"/>
    <path class="cls-2" d="M387.01331,185.31374c-6.85943,.19131-14.62349,1.18705-22.24718,.8312-2.54736-.11862-5.50307,.14909-7.04963-1.49581,1.13606-2.07234,4.67404-1.63649,7.67653-1.49643,3.54305,.16535,7.24582,.81401,9.08692-1.16412,.00574-1.7234-1.47288-1.8725-2.19393-2.82627,1.19787-.77903,2.3958-1.55892,3.76063-2.16104,.59884,.58339,.93263,1.44846,1.09656,2.49365,1.40161-.14489,2.70518,.47021,3.91671,0,.75603-1.24955-.02356-3.14108,0-4.655,2.12846,.34529,4.11561-.99086,5.32684,.33261,1.02436,1.11943,.48288,4.04559,.62653,6.3177,.09513,1.50638,.60638,2.90953,0,3.82349Z"/>
    <path class="cls-2" d="M182.06276,173.7069c-1.77557,1.6627-4.99479,2.9787-7.55754,7.97107-.48202-4.49231,.39721-9.04161,7.55754-7.97107Z"/>
    <path class="cls-2" d="M252.43523,174.83993c-2.92102,2.22081-6.35244,3.89891-9.24355,6.15143,.03925-1.78769,1.3775-3.63577,1.41007-5.9854,2.70734,.04679,5.30842-.01935,7.83348-.16603Z"/>
    <path class="cls-2" d="M409.88708,193.46017c-.32081-.54661-.08512-1.6836-.15694-2.49396,5.43248,.08357,8.78026-3.99638,7.04994-8.64508-2.84197-7.63543-14.83749-6.90171-14.31987,3.09126-1.97362-.12041-1.40797,.02238-2.93191-.1808-.30993-5.96784,2.80816-9.65825,7.22499-10.39166,2.54527-.42286,6.50512,.0429,8.3037,1.16381,2.46676,1.53747,4.50559,4.73801,4.5433,7.64724,.07244,5.6555-4.07822,8.99364-9.71321,9.8092Z"/>
    <path class="cls-2" d="M238.17841,175.67143c.21733,.5264,.21733,1.46775,0,1.99507-.84566,.36068-2.13928,.15874-2.66351-.33261-.41353-2.04001,1.58668-2.65876,2.66351-1.66246Z"/>
    <path class="cls-2" d="M242.40814,179.16231c-.72222-.00909-1.5311,.07362-2.03698-.16603-2.74022-4.21669,4.9203-3.3743,2.03698,.16603Z"/>
    <path class="cls-2" d="M379.96343,178.33111c-1.12975,.35252-1.93047-.00816-2.19368-.49864-1.44265-2.68923,4.10419-1.99655,2.19368,.49864Z"/>
    <path class="cls-2" d="M230.96405,177.91548c1.48462,.60453,1.37052,4.32993-2.30772,2.6684-.42076-.19347-1.01447-3.13168,2.30772-2.6684Z"/>
    <path class="cls-2" d="M360.06619,179.3289c-1.23743,.5798-3.20444,.26833-4.70025,.16603,.79831-.73854,4.48866-2.37806,4.70025-.16603Z"/>
    <path class="cls-2" d="M236.29838,181.82255c-1.40797,.73279-3.69152-.33836-3.60344-1.82904,.163-2.75197,5.91845-1.31773,3.60344,1.82904Z"/>
    <path class="cls-2" d="M409.73014,188.97114c-.0314-3.22465-2.67111-4.08484-5.3211-3.40422-1.12852-4.7479,2.25036-7.33996,6.26065-6.57064,5.06939,.97219,6.48708,11.40941-.93955,9.97486Z"/>
    <path class="cls-2" d="M191.17805,184.81509c-2.19361-2.32008-6.65149-4.40806-9.96608-1.85741,.14303,4.2267,.99964,7.65904,4.01239,8.84004-4.74852,1.32681-7.04815-4.0145-5.48379-7.98041,1.28305-3.24975,6.42241-4.96981,9.24386-2.65968,1.08865,.89128,1.56825,2.2006,2.19361,3.65746Z"/>
    <path class="cls-2" d="M240.84168,180.4924c.53091,1.66097-.20942,3.00163-1.40976,2.99261-2.47555-.01904-1.37571-4.74315,1.40976-2.99261Z"/>
    <path class="cls-2" d="M371.34672,181.15763c-3.36497,1.75783-10.72094,1.43004-14.72758,.49864,.53628-1.07659,1.95365-.61726,2.97746-.66492,3.72144-.17357,8.52306-.85054,11.75012,.16628Z"/>
    <path class="cls-2" d="M227.99469,183.65097c-.08809-2.26185,3.21773-3.15944,3.29017-.99723,.04587,1.37058-2.23138,2.76773-3.29017,.99723Z"/>
    <path class="cls-2" d="M259.17129,181.65627c-.37279,1.52721,.50977,3.10028,.94042,4.32263-4.48594,.50433-9.01144,.17777-13.62991,0,3.03693-2.70703,7.06261-4.36491,12.68949-4.32263Z"/>
    <path class="cls-2" d="M339.2294,181.65627c5.56532-.14279,9.11653,1.85253,12.53342,3.99002-4.0441,.94203-9.16387,.62839-13.62991,.33261,.46149-1.33825,1.16023-2.42603,1.0965-4.32263Z"/>
    <path class="cls-2" d="M233.94813,183.31867c.88794-.07152,2.30889-.08573,2.35025,1.33046,.0649,2.25938-4.67459,1.94068-4.23028-.33292,.14334-.73465,.4853-.88497,1.88004-.99754Z"/>
    <path class="cls-2" d="M188.82749,186.64383c-1.92077,.11287-2.81811,.80554-2.19306,4.15605-1.63946-1.08624-2.63125-2.86002-3.9164-4.32232,.03801-.90154,.25108-1.61777,.15601-2.66024,2.88511-.63414,5.45993,.38089,5.95344,2.82652Z"/>
    <path class="cls-2" d="M275.15206,186.14493c-1.50279-.04259-2.61833,.32532-4.07371,.33261,.10174-2.0575,3.90861-2.94278,4.07371-.33261Z"/>
    <path class="cls-2" d="M327.16564,186.47755c-1.4599-.05798-2.7592-.28613-4.07303-.49864,.32446-2.3759,3.97555-1.53475,4.07303,.49864Z"/>
    <path class="cls-2" d="M420.69647,188.80517c.36371,.7781,.05433,2.27057,.15694,3.32516-3.33449,2.11394-5.97056,4.96913-11.12328,5.15358,.34016-.74188-.1554-1.4581,0-2.49396,5.82091,.30276,7.72574-3.55028,10.96634-5.98478Z"/>
    <path class="cls-2" d="M409.88708,201.77258c-.32081-.54599-.08512-1.68353-.15694-2.49365,4.8397-.23934,7.66899-2.61283,10.49674-4.98755,.25319-.04679,.26981,.15694,.46959,.16597,.10929,1.27971-.15663,2.16166-.15663,3.32516-2.53408,2.40946-5.3682,4.49985-10.65276,3.99008Z"/>
    <path class="cls-2" d="M420.22688,199.94384c.6036,.52306,.19255,2.12333,.31296,3.15857-2.98136,1.33676-6.39706,3.75946-10.8097,2.4939v-2.16129c4.79321,.20973,7.87539-1.39623,10.49674-3.49119Z"/>
    <path class="cls-2" d="M175.04063,205.43035c2.15288,.37545,3.10665,2.024,5.01382,2.65993-1.647,.91211-3.48,1.62772-4.85688,2.82627-.36463-1.49735-.05285-3.71242-.15694-5.4862Z"/>
    <path class="cls-2" d="M419.44334,205.76297c.36402,.99902,.05372,2.71395,.15694,3.98977-1.20424-.71715-2.29295-1.55682-3.76069-1.99476,1.12852-.7425,2.66691-1.04971,3.60375-1.99501Z"/>
    <path class="cls-2" d="M410.19979,207.25877c1.2773-.10929,2.07895,.30783,3.13348,0-1.07357,1.07721-2.51955,1.75993-3.13348,3.32516-.74701-.78719-.03746-2.32707,0-3.32516Z"/>
    <path class="cls-2" d="M182.71804,209.08782c.94017-.10898,2.09644,.98697,3.60313,.83151-.14489,1.50817,.47083,3.01338,0,4.32208-1.41675-1.4895-2.60108-3.22465-3.60313-5.15358Z"/>
    <path class="cls-2" d="M185.3813,229.37046c-.87978-.68155-.31574-1.93351-.47052-2.99254-.33144-2.26971-2.75957-6.41129-4.38636-7.31493-1.94735-1.08172-4.72503-.49166-5.48379-2.49396-1.389-3.66711,1.86644-6.9778,5.64042-6.15143,5.53596,1.21301,7.19872,12.07106,4.70025,18.95286Z"/>
    <path class="cls-2" d="M412.86337,215.73782c.6525,.85895-.23124,3.34871,.94017,3.65746,1.02072-1.07814-.2747-4.61334,2.34994-3.98977,.78292,.66548,.18927,2.79153,.94017,3.49144,.87472-.5128,.30455-2.55849,1.0965-3.15913,2.02041-.14792,2.1496,2.87998,1.72309,5.1542-.24416,1.30233-3.35619,7.82587-4.5433,7.8132-.75603-.00754-2.24398-3.31552-2.66351-3.98977-1.03073-1.6564-1.82546-2.61104-2.81934-3.82343,.42651-1.79344-.40803-4.16965,.46966-5.65284,1.07115-.08357,1.91625,.07183,2.50663,.49864Z"/>
    <path class="cls-2" d="M177.54782,221.55664c-.58945,.55322-2.50719,.12159-1.88059-1.49643,.89641-2.31501,4.64863-1.10138,1.88059,1.49643Z"/>
    <path class="cls-2" d="M181.15096,221.7226c.11862,2.2872-1.00897,3.2521-3.13317,3.15888-.75665-2.21148,1.32075-4.18145,3.13317-3.15888Z"/>
    <path class="cls-2" d="M176.76435,222.72076c1.15083,2.78424-.51101,7.60285,.93986,10.14114,1.85952-.14303,3.93933,.36216,3.44674,2.16135-.3205,.98938-2.35025,.16572-3.13317,.66461-.57468,.37452-.61782,2.05812-.31358,2.82652,4.63114-2.79969,7.83342,5.29544,4.69994,8.81167-.48894-1.27038,.30993-2.0907,.15694-3.15913-.45123-3.15678-5.44151-2.26427-3.44681,1.16381,1.25375,.05582,1.18378-1.29331,2.19361-1.49612-.33169,1.86495-1.24015,3.11747-1.88004,4.65463,.82823,3.25698,4.1932,.57529,5.17021-.83058,.09476,2.31829-1.0808,4.72652-2.97746,5.48589-.3009,1.82663,.2496,4.23121,0,5.98478-.51824,.27859-1.11671-.91267-1.88004-1.32978-1.22933-.67215-2.80661-.61485-4.07334-1.16387-1.17685-10.5109-.40537-23.63883-.46965-34.41386,.71499-.03832,1.09471,.27952,1.56677,.49895Z"/>
    <path class="cls-2" d="M409.88708,223.55165c2.81632,1.38924,3.40669,5.13998,5.48286,7.31524,1.456-.26233,1.44061-2.91651,3.13323-2.49396,2.05781,.51342,.38237,4.61964-.93955,5.32017,1.15386,.82396,3.96109,5.57286,1.25313,5.98509-1.39227,.21189-1.44815-1.33763-2.50663-1.82867-2.91194,1.67537-2.59892,6.7737-5.79674,8.14582-1.68718-1.89728-.24781-6.19612-.62629-9.30969,.48356-.92719,1.63229-1.14929,2.19275-1.99501-.44097-1.19398-1.65491-1.56856-2.34969-2.49396,.05161-2.88208-.13463-6.0168,.15694-8.64502Z"/>
    <path class="cls-2" d="M183.34432,224.88149c-.38788,2.50058-2.58483,4.565-5.32653,3.49144,.61392-2.39617,2.29863-3.65685,5.32653-3.49144Z"/>
    <path class="cls-2" d="M183.65759,228.37292c-.08419,2.53618-2.18156,4.26169-4.54331,3.32516,.42193-2.26816,1.84925-3.46819,4.54331-3.32516Z"/>
    <path class="cls-2" d="M186.16422,230.36824c-.17716,2.0023-1.47016,3.60857-3.60313,2.99254,.47868-1.76445,1.19639-3.27441,3.60313-2.99254Z"/>
    <path class="cls-2" d="M184.59807,236.18705c-.73644-1.57579,.62963-3.16883,1.87973-2.16166,.50433,1.40618-.48505,2.7707-1.87973,2.16166Z"/>
    <path class="cls-2" d="M181.46459,237.01825v-.49889c1.93734-.21789,4.88556,1.57882,5.32623,3.65746,.21937,1.03376-.02176,3.33542-.93962,3.49144-1.40433,.23816-1.60083-2.39587-2.03698-3.49144-.66579-1.6742-1.49099-2.13415-2.34963-3.15857Z"/>
    <path class="cls-2" d="M414.90004,251.48208c-1.18044,.46514-.731,2.65999-1.56677,3.49088-.47052,.22185-1.19849,.16931-1.88004,.16659-1.36755-1.19126-1.72037-4.29581-1.09649-6.3177,.39083-1.2658,2.06232-2.48852,2.97653-4.32232,1.04402-2.09403,2.49755-5.58763,2.50632-5.48651,2.71068,.64378,3.88172,8.13222,3.44712,12.80168-.41112,4.4211-3.84735,3.2147-4.38667-.33261Z"/>
    <path class="cls-2" d="M186.00821,246.49453c.18136-.0272,.27822,.03684,.31296,.16597,1.22389,2.75055-.12134,12.05925-3.91702,9.64317,.47837-4.03712,3.69999-5.16261,3.60406-9.80914Z"/>
    <path class="cls-2" d="M418.97369,256.96828c-.55984,2.62043-2.32942,3.95627-5.48348,3.8238-.10168-3.19084,2.71099-4.75489,5.48348-3.8238Z"/>
    <path class="cls-2" d="M185.8512,265.28105c-.08054,.69478,.71894,.45606,.93962,.83089-.05223,1.99476,.1358,4.24543-.15639,5.98571-.71017,.07758-1.45025,.12313-1.72365,.66399-.01329,.9568,.81939,1.01565,1.25344,1.49674,.02473,2.46466-.73434,4.09658-1.56615,5.65247-3.83734,.30338-4.66402-2.58779-7.05025-3.82312,.21431-.64681,.6091-1.96515,0-2.49365-1.05001-.06126-1.53778,.47417-2.35025,.6643-.38757-2.0439,.14334-4.03533,0-6.31739,.64075,.30393,1.81303,.78984,2.66358,.33231-.29336-1.51726-1.20461-2.37924-2.50694-2.82596-.18562-3.72416-.11256-7.17641,2.82021-6.81659,1.77564,.21789,2.11727,2.44445,3.76007,3.15913,1.39017-1.40649,1.82484-3.82708,3.60313-4.82159,2.12061,1.42584,1.07177,6.15446,.31358,8.31277Z"/>
    <path class="cls-2" d="M411.61017,259.12931c2.34573,4.09961,.78898,11.43568,.6263,16.79176,1.44419-.74002,3.05503-2.74233,5.1702-3.32485,.31358,.28613-1.50428,2.59058,0,3.32485,1.08896,.15756,1.26852-.64947,1.41007-1.49643,2.2715,2.2851,.35524,6.842-.94017,8.81197,.52758,.75634,1.33163-.83212,1.41014,0-.73885,2.6509-3.58261,3.0695-3.76007,6.31678-1.27489-.14334-1.85383-1.02554-2.82021-1.49643-.75609,.57381-.2318,1.81248-.15608,2.82627,4.3073-2.23769,6.84015,1.93771,7.20627,6.98262,.29366,4.04528,.4817,11.96387-1.25345,13.63294-.91545,.88219-2.31464,.84597-3.13323,1.66209-1.71548,1.71073-1.95186,4.07699-3.29011,5.98571-.73193,.16541-1.3872,.41174-2.34969,.332-.42311-12.3604,1.32743-26.37096,.78323-39.06849-.20615-4.81769-1.08927-9.68304-.78323-13.96556,.18531-2.5975,1.29362-4.99843,1.88004-7.31524Z"/>
    <path class="cls-2" d="M418.50317,260.95836c-.14847,2.77917-2.21957,3.51832-4.69963,3.82374,.10409-2.72242,2.21865-4.17595,4.69963-3.82374Z"/>
    <path class="cls-2" d="M418.6598,265.44733c-.42496,2.26396-2.08254,3.22014-4.5433,3.32516,.15361-2.35025,2.56579-4.52186,4.5433-3.32516Z"/>
    <path class="cls-2" d="M414.27344,272.42995c-.90784-2.43147,3.87962-5.18047,4.38636-3.15913,.47176,1.88183-2.85946,3.33418-4.38636,3.15913Z"/>
    <path class="cls-2" d="M182.56109,282.57084c2.10942,.40834,3.21408-1.13185,4.07334-1.49643-.25108,5.81121-11.58688,5.30781-11.5938,0-.00179-1.74936,1.32799-2.94278,3.29011-2.49365,1.81699,.41649,2.94278,3.16611,4.23035,3.99008Z"/>
    <path class="cls-2" d="M185.53763,284.73305c.99574,3.29889-1.86495,6.19636-5.17015,5.4862-.99636-.69298-.71202-3.07074,.15694-3.65839,2.17884,.43825,4.37122-.12647,5.01321-1.82781Z"/>
    <path class="cls-2" d="M178.48744,293.04552c1.63526,3.63991,3.33239,7.21467,5.17015,10.63916,1.09137,.22815,2.05447,.59093,2.97684,.99778,.09328,6.93886-.19403,14.28185,.15639,20.94725-3.56876,1.06726-7.11818-1.20486-7.36296-5.15266-.15181-2.44352,1.14242-4.41504,.6266-6.48435-.52337-2.09793-2.51535-2.74807-2.03667-5.65278,.27735-1.68051,1.89512-2.8866,2.50663-3.99008-.79287-4.0637-4.50467-6.00771-5.17021-10.30716-.33713-2.1776,.45154-5.48768,.15694-8.14644,2.76501-.94166,3.69035,4.37882,2.97629,7.14927Z"/>
    <path class="cls-2" d="M419.44334,285.72997c.84356,1.54291,.32538,4.53094,.4699,6.81604-.8019-1.14304-1.99952-1.86737-2.66351-3.15888,.95192-.98486,1.49884-2.39889,2.19361-3.65716Z"/>
    <path class="cls-2" d="M185.8512,289.2211c.64168,3.29017-2.1598,5.93953-5.32678,4.65531-1.2867-4.15456,4.6435-2.0418,5.32678-4.65531Z"/>
    <path class="cls-2" d="M182.40415,295.53911c1.51485,.3124,2.8573-.94376,3.60406-1.99563,1.5936,2.80303-4.73678,8.50891-3.60406,1.99563Z"/>
    <path class="cls-2" d="M175.51115,298.53165c2.10096,.98369,2.79851,3.45799,4.22942,5.15303-2.58718,1.68774-2.84679,5.84564-4.543,8.4793-.51311-4.53515,.41619-8.97973,.31358-13.63232Z"/>
    <path class="cls-2" d="M186.00821,298.69737c.87583,.9139,.29065,2.72304-.31395,3.4915-2.01949,.06095-2.13477-3.94273,.31395-3.4915Z"/>
    <path class="cls-2" d="M176.6074,312.99431c3.58471-1.23113,3.49805,4.98366,.31327,4.65648-1.98085-.20404-2.16617-4.01901-.31327-4.65648Z"/>
    <path class="cls-2" d="M419.75662,316.65239c-.62117,2.35902-2.44353,3.81503-3.60314,5.81906-3.17934,5.49559-2.3738,12.20204,1.56677,16.62549,.55836,.6266,1.76204,1.287,1.56646,1.99445-5.8695-1.30994-9.44642-6.24167-8.92997-13.46605,.38057-5.31924,3.42924-12.86356,9.39988-10.97295Z"/>
    <path class="cls-2" d="M175.04063,318.31602c.93022-.0314,1.85043,.40803,2.66358,0-.58073,3.02184,.00513,6.18487,2.19331,6.81629-2.32583,.91149-3.3306,4.1108-5.01321,5.15389,.03591-4.00819-.11139-8.20948,.15632-11.97018Z"/>
    <path class="cls-2" d="M420.22688,322.97009c.20856,4.25204,1.36359,10.28602-1.09656,12.80199-4.8973-2.11517-4.31688-10.59991-.31358-13.30064,.31302-.21128,1.01868,.45877,1.41014,.49864Z"/>
    <path class="cls-2" d="M183.34432,329.2878c1.33374-.03016,2.40372,.22092,3.13348,.83058,.62085,2.64033-2.05089,2.72242-2.19361,4.98731-.14582,2.32039,1.98957,4.69512,2.50663,6.98534,1.37268,6.06779-1.0277,13.28852,.15663,19.78251-2.30111-1.9039-3.09398-4.50195-2.97629-8.14557,.10657-3.31273,2.21327-7.98974,.15694-10.30772-1.68805-1.90272-6.46797,.81006-7.5207-2.16227,.15237-.67005,.60787-1.01775,.94042-1.49704-.25349-1.00446-1.31377-1.15534-1.56671-2.1598,.4207-.88374,.74942-1.86403,1.09619-2.82627-.49166-1.05273-1.66301-.77989-1.72309-1.9968-.06008-1.21332,1.18402-1.8665,2.66358-1.99322,.12709-.91032-.52337-.99723-.46996-1.82904,1.46447-1.42219,5.21397-2.68861,5.7965,.332Z"/>
    <path class="cls-2" d="M412.39341,340.09416c.45847,.40327,.54055-.65676,1.41014-.33323,1.42998,4.12409,8.86625,8.69972,4.38661,14.29786-1.17951-.05433-1.20244-1.51633-2.35056-1.32922-1.51299,.24509-2.19423,6.4095-1.56615,8.47874,.81191,2.67532,3.54187,3.67737,4.5433,5.48589,1.41131,2.55102,1.25344,6.65211,1.25344,9.64255,0,3.52166,.01786,6.88273-.15694,9.97455-.67815,.38874-1.30475,.83305-2.50657,.66647-2.29746-1.20003-.71535-5.54745-1.56708-8.14798-1.67513,.99358-.02292,5.5197-1.25313,6.98293-4.16667-.53122-.70751-7.18209-2.19306-9.97338-2.01825,1.68057,.21128,8.75764-1.88004,9.8092-1.34672-1.61294-.78323-4.12409-.78323-6.15235,0-5.2565-.2182-9.85983,0-15.12844,.26382-6.37686,1.03617-14.0189,.78323-20.11569-.09476-2.29746-.5013-4.4742,.31327-5.98694,.03894-.17988,1.30116,.94654,1.56677,1.82904Z"/>
    <path class="cls-2" d="M178.80133,343.75225c.57103,.33558,.84721,.98511,1.25313,1.49581,.80282,.02052,.47565-1.15775,1.41014-.99599,.33861,.41526,.26345,1.27124,.78292,1.49581,.58005,.1159,.27012-.71109,.62653-.83182,1.7548,1.40043,.21795,5.06816,.15694,7.14828-1.46503,.67728-1.80549,2.82627-1.5664,4.48872,.43461,3.02419,4.27497,5.15266,5.16984,7.48152,.05705,2.54496,.24237,4.95102,.15639,7.6481-.60731-3.03631-2.07172-6.20298-3.91677-8.31209-1.14811-1.31476-3.19807-1.5405-4.38661-2.8275-1.4343-1.55255-.90309-5.02952-1.72309-7.6481-.16454-.52275-.67642-1.06003-.78323-1.49581-.65886-2.66691,.13883-5.18653,.62629-7.48034,.95464-.07121,.90482,.92355,1.56702,1.16264,.4419-.1944,.47627-.82341,.62691-1.32922Z"/>
    <path class="cls-2" d="M419.28671,365.69697c-.32841-1.37509-3.15709-2.36385-3.76007-4.15667-.69026-2.05113,.24113-5.40621,2.03698-5.48589,3.02271-.13518,3.38703,7.3922,1.72309,9.64255Z"/>
    <path class="cls-2" d="M175.98112,357.05165c.13308-.02899,.14786,.06521,.15694,.16659,.57103,1.68415,.9827,2.78399,1.72309,3.82349,1.04124,1.462,2.46343,1.87608,3.75946,3.15944,.80981,.80041,2.33516,3.03872,2.97746,4.15549,2.5682,4.47173,2.44142,10.67353-.46996,14.6298-.99506,1.35216-4.32294,2.81057-2.5075,5.65254,1.24411,.37304,2.13359-.31271,3.29017-.49741,.08567,6.56879-7.58474,4.16631-7.20657-1.49704,.19916-2.9808,2.09403-4.25445,2.35025-7.31493,.32143-3.84037-.53604-6.9974-1.56702-9.80914-1.22062-3.33091-3.9457-7.52256-2.50632-12.46882Z"/>
    <path class="cls-2" d="M176.13806,366.6942c1.41434,1.43665,2.2872,5.44967,2.50632,8.64533,.27735,4.04682-.7721,8.2216-2.97715,9.97579-1.78954-5.44843,.36581-18.62111,.47083-18.62111Z"/>
    <path class="cls-2" d="M184.91078,386.3113c-2.15535-3.05077,3.07673-3.98761,1.41038-.332-.52244,.05557-.69509,.48171-1.41038,.332Z"/>
    <path class="cls-2" d="M182.40415,387.64176c-1.31173-4.05529,4.28647-.7425,0,0h0Z"/>
    <path class="cls-2" d="M409.88708,391.63184c-.07028-1.68057,1.389-4.88229,7.20657-2.49303,4.47055,1.83504,3.72058,14.8773-2.03666,15.29503-3.90404,.28372-7.55941-7.16281-3.75977-9.14397,.58067-.30301,3.43352,.26561,2.97623-1.82904-.36308-1.66363-3.55782-.3404-4.38636-1.82898Z"/>
    <path class="cls-2" d="M186.32116,396.28832c.89097,1.66845,.31902,4.76756,.31327,6.9817-1.17469-1.30264-1.95761-3.02061-3.60344-3.82349,1.4267-.70263,2.64219-1.62982,3.29017-3.1582Z"/>
    <path class="cls-2" d="M176.76435,397.78413c2.74715,1.17587,6.28568,2.62946,7.98949,5.48589,2.59262,4.34377-.2747,10.00595-5.95251,8.47874-1.35642-.36463-2.57364-1.98963-2.50663-3.65808,.07183-1.81093,1.79585-1.93647,2.34969-3.49026,1.034-2.9023-.86835-4.72769-1.88004-6.81629Z"/>
    <path class="cls-2" d="M177.39119,400.11058c.58827,1.65393,.46545,5.68146-1.41007,5.32048-1.61294-.3103-1.43758-5.98694,1.41007-5.32048Z"/>
    <path class="cls-2" d="M419.28671,403.7686c.51459,5.02835-7.86605,13.30064-7.83348,1.82904,3.10758,.49617,5.47958,.89338,7.83348-1.82904Z"/>
    <path class="cls-2" d="M302.87821,410.46299c2.43808-.76901,5.25798-1.05273,8.15064-.37669-12.06259,3.80174-11.48909,10.28726-13.00331,11.30501-1.89394-6.02558-6.42848-9.97937-12.37648-11.70098,2.34938-.73038,7.07893,.72797,7.46433,.29701,2.06684-2.30593,7.96835-1.78923,9.76482,.47565Z"/>
    <path class="cls-2" d="M212.99334,415.55532c4.19258-.25356,1.73818-2.423,2.60862-6.47347,2.1182-.0314,3.04595-.06157,5.18591,.17388-.64743,1.59242-1.94284,3.21742-1.72309,5.6513,.20398,2.26,1.80728,3.55424,2.50657,5.15383-.77897,1.47893-2.43203,1.26525-3.75976,1.33046-9.01534,.43461-19.04305-.4262-28.20056,0-4.85088,.22574-14.9987,1.98716-13.78686-7.98016,1.22445-.35734,2.86756-.75214,3.9164,0v2.99168c.57888,.68816,2.40186,.85351,3.44712,.49982,.93925-.86445,.50495-2.92282,.31296-4.32331,.62419-.46236,1.99291-.39115,2.82052-.16535,.98029,2.2286-.60515,5.07539,2.89717,4.67577-.21789-2.65121-.07003-4.33054,.3927-7.17004,1.18038-.57826,3.07191-.61331,4.23028,0,.44369,1.02498,.28823,2.68744,.31302,4.15667,.24991,.73162,1.54408,.35734,2.03698,.83064,.44549-1.52239-.22908-4.23276,.62629-5.3193,.77594-.82823,2.79363-.41891,3.29011,.332,.6402,.96824-1.01231,4.27621-.33564,5.35794,.58463,.93442,1.21215,.3477,1.90272,.46119,.34226-1.69262,.13487-4.17966,.31296-6.15112,.96885-.49376,2.7707-.41649,3.76007,0,.57739,.99358,.59792,3.97679,.49803,5.68993,.31265,.3561,1.81785,.39962,2.23014,.12313,1.09891-1.22661,.43492-4.10233,.40562-5.48107-.03467-1.6033,4.66588-1.64676,4.69938-.66399,.11769,3.41541,.0217,4.68906-.58765,6.29959Z"/>
    <path class="cls-2" d="M236.92528,408.9225c7.61645-1.66239,7.54129,12.82499,.15602,11.97024,1.33676-1.35821,2.82021-3.38042,2.82021-6.15112,0-2.51479-1.10676-4.97519-2.97623-5.81912Z"/>
    <path class="cls-2" d="M341.10944,408.75708c.17753,.03023,.08666,.16541,0,.16541-2.71031,6.14024-11.8573,4.74098-20.2102,5.15389-6.69377,.32959-10.89327,3.65926-14.25676,6.31653,2.03667-5.44608,9.17593-7.5238,16.37892-7.89566,3.56475-.18352,7.27054,.31512,10.25431-.24991,3.12322-.59155,5.3902-2.14892,7.83372-3.49026Z"/>
    <path class="cls-2" d="M369.62276,412.08076c1.8882-2.39284,11.57872-6.29601,11.90713,.83182-1.06998-.1944-1.02894-1.56825-1.72309-2.16227-6.39954-1.66239-8.0879,4.32572-7.99042,10.64102-4.06976,.22457-8.40784,.16659-12.69036,.16659-.86501-1.72637-1.12697-3.63874-.93986-5.48589,.65101-6.41067,8.94598-10.47554,11.43661-3.99125Z"/>
    <path class="cls-2" d="M225.01846,409.08908c.22605,.6266-.73644,1.03104-1.09742,1.66122-2.09793,3.67502-.24595,9.69448,4.07365,9.97579-7.76641,4.40175-11.06172-12.08249-2.97623-11.63701Z"/>
    <path class="cls-2" d="M245.84617,408.9225c.25294-.0471,1.1436,7.61435,10.96726,12.46882-2.61258-.22092-6.3352,.8825-8.61695-.16541-3.50114-1.6093-3.59139-8.30245-2.35031-12.30341Z"/>
    <path class="cls-2" d="M352.07608,408.9225c.13314-.0314,.14792,.06521,.1567,.16659,1.31532,3.72688,1.13606,9.46874-1.41014,11.63701-2.20449,1.87732-5.52451,.22821-9.08661,.66523-.24805-.52881,.54599-.80165,.78354-.9984,1.12067-.92361,2.69257-1.76265,3.9164-2.82386,2.32553-2.0198,4.10054-5.72374,5.64011-8.64656Z"/>
    <path class="cls-2" d="M230.8149,409.25573c-.57375,.94889-1.52356,.8825-2.19392,1.82781-1.77044,2.50027-.49314,6.8598,2.66389,6.98293-6.44782,4.39211-10.07957-11.05028-.46996-8.81074Z"/>
    <path class="cls-2" d="M287.99844,421.39132c-4.06283-.07121-8.97949,.01929-13.94318,.16659-4.67762,.13766-9.91391,.39239-13.6296-.332-4.33178-.84628-10.37269-5.58127-8.61702-11.806-.04463-.29577,.14792-.33923,.15694-.16417,2.35575,3.48056,6.97205,6.12454,12.68943,6.31647,3.52772,.11955,7.21022-.70022,10.654-.49858,5.81881,.34288,10.05299,2.35661,12.68943,6.3177Z"/>
    <path class="cls-2" d="M308.83548,421.39132c-.22667-.48412,.42379-.93684,.62691-1.16264,2.52234-2.81051,6.50969-4.73975,11.59355-5.15507,4.23029-.34529,8.37279,.54692,12.21978,.33323,5.31417-.29584,9.28583-2.50874,11.90713-6.31777,.13308-.03016,.14792,.06521,.15632,.16665,.65676,2.96992-.00964,5.62472-1.25344,7.31369-1.38628,1.88579-4.54269,4.05529-7.51984,4.65648-3.62909,.73162-9.40655,.49135-13.78655,.332-4.81015-.17746-9.69905-.21486-13.94386-.16659Z"/>
    <path class="cls-2" d="M394.69015,409.25573c-3.80353,.65194-6.37383,2.11517-8.46032,4.48743-2.06356,2.34821-2.99346,5.55234-5.32684,7.64816-7.02639,1.56825-9.06367-5.93861-5.48379-9.14397,.57375-.51311,1.76593-.9827,2.66389-.83058,1.57518,.26437,1.81334,2.90471,3.44681,2.99285,1.08414,.05792,3.25871-2.5015,4.23029-3.1595,2.44265-1.65516,4.92054-2.62822,8.92997-1.99439Z"/>
    <path class="cls-2" d="M418.81675,409.25573c1.0787,4.61903-2.6059,6.95876-6.11032,7.81351,.4814-3.31397,5.84898-7.81351,6.11032-7.81351Z"/>
    <path class="cls-2" d="M357.87289,409.4199c1.86582,2.76229-2.39463,5.504-3.13323,2.99409-.48529-1.64799,.96255-3.38648,3.13323-2.99409Z"/>
    <path class="cls-2" d="M233.79119,409.91972c8.2038-.16059,5.52662,13.18956-2.34969,10.63978,4.3387-.12678,5.64493-8.20108,2.34969-10.63978Z"/>
    <path class="cls-2" d="M231.59844,411.41677c4.86597-1.18798,3.75828,6.99134-.31358,5.48589-2.44507-.90426-1.92108-4.94144,.31358-5.48589Z"/>
    <path class="cls-2" d="M405.97037,417.73323c1.65368-.40926,2.68861,.80165,4.07279,.99846,4.05103,.57344,6.6892-2.6488,9.08716-4.32208,1.91657,2.52926-.71833,5.65371-2.35025,6.9817-5.1071,.33441-10.0609,1.23261-10.8097-3.65808Z"/>
    <path class="cls-2" d="M356.93302,414.90703c.38664,.9042-.03474,1.95458-.46996,2.49421-.93442,.04951-1.7137-.06762-2.1933-.49858-.30758-1.84233,1.19824-2.58001,2.66327-1.99563Z"/>
    <path class="cls-2" d="M242.72172,418.39846c.73316,.94048,1.67964,1.65399,2.03698,2.99285-1.28391,.34646-2.93184-.16059-4.38754-.16541,.75362-.97429,1.8215-1.61412,2.35056-2.82744Z"/>
    <path class="cls-2" d="M356.77608,418.89828c.32019,.62171,.51218,1.92077,0,2.49303-.54055,.22574-1.37756-.03499-2.03642-.16541-.70535-1.6407,.47658-3.07253,2.03642-2.32762Z"/>
    <path class="cls-2" d="M337.50575,179.99351c2.76192,7.96019-10.09682,7.65298-11.9062,2.66024-2.29387,.725-3.67285,2.42059-5.48379,3.65777-.81914,.24571-6.6238,1.49884-5.95344-1.49643,.37545-1.67871,1.57703-3.87746,2.35031-5.15389,4.45968-7.36469,20.80052-5.54504,24.28385-4.82128,3.2639,.67852,6.19364,2.80303,8.77303,4.32239,3.09485,1.8236,5.59271,4.00152,7.36351,5.65278-5.05035-2.26729-11.52383-6.63221-19.42728-4.82159Z"/>
    <path class="cls-2" d="M308.14769,175.47134c.10317,3.88049,.65404,7.49604,2.4115,10.17495-1.3126-1.13303-6.16317-4.74098-6.57997-7.81382-.35462-2.6098,1.42849-2.57784,4.16847-2.36113Z"/>
    <path class="cls-2" d="M400.48659,174.12129c-1.4738,2.43419-3.17606,6.30985-2.44234,11.08798-1.09737,0-2.20177,.20312-3.29828,.20312-.32625-4.72683,.13339-9.29999,2.76408-11.2911,.74305-.11862,1.61894,0,2.97653,0Z"/>
    <path class="cls-2" d="M298.80901,174.83993c.94079,.94172,1.30116,2.24226,1.88004,3.32485,1.69051,3.16247,4.14374,5.84959,7.20657,7.81413-1.97597,.49018-3.46455-1.63099-5.32678-1.6627-2.05842-.03505-2.94186,1.69293-5.01327,1.1635-.46205-.11769-1.08111-1.0829-1.7234-1.1635-1.81903-.22759-3.49688,2.01164-5.17015,1.99532,2.94909-2.91138,6.75985-6.3488,8.14699-11.47159Z"/>
    <path class="cls-2" d="M175.98112,197.94884c1.95186,.09025,4.38513,1.79251,7.04988,1.16412,1.21036-.28551,1.9314-1.81458,3.29017-1.49643,1.35457,2.52351-1.56405,3.75525-3.44712,3.82343-3.00429,.10929-5.42581-2.30407-6.89293-3.49113Z"/>
    <path class="cls-2" d="M175.04063,200.27615c.86952,.13277,5.89546,3.88382,11.43716,2.49427-.42583,1.62586,.15663,3.29283,0,5.15358-6.40158,.82848-9.93443-2.73237-11.43716-7.64785Z"/>
    <path class="cls-2" d="M419.75662,214.40798c-3.04417-.79108-6.51718-2.37924-9.55683-.4992,.47176-4.92753,9.40383-6.04245,9.55683,.4992Z"/>
    <path class="cls-2" d="M185.69426,392.63024c-.24775,1.43424-.57678,3.56994-1.56615,4.48866-1.96602,1.82422-6.23042,.84269-7.6774-1.3304-1.26852-1.90513-.613-4.05647-1.0965-6.48311,1.98778,1.1771,2.78671,4.05764,5.79674,4.48866,1.86526,.26561,3.32998-.27284,4.5433-1.16381Z"/>
    <path class="cls-2" d="M335.31269,408.42391c-2.80148,4.08663-10.96967,2.68014-17.70356,3.15826-7.37891,.52634-10.77169,5.78889-14.72672,9.47714-.0845-1.87132,1.13155-3.46368,2.193-4.65648,3.10789-3.48785,6.6141-6.69074,12.53372-7.14711,5.87012-.45395,12.45399,1.90266,17.70356-.83182Z"/>
    <path class="cls-2" d="M255.7251,408.9225c1.96243,.08091,2.91528,1.65399,4.85626,2.49427,4.19109,1.81452,10.25493,.89697,15.35962,1.33887,6.36239,.54809,12.64208,2.48216,14.25107,7.97045,.18803,.19075,.06126,.42255,0,.16665-3.09182-3.33214-7.44832-6.38774-13.94379-6.81635-8.06979-.53122-17.68366,1.12759-20.52316-5.15389Z"/>
    <path class="cls-2" d="M261.8348,408.9225c5.87345,2.19003,13.04108-.68452,19.1137,.49741,5.08299,.9924,11.71513,5.70199,12.8473,11.47283-.51886,.16776-.95828-.52399-1.25406-.83188-3.15702-3.27892-6.68654-7.92335-12.68974-8.47868-6.7478-.62419-13.80861,1.11189-18.0172-2.65968Z"/>
    <path class="cls-2" d="M398.1369,411.58218c1.33349-1.17957,2.21389-2.40372,4.22942-2.65968,3.42536-.43461,7.20571,1.56708,9.71351,2.49427-2.17308,.35252-3.94663,1.13241-5.48286,2.16104,.66276,.95853,2.12661,1.06843,2.97623,1.82904-1.60837,.8982-4.28493,.66158-5.95338,1.49581,.21672,1.26642,1.02164,1.90748,1.09712,3.32602-1.23058-.41285-2.19609-1.10707-3.44681-1.49698-.58129,.43578-.20738,1.88696-.31358,2.82621-1.18013,.08815-1.91595-.29454-3.13323-.16659-.34016-.58191,.04587-1.93289-.31327-2.49303-1.34072,.01687-1.27155,1.53086-2.50694,1.66122-.41408-.66764-.56317-1.61777-.93986-2.32762-2.31736,.14724-3.55269,1.44024-5.01321,2.49421-.25566-1.38115,.81216-2.79363,1.25313-3.99008-2.17853,.68093-4.29914,2.8649-6.11007,4.4899,2.16104-4.90398,6.39318-12.56537,13.9438-9.64373Z"/>
  </g>
  <g>
    <path class="cls-1" d="M246.10634,246.66476l-6.30472,5.27251-11.75074-13.0239v12.20803h-7.89356v-18.93314h-7.10211c-3.103-.09902-3.5606,.78502-1.37237,2.65177,3.90676,3.53551,5.82907,6.96631,5.75477,10.30414-.07424,3.33783-1.99019,5.32833-5.75477,5.97724h-13.90789v-8.0293h5.50128c3.41843,.09872,3.85094-.88405,1.30444-2.94847-4.20346-3.98705-5.9896-7.64631-5.35911-10.98414,.62419-3.33183,2.60832-5.0009,5.94015-5.0009h22.88916v10.93469l10.86669-11.57124,5.30361,4.59887-7.63994,8.20256,9.52511,10.34129Z"/>
    <path class="cls-1" d="M270.02593,251.12084h-22.12949v-26.96467h21.27832v6.86339h-13.38266v6.51934l8.40265-4.88946v9.86947l-8.40265-4.81701v6.5555h14.23382v6.86345Z"/>
    <path class="cls-1" d="M280.42544,226.7096l-9.16326,7.75071v-10.30414h26.22217v10.30414l-9.16326-7.75071v24.41124h-7.89566v-24.41124Z"/>
    <path class="cls-1" d="M334.01549,251.12084h-7.89566v-26.96467h7.89566v9.48926h9.38059v-9.48926h7.85938v26.96467h-7.85938v-15.75504l-4.67218,5.55951-4.70841-5.55951v15.75504Z"/>
    <path class="cls-1" d="M390.10549,234.84003c3.90676,3.53551,5.82908,6.96631,5.75477,10.30414-.06786,3.33783-1.99019,5.32833-5.75477,5.97724h-36.56222v-26.96282h21.27591v6.86129h-13.38241v6.52144l8.40055-4.88946v9.86526l-8.40055-4.81522v6.55822h15.23075l6.51513,.01873c3.41813,.10502,2.36749-2.07079-.17931-4.13522-4.19709-3.98705-5.98961-7.64631-5.35912-10.98414,.63049-3.33183,2.60832-5.0009,5.94016-5.0009h14.27245v8.02967h-6.37895c-3.103-.09902-3.5603,.78502-1.37238,2.65177Z"/>
  </g>
  <path class="cls-1" d="M307.14169,237.63848c.09661,1.46237,.41018,2.55856,.94165,3.28986,.53122,.731,1.16505,1.30988,1.90149,1.73638,.73613,.42676,1.85321,.73737,3.35019,.93201,1.54532-.09748,2.65573-.30424,3.33214-.62147,.67605-.31661,1.44871-.84053,2.31798-1.57153l5.14301,5.7753c-1.49704,1.41372-2.98197,2.38801-4.45491,2.92406-1.47319,.5366-3.61005,.87768-6.41061,1.02374-2.70462-.14606-4.751-.54537-6.13906-1.19731-1.38838-.65132-2.76167-1.51695-4.11982-2.59534-1.35821-1.07814-2.42059-2.43054-3.18725-4.05708-.76691-1.62679-1.1499-3.51227-1.1499-5.65699,0-2.11999,.38299-3.99342,1.1499-5.6199,.76666-1.62685,1.82904-2.97932,3.18725-4.05739,1.35815-1.07839,2.73145-1.9437,4.11982-2.59534,1.38807-.65163,3.43444-1.05125,6.13906-1.19731,2.80055,.14606,4.93742,.48739,6.41061,1.02374,1.47294,.53635,2.95787,1.51064,4.45491,2.92406l-5.14301,5.7753c-.86927-.731-1.64193-1.25468-2.31798-1.57153-.67642-.31691-1.78682-.52368-3.33214-.62147-1.49698,.19465-2.61406,.50557-3.35019,.93201-.73644,.42676-1.37027,1.00539-1.90149,1.73638-.53147,.73131-.84504,1.8275-.94165,3.2898Z"/>
  <g>
    <path class="cls-1" d="M212.23638,306.26283h-14.47891v-49.507h38.6879v12.60098h-24.20899v14.69563l15.2096-9.50916v18.3869l-15.2096-8.51193v21.84459Z"/>
    <path class="cls-1" d="M254.27843,306.26283h-14.4786v-49.507h20.83704c7.55489,0,13.28827,1.47405,17.19899,4.42166,3.91009,2.94816,5.86554,7.06076,5.86554,12.33543-.04494,1.6177-.26073,3.10387-.64737,4.45547-.38757,1.35154-.99636,2.64874-1.82663,3.88982-.83033,1.2417-1.83807,2.37714-3.02184,3.40817-1.18433,1.03042-2.64003,2.03364-4.36701,3.00855-.22154,.15515-.6758,.41106-1.36155,.76481l11.98835,10.97239-11.82232,8.2119-18.36459-17.55509v15.59389Zm0-24.10521h6.17708c5.31324,0,8.28014-2.0397,8.89975-6.11792,.08815-.75331,.13315-1.29659,.13315-1.6292,0-2.17247-.77569-3.87356-2.32497-5.10376-1.54952-1.23026-3.78573-1.84536-6.70793-1.84536h-6.17708v14.69625Z"/>
    <path class="cls-1" d="M340.82034,282.52343c0,5.25285-1.09594,9.7307-3.28745,13.43224-2.19182,3.70209-5.36331,6.48305-9.51429,8.34529-4.15123,1.86168-9.10503,2.79307-14.86104,2.79307-5.75663,0-10.69863-.93622-14.82754-2.80995-4.12978-1.8725-7.25602-4.64258-9.38176-8.31216-2.12512-3.66828-3.18781-8.15033-3.18781-13.44849,0-4.01178,.60905-7.54191,1.82663-10.58965,1.21691-3.04719,2.99978-5.6139,5.34644-7.69706,2.34604-2.08315,5.22479-3.66229,8.63414-4.73795,3.4091-1.07511,7.27271-1.61294,11.5899-1.61294,5.73339,0,10.68144,.94771,14.84447,2.84314,4.1618,1.89481,7.33904,4.68788,9.53086,8.37854,2.19151,3.69066,3.28745,8.16245,3.28745,13.41592Zm-38.02397,.13277c0,3.081,.69181,5.76361,2.07561,8.04593,1.38294,2.28299,4.11235,3.42449,8.186,3.42449,3.14318,0,5.49584-.59822,7.05686-1.79523,1.56071-1.19701,2.5347-2.56486,2.92251-4.10598,.38664-1.5405,.64743-3.39668,.78021-5.56921-.13278-3.08038-.87497-5.76899-2.22502-8.0628-1.3503-2.29443-4.19592-3.44137-8.53456-3.44137-6.84076,0-10.26161,3.83555-10.26161,11.50417Z"/>
    <path class="cls-1" d="M358.95251,306.26283h-14.47928v-52.49986l26.69999,32.21808,26.66643-32.21808v52.49986h-14.47892v-16.3587l-12.18751,18.3199-12.2207-18.3199v16.3587Z"/>
  </g>
  <g>
    <path class="cls-1" d="M269.1132,315.48734h-57.72069c-6.1505,0-9.80376,3.28801-10.96578,9.85865-1.15596,6.56458,2.13872,13.77208,9.89642,21.61638,4.69753,4.0734,3.89409,6.00808-2.41095,5.81003h-10.15566v15.81178h25.66468c6.95394-1.27304,10.49582-5.19852,10.63162-11.76916,.12981-6.56458-3.41207-13.33259-10.63162-20.29321-4.0302-3.67737-3.1833-5.41468,2.54045-5.22269h11.73207v37.28506h17.44969v-17.53636h15.10705c15.13178,.06824,14.92773-13.88916,15.10699-15.84856,.17932-1.95947,0-19.71192-16.24428-19.71192Zm.30276,22.22789c-.7603,.52516-1.46472,.79077-2.10763,.79077h-12.16489v-9.77842h12.1278c.53783,0,1.19911,.32118,1.99019,.97009,.79139,.65553,1.24257,1.9968,1.35395,4.03051-.04345,2.13267-.44517,3.46127-1.19942,3.98705Z"/>
    <path class="cls-1" d="M289.88874,368.58363h-16.81204l30.78328-58.05788,30.81586,58.05788h-16.84547l-5.28067-9.48567-8.75672,10.77262-8.48987-10.99353-5.41437,9.70659Zm7.18574-13.56748h13.30274l-6.71825-14.5236-6.58449,14.5236Z"/>
    <path class="cls-1" d="M351.34088,368.58363h-14.57281v-53.09388h14.57281v53.09388Z"/>
    <path class="cls-1" d="M368.42725,368.62103h-14.57281v-58.05788l29.4794,27.8698v-24.56095h14.50581v57.98457l-29.4124-28.45924v25.22371Z"/>
  </g>
</svg>