<?xml version="1.0" encoding="UTF-8"?>
<svg id="Capa_1" data-name="Capa 1" xmlns="http://www.w3.org/2000/svg" width="210mm" height="209.99999mm" viewBox="0 0 595.27559 595.27557">
  <path d="M342.9575,314.61984h-4.31982l-1.85449,10.92139-.02783,.15967h6.20215c2.71143,0,5.0083-1.94043,5.46191-4.61328,.27441-1.61182-.17383-3.25293-1.22925-4.50244-1.05518-1.24854-2.5979-1.96533-4.23267-1.96533Z"/>
  <path d="M253.0969,238.26071c.27417-1.6123-.17407-3.25317-1.22925-4.50269-1.05518-1.24878-2.59814-1.96533-4.23242-1.96533h-4.32031l-1.85449,10.92139-.02759,.15967h6.20239c2.71094,0,5.00806-1.94043,5.46167-4.61304Z"/>
  <path d="M353.6677,347.18723c-3.86035,1.12158-7.82397,1.69043-11.78125,1.69043h-8.55054l-4.44287,25.73828-.02783,.15967h24.97754v-27.63916l-.17505,.05078Z"/>
  <path d="M290.73899,276.74948v.00073c-.40869,1.60889-.05786,3.28296,.96118,4.59253,1.01904,1.3103,2.55542,2.06152,4.21558,2.06152h1.76782c2.44653,0,4.5752-1.65601,5.177-4.02612l15.15479-58.87817h-12.78784l-14.48853,56.24951Z"/>
  <polygon points="349.63548 220.49997 339.65525 220.49997 321.37351 288.92722 321.30076 289.20041 332.92527 289.20041 349.63548 220.49997"/>
  <path d="M313.676,302.88107c-.20605,.19141-.43506,.3623-.68677,.50879-2.50684,1.83301-5.43091,3.04785-8.52173,3.54248-.20508,.06055-.42188,.10596-.64819,.1377l-12.09448,67.54541-.02881,.16016h8.55151l13.36353-71.54248,.06519-.35205h-.00024Z"/>
  <path d="M285.96922,220.49997h-5.36182c-.39844,10.87671,.2998,29.72314-14.66016,44.34668-5.85645,5.72485-20.28809,5.32031-20.17822,5.32031h-.10986l-4.18994,19.07129-.03638,.16602h20.69043l-12.06958,71.05591c-.10254,.60352-.1377,1.21045-.10767,1.81006,.07446,1.49854,.55469,2.95264,1.39941,4.20898,.1687,.25098,.35229,.49414,.55005,.72803,1.58105,1.87256,3.89307,2.94678,6.34399,2.94678,4.06494,0,7.50903-2.90967,8.18677-6.91797l10.00049-59.1084,.01489-.08496-.00098-.00049-.24536-.18604c-6.26001-4.57251-8.98047-13.16064-6.76147-21.46191l16.5354-61.89429Z"/>
</svg>