<?xml version="1.0" encoding="UTF-8"?>
<svg id="Capa_2" data-name="Capa 2" xmlns="http://www.w3.org/2000/svg" width="210mm" height="209.99999mm" viewBox="0 0 595.27559 595.27557">
  <path d="M297.71002,339.97907l.83526,.85083c-.4613-.4699-.45433-1.22478,.01557-1.68607l-.85082,.83525c.46989-.46129,1.22477-.45432,1.68607,.01558l-.83526-.85083c.4613,.4699,.45433,1.22478-.01556,1.68607l.85082-.83525c-.4699,.4613-1.22478,.45433-1.68607-.01557Z"/>
  <path d="M297.54196,340.06554l1.17582,.19741c-.6494-.10901-1.08745-.72382-.97844-1.37322l-.19741,1.17582c.10902-.64939,.72383-1.08744,1.37324-.97842l-1.17583-.19742c.64939,.10902,1.08744,.72383,.97843,1.37323l.19741-1.17582c-.10903,.6494-.72383,1.08744-1.37322,.97842Z"/>
  <path d="M297.59539,340.52196l1.06724-.53149c-.58943,.29353-1.30521,.05363-1.59875-.53579l.53152,1.06725c-.29354-.58944-.05367-1.30521,.53578-1.59876l-1.06725,.53152c.58943-.29353,1.30522-.05366,1.59874,.53578l-.5315-1.06725c.29353,.58945,.05366,1.30522-.53578,1.59874Z"/>
  <path d="M297.851,341.08168l.55111-1.05724c-.30436,.58391-1.02444,.81052-1.60836,.50617l1.05726,.55111c-.58392-.30435-.81054-1.02446-.50618-1.60837l-.55112,1.05727c.30438-.58393,1.02446-.81054,1.60838-.50617l-1.05726-.55113c.58391,.30438,.81053,1.02445,.50617,1.60836Z"/>
  <path d="M298.21343,341.23454l-.17567-1.17925c.09701,.65129-.35232,1.25789-1.00361,1.35492l1.17926-.17566c-.6513,.097-1.25792-.35233-1.35493-1.00362l.17567,1.17927c-.09701-.65131,.35232-1.25793,1.00361-1.35494l-1.17926,.17566c.6513-.097,1.25792,.35233,1.35493,1.00362Z"/>
  <path d="M298.54528,340.82991l-.83526-.85083c.4613,.4699,.45432,1.22478-.01558,1.68608l.85083-.83526c-.4699,.4613-1.22478,.45433-1.68607-.01557l.83526,.85083c-.4613-.4699-.45433-1.22478,.01557-1.68607l-.85083,.83526c.4699-.4613,1.22478-.45434,1.68608,.01556Z"/>
  <path d="M298.71777,340.26262l-1.17582-.19741c.64939,.10902,1.08745,.72382,.97843,1.37323l.19741-1.17582c-.10901,.64938-.72383,1.08744-1.37323,.97841l1.17583,.19742c-.64939-.10902-1.08744-.72383-.97844-1.37322l-.19741,1.17582c.10904-.64939,.72383-1.08744,1.37323-.97843Z"/>
  <path d="M298.66265,339.98989l-1.06725,.53152c.58944-.29354,1.30521-.05367,1.59875,.53577l-.53151-1.06726c.29353,.58945,.05366,1.30522-.53578,1.59876l1.06725-.5315c-.58943,.29353-1.30522,.05364-1.59875-.53579l.5315,1.06725c-.29353-.58943-.05365-1.30521,.53579-1.59875Z"/>
  <path d="M298.40154,340.02442l-.55112,1.05727c.30436-.58393,1.02445-.81055,1.60837-.50618l-1.05726-.55111c.58391,.30436,.81053,1.02445,.50617,1.60836l.55112-1.05725c-.30437,.58392-1.02446,.81052-1.60838,.50617l1.05727,.55112c-.58391-.30436-.81054-1.02446-.50617-1.60838Z"/>
  <path d="M298.03742,340.05527l.17566,1.17926c-.097-.6513,.35232-1.25791,1.00362-1.35493l-1.17926,.17566c.65129-.09699,1.25791,.35234,1.35492,1.00363l-.17567-1.17927c.09702,.6513-.35232,1.25793-1.0036,1.35493l1.17926-.17566c-.65131,.09701-1.25792-.35233-1.35493-1.00362Z"/>
  <path d="M297.71002,339.97907l.83526,.85083c-.4613-.4699-.45433-1.22478,.01557-1.68607l-.85082,.83525c.46989-.46129,1.22477-.45432,1.68607,.01558l-.83526-.85083c.4613,.4699,.45433,1.22478-.01556,1.68607l.85082-.83525c-.4699,.4613-1.22478,.45433-1.68607-.01557Z"/>
  <path d="M299.70233,338.77499l.08361,.08517c-.46131-.46991-.45433-1.22478,.01557-1.68607l-.08516,.0836c.4699-.4613,1.22477-.45434,1.68607,.01557l-.08361-.08517c.46131,.46991,.45433,1.22478-.01557,1.68607l.08516-.0836c-.4699,.4613-1.22477,.45434-1.68607-.01557Z"/>
  <path d="M298.84978,337.12657l.11224,.04048c-.61945-.22321-.94068-.90632-.71745-1.52578l-.04048,.11224c.2232-.61946,.90632-.94067,1.52578-.71745l-.11224-.0405c.61945,.22323,.94068,.90634,.71747,1.52579l.04047-.11225c-.22322,.61946-.90632,.94068-1.52579,.71746Z"/>
  <path d="M297.84824,336.75262l.11872-.01226c-.65497,.06769-1.24077-.40839-1.30848-1.06334l.01226,.1187c-.06769-.65497,.4084-1.24078,1.06336-1.30847l-.11873,.01227c.65497-.06771,1.24078,.40838,1.30849,1.06334l-.01227-.11871c.06769,.65497-.40839,1.24077-1.06335,1.30846Z"/>
  <path d="M296.8952,337.88186l.10165-.06252c-.56074,.34515-1.29511,.17037-1.64026-.39037l.06253,.10168c-.34516-.56075-.17038-1.29512,.39036-1.64026l-.10167,.06252c.56075-.34516,1.29512-.17038,1.64028,.39036l-.06253-.10166c.34516,.56075,.17037,1.29511-.39036,1.64026Z"/>
  <path d="M296.18316,339.8571l.06442-.10046c-.35549,.55426-1.09295,.71542-1.64723,.35995l.10046,.06442c-.55425-.35548-.71543-1.09296-.35994-1.64722l-.06443,.10045c.35547-.55426,1.09296-.71543,1.64723-.35995l-.10047-.06442c.55426,.35547,.71544,1.09295,.35996,1.64722Z"/>
  <path d="M295.85935,341.59439l.01455-.11843c-.07978,.6536-.67428,1.11875-1.32788,1.03897l.11843,.01455c-.65359-.07979-1.11875-.67429-1.03897-1.3279l-.01455,.11845c.07979-.65359,.67429-1.11875,1.32789-1.03898l-.11844-.01454c.65359,.07979,1.11875,.67429,1.03897,1.32788Z"/>
  <path d="M295.99187,342.31631l-.03843-.113c.21174,.62347-.12204,1.30052-.74551,1.51228l.113-.03843c-.62347,.21174-1.30052-.12204-1.51228-.74551l.03843,.113c-.21174-.62347,.12204-1.30054,.74551-1.51228l-.113,.03843c.62348-.21175,1.30054,.12204,1.51228,.74551Z"/>
  <path d="M296.55308,342.03389l-.08363-.08519c.4613,.4699,.45433,1.22478-.01557,1.68607l.08519-.08363c-.4699,.4613-1.22478,.45433-1.68607-.01557l.08363,.08519c-.4613-.4699-.45433-1.22478,.01557-1.68607l-.08519,.08363c.4699-.4613,1.22478-.45433,1.68607,.01557Z"/>
  <path d="M297.42633,341.42856l-.11224-.04048c.61944,.22322,.94067,.90632,.71745,1.52578l.04049-.11223c-.22321,.61945-.90633,.94067-1.52579,.71745l.11225,.04049c-.61946-.22322-.94067-.90633-.71746-1.52579l-.04048,.11224c.22322-.61946,.90633-.94067,1.52579-.71746Z"/>
  <path d="M298.43277,341.24606l-.11874,.0123c.65496-.0677,1.24077,.40839,1.30847,1.06334l-.0123-.11876c.0677,.65498-.40839,1.24079-1.06334,1.30848l.11873-.01229c-.65497,.06769-1.24077-.40839-1.30847-1.06334l.0123,.11874c-.0677-.65498,.40838-1.24078,1.06334-1.30847Z"/>
  <path d="M299.37163,341.67657l-.10166,.06259c.56072-.34517,1.29511-.17043,1.64028,.39032l-.06259-.10168c.34518,.56074,.17043,1.29513-.39029,1.64029l.10166-.06259c-.56075,.34517-1.29512,.17044-1.6403-.3903l.06259,.10166c-.34518-.56074-.17043-1.29511,.39031-1.64029Z"/>
  <path d="M300.06058,342.20244l-.06442,.10046c.35549-.55426,1.09295-.71542,1.64723-.35995l-.10046-.06442c.55425,.35548,.71543,1.09296,.35995,1.64723l.06442-.10046c-.35547,.55426-1.09296,.71541-1.64722,.35994l.10046,.06442c-.55427-.35548-.71542-1.09295-.35996-1.64722Z"/>
  <path d="M300.37023,342.0249l-.01454,.11846c.07978-.6536,.67428-1.11876,1.32788-1.03898l-.11843-.01454c.6536,.07978,1.11875,.67429,1.03897,1.32788l.01454-.11844c-.07978,.6536-.67427,1.11875-1.32787,1.03898l.11843,.01454c-.65359-.07979-1.11875-.67428-1.03898-1.32789Z"/>
  <path d="M300.24261,340.74654l.03837,.11299c-.21174-.62349,.12208-1.30054,.74556-1.51228l-.113,.03837c.62349-.21172,1.30055,.12207,1.51228,.74556l-.03838-.11299c.21172,.62349-.12207,1.30055-.74555,1.51227l.11299-.03837c-.62349,.21172-1.30055-.12208-1.51226-.74556Z"/>
  <path d="M299.7022,338.7751l.08363,.08519c-.4613-.4699-.45433-1.22478,.01557-1.68607l-.08519,.08363c.4699-.4613,1.22478-.45433,1.68607,.01557l-.08363-.08519c.4613,.4699,.45433,1.22478-.01557,1.68607l.08519-.08363c-.4699,.4613-1.22478,.45433-1.68607-.01557Z"/>
  <rect x="302.41394" y="332.88898" width="3.33819" height="3.33819" rx="1.19227" ry="1.19227" transform="translate(-147.28622 308.84049) rotate(-44.47099)"/>
  <rect x="300.07617" y="328.92905" width="3.3382" height="3.33819" rx="1.19224" ry="1.19224" transform="translate(-126.61395 460.42005) rotate(-64.47288)"/>
  <rect x="297.29453" y="326.94238" width="3.33817" height="3.33817" rx="1.19224" ry="1.19224" transform="translate(-56.92643 594.51937) rotate(-84.47048)"/>
  <rect x="294.40133" y="327.58871" width="3.33819" height="3.33818" rx="1.19223" ry="1.19223" transform="translate(-72.88115 84.42493) rotate(-14.47006)"/>
  <rect x="291.74612" y="330.64475" width="3.3382" height="3.33821" rx="1.19224" ry="1.19224" transform="translate(-136.56462 224.41426) rotate(-34.47025)"/>
  <rect x="289.65591" y="335.09637" width="3.33821" height="3.33821" rx="1.19225" ry="1.19225" transform="translate(-152.03475 378.15829) rotate(-54.47174)"/>
  <rect x="288.38959" y="339.56718" width="3.33819" height="3.33819" rx="1.1923" ry="1.1923" transform="translate(-116.37401 529.35511) rotate(-74.47193)"/>
  <rect x="288.10668" y="342.87244" width="3.33817" height="3.33817" rx="1.19225" ry="1.19225" transform="translate(-25.97961 23.64061) rotate(-4.47151)"/>
  <rect x="288.84192" y="344.4682" width="3.33819" height="3.33819" rx="1.19232" ry="1.19232" transform="translate(-117.27864 151.41885) rotate(-24.46911)"/>
  <rect x="290.50316" y="344.58182" width="3.33819" height="3.33819" rx="1.19227" ry="1.19227" transform="translate(-158.8888 303.84519) rotate(-44.47099)"/>
  <rect x="292.88295" y="343.99004" width="3.3382" height="3.33819" rx="1.19224" ry="1.19224" transform="translate(-144.30104 462.48856) rotate(-64.47143)"/>
  <rect x="295.68673" y="343.55515" width="3.33817" height="3.33817" rx="1.19227" ry="1.19227" transform="translate(-74.91207 607.93487) rotate(-84.47107)"/>
  <rect x="298.57239" y="343.74978" width="3.33819" height="3.33819" rx="1.19223" ry="1.19223" transform="translate(-76.78882 85.98237) rotate(-14.47045)"/>
  <rect x="301.19331" y="344.40444" width="3.3382" height="3.3382" rx="1.19223" ry="1.19223" transform="translate(-142.69384 232.17812) rotate(-34.47039)"/>
  <rect x="303.23883" y="344.79601" width="3.3382" height="3.3382" rx="1.1923" ry="1.1923" transform="translate(-154.23889 393.27452) rotate(-54.4716)"/>
  <rect x="304.47089" y="344.03594" width="3.33819" height="3.33819" rx="1.19225" ry="1.19225" transform="translate(-108.90485 548.11907) rotate(-74.47154)"/>
  <rect x="304.74631" y="341.57166" width="3.33817" height="3.33817" rx="1.19226" ry="1.19226" transform="translate(-25.82427 24.9305) rotate(-4.47092)"/>
  <rect x="304.03315" y="337.5543" width="3.3382" height="3.33819" rx="1.19229" ry="1.19229" transform="translate(-113.05425 157.09879) rotate(-24.4703)"/>
  <rect x="302.41394" y="332.88898" width="3.33819" height="3.33819" rx="1.19227" ry="1.19227" transform="translate(-147.28622 308.84049) rotate(-44.47099)"/>
  <rect x="306.93943" y="327.38314" width="4.41116" height="4.41116" rx="1.1923" ry="1.1923" transform="translate(-142.35522 310.96345) rotate(-44.47099)"/>
  <rect x="303.47853" y="321.17808" width="4.41091" height="4.41091" rx="1.19217" ry="1.19217" transform="translate(-125.66746 432.72494) rotate(-60.83571)"/>
  <rect x="299.39819" y="317.18764" width="4.41093" height="4.41093" rx="1.19224" ry="1.19224" transform="translate(-76.68114 542.72544) rotate(-77.1977)"/>
  <rect x="295.02295" y="316.30741" width="4.41105" height="4.41105" rx="1.19228" ry="1.19228" transform="translate(-19.2122 19.07921) rotate(-3.56155)"/>
  <rect x="290.70658" y="318.73629" width="4.41085" height="4.41085" rx="1.19225" ry="1.19225" transform="translate(-91.84218 119.03767) rotate(-19.92567)"/>
  <rect x="286.80181" y="323.91012" width="4.41101" height="4.411" rx="1.19222" ry="1.19222" transform="translate(-136.9599 234.30844) rotate(-36.28957)"/>
  <rect x="283.6327" y="330.67802" width="4.41094" height="4.41093" rx="1.19227" ry="1.19227" transform="translate(-152.19765 358.17169) rotate(-52.65226)"/>
  <rect x="281.4621" y="337.61989" width="4.41094" height="4.41095" rx="1.19226" ry="1.19226" transform="translate(-135.20149 482.99408) rotate(-69.01706)"/>
  <rect x="280.47401" y="343.43831" width="4.41102" height="4.411" rx="1.19225" ry="1.19225" transform="translate(-84.60749 599.56823) rotate(-85.38061)"/>
  <rect x="280.75216" y="347.29872" width="4.41095" height="4.41097" rx="1.19221" ry="1.19221" transform="translate(-65.20848 64.90173) rotate(-11.74277)"/>
  <rect x="282.27246" y="349.01304" width="4.4109" height="4.41091" rx="1.19225" ry="1.19225" transform="translate(-131.91535 175.43805) rotate(-28.10638)"/>
  <rect x="284.905" y="349.01448" width="4.41107" height="4.41108" rx="1.19229" ry="1.19229" transform="translate(-163.81955 301.72233) rotate(-44.47099)"/>
  <rect x="288.43124" y="348.13891" width="4.4109" height="4.41091" rx="1.19227" ry="1.19227" transform="translate(-156.92502 433.40686) rotate(-60.83561)"/>
  <rect x="292.55641" y="347.29591" width="4.41096" height="4.41096" rx="1.19226" ry="1.19226" transform="translate(-111.36219 559.49907) rotate(-77.19892)"/>
  <rect x="296.94114" y="347.12477" width="4.41102" height="4.411" rx="1.19225" ry="1.19225" transform="translate(-21.12194 19.25697) rotate(-3.56138)"/>
  <rect x="301.22924" y="347.76325" width="4.41087" height="4.41087" rx="1.19216" ry="1.19216" transform="translate(-101.09816 124.34983) rotate(-19.92402)"/>
  <rect x="305.07678" y="348.79773" width="4.411" height="4.411" rx="1.19223" ry="1.19223" transform="translate(-148.14536 249.95208) rotate(-36.28957)"/>
  <rect x="308.17785" y="349.40966" width="4.41094" height="4.41093" rx="1.19224" ry="1.19224" transform="translate(-157.43363 385.05617) rotate(-52.65273)"/>
  <rect x="310.29059" y="348.677" width="4.41093" height="4.41094" rx="1.19225" ry="1.19225" transform="translate(-127.01963 517.00969) rotate(-69.01721)"/>
  <rect x="311.25031" y="345.92508" width="4.41096" height="4.41097" rx="1.19228" ry="1.19228" transform="translate(-58.78904 632.53029) rotate(-85.3805)"/>
  <rect x="310.98216" y="341.01431" width="4.41095" height="4.41096" rx="1.19225" ry="1.19225" transform="translate(-63.29681 70.92256) rotate(-11.74277)"/>
  <rect x="309.50654" y="334.46614" width="4.4109" height="4.4109" rx="1.19228" ry="1.19228" transform="translate(-121.85029 186.55208) rotate(-28.10628)"/>
  <rect x="306.93922" y="327.38343" width="4.41108" height="4.41108" rx="1.1923" ry="1.1923" transform="translate(-142.35547 310.96334) rotate(-44.47099)"/>
  <rect x="312.99628" y="320.37399" width="5.4841" height="5.4841" rx="1.19229" ry="1.19229" transform="translate(-135.93251 313.72864) rotate(-44.47099)"/>
  <rect x="308.39199" y="311.79829" width="5.48393" height="5.48393" rx="1.1922" ry="1.1922" transform="translate(-119.94246 414.10448) rotate(-58.31728)"/>
  <rect x="303.02434" y="305.5565" width="5.48386" height="5.48386" rx="1.19224" ry="1.19224" transform="translate(-81.37385 504.92869) rotate(-72.16249)"/>
  <rect x="297.1988" y="302.65388" width="5.48376" height="5.48375" rx="1.19222" ry="1.19222" transform="translate(-25.5874 583.35699) rotate(-86.0096)"/>
  <rect x="291.25193" y="303.56155" width="5.48382" height="5.48382" rx="1.19226" ry="1.19226" transform="translate(-48.09009 54.84218) rotate(-9.85563)"/>
  <rect x="285.53013" y="308.12524" width="5.48389" height="5.48387" rx="1.19227" ry="1.19227" transform="translate(-100.64501 142.09902) rotate(-23.70162)"/>
  <rect x="280.36939" y="315.59183" width="5.484" height="5.484" rx="1.19232" ry="1.19232" transform="translate(-135.35145 238.4756) rotate(-37.54733)"/>
  <rect x="276.07797" y="324.76948" width="5.48399" height="5.484" rx="1.19223" ry="1.19223" transform="translate(-151.08837 341.04539) rotate(-51.39442)"/>
  <rect x="272.91326" y="334.26905" width="5.48381" height="5.48378" rx="1.19226" ry="1.19226" transform="translate(-145.82245 446.18405) rotate(-65.24071)"/>
  <rect x="271.06486" y="342.77834" width="5.48376" height="5.48376" rx="1.19216" ry="1.19216" transform="translate(-117.30219 548.96099) rotate(-79.08684)"/>
  <rect x="270.6453" y="349.31712" width="5.48382" height="5.48381" rx="1.1922" ry="1.1922" transform="translate(-17.6561 14.44991) rotate(-2.933)"/>
  <rect x="271.67981" y="353.40163" width="5.48382" height="5.48382" rx="1.19223" ry="1.19223" transform="translate(-91.12386 94.3766) rotate(-16.778)"/>
  <rect x="274.10569" y="355.09888" width="5.48394" height="5.48392" rx="1.19233" ry="1.19233" transform="translate(-143.67409 190.93921) rotate(-30.62454)"/>
  <rect x="277.77535" y="354.95057" width="5.48401" height="5.484" rx="1.19229" ry="1.19229" transform="translate(-170.24213 298.95719) rotate(-44.47099)"/>
  <rect x="282.46895" y="353.79719" width="5.48394" height="5.48392" rx="1.19219" ry="1.19219" transform="translate(-167.98994 411.98658) rotate(-58.31745)"/>
  <rect x="287.90618" y="352.53812" width="5.48385" height="5.48385" rx="1.19222" ry="1.19222" transform="translate(-136.5842 523.12755) rotate(-72.16249)"/>
  <rect x="293.76453" y="351.88747" width="5.4837" height="5.48369" rx="1.19218" ry="1.19218" transform="translate(-77.90195 625.73148) rotate(-86.00853)"/>
  <rect x="299.70032" y="352.18716" width="5.48376" height="5.48376" rx="1.19216" ry="1.19216" transform="translate(-56.28496 57.00164) rotate(-9.85496)"/>
  <rect x="305.36963" y="353.31621" width="5.4838" height="5.4838" rx="1.19225" ry="1.19225" transform="translate(-117.13596 153.88326) rotate(-23.70128)"/>
  <rect x="310.44881" y="354.72289" width="5.48398" height="5.48398" rx="1.19219" ry="1.19219" transform="translate(-152.96791 264.91393) rotate(-37.54751)"/>
  <rect x="314.64682" y="355.56591" width="5.48398" height="5.484" rx="1.19229" ry="1.19229" transform="translate(-160.65083 382.76842) rotate(-51.39468)"/>
  <rect x="317.72988" y="354.93979" width="5.48387" height="5.48387" rx="1.1922" ry="1.1922" transform="translate(-138.54658 498.89263) rotate(-65.24046)"/>
  <rect x="319.52566" y="352.12285" width="5.48376" height="5.48376" rx="1.19227" ry="1.19227" transform="translate(-87.19099 604.12175) rotate(-79.08697)"/>
  <rect x="319.93417" y="346.79227" width="5.48375" height="5.48375" rx="1.19221" ry="1.19221" transform="translate(-17.45778 16.96395) rotate(-2.93222)"/>
  <rect x="318.93234" y="339.15381" width="5.48377" height="5.48378" rx="1.19222" ry="1.19222" transform="translate(-85.00203 107.41458) rotate(-16.77862)"/>
  <rect x="316.57575" y="329.95593" width="5.48384" height="5.48384" rx="1.1922" ry="1.1922" transform="translate(-124.94382 209.07196) rotate(-30.62518)"/>
  <rect x="312.99593" y="320.37442" width="5.48401" height="5.484" rx="1.19229" ry="1.19229" transform="translate(-135.93289 313.72848) rotate(-44.47099)"/>
  <rect x="320.5851" y="311.86089" width="6.55704" height="6.55704" rx="1.19229" ry="1.19229" transform="translate(-128.01745 317.13634) rotate(-44.47099)"/>
  <rect x="314.82713" y="300.83914" width="6.55706" height="6.55707" rx="1.19224" ry="1.19224" transform="translate(-111.11604 401.31591) rotate(-56.47173)"/>
  <rect x="308.18869" y="292.20754" width="6.55704" height="6.55704" rx="1.19224" ry="1.19224" transform="translate(-77.70418 476.78543) rotate(-68.47067)"/>
  <rect x="300.95367" y="287.00782" width="6.55706" height="6.55706" rx="1.19231" ry="1.19231" transform="translate(-32.41251 542.26599) rotate(-80.47121)"/>
  <rect x="293.43503" y="285.87946" width="6.55698" height="6.55698" rx="1.19225" ry="1.19225" transform="translate(-12.18723 13.05732) rotate(-2.47026)"/>
  <rect x="285.95904" y="288.95515" width="6.55706" height="6.55706" rx="1.19226" ry="1.19226" transform="translate(-63.8494 81.54792) rotate(-14.47084)"/>
  <rect x="278.85639" y="295.84878" width="6.5571" height="6.55712" rx="1.19234" ry="1.19234" transform="translate(-103.75324 157.11467) rotate(-26.47011)"/>
  <rect x="272.44176" y="305.70947" width="6.55705" height="6.55706" rx="1.19221" ry="1.19221" transform="translate(-132.3739 238.60056) rotate(-38.4704)"/>
  <rect x="267.00325" y="317.35259" width="6.55705" height="6.55706" rx="1.19221" ry="1.19221" transform="translate(-149.04767 325.03277) rotate(-50.47159)"/>
  <rect x="262.78466" y="329.45025" width="6.55711" height="6.55711" rx="1.19235" ry="1.19235" transform="translate(-151.96522 414.88916) rotate(-62.4721)"/>
  <rect x="259.9789" y="340.72086" width="6.55706" height="6.55706" rx="1.19229" ry="1.19229" transform="translate(-138.66432 505.55113) rotate(-74.4713)"/>
  <rect x="258.713" y="350.12239" width="6.557" height="6.55699" rx="1.19222" ry="1.19222" transform="translate(-106.86326 593.14636) rotate(-86.47161)"/>
  <rect x="259.04398" y="356.98996" width="6.55706" height="6.55706" rx="1.19231" ry="1.19231" transform="translate(-50.20772 42.57156) rotate(-8.47078)"/>
  <rect x="260.95731" y="361.1091" width="6.55703" height="6.55704" rx="1.19222" ry="1.19222" transform="translate(-110.75349 115.42594) rotate(-20.47139)"/>
  <rect x="264.36539" y="362.71126" width="6.55706" height="6.55706" rx="1.19228" ry="1.19228" transform="translate(-154.64571 200.90416) rotate(-32.47043)"/>
  <rect x="269.11314" y="362.39105" width="6.55706" height="6.55704" rx="1.19229" ry="1.19229" transform="translate(-178.15756 295.54934) rotate(-44.47099)"/>
  <rect x="274.98575" y="360.96653" width="6.55706" height="6.55706" rx="1.19225" ry="1.19225" transform="translate(-179.07419 395.01836) rotate(-56.47156)"/>
  <rect x="281.71927" y="359.30415" width="6.55704" height="6.55704" rx="1.19223" ry="1.19223" transform="translate(-156.87536 494.63589) rotate(-68.4706)"/>
  <rect x="289.01274" y="358.14154" width="6.55706" height="6.55706" rx="1.19226" ry="1.19226" transform="translate(-112.52895 589.84783) rotate(-80.47121)"/>
  <rect x="296.54426" y="357.94046" width="6.55698" height="6.55698" rx="1.19221" ry="1.19221" transform="translate(-15.29023 13.25829) rotate(-2.47026)"/>
  <rect x="303.98361" y="358.79588" width="6.55706" height="6.55706" rx="1.19225" ry="1.19225" transform="translate(-80.7303 88.26833) rotate(-14.47093)"/>
  <rect x="311.00787" y="360.41624" width="6.55711" height="6.55711" rx="1.19223" ry="1.19223" transform="translate(-129.16188 178.21308) rotate(-26.46994)"/>
  <rect x="317.31521" y="362.18068" width="6.55705" height="6.55705" rx="1.19221" ry="1.19221" transform="translate(-157.76452 278.77502) rotate(-38.4704)"/>
  <rect x="322.63625" y="363.26112" width="6.55705" height="6.55705" rx="1.19221" ry="1.19221" transform="translate(-164.23255 384.63255) rotate(-50.47159)"/>
  <rect x="326.74744" y="362.78847" width="6.55711" height="6.55711" rx="1.19224" ry="1.19224" transform="translate(-147.12913 489.53855) rotate(-62.47188)"/>
  <rect x="329.4749" y="360.03195" width="6.55706" height="6.55706" rx="1.19224" ry="1.19224" transform="translate(-106.38037 586.6507) rotate(-74.47121)"/>
  <rect x="330.70431" y="354.56169" width="6.55699" height="6.55699" rx="1.19222" ry="1.19222" transform="translate(-43.73277 669.16807) rotate(-86.47173)"/>
  <rect x="330.38606" y="346.36453" width="6.55705" height="6.55705" rx="1.1923" ry="1.1923" transform="translate(-47.86354 52.96374) rotate(-8.47064)"/>
  <rect x="328.53123" y="335.88311" width="6.55704" height="6.55704" rx="1.19229" ry="1.19229" transform="translate(-97.6629 137.46491) rotate(-20.47123)"/>
  <rect x="325.21818" y="323.98692" width="6.55706" height="6.55706" rx="1.19225" ry="1.19225" transform="translate(-124.34279 227.52002) rotate(-32.47043)"/>
  <rect x="320.5851" y="311.86089" width="6.55704" height="6.55704" rx="1.19229" ry="1.19229" transform="translate(-128.01745 317.13634) rotate(-44.47099)"/>
  <rect x="329.70472" y="301.84499" width="7.63001" height="7.63" rx="1.1923" ry="1.1923" transform="translate(-118.6112 321.18605) rotate(-44.47099)"/>
  <rect x="322.78758" y="288.33757" width="7.62959" height="7.62958" rx="1.19224" ry="1.19224" transform="translate(-99.94446 392.5511) rotate(-55.05821)"/>
  <rect x="314.89439" y="277.23589" width="7.62963" height="7.62963" rx="1.1922" ry="1.1922" transform="translate(-68.75624 455.50869) rotate(-65.64702)"/>
  <rect x="306.28644" y="269.58595" width="7.62975" height="7.62974" rx="1.19222" ry="1.19222" transform="translate(-29.23007 509.54706) rotate(-76.2357)"/>
  <rect x="297.25306" y="266.12494" width="7.6295" height="7.62949" rx="1.19221" ry="1.19221" transform="translate(14.86533 555.59227) rotate(-86.82455)"/>
  <rect x="288.1017" y="267.17152" width="7.6299" height="7.62989" rx="1.19228" ry="1.19228" transform="translate(-32.51756 39.92059) rotate(-7.41166)"/>
  <rect x="279.14227" y="272.63519" width="7.62954" height="7.62954" rx="1.19218" ry="1.19218" transform="translate(-71.57959 100.97049) rotate(-18.00025)"/>
  <rect x="270.68304" y="281.96788" width="7.62969" height="7.6297" rx="1.19228" ry="1.19228" transform="translate(-103.28578 166.1986) rotate(-28.58913)"/>
  <rect x="263.01946" y="294.28017" width="7.62959" height="7.62959" rx="1.19225" ry="1.19225" transform="translate(-128.32717 235.57633) rotate(-39.177)"/>
  <rect x="256.41761" y="308.42104" width="7.62959" height="7.62959" rx="1.19226" ry="1.19226" transform="translate(-146.21932 309.21696) rotate(-49.76499)"/>
  <rect x="251.10854" y="323.13327" width="7.62973" height="7.62972" rx="1.19222" ry="1.19222" transform="translate(-155.32227 386.77707) rotate(-60.35359)"/>
  <rect x="247.28329" y="337.18475" width="7.62954" height="7.62953" rx="1.19218" ry="1.19218" transform="translate(-153.20116 466.98779) rotate(-70.94174)"/>
  <rect x="245.07133" y="349.52167" width="7.62989" height="7.62989" rx="1.19224" ry="1.19224" transform="translate(-137.25397 547.46763) rotate(-81.53042)"/>
  <rect x="244.56002" y="359.37113" width="7.62958" height="7.62958" rx="1.19222" ry="1.19222" transform="translate(-13.25286 9.4275) rotate(-2.11801)"/>
  <rect x="245.76017" y="366.33128" width="7.62957" height="7.62958" rx="1.19221" ry="1.19221" transform="translate(-75.30355 63.9603) rotate(-12.70642)"/>
  <rect x="248.63135" y="370.37572" width="7.62967" height="7.62966" rx="1.19219" ry="1.19219" transform="translate(-127.39768 130.33346) rotate(-23.29441)"/>
  <rect x="253.07182" y="371.83759" width="7.62961" height="7.62961" rx="1.19216" ry="1.19216" transform="translate(-165.79912 207.00419) rotate(-33.88247)"/>
  <rect x="258.92128" y="371.33341" width="7.62988" height="7.62988" rx="1.1923" ry="1.1923" transform="translate(-187.56318 291.4999) rotate(-44.47099)"/>
  <rect x="265.97845" y="369.64367" width="7.62959" height="7.62958" rx="1.19222" ry="1.19222" transform="translate(-190.86592 380.72122) rotate(-55.05821)"/>
  <rect x="273.99298" y="367.59724" width="7.62967" height="7.62967" rx="1.1922" ry="1.1922" transform="translate(-175.112 471.35081) rotate(-65.64752)"/>
  <rect x="282.68708" y="365.92594" width="7.62964" height="7.62965" rx="1.19219" ry="1.19219" transform="translate(-140.78564 560.04825) rotate(-76.23636)"/>
  <rect x="291.75862" y="365.15826" width="7.62958" height="7.62958" rx="1.19222" ry="1.19222" transform="translate(-89.20873 643.65005) rotate(-86.82398)"/>
  <rect x="300.89765" y="365.53334" width="7.62989" height="7.6299" rx="1.19228" ry="1.19228" transform="translate(-45.09955 42.39357) rotate(-7.41174)"/>
  <rect x="309.79351" y="366.96638" width="7.62953" height="7.62954" rx="1.19217" ry="1.19217" transform="translate(-99.22998 115.05985) rotate(-18.00031)"/>
  <rect x="318.14784" y="369.06183" width="7.6297" height="7.62969" rx="1.19228" ry="1.19228" transform="translate(-139.17535 199.53106) rotate(-28.58917)"/>
  <rect x="325.67812" y="371.16882" width="7.62959" height="7.62959" rx="1.19224" ry="1.19224" transform="translate(-162.81342 292.44414) rotate(-39.17705)"/>
  <rect x="332.13619" y="372.48875" width="7.62959" height="7.62959" rx="1.19218" ry="1.19218" transform="translate(-168.31858 389.70619) rotate(-49.76508)"/>
  <rect x="337.31149" y="372.19688" width="7.6297" height="7.62969" rx="1.19221" ry="1.19221" transform="translate(-154.4018 486.48281) rotate(-60.35275)"/>
  <rect x="341.03168" y="369.57232" width="7.62948" height="7.62949" rx="1.19222" ry="1.19222" transform="translate(-120.67936 577.40347) rotate(-70.94099)"/>
  <rect x="343.17988" y="364.13194" width="7.62983" height="7.62982" rx="1.19226" ry="1.19226" transform="translate(-68.05214 656.95605) rotate(-81.52924)"/>
  <rect x="343.67883" y="355.70696" width="7.62958" height="7.62957" rx="1.19222" ry="1.19222" transform="translate(-13.04163 13.07978) rotate(-2.11667)"/>
  <rect x="342.51884" y="344.51468" width="7.62975" height="7.62974" rx="1.19223" ry="1.19223" transform="translate(-68.13433 84.70718) rotate(-12.70622)"/>
  <rect x="339.73331" y="331.15059" width="7.62967" height="7.62966" rx="1.19226" ry="1.19226" transform="translate(-104.4599 163.16333) rotate(-23.29447)"/>
  <rect x="335.41403" y="316.54046" width="7.62961" height="7.62961" rx="1.19217" ry="1.19217" transform="translate(-120.98845 243.5194) rotate(-33.88253)"/>
  <rect x="329.70414" y="301.84569" width="7.62987" height="7.62988" rx="1.1923" ry="1.1923" transform="translate(-118.61184 321.18578) rotate(-44.47099)"/>
  <rect x="340.35569" y="290.32578" width="8.70296" height="8.70296" rx="1.19229" ry="1.19229" transform="translate(-107.71324 325.87799) rotate(-44.47099)"/>
  <rect x="332.27629" y="274.29736" width="8.70249" height="8.7025" rx="1.1922" ry="1.1922" transform="translate(-86.77521 386.78396) rotate(-53.94363)"/>
  <rect x="323.1408" y="260.67286" width="8.70278" height="8.7028" rx="1.19228" ry="1.19228" transform="translate(-56.06189 439.30927) rotate(-63.41845)"/>
  <rect x="313.19159" y="250.4933" width="8.70242" height="8.70241" rx="1.19222" ry="1.19222" transform="translate(-19.44113 483.36361) rotate(-72.89124)"/>
  <rect x="302.69527" y="244.51971" width="8.70256" height="8.70256" rx="1.19225" ry="1.19225" transform="translate(19.59045 520.1335) rotate(-82.3657)"/>
  <rect x="291.93698" y="243.22385" width="8.70241" height="8.7024" rx="1.1922" ry="1.1922" transform="translate(-7.79324 9.63686) rotate(-1.83921)"/>
  <rect x="281.20605" y="246.69398" width="8.70253" height="8.70254" rx="1.19221" ry="1.19221" transform="translate(-43.70043 60.89785) rotate(-11.31347)"/>
  <rect x="270.80084" y="254.66089" width="8.70248" height="8.70249" rx="1.19218" ry="1.19218" transform="translate(-74.01047 114.50793) rotate(-20.78664)"/>
  <rect x="261.00547" y="266.49994" width="8.70254" height="8.70255" rx="1.1922" ry="1.1922" transform="translate(-100.33486 170.6303) rotate(-30.26099)"/>
  <rect x="252.09682" y="281.30412" width="8.70239" height="8.70239" rx="1.19218" ry="1.19218" transform="translate(-123.36378 229.90998) rotate(-39.73424)"/>
  <rect x="244.32009" y="297.96786" width="8.7024" height="8.70239" rx="1.19218" ry="1.19218" transform="translate(-142.67094 293.07339) rotate(-49.20774)"/>
  <rect x="237.89456" y="315.30144" width="8.70268" height="8.70267" rx="1.1922" ry="1.1922" transform="translate(-156.74938 360.44168) rotate(-58.68068)"/>
  <rect x="233.00509" y="332.13783" width="8.70248" height="8.70248" rx="1.19219" ry="1.19219" transform="translate(-163.28967 431.59798) rotate(-68.1554)"/>
  <rect x="229.78783" y="347.42667" width="8.70253" height="8.70253" rx="1.19226" ry="1.19226" transform="translate(-159.63449 505.11153) rotate(-77.62845)"/>
  <rect x="228.33561" y="360.34844" width="8.70241" height="8.70241" rx="1.19224" ry="1.19224" transform="translate(-143.30755 578.65576) rotate(-87.10282)"/>
  <rect x="228.68594" y="370.37162" width="8.70275" height="8.70275" rx="1.19227" ry="1.19227" transform="translate(-41.38098 29.15345) rotate(-6.57608)"/>
  <rect x="230.83779" y="377.27858" width="8.70241" height="8.70242" rx="1.19221" ry="1.19221" transform="translate(-96.34801 79.90413) rotate(-16.05075)"/>
  <rect x="234.71749" y="381.18567" width="8.70279" height="8.70278" rx="1.19227" ry="1.19227" transform="translate(-142.78975 140.63557) rotate(-25.52353)"/>
  <rect x="240.22646" y="382.47858" width="8.70249" height="8.70248" rx="1.19225" ry="1.19225" transform="translate(-177.6395 210.22803) rotate(-34.99819)"/>
  <rect x="247.1975" y="381.77955" width="8.70282" height="8.70282" rx="1.19229" ry="1.19229" transform="translate(-198.461 286.80801) rotate(-44.47099)"/>
  <rect x="255.44277" y="379.83027" width="8.70249" height="8.70248" rx="1.1922" ry="1.1922" transform="translate(-203.70286 368.08798) rotate(-53.94375)"/>
  <rect x="264.72551" y="377.41787" width="8.70279" height="8.70278" rx="1.19226" ry="1.19226" transform="translate(-192.74274 451.57443) rotate(-63.41856)"/>
  <rect x="274.79006" y="375.25471" width="8.70247" height="8.70248" rx="1.19221" ry="1.19221" transform="translate(-165.78344 534.72693) rotate(-72.89216)"/>
  <rect x="285.35191" y="373.90352" width="8.70266" height="8.70266" rx="1.19226" ry="1.19226" transform="translate(-123.68803 615.13532) rotate(-82.36517)"/>
  <rect x="296.12537" y="373.69519" width="8.7026" height="8.70258" rx="1.1922" ry="1.1922" transform="translate(-11.97806 9.8381) rotate(-1.83914)"/>
  <rect x="306.81415" y="374.69821" width="8.7026" height="8.70261" rx="1.19224" ry="1.19224" transform="translate(-68.309 68.40243) rotate(-11.3125)"/>
  <rect x="317.12867" y="376.70306" width="8.70247" height="8.70248" rx="1.19223" ry="1.19223" transform="translate(-114.30634 138.89308) rotate(-20.78664)"/>
  <rect x="326.79165" y="379.25199" width="8.70253" height="8.70254" rx="1.19232" ry="1.19232" transform="translate(-148.19083 219.14581) rotate(-30.26094)"/>
  <rect x="335.54124" y="381.68956" width="8.70239" height="8.7024" rx="1.19218" ry="1.19218" transform="translate(-168.25872 306.43713) rotate(-39.73424)"/>
  <rect x="343.14738" y="383.2519" width="8.70238" height="8.70238" rx="1.19226" ry="1.19226" transform="translate(-172.97663 397.45117) rotate(-49.20674)"/>
  <rect x="349.41393" y="383.15963" width="8.70267" height="8.70267" rx="1.19232" ry="1.19232" transform="translate(-161.16857 488.29664) rotate(-58.68077)"/>
  <rect x="354.17002" y="380.71073" width="8.70243" height="8.70243" rx="1.19218" ry="1.19218" transform="translate(-132.29672 574.5558) rotate(-68.15465)"/>
  <rect x="357.29718" y="375.39425" width="8.70254" height="8.70254" rx="1.19223" ry="1.19223" transform="translate(-86.76159 651.63649) rotate(-77.62858)"/>
  <rect x="358.70719" y="366.94584" width="8.70241" height="8.70241" rx="1.19221" ry="1.19221" transform="translate(-26.11417 715.12492) rotate(-87.10286)"/>
  <rect x="358.37019" y="355.42126" width="8.70264" height="8.70264" rx="1.19226" ry="1.19226" transform="translate(-38.81243 43.90284) rotate(-6.57551)"/>
  <rect x="356.28778" y="341.18805" width="8.70248" height="8.70248" rx="1.19223" ry="1.19223" transform="translate(-81.47565 113.17638) rotate(-16.04993)"/>
  <rect x="352.5212" y="324.93599" width="8.70279" height="8.70278" rx="1.19228" ry="1.19228" transform="translate(-107.056 185.90509) rotate(-25.52347)"/>
  <rect x="347.16008" y="307.60678" width="8.70249" height="8.7025" rx="1.19224" ry="1.19224" transform="translate(-115.36002 258.02128) rotate(-34.99824)"/>
  <rect x="340.35497" y="290.32661" width="8.7028" height="8.70282" rx="1.19229" ry="1.19229" transform="translate(-107.71401 325.87765) rotate(-44.47099)"/>
  <rect x="352.53797" y="277.30326" width="9.77591" height="9.7759" rx="1.19229" ry="1.19229" transform="translate(-95.32359 331.21215) rotate(-44.47099)"/>
  <rect x="343.29247" y="258.73042" width="9.77529" height="9.7753" rx="1.19223" ry="1.19223" transform="translate(-71.80549 383.35097) rotate(-53.04272)"/>
  <rect x="332.92656" y="242.55807" width="9.77551" height="9.77551" rx="1.19223" ry="1.19223" transform="translate(-40.48114 427.00223) rotate(-61.61359)"/>
  <rect x="321.66098" y="229.78619" width="9.77537" height="9.77538" rx="1.19224" ry="1.19224" transform="translate(-4.92518 462.338) rotate(-70.18508)"/>
  <rect x="309.74543" y="221.20748" width="9.77537" height="9.77537" rx="1.19221" ry="1.19221" transform="translate(31.52864 490.60392) rotate(-78.75611)"/>
  <rect x="297.43697" y="217.36084" width="9.77557" height="9.77557" rx="1.19224" ry="1.19224" transform="translate(66.2297 513.88853) rotate(-87.32914)"/>
  <rect x="285.01475" y="218.49946" width="9.77539" height="9.77537" rx="1.19225" ry="1.19225" transform="translate(-21.42763 30.98436) rotate(-5.90023)"/>
  <rect x="272.75654" y="224.52923" width="9.77571" height="9.77572" rx="1.19227" ry="1.19227" transform="translate(-48.52146 76.66093) rotate(-14.47134)"/>
  <rect x="260.93808" y="235.08107" width="9.77526" height="9.77527" rx="1.19223" ry="1.19223" transform="translate(-72.71846 123.19486) rotate(-23.04268)"/>
  <rect x="249.82415" y="249.46155" width="9.77544" height="9.77544" rx="1.19222" ry="1.19222" transform="translate(-95.52882 171.2641) rotate(-31.61399)"/>
  <rect x="239.67219" y="266.7851" width="9.77534" height="9.77534" rx="1.19222" ry="1.19222" transform="translate(-117.57467 221.93144) rotate(-40.18548)"/>
  <rect x="230.71423" y="285.98838" width="9.77533" height="9.77532" rx="1.19224" ry="1.19224" transform="translate(-138.43492 276.2616) rotate(-48.75591)"/>
  <rect x="223.15327" y="305.95121" width="9.77555" height="9.77556" rx="1.19221" ry="1.19221" transform="translate(-156.719 334.99061) rotate(-57.32686)"/>
  <rect x="217.17039" y="325.56121" width="9.77527" height="9.77527" rx="1.19221" ry="1.19221" transform="translate(-170.26087 398.21384) rotate(-65.89929)"/>
  <rect x="212.89632" y="343.79807" width="9.77572" height="9.77573" rx="1.19227" ry="1.19227" transform="translate(-176.48022 465.16517) rotate(-74.47065)"/>
  <rect x="210.44233" y="359.8174" width="9.77534" height="9.77534" rx="1.19222" ry="1.19222" transform="translate(-172.77231 534.27333) rotate(-83.04276)"/>
  <rect x="209.85423" y="373.00812" width="9.77556" height="9.77557" rx="1.19225" ry="1.19225" transform="translate(-10.55227 6.1945) rotate(-1.61303)"/>
  <rect x="211.15384" y="383.02317" width="9.77546" height="9.77546" rx="1.19223" ry="1.19223" transform="translate(-65.19126 44.31678) rotate(-10.18542)"/>
  <rect x="214.30798" y="389.79294" width="9.77525" height="9.77525" rx="1.19218" ry="1.19218" transform="translate(-115.26728 91.44132) rotate(-18.75643)"/>
  <rect x="219.23835" y="393.52096" width="9.77547" height="9.77546" rx="1.19223" ry="1.19223" transform="translate(-157.89402 147.36562) rotate(-27.32917)"/>
  <rect x="225.83767" y="394.62822" width="9.77527" height="9.77528" rx="1.19222" ry="1.19222" transform="translate(-190.43801 211.18491) rotate(-35.90035)"/>
  <rect x="233.9424" y="393.729" width="9.77575" height="9.77575" rx="1.19229" ry="1.19229" transform="translate(-210.85054 281.4739) rotate(-44.47099)"/>
  <rect x="243.37785" y="391.52435" width="9.77527" height="9.77528" rx="1.19224" ry="1.19224" transform="translate(-217.76227 356.45759) rotate(-53.04164)"/>
  <rect x="253.91886" y="388.76238" width="9.77551" height="9.77552" rx="1.19225" ry="1.19225" transform="translate(-210.55229 434.19044) rotate(-61.61354)"/>
  <rect x="265.32628" y="386.13068" width="9.77538" height="9.77539" rx="1.19224" ry="1.19224" transform="translate(-189.25129 512.68441) rotate(-70.18499)"/>
  <rect x="277.34116" y="384.20164" width="9.77537" height="9.77537" rx="1.19225" ry="1.19225" transform="translate(-154.42331 590.03339) rotate(-78.756)"/>
  <rect x="289.69118" y="383.36782" width="9.77567" height="9.77568" rx="1.19222" ry="1.19222" transform="translate(-106.98536 664.41739) rotate(-87.3284)"/>
  <rect x="302.09827" y="383.80277" width="9.77525" height="9.77525" rx="1.19221" ry="1.19221" transform="translate(-38.32771 33.61423) rotate(-5.8999)"/>
  <rect x="314.28585" y="385.44599" width="9.7758" height="9.7758" rx="1.19228" ry="1.19228" transform="translate(-87.41224 92.13888) rotate(-14.47057)"/>
  <rect x="325.98543" y="388.00398" width="9.77527" height="9.77527" rx="1.19224" ry="1.19224" transform="translate(-127.38529 160.85695) rotate(-23.04271)"/>
  <rect x="336.93967" y="390.98481" width="9.7754" height="9.77541" rx="1.19228" ry="1.19228" transform="translate(-156.78855 237.93846) rotate(-31.61477)"/>
  <rect x="346.90476" y="393.7423" width="9.77534" height="9.77534" rx="1.19222" ry="1.19222" transform="translate(-174.18444 321.09226) rotate(-40.18553)"/>
  <rect x="355.66924" y="395.54921" width="9.77534" height="9.77534" rx="1.19222" ry="1.19222" transform="translate(-178.23837 407.55184) rotate(-48.75641)"/>
  <rect x="363.04329" y="395.66736" width="9.77556" height="9.77556" rx="1.19227" ry="1.19227" transform="translate(-167.86756 494.02982) rotate(-57.32703)"/>
  <rect x="368.86683" y="393.42264" width="9.77541" height="9.77542" rx="1.19223" ry="1.19223" transform="translate(-142.45577 576.83347) rotate(-65.89883)"/>
  <rect x="373.01923" y="388.2928" width="9.77572" height="9.77572" rx="1.19226" ry="1.19226" transform="translate(-102.09775 652.02455) rotate(-74.47064)"/>
  <rect x="375.4025" y="379.94715" width="9.77534" height="9.77535" rx="1.19221" ry="1.19221" transform="translate(-47.77503 715.71039) rotate(-83.04276)"/>
  <rect x="375.97584" y="368.33013" width="9.77557" height="9.77557" rx="1.19225" ry="1.19225" transform="translate(-10.35478 10.86881) rotate(-1.61303)"/>
  <rect x="374.72032" y="353.63588" width="9.77546" height="9.77545" rx="1.19223" ry="1.19223" transform="translate(-57.4166 72.77738) rotate(-10.18536)"/>
  <rect x="371.66564" y="336.3582" width="9.77544" height="9.77545" rx="1.19217" ry="1.19217" transform="translate(-89.72708 139.197) rotate(-18.7559)"/>
  <rect x="366.87618" y="317.22593" width="9.77551" height="9.77552" rx="1.19224" ry="1.19224" transform="translate(-106.38669 206.62504) rotate(-27.32849)"/>
  <rect x="360.45202" y="297.18439" width="9.7753" height="9.77531" rx="1.19218" ry="1.19218" transform="translate(-107.72709 271.60175) rotate(-35.89946)"/>
  <rect x="352.53713" y="277.30424" width="9.77576" height="9.77575" rx="1.19231" ry="1.19231" transform="translate(-95.32448 331.21177) rotate(-44.47099)"/>
  <rect x="366.25159" y="262.77742" width="10.84886" height="10.84886" rx="1.19229" ry="1.19229" transform="translate(-81.44221 337.18855) rotate(-44.47099)"/>
  <rect x="355.84112" y="241.64474" width="10.84841" height="10.84842" rx="1.19225" ry="1.19225" transform="translate(-55.15284 381.79686) rotate(-52.29665)"/>
  <rect x="344.25269" y="222.90062" width="10.84837" height="10.84836" rx="1.19224" ry="1.19224" transform="translate(-22.49192 417.78857) rotate(-60.12265)"/>
  <rect x="331.69134" y="207.5099" width="10.84817" height="10.84817" rx="1.19218" ry="1.19218" transform="translate(13.19221 445.44515) rotate(-67.94863)"/>
  <rect x="318.38677" y="196.26358" width="10.8482" height="10.84819" rx="1.19224" ry="1.19224" transform="translate(48.73648 466.00847) rotate(-75.77486)"/>
  <rect x="304.58456" y="189.7543" width="10.84839" height="10.84838" rx="1.19224" ry="1.19224" transform="translate(81.49646 481.50383) rotate(-83.60123)"/>
  <rect x="290.53932" y="188.3274" width="10.84863" height="10.84864" rx="1.19226" ry="1.19226" transform="translate(-4.73456 7.43265) rotate(-1.4274)"/>
  <rect x="276.51008" y="192.06493" width="10.84837" height="10.84839" rx="1.19226" ry="1.19226" transform="translate(-28.09015 47.91056) rotate(-9.25437)"/>
  <rect x="262.76393" y="200.75135" width="10.84815" height="10.84814" rx="1.19222" ry="1.19222" transform="translate(-48.7272 87.86287) rotate(-17.08018)"/>
  <rect x="249.55446" y="213.91231" width="10.84844" height="10.84845" rx="1.19224" ry="1.19224" transform="translate(-68.6573 127.78111) rotate(-24.90661)"/>
  <rect x="237.13939" y="230.86753" width="10.8483" height="10.84829" rx="1.19222" ry="1.19222" transform="translate(-89.24825 168.67685) rotate(-32.73187)"/>
  <rect x="225.74525" y="250.72617" width="10.84848" height="10.84849" rx="1.19223" ry="1.19223" transform="translate(-111.0145 211.85048) rotate(-40.5579)"/>
  <rect x="215.59796" y="272.48562" width="10.84848" height="10.84849" rx="1.19228" ry="1.19228" transform="translate(-133.53541 258.58079) rotate(-48.38426)"/>
  <rect x="206.89024" y="295.08075" width="10.8483" height="10.84831" rx="1.19223" ry="1.19223" transform="translate(-155.50844 309.83015) rotate(-56.2101)"/>
  <rect x="199.79098" y="317.45007" width="10.8483" height="10.8483" rx="1.19223" ry="1.19223" transform="translate(-174.91579 366.01921) rotate(-64.03581)"/>
  <rect x="194.43395" y="338.61426" width="10.84835" height="10.84835" rx="1.19223" ry="1.19223" transform="translate(-189.30247 426.86202) rotate(-71.86171)"/>
  <rect x="190.92559" y="357.72926" width="10.84847" height="10.84846" rx="1.19221" ry="1.19221" transform="translate(-196.08462 491.32883) rotate(-79.68866)"/>
  <rect x="189.33342" y="374.13205" width="10.84862" height="10.84863" rx="1.19226" ry="1.19226" transform="translate(-192.88724 557.67143) rotate(-87.51459)"/>
  <rect x="189.69452" y="387.38" width="10.84839" height="10.84839" rx="1.19223" ry="1.19223" transform="translate(-35.71497 19.86686) rotate(-5.3408)"/>
  <rect x="191.99315" y="397.27608" width="10.84842" height="10.84841" rx="1.19223" ry="1.19223" transform="translate(-86.53868 55.55464) rotate(-13.1666)"/>
  <rect x="196.19015" y="403.8531" width="10.84824" height="10.84823" rx="1.19221" ry="1.19221" transform="translate(-133.24216 99.39446) rotate(-20.99287)"/>
  <rect x="202.19876" y="407.37561" width="10.84819" height="10.8482" rx="1.19224" ry="1.19224" transform="translate(-173.27277 151.20962) rotate(-28.81895)"/>
  <rect x="209.90458" y="408.28822" width="10.84841" height="10.8484" rx="1.19223" ry="1.19223" transform="translate(-204.36763 210.29323) rotate(-36.64533)"/>
  <rect x="219.15608" y="407.18164" width="10.8487" height="10.84869" rx="1.19229" ry="1.19229" transform="translate(-224.73167 275.49761) rotate(-44.47099)"/>
  <rect x="229.7805" y="404.72768" width="10.84858" height="10.84857" rx="1.19224" ry="1.19224" transform="translate(-233.1473 345.40438) rotate(-52.29656)"/>
  <rect x="241.57344" y="401.62756" width="10.84815" height="10.84815" rx="1.19224" ry="1.19224" transform="translate(-228.9951 418.44647) rotate(-60.12212)"/>
  <rect x="254.30553" y="398.54953" width="10.84817" height="10.84817" rx="1.19224" ry="1.19224" transform="translate(-212.20479 493.03579) rotate(-67.94855)"/>
  <rect x="267.73677" y="396.06189" width="10.84842" height="10.84841" rx="1.19221" ry="1.19221" transform="translate(-183.13766 567.61723) rotate(-75.77539)"/>
  <rect x="281.61257" y="394.59268" width="10.84839" height="10.84839" rx="1.19224" ry="1.19224" transform="translate(-142.47775 640.68445) rotate(-83.60121)"/>
  <rect x="295.67106" y="394.3906" width="10.84862" height="10.84862" rx="1.19227" ry="1.19227" transform="translate(-9.85808 7.6181) rotate(-1.42623)"/>
  <rect x="309.65739" y="395.50352" width="10.84824" height="10.84823" rx="1.19222" ry="1.19222" transform="translate(-60.37099 55.88453) rotate(-9.25366)"/>
  <rect x="323.30259" y="397.77719" width="10.8482" height="10.84819" rx="1.19222" ry="1.19222" transform="translate(-103.92323 114.3301) rotate(-17.07973)"/>
  <rect x="336.36002" y="400.8653" width="10.84834" height="10.84835" rx="1.19223" ry="1.19223" transform="translate(-139.31303 181.71647) rotate(-24.90548)"/>
  <rect x="348.59197" y="404.25904" width="10.84846" height="10.84846" rx="1.19224" ry="1.19224" transform="translate(-165.30507 256.47338) rotate(-32.73191)"/>
  <rect x="359.77174" y="407.32834" width="10.84848" height="10.84848" rx="1.19222" ry="1.19222" transform="translate(-180.63968 336.61964) rotate(-40.55782)"/>
  <rect x="369.69866" y="409.38087" width="10.84848" height="10.84848" rx="1.19223" ry="1.19223" transform="translate(-184.12289 419.76683) rotate(-48.38417)"/>
  <rect x="378.19357" y="409.71475" width="10.8483" height="10.8483" rx="1.19222" ry="1.19222" transform="translate(-174.74568 503.07734) rotate(-56.21006)"/>
  <rect x="385.10702" y="407.69217" width="10.8483" height="10.84829" rx="1.19224" ry="1.19224" transform="translate(-151.86661 583.36417) rotate(-64.03581)"/>
  <rect x="390.31341" y="402.78213" width="10.84835" height="10.84834" rx="1.19222" ry="1.19222" transform="translate(-115.38128 657.20052) rotate(-71.86182)"/>
  <rect x="393.7191" y="394.62542" width="10.84837" height="10.84838" rx="1.19224" ry="1.19224" transform="translate(-65.89651 721.13065) rotate(-79.68764)"/>
  <rect x="395.2667" y="383.07063" width="10.84863" height="10.84863" rx="1.19226" ry="1.19226" transform="translate(-4.81443 771.96195) rotate(-87.51459)"/>
  <rect x="394.92163" y="368.19681" width="10.84836" height="10.84836" rx="1.1922" ry="1.1922" transform="translate(-33.02997 38.87504) rotate(-5.33935)"/>
  <rect x="392.69603" y="350.32452" width="10.84828" height="10.84827" rx="1.19223" ry="1.19223" transform="translate(-70.56658 100.03494) rotate(-13.16634)"/>
  <rect x="388.62842" y="330.01032" width="10.84823" height="10.84823" rx="1.19222" ry="1.19222" transform="translate(-94.01471 163.43435) rotate(-20.99286)"/>
  <rect x="382.78885" y="308.01657" width="10.8482" height="10.84819" rx="1.19222" ry="1.19222" transform="translate(-103.01092 225.95663) rotate(-28.81902)"/>
  <rect x="375.2863" y="285.26159" width="10.84841" height="10.84841" rx="1.19224" ry="1.19224" transform="translate(-98.24954 284.68627) rotate(-36.64534)"/>
  <rect x="366.2505" y="262.77866" width="10.8487" height="10.84869" rx="1.19229" ry="1.19229" transform="translate(-81.44335 337.18806) rotate(-44.47099)"/>
  <rect x="381.49778" y="246.7467" width="11.92219" height="11.92217" rx="1.19229" ry="1.19229" transform="translate(-66.06774 343.80778) rotate(-44.47099)"/>
  <rect x="369.92125" y="223.0421" width="11.92177" height="11.92177" rx="1.19225" ry="1.19225" transform="translate(-36.87647 381.84304) rotate(-51.67055)"/>
  <rect x="357.11654" y="201.7139" width="11.92154" height="11.92155" rx="1.19221" ry="1.19221" transform="translate(-2.3953 411.10444) rotate(-58.87013)"/>
  <rect x="343.27437" y="183.68089" width="11.92138" height="11.92136" rx="1.19223" ry="1.19223" transform="translate(34.23935 431.93634) rotate(-66.07033)"/>
  <rect x="328.61165" y="169.72803" width="11.92166" height="11.92164" rx="1.19222" ry="1.19222" transform="translate(70.01541 445.53117) rotate(-73.27126)"/>
  <rect x="313.35743" y="160.48388" width="11.92196" height="11.92195" rx="1.19228" ry="1.19228" transform="translate(102.30633 453.80158) rotate(-80.47066)"/>
  <rect x="297.74149" y="156.3723" width="11.92162" height="11.92163" rx="1.19223" ry="1.19223" transform="translate(129.1636 459.18892) rotate(-87.67139)"/>
  <rect x="282.02085" y="157.55933" width="11.92143" height="11.92143" rx="1.1922" ry="1.1922" transform="translate(-12.84422 25.04248) rotate(-4.87074)"/>
  <rect x="266.43305" y="163.9875" width="11.92155" height="11.92153" rx="1.19226" ry="1.19226" transform="translate(-29.51699 60.72066) rotate(-12.07081)"/>
  <rect x="251.22958" y="175.36348" width="11.92173" height="11.92174" rx="1.1922" ry="1.1922" transform="translate(-45.43376 95.04553) rotate(-19.27163)"/>
  <rect x="236.65545" y="191.17215" width="11.92206" height="11.92207" rx="1.19232" ry="1.19232" transform="translate(-62.43543 128.81348) rotate(-26.47119)"/>
  <rect x="222.94479" y="210.71944" width="11.92174" height="11.92174" rx="1.19226" ry="1.19226" transform="translate(-81.73071 163.26492) rotate(-33.67153)"/>
  <rect x="210.31791" y="233.13523" width="11.92149" height="11.92149" rx="1.19219" ry="1.19219" transform="translate(-103.72268 199.82147) rotate(-40.87145)"/>
  <rect x="198.97787" y="257.45598" width="11.92149" height="11.92151" rx="1.19225" ry="1.19225" transform="translate(-127.97855 239.87171) rotate(-48.07161)"/>
  <rect x="189.10962" y="282.67714" width="11.92157" height="11.92157" rx="1.1922" ry="1.1922" transform="translate(-153.27907 284.51985) rotate(-55.27066)"/>
  <rect x="180.87004" y="307.79801" width="11.92205" height="11.92205" rx="1.19231" ry="1.19231" transform="translate(-177.75616 334.4166) rotate(-62.4708)"/>
  <rect x="174.40983" y="331.8705" width="11.92158" height="11.92159" rx="1.19224" ry="1.19224" transform="translate(-199.08102 389.59995) rotate(-69.67082)"/>
  <rect x="169.8191" y="354.05835" width="11.92154" height="11.92152" rx="1.19222" ry="1.19222" transform="translate(-214.75602 449.42852) rotate(-76.87107)"/>
  <rect x="167.17833" y="373.67485" width="11.92159" height="11.92158" rx="1.1922" ry="1.1922" transform="translate(-222.35081 512.63221) rotate(-84.07078)"/>
  <rect x="166.53008" y="390.21935" width="11.92177" height="11.92176" rx="1.19225" ry="1.19225" transform="translate(-8.74469 3.92324) rotate(-1.2709)"/>
  <rect x="167.8853" y="403.39111" width="11.92195" height="11.92195" rx="1.19226" ry="1.19226" transform="translate(-58.40638 30.07598) rotate(-8.47127)"/>
  <rect x="171.22905" y="413.09157" width="11.92165" height="11.92165" rx="1.19223" ry="1.19223" transform="translate(-106.6044 63.43747) rotate(-15.67088)"/>
  <rect x="176.49787" y="419.4451" width="11.92153" height="11.92153" rx="1.19219" ry="1.19219" transform="translate(-150.9973 104.36312) rotate(-22.87181)"/>
  <rect x="183.6045" y="422.74797" width="11.92154" height="11.92155" rx="1.19222" ry="1.19222" transform="translate(-189.30426 152.69415) rotate(-30.07193)"/>
  <rect x="192.43216" y="423.45534" width="11.92177" height="11.92175" rx="1.19226" ry="1.19226" transform="translate(-219.53416 207.84243) rotate(-37.27143)"/>
  <rect x="202.83685" y="422.1388" width="11.92199" height="11.92199" rx="1.1923" ry="1.1923" transform="translate(-240.10588 268.8785) rotate(-44.47099)"/>
  <rect x="214.65406" y="419.43606" width="11.92175" height="11.92175" rx="1.19226" ry="1.19226" transform="translate(-249.91247 334.63647) rotate(-51.67056)"/>
  <rect x="227.68828" y="416.01425" width="11.92154" height="11.92154" rx="1.19227" ry="1.19227" transform="translate(-248.35238 403.82527) rotate(-58.87009)"/>
  <rect x="241.72771" y="412.51119" width="11.92153" height="11.92153" rx="1.19224" ry="1.19224" transform="translate(-235.27965 475.13006) rotate(-66.07014)"/>
  <rect x="256.54717" y="409.48717" width="11.9218" height="11.92181" rx="1.19222" ry="1.19222" transform="translate(-210.91898 547.26013) rotate(-73.27087)"/>
  <rect x="271.90935" y="407.38995" width="11.92195" height="11.92194" rx="1.1923" ry="1.1923" transform="translate(-175.77854 618.95639) rotate(-80.47077)"/>
  <rect x="287.56885" y="406.51951" width="11.92176" height="11.92175" rx="1.19224" ry="1.19224" transform="translate(-130.5377 689.00632) rotate(-87.67112)"/>
  <rect x="303.277" y="407.00561" width="11.92144" height="11.92144" rx="1.19219" ry="1.19219" transform="translate(-33.94714 27.74781) rotate(-4.87069)"/>
  <rect x="318.78796" y="408.80426" width="11.92153" height="11.92154" rx="1.19222" ry="1.19222" transform="translate(-79.55616 77.08274) rotate(-12.0709)"/>
  <rect x="333.85834" y="411.69064" width="11.92158" height="11.92158" rx="1.19225" ry="1.19225" transform="translate(-118.80056 135.55617) rotate(-19.2712)"/>
  <rect x="348.25573" y="415.28623" width="11.92206" height="11.92206" rx="1.19232" ry="1.19232" transform="translate(-150.63345 202.0555) rotate(-26.47119)"/>
  <rect x="361.751" y="419.07301" width="11.92174" height="11.92174" rx="1.19226" ry="1.19226" transform="translate(-173.96063 275.17822) rotate(-33.67146)"/>
  <rect x="374.13978" y="422.44498" width="11.92149" height="11.92149" rx="1.1922" ry="1.1922" transform="translate(-187.65707 353.17816) rotate(-40.87145)"/>
  <rect x="385.23122" y="424.74214" width="11.9215" height="11.92149" rx="1.19224" ry="1.19224" transform="translate(-190.63763 433.93504) rotate(-48.07054)"/>
  <rect x="394.86211" y="425.30429" width="11.92156" height="11.92157" rx="1.19226" ry="1.19226" transform="translate(-181.96225 514.99104) rotate(-55.27072)"/>
  <rect x="402.88523" y="423.51746" width="11.92206" height="11.92206" rx="1.19232" ry="1.19232" transform="translate(-160.9737 593.52805) rotate(-62.4708)"/>
  <rect x="409.17012" y="418.84934" width="11.92183" height="11.92182" rx="1.19224" ry="1.19224" transform="translate(-127.44058 666.49923) rotate(-69.67085)"/>
  <rect x="413.6274" y="410.92479" width="11.92154" height="11.92154" rx="1.19221" ry="1.19221" transform="translate(-81.70664 730.8144) rotate(-76.87116)"/>
  <rect x="416.19239" y="399.53618" width="11.92159" height="11.92159" rx="1.19221" ry="1.19221" transform="translate(-24.78285 783.50397) rotate(-84.07078)"/>
  <rect x="416.82391" y="384.6662" width="11.92163" height="11.92163" rx="1.19223" ry="1.19223" transform="translate(-8.55794 9.47101) rotate(-1.2706)"/>
  <rect x="415.5146" y="366.50913" width="11.92195" height="11.92194" rx="1.19226" ry="1.19226" transform="translate(-50.2715 66.15273) rotate(-8.47127)"/>
  <rect x="412.27764" y="345.46819" width="11.92165" height="11.92165" rx="1.19224" ry="1.19224" transform="translate(-79.37864 126.03385) rotate(-15.67089)"/>
  <rect x="407.16692" y="322.14278" width="11.9216" height="11.9216" rx="1.19224" ry="1.19224" transform="translate(-95.0412 186.36149) rotate(-22.87117)"/>
  <rect x="400.25888" y="297.30209" width="11.92159" height="11.92159" rx="1.19217" ry="1.19217" transform="translate(-97.28158 244.36219) rotate(-30.07088)"/>
  <rect x="391.6596" y="271.84096" width="11.92174" height="11.92175" rx="1.19223" ry="1.19223" transform="translate(-87.03065 297.52962) rotate(-37.27144)"/>
  <rect x="381.49646" y="246.74819" width="11.92198" height="11.92199" rx="1.19229" ry="1.19229" transform="translate(-66.06914 343.80718) rotate(-44.47099)"/>
</svg>