<?xml version="1.0" encoding="UTF-8"?>
<svg id="Capa_2" data-name="Capa 2" xmlns="http://www.w3.org/2000/svg" width="210mm" height="209.99999mm" viewBox="0 0 595.27559 595.27557">
  <defs>
    <style>
      .cls-1 {
        fill: #fff;
      }
    </style>
  </defs>
  <path class="cls-1" d="M297.71407,342.35565l.88214,.89859c-.48719-.49627-.47983-1.29352,.01644-1.78071l-.89858,.88214c.49626-.48718,1.29351-.47982,1.7807,.01645l-.88214-.89859c.48719,.49627,.47983,1.29352-.01643,1.7807l.89858-.88214c-.49627,.48719-1.29352,.47983-1.78071-.01644Z"/>
  <path class="cls-1" d="M297.53658,342.44698l1.24182,.20849c-.68585-.11513-1.14848-.76445-1.03335-1.4503l-.20849,1.24182c.11514-.68584,.76446-1.14847,1.45031-1.03334l-1.24183-.2085c.68584,.11514,1.14847,.76446,1.03335,1.45031l.20849-1.24182c-.11515,.68585-.76446,1.14847-1.4503,1.03334Z"/>
  <path class="cls-1" d="M297.59301,342.92901l1.12715-.56132c-.62252,.31-1.37847,.05664-1.68849-.56586l.56135,1.12716c-.31001-.62253-.05668-1.37847,.56586-1.6885l-1.12716,.56135c.62252-.31,1.37848-.05667,1.68848,.56586l-.56133-1.12716c.31,.62254,.05667,1.37848-.56586,1.68848Z"/>
  <path class="cls-1" d="M297.86297,343.52014l.58205-1.11658c-.32145,.61669-1.08194,.85602-1.69864,.53458l1.1166,.58205c-.6167-.32144-.85604-1.08196-.53459-1.69865l-.58206,1.11661c.32147-.61671,1.08196-.85604,1.69866-.53458l-1.1166-.58207c.61669,.32147,.85603,1.08195,.53458,1.69864Z"/>
  <path class="cls-1" d="M298.24574,343.68158l-.18553-1.24544c.10246,.68785-.37209,1.32849-1.05994,1.43097l1.24545-.18552c-.68785,.10245-1.32852-.3721-1.43098-1.05995l.18553,1.24546c-.10246-.68786,.37209-1.32853,1.05994-1.43099l-1.24545,.18552c.68785-.10245,1.32852,.3721,1.43098,1.05995Z"/>
  <path class="cls-1" d="M298.59622,343.25424l-.88214-.89859c.48719,.49627,.47982,1.29353-.01645,1.78072l.89859-.88214c-.49627,.48719-1.29352,.47983-1.78071-.01644l.88214,.89859c-.48719-.49627-.47983-1.29352,.01644-1.78071l-.89859,.88214c.49627-.48719,1.29353-.47984,1.78072,.01643Z"/>
  <path class="cls-1" d="M298.77839,342.65511l-1.24182-.20849c.68584,.11514,1.14848,.76445,1.03335,1.45031l.20849-1.24182c-.11513,.68583-.76446,1.14847-1.45031,1.03333l1.24183,.2085c-.68584-.11514-1.14847-.76446-1.03335-1.4503l-.20849,1.24182c.11516-.68584,.76446-1.14847,1.45031-1.03335Z"/>
  <path class="cls-1" d="M298.72017,342.36707l-1.12716,.56135c.62253-.31001,1.37847-.05668,1.68849,.56585l-.56134-1.12717c.31,.62254,.05667,1.37848-.56586,1.6885l1.12716-.56133c-.62252,.31-1.37848,.05665-1.68849-.56586l.56133,1.12716c-.31-.62252-.05666-1.37847,.56586-1.68849Z"/>
  <path class="cls-1" d="M298.44441,342.40355l-.58206,1.11661c.32145-.61671,1.08195-.85605,1.69865-.53459l-1.1166-.58205c.61669,.32145,.85603,1.08195,.53458,1.69864l.58206-1.11659c-.32146,.6167-1.08196,.85602-1.69866,.53458l1.11661,.58206c-.61669-.32145-.85604-1.08196-.53458-1.69866Z"/>
  <path class="cls-1" d="M298.05985,342.43613l.18552,1.24545c-.10245-.68785,.37209-1.32851,1.05995-1.43098l-1.24545,.18552c.68785-.10244,1.32851,.37211,1.43097,1.05996l-.18553-1.24546c.10247,.68786-.37209,1.32853-1.05993,1.43098l1.24545-.18552c-.68786,.10246-1.32852-.3721-1.43098-1.05995Z"/>
  <path class="cls-1" d="M297.71407,342.35565l.88214,.89859c-.48719-.49627-.47983-1.29352,.01644-1.78071l-.89858,.88214c.49626-.48718,1.29351-.47982,1.7807,.01645l-.88214-.89859c.48719,.49627,.47983,1.29352-.01643,1.7807l.89858-.88214c-.49627,.48719-1.29352,.47983-1.78071-.01644Z"/>
  <path class="cls-1" d="M299.81821,341.08399l.08831,.08995c-.4872-.49628-.47983-1.29352,.01644-1.78071l-.08994,.0883c.49627-.48719,1.29351-.47984,1.78071,.01644l-.08831-.08995c.4872,.49628,.47983,1.29352-.01644,1.78071l.08994-.0883c-.49627,.48719-1.29351,.47984-1.78071-.01644Z"/>
  <path class="cls-1" d="M298.91781,339.34304l.11854,.04275c-.65422-.23574-.99348-.9572-.75772-1.61142l-.04275,.11854c.23573-.65423,.95719-.99347,1.61142-.75772l-.11854-.04277c.65422,.23576,.99348,.95721,.75774,1.61144l.04274-.11855c-.23575,.65423-.9572,.99348-1.61143,.75773Z"/>
  <path class="cls-1" d="M297.86005,338.9481l.12539-.01295c-.69173,.07149-1.31041-.43131-1.38192-1.12302l.01295,.12537c-.07149-.69173,.43132-1.31042,1.12305-1.38191l-.12539,.01296c.69173-.07151,1.31042,.4313,1.38193,1.12303l-.01296-.12538c.07149,.69173-.43131,1.31041-1.12304,1.3819Z"/>
  <path class="cls-1" d="M296.85352,340.14072l.10736-.06603c-.59221,.36452-1.3678,.17994-1.73233-.41229l.06604,.10738c-.36453-.59222-.17995-1.36781,.41227-1.73233l-.10737,.06603c.59222-.36453,1.36781-.17995,1.73235,.41227l-.06604-.10737c.36453,.59222,.17994,1.3678-.41227,1.73233Z"/>
  <path class="cls-1" d="M296.10151,342.22683l.06804-.1061c-.37544,.58537-1.15429,.75557-1.73969,.38015l.1061,.06804c-.58536-.37543-.75558-1.1543-.38014-1.73968l-.06805,.10609c.37542-.58537,1.1543-.75558,1.73969-.38015l-.10611-.06803c.58537,.37542,.75559,1.15429,.38016,1.73968Z"/>
  <path class="cls-1" d="M295.75953,344.06164l.01537-.12508c-.08426,.69028-.71213,1.18154-1.40241,1.09728l.12508,.01537c-.69027-.08427-1.18155-.71214-1.09728-1.40243l-.01537,.12509c.08427-.69027,.71214-1.18155,1.40242-1.09729l-.12509-.01536c.69027,.08427,1.18155,.71214,1.09728,1.40241Z"/>
  <path class="cls-1" d="M295.89949,344.82408l-.04059-.11934c.22362,.65846-.12889,1.37352-.78735,1.59716l.11934-.04059c-.65846,.22362-1.37352-.12889-1.59716-.78735l.04059,.11934c-.22362-.65846,.12889-1.37354,.78735-1.59716l-.11934,.04059c.65847-.22363,1.37354,.12889,1.59716,.78735Z"/>
  <path class="cls-1" d="M296.4922,344.5258l-.08833-.08997c.48719,.49627,.47983,1.29352-.01644,1.78071l.08997-.08833c-.49627,.48719-1.29352,.47983-1.78071-.01644l.08833,.08997c-.48719-.49627-.47983-1.29352,.01644-1.78071l-.08997,.08833c.49627-.48719,1.29352-.47983,1.78071,.01644Z"/>
  <path class="cls-1" d="M297.41446,343.8865l-.11854-.04275c.65421,.23575,.99347,.95719,.75772,1.61142l.04276-.11853c-.23574,.65422-.95721,.99347-1.61144,.75772l.11855,.04276c-.65423-.23575-.99347-.95721-.75773-1.61143l-.04275,.11854c.23575-.65423,.95721-.99347,1.61143-.75773Z"/>
  <path class="cls-1" d="M298.47739,343.69375l-.1254,.01299c.69172-.0715,1.31041,.43131,1.38191,1.12303l-.01299-.12542c.0715,.69174-.43131,1.31043-1.12302,1.38192l.12539-.01298c-.69173,.07149-1.31041-.43131-1.38191-1.12303l.01299,.1254c-.0715-.69174,.4313-1.31042,1.12303-1.38191Z"/>
  <path class="cls-1" d="M299.46895,344.14843l-.10737,.0661c.59219-.36454,1.3678-.17999,1.73235,.41223l-.0661-.10739c.36456,.59221,.17999,1.36782-.4122,1.73236l.10737-.0661c-.59222,.36455-1.36781,.18-1.73237-.41221l.0661,.10737c-.36456-.59221-.17999-1.3678,.41222-1.73236Z"/>
  <path class="cls-1" d="M300.19657,344.70381l-.06804,.1061c.37544-.58537,1.15429-.75557,1.73969-.38015l-.1061-.06804c.58536,.37543,.75558,1.1543,.38015,1.73969l.06804-.1061c-.37542,.58537-1.1543,.75556-1.73968,.38014l.1061,.06804c-.58538-.37543-.75557-1.15429-.38016-1.73968Z"/>
  <path class="cls-1" d="M300.5236,344.5163l-.01536,.1251c.08426-.69028,.71213-1.18156,1.40241-1.0973l-.12508-.01535c.69028,.08426,1.18155,.71214,1.09728,1.40241l.01536-.12509c-.08426,.69028-.71212,1.18155-1.4024,1.09729l.12508,.01535c-.69027-.08427-1.18154-.71213-1.09729-1.40242Z"/>
  <path class="cls-1" d="M300.38882,343.16619l.04052,.11933c-.22362-.65848,.12893-1.37354,.78741-1.59716l-.11934,.04053c.65848-.2236,1.37355,.12892,1.59716,.78741l-.04054-.11933c.2236,.65848-.12892,1.37355-.7874,1.59715l.11933-.04052c-.65848,.2236-1.37355-.12894-1.59714-.78741Z"/>
  <path class="cls-1" d="M299.81808,341.0841l.08833,.08997c-.48719-.49627-.47983-1.29352,.01644-1.78071l-.08997,.08833c.49627-.48719,1.29352-.47983,1.78071,.01644l-.08833-.08997c.48719,.49627,.47983,1.29352-.01644,1.78071l.08997-.08833c-.49627,.48719-1.29352,.47983-1.78071-.01644Z"/>
  <rect class="cls-1" x="302.68202" y="334.8676" width="3.52556" height="3.52556" rx="1.25921" ry="1.25921" transform="translate(-148.63436 309.68742) rotate(-44.47099)"/>
  <rect class="cls-1" x="300.21303" y="330.6854" width="3.52557" height="3.52556" rx="1.25922" ry="1.25922" transform="translate(-128.15219 461.68088) rotate(-64.47288)"/>
  <rect class="cls-1" x="297.27526" y="328.58722" width="3.52554" height="3.52554" rx="1.25916" ry="1.25916" transform="translate(-58.58962 596.16444) rotate(-84.47048)"/>
  <rect class="cls-1" x="294.21967" y="329.26982" width="3.52556" height="3.52555" rx="1.25915" ry="1.25915" transform="translate(-73.32742 84.45925) rotate(-14.47006)"/>
  <rect class="cls-1" x="291.41543" y="332.4974" width="3.52557" height="3.52558" rx="1.25916" ry="1.25916" transform="translate(-137.70782 224.62185) rotate(-34.47025)"/>
  <rect class="cls-1" x="289.2079" y="337.19888" width="3.52558" height="3.52558" rx="1.25917" ry="1.25917" transform="translate(-153.97051 378.78991) rotate(-54.47174)"/>
  <rect class="cls-1" x="287.87049" y="341.92064" width="3.52556" height="3.52556" rx="1.25915" ry="1.25915" transform="translate(-119.04336 530.73725) rotate(-74.47193)"/>
  <rect class="cls-1" x="287.57171" y="345.41142" width="3.52554" height="3.52554" rx="1.25919" ry="1.25919" transform="translate(-26.18621 23.61422) rotate(-4.47151)"/>
  <rect class="cls-1" x="288.34821" y="347.09674" width="3.52556" height="3.52556" rx="1.25924" ry="1.25924" transform="translate(-118.44212 151.49766) rotate(-24.46911)"/>
  <rect class="cls-1" x="290.1027" y="347.21675" width="3.52556" height="3.52556" rx="1.25921" ry="1.25921" transform="translate(-160.88819 304.41173) rotate(-44.47099)"/>
  <rect class="cls-1" x="292.61607" y="346.59175" width="3.52557" height="3.52556" rx="1.25916" ry="1.25916" transform="translate(-146.83184 463.86605) rotate(-64.47143)"/>
  <rect class="cls-1" x="295.57721" y="346.13245" width="3.52554" height="3.52554" rx="1.25919" ry="1.25919" transform="translate(-77.58493 610.33275) rotate(-84.47107)"/>
  <rect class="cls-1" x="298.62485" y="346.33801" width="3.52556" height="3.52556" rx="1.25921" ry="1.25921" transform="translate(-77.45434 86.10397) rotate(-14.47045)"/>
  <rect class="cls-1" x="301.39288" y="347.02941" width="3.52557" height="3.52557" rx="1.25915" ry="1.25915" transform="translate(-144.18105 232.82144) rotate(-34.47039)"/>
  <rect class="cls-1" x="303.55321" y="347.44296" width="3.52557" height="3.52557" rx="1.25923" ry="1.25923" transform="translate(-156.29835 394.75465) rotate(-54.4716)"/>
  <rect class="cls-1" x="304.85442" y="346.64022" width="3.52556" height="3.52556" rx="1.25922" ry="1.25922" transform="translate(-111.15488 550.55455) rotate(-74.47154)"/>
  <rect class="cls-1" x="305.1453" y="344.03763" width="3.52554" height="3.52554" rx="1.25917" ry="1.25917" transform="translate(-26.0223 24.9767) rotate(-4.47092)"/>
  <rect class="cls-1" x="304.39211" y="339.79478" width="3.52557" height="3.52556" rx="1.25917" ry="1.25917" transform="translate(-113.98045 157.49595) rotate(-24.4703)"/>
  <rect class="cls-1" x="302.68202" y="334.8676" width="3.52556" height="3.52556" rx="1.25921" ry="1.25921" transform="translate(-148.63436 309.68742) rotate(-44.47099)"/>
  <rect class="cls-1" x="307.46153" y="329.05272" width="4.65875" height="4.65875" rx="1.25922" ry="1.25922" transform="translate(-143.42659 311.92954) rotate(-44.47099)"/>
  <rect class="cls-1" x="303.80636" y="322.49938" width="4.65849" height="4.65849" rx="1.25919" ry="1.25919" transform="translate(-126.6978 433.86019) rotate(-60.83571)"/>
  <rect class="cls-1" x="299.497" y="318.28496" width="4.65851" height="4.65851" rx="1.25916" ry="1.25916" transform="translate(-77.69862 543.89304) rotate(-77.1977)"/>
  <rect class="cls-1" x="294.87618" y="317.35532" width="4.65864" height="4.65864" rx="1.25914" ry="1.25914" transform="translate(-19.28503 19.08004) rotate(-3.56155)"/>
  <rect class="cls-1" x="290.31754" y="319.92052" width="4.65843" height="4.65843" rx="1.25917" ry="1.25917" transform="translate(-92.30384 119.02558) rotate(-19.92567)"/>
  <rect class="cls-1" x="286.1936" y="325.38476" width="4.6586" height="4.65858" rx="1.25915" ry="1.25915" transform="translate(-137.99992 234.33176) rotate(-36.28957)"/>
  <rect class="cls-1" x="282.8466" y="332.53254" width="4.65852" height="4.65851" rx="1.25919" ry="1.25919" transform="translate(-154.03086 358.42335) rotate(-52.65226)"/>
  <rect class="cls-1" x="280.55417" y="339.86405" width="4.65853" height="4.65853" rx="1.2591" ry="1.2591" transform="translate(-137.91576 483.78196) rotate(-69.01706)"/>
  <rect class="cls-1" x="279.51063" y="346.00905" width="4.65861" height="4.65859" rx="1.25918" ry="1.25918" transform="translate(-88.06525 601.20889) rotate(-85.38061)"/>
  <rect class="cls-1" x="279.80439" y="350.08614" width="4.65854" height="4.65855" rx="1.25917" ry="1.25917" transform="translate(-65.81821 64.79497) rotate(-11.74277)"/>
  <rect class="cls-1" x="281.41002" y="351.89668" width="4.65848" height="4.65849" rx="1.25907" ry="1.25907" transform="translate(-133.41929 175.44472) rotate(-28.10638)"/>
  <rect class="cls-1" x="284.19032" y="351.89821" width="4.65866" height="4.65867" rx="1.25922" ry="1.25922" transform="translate(-166.09569 302.16973) rotate(-44.47099)"/>
  <rect class="cls-1" x="287.91449" y="350.97349" width="4.65848" height="4.65849" rx="1.25919" ry="1.25919" transform="translate(-159.70981 434.58042) rotate(-60.83561)"/>
  <rect class="cls-1" x="292.2712" y="350.08318" width="4.65854" height="4.65854" rx="1.25918" ry="1.25918" transform="translate(-114.32655 561.60772) rotate(-77.19892)"/>
  <rect class="cls-1" x="296.90204" y="349.90243" width="4.6586" height="4.65859" rx="1.25918" ry="1.25918" transform="translate(-21.30201 19.26783) rotate(-3.56138)"/>
  <rect class="cls-1" x="301.43082" y="350.57674" width="4.65844" height="4.65844" rx="1.25918" ry="1.25918" transform="translate(-102.07964 124.63652) rotate(-19.92402)"/>
  <rect class="cls-1" x="305.49433" y="351.66929" width="4.65858" height="4.65859" rx="1.25915" ry="1.25915" transform="translate(-149.81321 250.85347) rotate(-36.28957)"/>
  <rect class="cls-1" x="308.76945" y="352.31557" width="4.65852" height="4.65852" rx="1.25914" ry="1.25914" transform="translate(-159.56076 386.81663) rotate(-52.65273)"/>
  <rect class="cls-1" x="311.00078" y="351.54179" width="4.65851" height="4.65852" rx="1.25911" ry="1.25911" transform="translate(-129.27469 519.70677) rotate(-69.01721)"/>
  <rect class="cls-1" x="312.01437" y="348.6354" width="4.65855" height="4.65856" rx="1.2592" ry="1.2592" transform="translate(-60.79761 636.02111) rotate(-85.3805)"/>
  <rect class="cls-1" x="311.73116" y="343.449" width="4.65854" height="4.65855" rx="1.25917" ry="1.25917" transform="translate(-63.79924 71.15374) rotate(-11.74277)"/>
  <rect class="cls-1" x="310.17272" y="336.53328" width="4.65848" height="4.65848" rx="1.2592" ry="1.2592" transform="translate(-122.7893 187.1826) rotate(-28.10628)"/>
  <rect class="cls-1" x="307.4613" y="329.05302" width="4.65867" height="4.65867" rx="1.25922" ry="1.25922" transform="translate(-143.42685 311.92943) rotate(-44.47099)"/>
  <rect class="cls-1" x="313.85833" y="321.65015" width="5.79192" height="5.79192" rx="1.25921" ry="1.25921" transform="translate(-136.64338 314.84994) rotate(-44.47099)"/>
  <rect class="cls-1" x="308.99561" y="312.59311" width="5.79174" height="5.79174" rx="1.25926" ry="1.25926" transform="translate(-120.39013 415.19955) rotate(-58.31728)"/>
  <rect class="cls-1" x="303.32668" y="306.00097" width="5.79166" height="5.79166" rx="1.25914" ry="1.25914" transform="translate(-81.62697 505.77808) rotate(-72.16249)"/>
  <rect class="cls-1" x="297.17416" y="302.93543" width="5.79156" height="5.79155" rx="1.25914" ry="1.25914" transform="translate(-25.90153 583.89108) rotate(-86.0096)"/>
  <rect class="cls-1" x="290.8935" y="303.89405" width="5.79162" height="5.79162" rx="1.25918" ry="1.25918" transform="translate(-48.17636 54.81435) rotate(-9.85563)"/>
  <rect class="cls-1" x="284.85054" y="308.71389" width="5.79169" height="5.79168" rx="1.25912" ry="1.25912" transform="translate(-100.98784 141.95034) rotate(-23.70162)"/>
  <rect class="cls-1" x="279.40013" y="316.59958" width="5.79181" height="5.79181" rx="1.25914" ry="1.25914" transform="translate(-136.22828 238.21934) rotate(-37.54733)"/>
  <rect class="cls-1" x="274.86784" y="326.29236" width="5.7918" height="5.79181" rx="1.25921" ry="1.25921" transform="translate(-152.79589 340.85054) rotate(-51.39442)"/>
  <rect class="cls-1" x="271.52549" y="336.32513" width="5.79161" height="5.79158" rx="1.25918" ry="1.25918" transform="translate(-148.54639 446.34803) rotate(-65.24071)"/>
  <rect class="cls-1" x="269.57335" y="345.31203" width="5.79156" height="5.79155" rx="1.25908" ry="1.25908" transform="translate(-121.02556 549.82635) rotate(-79.08684)"/>
  <rect class="cls-1" x="269.13024" y="352.21783" width="5.79162" height="5.79161" rx="1.25911" ry="1.25911" transform="translate(-17.81418 14.38426) rotate(-2.933)"/>
  <rect class="cls-1" x="270.22282" y="356.5316" width="5.79162" height="5.79162" rx="1.25914" ry="1.25914" transform="translate(-92.12726 94.14023) rotate(-16.778)"/>
  <rect class="cls-1" x="272.78486" y="358.32412" width="5.79174" height="5.79173" rx="1.25925" ry="1.25925" transform="translate(-145.55822 190.81607) rotate(-30.62454)"/>
  <rect class="cls-1" x="276.66048" y="358.16748" width="5.79182" height="5.79181" rx="1.25921" ry="1.25921" transform="translate(-172.87877 299.24938) rotate(-44.47099)"/>
  <rect class="cls-1" x="281.61753" y="356.94936" width="5.79174" height="5.79173" rx="1.25924" ry="1.25924" transform="translate(-171.13448 412.9627) rotate(-58.31745)"/>
  <rect class="cls-1" x="287.35996" y="355.61962" width="5.79165" height="5.79166" rx="1.25914" ry="1.25914" transform="translate(-139.93623 524.99843) rotate(-72.16249)"/>
  <rect class="cls-1" x="293.54713" y="354.93245" width="5.7915" height="5.79148" rx="1.25909" ry="1.25909" transform="translate(-81.15216 628.64434) rotate(-86.00853)"/>
  <rect class="cls-1" x="299.81609" y="355.24897" width="5.79156" height="5.79156" rx="1.25908" ry="1.25908" transform="translate(-56.83136 57.09525) rotate(-9.85496)"/>
  <rect class="cls-1" x="305.80361" y="356.44139" width="5.7916" height="5.7916" rx="1.2591" ry="1.2591" transform="translate(-118.40446 154.39615) rotate(-23.70128)"/>
  <rect class="cls-1" x="311.16789" y="357.92703" width="5.79179" height="5.79179" rx="1.2591" ry="1.2591" transform="translate(-154.83352 266.14157) rotate(-37.54751)"/>
  <rect class="cls-1" x="315.60152" y="358.81737" width="5.79179" height="5.79181" rx="1.25915" ry="1.25915" transform="translate(-162.8951 384.91533) rotate(-51.39468)"/>
  <rect class="cls-1" x="318.85763" y="358.1561" width="5.79168" height="5.79168" rx="1.25919" ry="1.25919" transform="translate(-140.86209 502.0152) rotate(-65.24046)"/>
  <rect class="cls-1" x="320.7542" y="355.18105" width="5.79156" height="5.79156" rx="1.25908" ry="1.25908" transform="translate(-89.22427 608.08318) rotate(-79.08697)"/>
  <rect class="cls-1" x="321.18565" y="349.55127" width="5.79155" height="5.79155" rx="1.25913" ry="1.25913" transform="translate(-17.60494 17.03966) rotate(-2.93222)"/>
  <rect class="cls-1" x="320.12758" y="341.48407" width="5.79157" height="5.79158" rx="1.25914" ry="1.25914" transform="translate(-85.66171 107.9098) rotate(-16.77862)"/>
  <rect class="cls-1" x="317.63872" y="331.76992" width="5.79165" height="5.79164" rx="1.25912" ry="1.25912" transform="translate(-125.77657 209.96634) rotate(-30.62518)"/>
  <rect class="cls-1" x="313.85797" y="321.65061" width="5.79182" height="5.79181" rx="1.25921" ry="1.25921" transform="translate(-136.64378 314.84977) rotate(-44.47099)"/>
  <rect class="cls-1" x="321.87311" y="312.65922" width="6.92508" height="6.92508" rx="1.25921" ry="1.25921" transform="translate(-128.28406 318.44891) rotate(-44.47099)"/>
  <rect class="cls-1" x="315.79195" y="301.01882" width="6.92511" height="6.92511" rx="1.25922" ry="1.25922" transform="translate(-110.90495 402.43642) rotate(-56.47173)"/>
  <rect class="cls-1" x="308.7809" y="291.90274" width="6.92508" height="6.92508" rx="1.25921" ry="1.25921" transform="translate(-77.10046 477.43105) rotate(-68.47067)"/>
  <rect class="cls-1" x="301.13979" y="286.41117" width="6.92511" height="6.92511" rx="1.25918" ry="1.25918" transform="translate(-31.69671 542.2867) rotate(-80.47121)"/>
  <rect class="cls-1" x="293.19913" y="285.21948" width="6.92501" height="6.92501" rx="1.25912" ry="1.25912" transform="translate(-12.16676 13.05464) rotate(-2.47026)"/>
  <rect class="cls-1" x="285.30352" y="288.4678" width="6.9251" height="6.9251" rx="1.2592" ry="1.2592" transform="translate(-63.78856 81.42048) rotate(-14.47084)"/>
  <rect class="cls-1" x="277.8022" y="295.74836" width="6.92514" height="6.92516" rx="1.25927" ry="1.25927" transform="translate(-103.88173 156.73558) rotate(-26.47011)"/>
  <rect class="cls-1" x="271.02753" y="306.16252" width="6.92509" height="6.9251" rx="1.25912" ry="1.25912" transform="translate(-133.03728 237.97353) rotate(-38.4704)"/>
  <rect class="cls-1" x="265.28376" y="318.45917" width="6.92509" height="6.9251" rx="1.25924" ry="1.25924" transform="translate(-150.60132 324.31763) rotate(-50.47159)"/>
  <rect class="cls-1" x="260.82839" y="331.23586" width="6.92515" height="6.92516" rx="1.25915" ry="1.25915" transform="translate(-154.66501 414.37686) rotate(-62.4721)"/>
  <rect class="cls-1" x="257.86514" y="343.13908" width="6.9251" height="6.9251" rx="1.25921" ry="1.25921" transform="translate(-142.58467 505.59739) rotate(-74.4713)"/>
  <rect class="cls-1" x="256.52819" y="353.0683" width="6.92503" height="6.92503" rx="1.25913" ry="1.25913" transform="translate(-111.86492 594.08667) rotate(-86.47161)"/>
  <rect class="cls-1" x="256.87775" y="360.32134" width="6.9251" height="6.9251" rx="1.25923" ry="1.25923" transform="translate(-50.74718 42.31792) rotate(-8.47078)"/>
  <rect class="cls-1" x="258.89847" y="364.67169" width="6.92507" height="6.92508" rx="1.2592" ry="1.2592" transform="translate(-112.18223 115.00685) rotate(-20.47139)"/>
  <rect class="cls-1" x="262.49784" y="366.36378" width="6.9251" height="6.9251" rx="1.25917" ry="1.25917" transform="translate(-156.9686 200.6001) rotate(-32.47043)"/>
  <rect class="cls-1" x="267.51207" y="366.02559" width="6.9251" height="6.92508" rx="1.25921" ry="1.25921" transform="translate(-181.23848 295.65025) rotate(-44.47099)"/>
  <rect class="cls-1" x="273.71432" y="364.52112" width="6.9251" height="6.9251" rx="1.2592" ry="1.2592" transform="translate(-182.67752 395.78546) rotate(-56.47156)"/>
  <rect class="cls-1" x="280.82577" y="362.76542" width="6.92508" height="6.92508" rx="1.25915" ry="1.25915" transform="translate(-160.71543 496.28347) rotate(-68.4706)"/>
  <rect class="cls-1" x="288.52863" y="361.53756" width="6.92511" height="6.92511" rx="1.25918" ry="1.25918" transform="translate(-116.31002 592.53927) rotate(-80.47121)"/>
  <rect class="cls-1" x="296.48289" y="361.3252" width="6.92502" height="6.92502" rx="1.25912" ry="1.25912" transform="translate(-15.44393 13.26689) rotate(-2.47026)"/>
  <rect class="cls-1" x="304.3398" y="362.22862" width="6.9251" height="6.9251" rx="1.25917" ry="1.25917" transform="translate(-81.61695 88.51807) rotate(-14.47093)"/>
  <rect class="cls-1" x="311.75832" y="363.93994" width="6.92515" height="6.92515" rx="1.25915" ry="1.25915" transform="translate(-130.71655 179.01829) rotate(-26.46994)"/>
  <rect class="cls-1" x="318.41969" y="365.80341" width="6.92509" height="6.92509" rx="1.25924" ry="1.25924" transform="translate(-159.85305 280.40294) rotate(-38.4704)"/>
  <rect class="cls-1" x="324.03939" y="366.9445" width="6.92509" height="6.92509" rx="1.25912" ry="1.25912" transform="translate(-166.63851 387.26269) rotate(-50.47159)"/>
  <rect class="cls-1" x="328.38134" y="366.44532" width="6.92516" height="6.92516" rx="1.25925" ry="1.25925" transform="translate(-149.55744 493.21634) rotate(-62.47188)"/>
  <rect class="cls-1" x="331.26188" y="363.53408" width="6.92511" height="6.9251" rx="1.25916" ry="1.25916" transform="translate(-108.48864 591.24905) rotate(-74.47121)"/>
  <rect class="cls-1" x="332.5603" y="357.75677" width="6.92502" height="6.92502" rx="1.25918" ry="1.25918" transform="translate(-45.19101 674.37536) rotate(-86.47173)"/>
  <rect class="cls-1" x="332.22419" y="349.09952" width="6.9251" height="6.92509" rx="1.25922" ry="1.25922" transform="translate(-48.27145 53.29345) rotate(-8.47064)"/>
  <rect class="cls-1" x="330.26525" y="338.02978" width="6.92508" height="6.92508" rx="1.25921" ry="1.25921" transform="translate(-98.3569 138.28291) rotate(-20.47123)"/>
  <rect class="cls-1" x="326.76624" y="325.46587" width="6.9251" height="6.92511" rx="1.25917" ry="1.25917" transform="translate(-124.9648 228.70989) rotate(-32.47043)"/>
  <rect class="cls-1" x="321.87311" y="312.65922" width="6.92508" height="6.92508" rx="1.25921" ry="1.25921" transform="translate(-128.28406 318.44891) rotate(-44.47099)"/>
  <rect class="cls-1" x="331.5046" y="302.08113" width="8.05828" height="8.05827" rx="1.25921" ry="1.25921" transform="translate(-118.34984 322.72592) rotate(-44.47099)"/>
  <rect class="cls-1" x="324.19922" y="287.81556" width="8.05783" height="8.05782" rx="1.25911" ry="1.25911" transform="translate(-98.99746 393.75223) rotate(-55.05821)"/>
  <rect class="cls-1" x="315.86298" y="276.09075" width="8.05787" height="8.05787" rx="1.25912" ry="1.25912" transform="translate(-67.21304 456.03906) rotate(-65.64702)"/>
  <rect class="cls-1" x="306.77189" y="268.01143" width="8.058" height="8.05799" rx="1.25915" ry="1.25915" transform="translate(-27.37562 509.18982) rotate(-76.2357)"/>
  <rect class="cls-1" x="297.23146" y="264.35616" width="8.05774" height="8.05773" rx="1.25913" ry="1.25913" transform="translate(16.59947 554.31595) rotate(-86.82455)"/>
  <rect class="cls-1" x="287.56645" y="265.46147" width="8.05815" height="8.05815" rx="1.25917" ry="1.25917" transform="translate(-32.32727 39.86667) rotate(-7.41166)"/>
  <rect class="cls-1" x="278.10414" y="271.23182" width="8.05778" height="8.05778" rx="1.25914" ry="1.25914" transform="translate(-71.25242 100.65765) rotate(-18.00025)"/>
  <rect class="cls-1" x="269.17009" y="281.08834" width="8.05793" height="8.05795" rx="1.25921" ry="1.25921" transform="translate(-103.12572 165.49595) rotate(-28.58913)"/>
  <rect class="cls-1" x="261.07636" y="294.09171" width="8.05783" height="8.05783" rx="1.25917" ry="1.25917" transform="translate(-128.73205 234.48987) rotate(-39.177)"/>
  <rect class="cls-1" x="254.10396" y="309.0263" width="8.05783" height="8.05783" rx="1.2591" ry="1.2591" transform="translate(-147.58823 307.9043) rotate(-49.76499)"/>
  <rect class="cls-1" x="248.49689" y="324.56431" width="8.05798" height="8.05796" rx="1.25914" ry="1.25914" transform="translate(-157.96367 385.52479) rotate(-60.35359)"/>
  <rect class="cls-1" x="244.45694" y="339.40449" width="8.05778" height="8.05777" rx="1.2591" ry="1.2591" transform="translate(-157.26088 466.15787) rotate(-70.94174)"/>
  <rect class="cls-1" x="242.12082" y="352.43386" width="8.05815" height="8.05815" rx="1.25922" ry="1.25922" transform="translate(-142.67955 547.42696) rotate(-81.53042)"/>
  <rect class="cls-1" x="241.58081" y="362.83617" width="8.05782" height="8.05782" rx="1.25914" ry="1.25914" transform="translate(-13.39073 9.32782) rotate(-2.11801)"/>
  <rect class="cls-1" x="242.84832" y="370.18698" width="8.05781" height="8.05782" rx="1.25913" ry="1.25913" transform="translate(-76.2648 63.46659) rotate(-12.70642)"/>
  <rect class="cls-1" x="245.88067" y="374.45843" width="8.05791" height="8.05791" rx="1.25918" ry="1.25918" transform="translate(-129.30366 129.68062) rotate(-23.29441)"/>
  <rect class="cls-1" x="250.57037" y="376.00236" width="8.05786" height="8.05785" rx="1.2592" ry="1.2592" transform="translate(-168.62874 206.47264) rotate(-33.88247)"/>
  <rect class="cls-1" x="256.74815" y="375.46988" width="8.05814" height="8.05814" rx="1.25921" ry="1.25921" transform="translate(-191.17203 291.37352) rotate(-44.47099)"/>
  <rect class="cls-1" x="264.20144" y="373.6853" width="8.05783" height="8.05782" rx="1.25914" ry="1.25914" transform="translate(-195.02226 381.25836) rotate(-55.05821)"/>
  <rect class="cls-1" x="272.66582" y="371.524" width="8.05791" height="8.05791" rx="1.25918" ry="1.25918" transform="translate(-179.53853 472.7702) rotate(-65.64752)"/>
  <rect class="cls-1" x="281.84791" y="369.7589" width="8.05788" height="8.0579" rx="1.25915" ry="1.25915" transform="translate(-145.19284 562.52535) rotate(-76.23636)"/>
  <rect class="cls-1" x="291.42863" y="368.94812" width="8.05782" height="8.05782" rx="1.25915" ry="1.25915" transform="translate(-93.31602 647.3165) rotate(-86.82398)"/>
  <rect class="cls-1" x="301.08062" y="369.34425" width="8.05815" height="8.05815" rx="1.2592" ry="1.2592" transform="translate(-45.61546 42.47842) rotate(-7.41174)"/>
  <rect class="cls-1" x="310.4758" y="370.85773" width="8.05777" height="8.05778" rx="1.25915" ry="1.25915" transform="translate(-100.45479 115.5378) rotate(-18.00031)"/>
  <rect class="cls-1" x="319.29905" y="373.07079" width="8.05795" height="8.05794" rx="1.2592" ry="1.2592" transform="translate(-141.02973 200.69932) rotate(-28.58917)"/>
  <rect class="cls-1" x="327.252" y="375.29605" width="8.05783" height="8.05783" rx="1.25916" ry="1.25916" transform="translate(-165.15399 294.5496) rotate(-39.17705)"/>
  <rect class="cls-1" x="334.07256" y="376.69007" width="8.05783" height="8.05783" rx="1.2591" ry="1.2591" transform="translate(-170.9279 392.91128) rotate(-49.76508)"/>
  <rect class="cls-1" x="339.53834" y="376.38181" width="8.05795" height="8.05793" rx="1.2592" ry="1.2592" transform="translate(-156.99144 490.82725) rotate(-60.35275)"/>
  <rect class="cls-1" x="343.46734" y="373.60994" width="8.05772" height="8.05772" rx="1.25914" ry="1.25914" transform="translate(-122.91352 582.77136) rotate(-70.94099)"/>
  <rect class="cls-1" x="345.73612" y="367.8642" width="8.05808" height="8.05807" rx="1.25918" ry="1.25918" transform="translate(-69.5932 663.06126) rotate(-81.52924)"/>
  <rect class="cls-1" x="346.26307" y="358.96633" width="8.05783" height="8.05781" rx="1.25914" ry="1.25914" transform="translate(-13.16801 13.18551) rotate(-2.11667)"/>
  <rect class="cls-1" x="345.03797" y="347.14584" width="8.058" height="8.05799" rx="1.25914" ry="1.25914" transform="translate(-68.69322 85.37804) rotate(-12.70622)"/>
  <rect class="cls-1" x="342.09609" y="333.03164" width="8.05792" height="8.05791" rx="1.25918" ry="1.25918" transform="translate(-105.07839 164.35318) rotate(-23.29447)"/>
  <rect class="cls-1" x="337.53438" y="317.60145" width="8.05786" height="8.05786" rx="1.25919" ry="1.25919" transform="translate(-121.30288 245.03738) rotate(-33.88253)"/>
  <rect class="cls-1" x="331.50399" y="302.08188" width="8.05813" height="8.05814" rx="1.25922" ry="1.25922" transform="translate(-118.35052 322.72564) rotate(-44.47099)"/>
  <rect class="cls-1" x="342.7534" y="289.91536" width="9.19145" height="9.19145" rx="1.25922" ry="1.25922" transform="translate(-106.84019 327.68122) rotate(-44.47099)"/>
  <rect class="cls-1" x="334.22051" y="272.98728" width="9.19096" height="9.19096" rx="1.25916" ry="1.25916" transform="translate(-85.01317 388.11468) rotate(-53.94363)"/>
  <rect class="cls-1" x="324.57226" y="258.59806" width="9.19126" height="9.19128" rx="1.2592" ry="1.2592" transform="translate(-53.49894 439.7964) rotate(-63.41845)"/>
  <rect class="cls-1" x="314.06461" y="247.84712" width="9.19087" height="9.19087" rx="1.25913" ry="1.25913" transform="translate(-16.3569 482.73609) rotate(-72.89124)"/>
  <rect class="cls-1" x="302.97914" y="241.53824" width="9.19103" height="9.19103" rx="1.25917" ry="1.25917" transform="translate(22.76137 518.28333) rotate(-82.3657)"/>
  <rect class="cls-1" x="291.617" y="240.16964" width="9.19087" height="9.19086" rx="1.25918" ry="1.25918" transform="translate(-7.70309 9.63298) rotate(-1.83921)"/>
  <rect class="cls-1" x="280.28376" y="243.83455" width="9.19099" height="9.191" rx="1.25913" ry="1.25913" transform="translate(-43.20057 60.71402) rotate(-11.31347)"/>
  <rect class="cls-1" x="269.29451" y="252.24864" width="9.19094" height="9.19095" rx="1.25917" ry="1.25917" transform="translate(-73.32322 113.91891) rotate(-20.78664)"/>
  <rect class="cls-1" x="258.94933" y="264.7522" width="9.19101" height="9.19102" rx="1.25912" ry="1.25912" transform="translate(-99.82408 169.51234) rotate(-30.26099)"/>
  <rect class="cls-1" x="249.54064" y="280.38732" width="9.19085" height="9.19085" rx="1.25909" ry="1.25909" transform="translate(-123.46788 228.27677) rotate(-39.73424)"/>
  <rect class="cls-1" x="241.32741" y="297.98639" width="9.19086" height="9.19085" rx="1.25917" ry="1.25917" transform="translate(-143.8227 291.08368) rotate(-49.20774)"/>
  <rect class="cls-1" x="234.54123" y="316.29288" width="9.19115" height="9.19114" rx="1.25923" ry="1.25923" transform="translate(-159.29797 358.37899) rotate(-58.68068)"/>
  <rect class="cls-1" x="229.37731" y="334.07428" width="9.19094" height="9.19094" rx="1.2591" ry="1.2591" transform="translate(-167.43833 429.82666) rotate(-68.1554)"/>
  <rect class="cls-1" x="225.97948" y="350.22127" width="9.191" height="9.19099" rx="1.25918" ry="1.25918" transform="translate(-165.40327 504.01793) rotate(-77.62845)"/>
  <rect class="cls-1" x="224.44574" y="363.86833" width="9.19087" height="9.19087" rx="1.25912" ry="1.25912" transform="translate(-150.52824 578.58865) rotate(-87.10282)"/>
  <rect class="cls-1" x="224.81573" y="374.4541" width="9.19122" height="9.19122" rx="1.25919" ry="1.25919" transform="translate(-41.90035 28.76666) rotate(-6.57608)"/>
  <rect class="cls-1" x="227.08837" y="381.74874" width="9.19087" height="9.19088" rx="1.25912" ry="1.25912" transform="translate(-97.78812 79.11876) rotate(-16.05075)"/>
  <rect class="cls-1" x="231.18583" y="385.87514" width="9.19127" height="9.19126" rx="1.25919" ry="1.25919" transform="translate(-145.23642 139.70056) rotate(-25.52353)"/>
  <rect class="cls-1" x="237.00401" y="387.24062" width="9.19096" height="9.19094" rx="1.25911" ry="1.25911" transform="translate(-181.0494 209.42515) rotate(-34.99819)"/>
  <rect class="cls-1" x="244.36633" y="386.50235" width="9.1913" height="9.1913" rx="1.25922" ry="1.25922" transform="translate(-202.68154 286.41828) rotate(-44.47099)"/>
  <rect class="cls-1" x="253.0744" y="384.44366" width="9.19096" height="9.19094" rx="1.25915" ry="1.25915" transform="translate(-208.50387 368.36927) rotate(-53.94375)"/>
  <rect class="cls-1" x="262.87817" y="381.89585" width="9.19127" height="9.19126" rx="1.25918" ry="1.25918" transform="translate(-197.85159 452.74995) rotate(-63.41856)"/>
  <rect class="cls-1" x="273.50764" y="379.61128" width="9.19094" height="9.19094" rx="1.25913" ry="1.25913" transform="translate(-170.91346 536.98205) rotate(-72.89216)"/>
  <rect class="cls-1" x="284.66231" y="378.18424" width="9.19113" height="9.19114" rx="1.25914" ry="1.25914" transform="translate(-128.55906 618.61769) rotate(-82.36517)"/>
  <rect class="cls-1" x="296.04048" y="377.96422" width="9.19106" height="9.19105" rx="1.25917" ry="1.25917" transform="translate(-12.12282 9.84554) rotate(-1.83914)"/>
  <rect class="cls-1" x="307.32921" y="379.02355" width="9.19107" height="9.19108" rx="1.25916" ry="1.25916" transform="translate(-69.19062 68.64015) rotate(-11.3125)"/>
  <rect class="cls-1" x="318.22268" y="381.14092" width="9.19094" height="9.19095" rx="1.25909" ry="1.25909" transform="translate(-115.88085 139.67277) rotate(-20.78664)"/>
  <rect class="cls-1" x="328.42803" y="383.83293" width="9.19099" height="9.191" rx="1.25925" ry="1.25925" transform="translate(-150.36617 220.75101) rotate(-30.26094)"/>
  <rect class="cls-1" x="337.66872" y="386.40731" width="9.19085" height="9.19085" rx="1.25909" ry="1.25909" transform="translate(-170.88273 309.09933) rotate(-39.73424)"/>
  <rect class="cls-1" x="345.7018" y="388.05735" width="9.19083" height="9.19084" rx="1.25912" ry="1.25912" transform="translate(-175.82939 401.3205) rotate(-49.20674)"/>
  <rect class="cls-1" x="352.32008" y="387.95989" width="9.19114" height="9.19114" rx="1.25912" ry="1.25912" transform="translate(-163.96521 493.4103) rotate(-58.68077)"/>
  <rect class="cls-1" x="357.34312" y="385.37354" width="9.19089" height="9.19089" rx="1.25916" ry="1.25916" transform="translate(-134.70566 580.80885) rotate(-68.15465)"/>
  <rect class="cls-1" x="360.6458" y="379.75865" width="9.191" height="9.191" rx="1.25914" ry="1.25914" transform="translate(-88.44011 658.76716) rotate(-77.62858)"/>
  <rect class="cls-1" x="362.13496" y="370.83604" width="9.19087" height="9.19087" rx="1.25916" ry="1.25916" transform="translate(-26.75691 722.71769) rotate(-87.10286)"/>
  <rect class="cls-1" x="361.77904" y="358.6646" width="9.19112" height="9.19111" rx="1.25918" ry="1.25918" transform="translate(-39.18777 44.3441) rotate(-6.57551)"/>
  <rect class="cls-1" x="359.57975" y="343.63249" width="9.19094" height="9.19094" rx="1.25914" ry="1.25914" transform="translate(-82.08116 114.25885) rotate(-16.04993)"/>
  <rect class="cls-1" x="355.60176" y="326.46821" width="9.19127" height="9.19126" rx="1.25914" ry="1.25914" transform="translate(-107.49698 187.51105) rotate(-25.52347)"/>
  <rect class="cls-1" x="349.93973" y="308.16633" width="9.19095" height="9.19096" rx="1.25911" ry="1.25911" transform="translate(-115.27422 259.90097) rotate(-34.99824)"/>
  <rect class="cls-1" x="342.75265" y="289.91624" width="9.19128" height="9.1913" rx="1.25921" ry="1.25921" transform="translate(-106.841 327.68087) rotate(-44.47099)"/>
  <rect class="cls-1" x="355.61947" y="276.1619" width="10.32463" height="10.32461" rx="1.25921" ry="1.25921" transform="translate(-93.75511 333.31479) rotate(-44.47099)"/>
  <rect class="cls-1" x="345.85503" y="256.54658" width="10.32397" height="10.32397" rx="1.25915" ry="1.25915" transform="translate(-69.14834 384.85641) rotate(-53.04272)"/>
  <rect class="cls-1" x="334.90729" y="239.4665" width="10.3242" height="10.3242" rx="1.25916" ry="1.25916" transform="translate(-36.81967 427.50828) rotate(-61.61359)"/>
  <rect class="cls-1" x="323.00938" y="225.97774" width="10.32406" height="10.32407" rx="1.2591" ry="1.2591" transform="translate(-.52766 461.52856) rotate(-70.18508)"/>
  <rect class="cls-1" x="310.42502" y="216.91752" width="10.32405" height="10.32406" rx="1.25913" ry="1.25913" transform="translate(36.23512 488.30691) rotate(-78.75611)"/>
  <rect class="cls-1" x="297.4257" y="212.85497" width="10.32426" height="10.32426" rx="1.25916" ry="1.25916" transform="translate(70.70745 510.11697) rotate(-87.32914)"/>
  <rect class="cls-1" x="284.30623" y="214.0575" width="10.32407" height="10.32406" rx="1.25917" ry="1.25917" transform="translate(-21.00151 30.91765) rotate(-5.90023)"/>
  <rect class="cls-1" x="271.35998" y="220.42572" width="10.32441" height="10.32442" rx="1.25919" ry="1.25919" transform="translate(-47.60018 76.259) rotate(-14.47134)"/>
  <rect class="cls-1" x="258.87816" y="231.56982" width="10.32394" height="10.32394" rx="1.25915" ry="1.25915" transform="translate(-71.59394 122.23769) rotate(-23.04268)"/>
  <rect class="cls-1" x="247.14041" y="246.75746" width="10.32413" height="10.32413" rx="1.25914" ry="1.25914" transform="translate(-94.61272 169.64053) rotate(-31.61399)"/>
  <rect class="cls-1" x="236.41864" y="265.05337" width="10.32402" height="10.32402" rx="1.25913" ry="1.25913" transform="translate(-117.33748 219.66506) rotate(-40.18548)"/>
  <rect class="cls-1" x="226.95788" y="285.33451" width="10.32401" height="10.324" rx="1.25909" ry="1.25909" transform="translate(-139.33599 273.51413) rotate(-48.75591)"/>
  <rect class="cls-1" x="218.97252" y="306.41783" width="10.32424" height="10.32425" rx="1.25919" ry="1.25919" transform="translate(-159.14027 332.0433) rotate(-57.32686)"/>
  <rect class="cls-1" x="212.65382" y="327.12853" width="10.32395" height="10.32394" rx="1.25913" ry="1.25913" transform="translate(-174.45193 395.43104) rotate(-65.89929)"/>
  <rect class="cls-1" x="208.13986" y="346.389" width="10.32443" height="10.32444" rx="1.25919" ry="1.25919" transform="translate(-182.52301 462.94485) rotate(-74.47065)"/>
  <rect class="cls-1" x="205.54812" y="363.30748" width="10.32403" height="10.32402" rx="1.25913" ry="1.25913" transform="translate(-180.56928 532.99593) rotate(-83.04276)"/>
  <rect class="cls-1" x="204.92702" y="377.23858" width="10.32426" height="10.32426" rx="1.25917" ry="1.25917" transform="translate(-10.68092 6.06531) rotate(-1.61303)"/>
  <rect class="cls-1" x="206.29957" y="387.81578" width="10.32415" height="10.32415" rx="1.25915" ry="1.25915" transform="translate(-66.15945 43.58674) rotate(-10.18542)"/>
  <rect class="cls-1" x="209.63075" y="394.96552" width="10.32392" height="10.32392" rx="1.2591" ry="1.2591" transform="translate(-117.25254 90.31485) rotate(-18.75643)"/>
  <rect class="cls-1" x="214.83786" y="398.90279" width="10.32415" height="10.32415" rx="1.25919" ry="1.25919" transform="translate(-160.95133 146.10262) rotate(-27.32917)"/>
  <rect class="cls-1" x="221.8076" y="400.0722" width="10.32395" height="10.32396" rx="1.25914" ry="1.25914" transform="translate(-194.50455 210.06889) rotate(-35.90035)"/>
  <rect class="cls-1" x="230.36723" y="399.12252" width="10.32446" height="10.32445" rx="1.25921" ry="1.25921" transform="translate(-215.76649 280.78477) rotate(-44.47099)"/>
  <rect class="cls-1" x="240.33229" y="396.79412" width="10.32395" height="10.32396" rx="1.25915" ry="1.25915" transform="translate(-223.29748 356.45398) rotate(-53.04164)"/>
  <rect class="cls-1" x="251.46496" y="393.87712" width="10.3242" height="10.32421" rx="1.25915" ry="1.25915" transform="translate(-216.43676 435.09997) rotate(-61.61354)"/>
  <rect class="cls-1" x="263.51267" y="391.09771" width="10.32407" height="10.32407" rx="1.25911" ry="1.25911" transform="translate(-195.19982 514.7009) rotate(-70.18499)"/>
  <rect class="cls-1" x="276.20193" y="389.06039" width="10.32406" height="10.32405" rx="1.25914" ry="1.25914" transform="translate(-160.15412 593.3173) rotate(-78.756)"/>
  <rect class="cls-1" x="289.24515" y="388.17977" width="10.32437" height="10.32438" rx="1.25915" ry="1.25915" transform="translate(-112.22981 669.09511) rotate(-87.3284)"/>
  <rect class="cls-1" x="302.34864" y="388.63914" width="10.32393" height="10.32393" rx="1.25912" ry="1.25912" transform="translate(-38.85026 33.69524) rotate(-5.8999)"/>
  <rect class="cls-1" x="315.22029" y="390.37458" width="10.32451" height="10.32451" rx="1.2592" ry="1.2592" transform="translate(-88.67402 92.606) rotate(-14.47057)"/>
  <rect class="cls-1" x="327.57656" y="393.07615" width="10.32395" height="10.32395" rx="1.25913" ry="1.25913" transform="translate(-129.32916 162.0137) rotate(-23.04271)"/>
  <rect class="cls-1" x="339.14565" y="396.2243" width="10.32409" height="10.3241" rx="1.25914" ry="1.25914" transform="translate(-159.31083 240.05695) rotate(-31.61477)"/>
  <rect class="cls-1" x="349.67008" y="399.13656" width="10.32402" height="10.32402" rx="1.25913" ry="1.25913" transform="translate(-177.12471 324.39166) rotate(-40.18553)"/>
  <rect class="cls-1" x="358.92649" y="401.04489" width="10.32402" height="10.32402" rx="1.25914" ry="1.25914" transform="translate(-181.37358 412.17336) rotate(-48.75641)"/>
  <rect class="cls-1" x="366.71444" y="401.16967" width="10.32425" height="10.32425" rx="1.25919" ry="1.25919" transform="translate(-170.91461 500.00918) rotate(-57.32703)"/>
  <rect class="cls-1" x="372.86485" y="398.79896" width="10.3241" height="10.3241" rx="1.25915" ry="1.25915" transform="translate(-145.08609 584.07661) rotate(-65.89883)"/>
  <rect class="cls-1" x="377.25032" y="393.38119" width="10.32443" height="10.32443" rx="1.25918" ry="1.25918" transform="translate(-103.96552 660.29247) rotate(-74.47064)"/>
  <rect class="cls-1" x="379.76736" y="384.5671" width="10.32402" height="10.32403" rx="1.25913" ry="1.25913" transform="translate(-48.55602 724.61688) rotate(-83.04276)"/>
  <rect class="cls-1" x="380.37288" y="372.29802" width="10.32426" height="10.32426" rx="1.25917" ry="1.25917" transform="translate(-10.47234 11.00198) rotate(-1.61303)"/>
  <rect class="cls-1" x="379.04689" y="356.779" width="10.32415" height="10.32414" rx="1.25915" ry="1.25915" transform="translate(-57.94841 73.64483) rotate(-10.18536)"/>
  <rect class="cls-1" x="375.82075" y="338.53154" width="10.32413" height="10.32414" rx="1.25917" ry="1.25917" transform="translate(-90.27888 140.75121) rotate(-18.7559)"/>
  <rect class="cls-1" x="370.76247" y="318.3254" width="10.3242" height="10.32421" rx="1.25916" ry="1.25916" transform="translate(-106.55303 208.68849) rotate(-27.32849)"/>
  <rect class="cls-1" x="363.97772" y="297.15894" width="10.32398" height="10.32399" rx="1.25915" ry="1.25915" transform="translate(-107.1512 273.87724) rotate(-35.89946)"/>
  <rect class="cls-1" x="355.61858" y="276.16294" width="10.32446" height="10.32445" rx="1.25923" ry="1.25923" transform="translate(-93.75605 333.31438) rotate(-44.47099)"/>
  <rect class="cls-1" x="370.10282" y="260.82074" width="11.45779" height="11.45779" rx="1.25921" ry="1.25921" transform="translate(-79.09459 339.62663) rotate(-44.47099)"/>
  <rect class="cls-1" x="359.10802" y="238.5019" width="11.45733" height="11.45733" rx="1.25917" ry="1.25917" transform="translate(-51.51993 383.51997) rotate(-52.29665)"/>
  <rect class="cls-1" x="346.86914" y="218.70569" width="11.45728" height="11.45727" rx="1.25916" ry="1.25916" transform="translate(-17.65265 418.36881) rotate(-60.12265)"/>
  <rect class="cls-1" x="333.60273" y="202.4511" width="11.45707" height="11.45707" rx="1.25916" ry="1.25916" transform="translate(18.9827 444.52951) rotate(-67.94863)"/>
  <rect class="cls-1" x="319.55139" y="190.57354" width="11.4571" height="11.45709" rx="1.25916" ry="1.25916" transform="translate(55.06501 463.37032) rotate(-75.77486)"/>
  <rect class="cls-1" x="304.97447" y="183.6989" width="11.4573" height="11.45729" rx="1.25916" ry="1.25916" transform="translate(87.82856 477.08385) rotate(-83.60123)"/>
  <rect class="cls-1" x="290.14089" y="182.19191" width="11.45756" height="11.45757" rx="1.25918" ry="1.25918" transform="translate(-4.58934 7.42849) rotate(-1.4274)"/>
  <rect class="cls-1" x="275.3242" y="186.13922" width="11.45728" height="11.4573" rx="1.25914" ry="1.25914" transform="translate(-27.19762 47.69565) rotate(-9.25437)"/>
  <rect class="cls-1" x="260.8065" y="195.3132" width="11.45704" height="11.45703" rx="1.25914" ry="1.25914" transform="translate(-47.29229 87.15094) rotate(-17.08018)"/>
  <rect class="cls-1" x="246.85558" y="209.21288" width="11.45736" height="11.45736" rx="1.25916" ry="1.25916" transform="translate(-67.02909 126.36397) rotate(-24.90661)"/>
  <rect class="cls-1" x="233.74367" y="227.11978" width="11.4572" height="11.4572" rx="1.25914" ry="1.25914" transform="translate(-87.87729 166.45861) rotate(-32.73187)"/>
  <rect class="cls-1" x="221.70999" y="248.09306" width="11.4574" height="11.4574" rx="1.25914" ry="1.25914" transform="translate(-110.3967 208.86519) rotate(-40.5579)"/>
  <rect class="cls-1" x="210.99313" y="271.07386" width="11.4574" height="11.4574" rx="1.2592" ry="1.2592" transform="translate(-134.15192 254.99386) rotate(-48.38426)"/>
  <rect class="cls-1" x="201.79666" y="294.93722" width="11.45721" height="11.45721" rx="1.25915" ry="1.25915" transform="translate(-157.76784 305.92142) rotate(-56.2101)"/>
  <rect class="cls-1" x="194.29893" y="318.56211" width="11.45721" height="11.45721" rx="1.25915" ry="1.25915" transform="translate(-179.10574 362.15155) rotate(-64.03581)"/>
  <rect class="cls-1" x="188.64121" y="340.91424" width="11.45725" height="11.45726" rx="1.25913" ry="1.25913" transform="translate(-195.5572 423.4401) rotate(-71.86171)"/>
  <rect class="cls-1" x="184.93593" y="361.10214" width="11.45738" height="11.45737" rx="1.25917" ry="1.25917" transform="translate(-204.37014 488.75455) rotate(-79.68866)"/>
  <rect class="cls-1" x="183.25439" y="378.4256" width="11.45755" height="11.45755" rx="1.25918" ry="1.25918" transform="translate(-203.00508 556.30092) rotate(-87.51459)"/>
  <rect class="cls-1" x="183.63576" y="392.41715" width="11.4573" height="11.4573" rx="1.25915" ry="1.25915" transform="translate(-36.23715 19.35444) rotate(-5.3408)"/>
  <rect class="cls-1" x="186.06342" y="402.86869" width="11.45733" height="11.45732" rx="1.25913" ry="1.25913" transform="translate(-88.02981 54.42832) rotate(-13.1666)"/>
  <rect class="cls-1" x="190.49599" y="409.81487" width="11.45714" height="11.45714" rx="1.25913" ry="1.25913" transform="translate(-135.84479 97.8795) rotate(-20.99287)"/>
  <rect class="cls-1" x="196.84185" y="413.5351" width="11.45709" height="11.45709" rx="1.25916" ry="1.25916" transform="translate(-177.01442 149.57469) rotate(-28.81895)"/>
  <rect class="cls-1" x="204.98019" y="414.49893" width="11.45732" height="11.45731" rx="1.25915" ry="1.25915" transform="translate(-209.16942 208.82353) rotate(-36.64533)"/>
  <rect class="cls-1" x="214.75098" y="413.33024" width="11.45763" height="11.45762" rx="1.25921" ry="1.25921" transform="translate(-230.42675 274.47304) rotate(-44.47099)"/>
  <rect class="cls-1" x="225.97173" y="410.73854" width="11.4575" height="11.45749" rx="1.25916" ry="1.25916" transform="translate(-239.50506 345.08485) rotate(-52.29656)"/>
  <rect class="cls-1" x="238.42659" y="407.46441" width="11.45705" height="11.45705" rx="1.25915" ry="1.25915" transform="translate(-235.7466 419.06385) rotate(-60.12212)"/>
  <rect class="cls-1" x="251.87333" y="404.21362" width="11.45707" height="11.45707" rx="1.25916" ry="1.25916" transform="translate(-219.06562 494.7914) rotate(-67.94855)"/>
  <rect class="cls-1" x="266.05845" y="401.58635" width="11.45733" height="11.45732" rx="1.25913" ry="1.25913" transform="translate(-189.82413 570.6821) rotate(-75.77539)"/>
  <rect class="cls-1" x="280.71309" y="400.03467" width="11.4573" height="11.4573" rx="1.25917" ry="1.25917" transform="translate(-148.71711 645.19914) rotate(-83.60121)"/>
  <rect class="cls-1" x="295.56067" y="399.82125" width="11.45755" height="11.45754" rx="1.25919" ry="1.25919" transform="translate(-10.00076 7.62471) rotate(-1.42623)"/>
  <rect class="cls-1" x="310.33204" y="400.99664" width="11.45714" height="11.45713" rx="1.25914" ry="1.25914" transform="translate(-61.29053 56.11742) rotate(-9.25366)"/>
  <rect class="cls-1" x="324.74313" y="403.39793" width="11.4571" height="11.45709" rx="1.25913" ry="1.25913" transform="translate(-105.58651 115.10392) rotate(-17.07973)"/>
  <rect class="cls-1" x="338.53346" y="406.65936" width="11.45725" height="11.45726" rx="1.25915" ry="1.25915" transform="translate(-141.65082 183.3271) rotate(-24.90548)"/>
  <rect class="cls-1" x="351.45198" y="410.2436" width="11.45738" height="11.45738" rx="1.25916" ry="1.25916" transform="translate(-168.20311 259.18307) rotate(-32.73191)"/>
  <rect class="cls-1" x="363.25926" y="413.48517" width="11.4574" height="11.4574" rx="1.25922" ry="1.25922" transform="translate(-183.92989 340.63756) rotate(-40.55782)"/>
  <rect class="cls-1" x="373.74338" y="415.65291" width="11.4574" height="11.4574" rx="1.25914" ry="1.25914" transform="translate(-187.57883 425.22716) rotate(-48.38417)"/>
  <rect class="cls-1" x="382.71509" y="416.00553" width="11.45721" height="11.4572" rx="1.25914" ry="1.25914" transform="translate(-178.08485 510.01541) rotate(-56.21006)"/>
  <rect class="cls-1" x="390.01659" y="413.86942" width="11.4572" height="11.4572" rx="1.25916" ry="1.25916" transform="translate(-154.76282 591.69588) rotate(-64.03581)"/>
  <rect class="cls-1" x="395.51521" y="408.68379" width="11.45726" height="11.45725" rx="1.25913" ry="1.25913" transform="translate(-117.4869 666.70725) rotate(-71.86182)"/>
  <rect class="cls-1" x="399.11206" y="400.06925" width="11.45728" height="11.45729" rx="1.25916" ry="1.25916" transform="translate(-66.87445 731.45529) rotate(-79.68764)"/>
  <rect class="cls-1" x="400.74652" y="387.8659" width="11.45755" height="11.45755" rx="1.25919" ry="1.25919" transform="translate(-4.37591 782.61938) rotate(-87.51459)"/>
  <rect class="cls-1" x="400.38208" y="372.15722" width="11.45727" height="11.45726" rx="1.25916" ry="1.25916" transform="translate(-33.40182 39.43) rotate(-5.33935)"/>
  <rect class="cls-1" x="398.03156" y="353.28178" width="11.45718" height="11.45717" rx="1.25914" ry="1.25914" transform="translate(-71.16127 101.40535) rotate(-13.16634)"/>
  <rect class="cls-1" x="393.73565" y="331.82736" width="11.45713" height="11.45714" rx="1.25914" ry="1.25914" transform="translate(-94.41553 165.51391) rotate(-20.99286)"/>
  <rect class="cls-1" x="387.5683" y="308.59912" width="11.4571" height="11.45709" rx="1.25916" ry="1.25916" transform="translate(-102.80883 228.51716) rotate(-28.81902)"/>
  <rect class="cls-1" x="379.64464" y="284.56693" width="11.45733" height="11.45732" rx="1.25916" ry="1.25916" transform="translate(-97.09502 287.39219) rotate(-36.64534)"/>
  <rect class="cls-1" x="370.10167" y="260.82205" width="11.45763" height="11.45762" rx="1.25921" ry="1.25921" transform="translate(-79.09579 339.62612) rotate(-44.47099)"/>
  <rect class="cls-1" x="386.20477" y="243.89023" width="12.59137" height="12.59135" rx="1.25921" ry="1.25921" transform="translate(-62.85716 346.61739) rotate(-44.47099)"/>
  <rect class="cls-1" x="373.97845" y="218.85511" width="12.59092" height="12.59092" rx="1.25918" ry="1.25918" transform="translate(-32.18634 383.825) rotate(-51.67055)"/>
  <rect class="cls-1" x="360.45503" y="196.32977" width="12.59069" height="12.59069" rx="1.25913" ry="1.25913" transform="translate(3.70127 411.80954) rotate(-58.87013)"/>
  <rect class="cls-1" x="345.83591" y="177.28459" width="12.59052" height="12.59049" rx="1.25914" ry="1.25914" transform="translate(41.50145 430.98051) rotate(-66.07033)"/>
  <rect class="cls-1" x="330.35019" y="162.54857" width="12.59081" height="12.59079" rx="1.25913" ry="1.25913" transform="translate(78.04699 442.6419) rotate(-73.27126)"/>
  <rect class="cls-1" x="314.23976" y="152.78555" width="12.59113" height="12.59111" rx="1.25918" ry="1.25918" transform="translate(110.5839 448.85705) rotate(-80.47066)"/>
  <rect class="cls-1" x="297.74731" y="148.44319" width="12.59077" height="12.59078" rx="1.25918" ry="1.25918" transform="translate(137.07842 452.24308) rotate(-87.67139)"/>
  <rect class="cls-1" x="281.14429" y="149.69685" width="12.59057" height="12.59057" rx="1.2591" ry="1.2591" transform="translate(-12.20699 24.96928) rotate(-4.87074)"/>
  <rect class="cls-1" x="264.68155" y="156.48583" width="12.59069" height="12.59068" rx="1.25918" ry="1.25918" transform="translate(-28.04953 60.26589) rotate(-12.07081)"/>
  <rect class="cls-1" x="248.62472" y="168.50034" width="12.59088" height="12.5909" rx="1.25915" ry="1.25915" transform="translate(-43.40625 93.9304) rotate(-19.27163)"/>
  <rect class="cls-1" x="233.23257" y="185.19633" width="12.59123" height="12.59124" rx="1.25917" ry="1.25917" transform="translate(-60.24464 126.84545) rotate(-26.47119)"/>
  <rect class="cls-1" x="218.75234" y="205.84079" width="12.5909" height="12.59089" rx="1.25918" ry="1.25918" transform="translate(-79.85857 160.36364) rotate(-33.67153)"/>
  <rect class="cls-1" x="205.41672" y="229.51476" width="12.59063" height="12.59064" rx="1.25916" ry="1.25916" transform="translate(-102.68594 196.03207) rotate(-40.87145)"/>
  <rect class="cls-1" x="193.44018" y="255.20061" width="12.59064" height="12.59065" rx="1.25917" ry="1.25917" transform="translate(-128.27591 235.36337) rotate(-48.07161)"/>
  <rect class="cls-1" x="183.01804" y="281.83741" width="12.59071" height="12.59072" rx="1.25912" ry="1.25912" transform="translate(-155.34115 279.57106) rotate(-55.27066)"/>
  <rect class="cls-1" x="174.31598" y="308.3683" width="12.59123" height="12.59122" rx="1.25916" ry="1.25916" transform="translate(-181.90341 329.38795) rotate(-62.4708)"/>
  <rect class="cls-1" x="167.49315" y="333.79195" width="12.59073" height="12.59074" rx="1.25916" ry="1.25916" transform="translate(-205.49192 384.90008) rotate(-69.67082)"/>
  <rect class="cls-1" x="162.64475" y="357.22519" width="12.59069" height="12.59067" rx="1.25914" ry="1.25914" transform="translate(-223.45208 445.47361) rotate(-76.87107)"/>
  <rect class="cls-1" x="159.85576" y="377.94274" width="12.59074" height="12.59073" rx="1.25912" ry="1.25912" transform="translate(-233.1948 509.80863) rotate(-84.07078)"/>
  <rect class="cls-1" x="159.17113" y="395.41587" width="12.59093" height="12.59092" rx="1.25917" ry="1.25917" transform="translate(-8.8691 3.7688) rotate(-1.2709)"/>
  <rect class="cls-1" x="160.60241" y="409.32695" width="12.59112" height="12.59112" rx="1.25921" ry="1.25921" transform="translate(-59.40591 29.12082) rotate(-8.47127)"/>
  <rect class="cls-1" x="164.13385" y="419.57188" width="12.59081" height="12.59081" rx="1.25915" ry="1.25915" transform="translate(-108.69647 61.86467) rotate(-15.67088)"/>
  <rect class="cls-1" x="169.69839" y="426.28203" width="12.59068" height="12.59068" rx="1.25911" ry="1.25911" transform="translate(-154.29295 102.41425) rotate(-22.87181)"/>
  <rect class="cls-1" x="177.20392" y="429.77029" width="12.59069" height="12.5907" rx="1.25913" ry="1.25913" transform="translate(-193.80721 150.64482) rotate(-30.07193)"/>
  <rect class="cls-1" x="186.52706" y="430.51736" width="12.59092" height="12.59091" rx="1.25917" ry="1.25917" transform="translate(-225.15111 205.97954) rotate(-37.27143)"/>
  <rect class="cls-1" x="197.51575" y="429.12693" width="12.59117" height="12.59117" rx="1.25921" ry="1.25921" transform="translate(-246.6639 267.4824) rotate(-44.47099)"/>
  <rect class="cls-1" x="209.99626" y="426.27249" width="12.59091" height="12.59091" rx="1.25918" ry="1.25918" transform="translate(-257.17986 333.96876) rotate(-51.67056)"/>
  <rect class="cls-1" x="223.76208" y="422.65861" width="12.59068" height="12.59069" rx="1.2592" ry="1.2592" transform="translate(-256.06116 404.1218) rotate(-58.87009)"/>
  <rect class="cls-1" x="238.58953" y="418.95893" width="12.59068" height="12.59068" rx="1.25916" ry="1.25916" transform="translate(-243.14539 476.59873) rotate(-66.07014)"/>
  <rect class="cls-1" x="254.24079" y="415.76518" width="12.59096" height="12.59097" rx="1.25915" ry="1.25915" transform="translate(-218.65592 550.08095) rotate(-73.27087)"/>
  <rect class="cls-1" x="270.46523" y="413.55024" width="12.59112" height="12.59111" rx="1.25922" ry="1.25922" transform="translate(-183.10964 623.28182) rotate(-80.47077)"/>
  <rect class="cls-1" x="287.00369" y="412.63095" width="12.59092" height="12.59091" rx="1.25916" ry="1.25916" transform="translate(-137.1996 694.96) rotate(-87.67112)"/>
  <rect class="cls-1" x="303.59352" y="413.14432" width="12.59058" height="12.59058" rx="1.25913" ry="1.25913" transform="translate(-34.49442 27.82647) rotate(-4.87069)"/>
  <rect class="cls-1" x="319.9751" y="415.04393" width="12.59068" height="12.59069" rx="1.25914" ry="1.25914" transform="translate(-80.89733 77.54632) rotate(-12.0709)"/>
  <rect class="cls-1" x="335.89137" y="418.09232" width="12.59073" height="12.59073" rx="1.25911" ry="1.25911" transform="translate(-120.89113 136.71503) rotate(-19.2712)"/>
  <rect class="cls-1" x="351.09687" y="421.88973" width="12.59123" height="12.59123" rx="1.25924" ry="1.25924" transform="translate(-153.39314 204.19847) rotate(-26.47119)"/>
  <rect class="cls-1" x="365.34962" y="425.88906" width="12.5909" height="12.5909" rx="1.25918" ry="1.25918" transform="translate(-177.26529 278.55856) rotate(-33.67146)"/>
  <rect class="cls-1" x="378.43377" y="429.4503" width="12.59064" height="12.59063" rx="1.25912" ry="1.25912" transform="translate(-191.33149 357.99653) rotate(-40.87145)"/>
  <rect class="cls-1" x="390.14776" y="431.87639" width="12.59064" height="12.59063" rx="1.25911" ry="1.25911" transform="translate(-194.45196 440.31974) rotate(-48.07054)"/>
  <rect class="cls-1" x="400.31923" y="432.4701" width="12.59071" height="12.59072" rx="1.25918" ry="1.25918" transform="translate(-185.63429 522.97837) rotate(-55.27072)"/>
  <rect class="cls-1" x="408.79268" y="430.58298" width="12.59123" height="12.59123" rx="1.25917" ry="1.25917" transform="translate(-164.17896 603.0431) rotate(-62.4708)"/>
  <rect class="cls-1" x="415.43033" y="425.65284" width="12.59099" height="12.59098" rx="1.25916" ry="1.25916" transform="translate(-129.83037 677.34146) rotate(-69.67085)"/>
  <rect class="cls-1" x="420.13779" y="417.28348" width="12.59069" height="12.59069" rx="1.25913" ry="1.25913" transform="translate(-82.93477 742.6534) rotate(-76.87116)"/>
  <rect class="cls-1" x="422.84676" y="405.25564" width="12.59073" height="12.59074" rx="1.25913" ry="1.25913" transform="translate(-24.53752 795.88418) rotate(-84.07078)"/>
  <rect class="cls-1" x="423.51372" y="389.55102" width="12.59078" height="12.59078" rx="1.25919" ry="1.25919" transform="translate(-8.67194 9.62806) rotate(-1.2706)"/>
  <rect class="cls-1" x="422.13092" y="370.37482" width="12.59112" height="12.59111" rx="1.25921" ry="1.25921" transform="translate(-50.81442 67.22251) rotate(-8.47127)"/>
  <rect class="cls-1" x="418.71228" y="348.15287" width="12.5908" height="12.5908" rx="1.25914" ry="1.25914" transform="translate(-79.94256 127.97452) rotate(-15.67089)"/>
  <rect class="cls-1" x="413.31469" y="323.51823" width="12.59075" height="12.59075" rx="1.25916" ry="1.25916" transform="translate(-95.19618 189.01536) rotate(-22.87117)"/>
  <rect class="cls-1" x="406.01891" y="297.28325" width="12.59074" height="12.59073" rx="1.25909" ry="1.25909" transform="translate(-96.61949 247.45851) rotate(-30.07088)"/>
  <rect class="cls-1" x="396.93696" y="270.39301" width="12.5909" height="12.59091" rx="1.25915" ry="1.25915" transform="translate(-85.21031 300.70079) rotate(-37.27144)"/>
  <rect class="cls-1" x="386.20337" y="243.8918" width="12.59115" height="12.59117" rx="1.25921" ry="1.25921" transform="translate(-62.85863 346.61676) rotate(-44.47099)"/>
</svg>