<?xml version="1.0" encoding="UTF-8"?>
<svg id="Capa_2" data-name="Capa 2" xmlns="http://www.w3.org/2000/svg" width="210mm" height="209.99999mm" viewBox="0 0 595.27559 595.27557">
  <path d="M436.8154,318.75958l13.73139-35.4938-26.76658-45.82374-2.65006,4.49376,24.24212,41.66944-1.93584,4.67211-24.65177-42.36054-7.61602,12.92603,4.92573,8.56156-7.10049,12.28465,20.84831,11.43474,7.23344,12.48002c-.20769,.51722-.38011,.94739-.41785,1.03851-4.26325,10.62077-18.7778,17.97699-27.71312,3.03471l-21.4673-36.94688,6.20565,3.60707,18.96826-32.54736h5.59239l3.23377-5.40088h-9.41395l-14.18703,24.98467-6.91-4.019-5.58663,9.76695-11.57143-19.91917,13.08282-.00286,6.34108-10.74574h-69.00169l-6.42892,11.28674,9.08967,15.73246,17.50697-.00614,11.12403,19.17308-2.6583,6.56381-11.73562-20.74794-16.72129,.00803-9.31791-16.15464-4.40528,7.62443,8.00025,13.78435,15.54655-.00681,13.65337,23.31221c-7.16535,6.47819-21.07815,8.32819-32.97551-11.98663l-27.89929-48.58977-29.45931,.00946,6.25878,10.78781,14.55356-.00471-11.80682,20.36287,11.45567,19.81367c-8.28024-7.8457-17.81259-13.48776-26.54717-14.74834l8.88707-15.72628-11.77256-20.55253h-33.2454l-13.90784,24.07423,35.53339,61.39138c3.11962,5.91091,9.32631,9.93605,16.4738,9.93525,7.97541-.0037,14.77398-5.02426,17.42114-12.07305l5.16878-13.36234c5.14679,17.16503-.86736,35.60708-23.04434,36.38002-27.25278,.94944-24.44244-12.67686-48.35678-26.18413-10.98629-6.20561-24.76387-9.75875-37.57536-9.74807-10.7997,.00618-27.83998,7.0184-20.564,22.22545,3.37745,7.05863,17.28428,13.52366,27.269,4.7078,6.16231-5.4401-3.17363-12.30415,11.28308-14.06139,37.5583-4.56577,30.66675,52.06486,91.044,36.49574,35.52461-9.16024,25.8545-43.10327,5.76767-64.87122l2.97229-7.68702-9.61222-16.6181,1.61773-2.79844,5.25473,9.09253,2.76645-4.79296-5.28823-9.03549,4.1467-7.21007,24.96865,43.51906c15.53091,28.12694,35.321,30.02415,46.08295,3.01336l8.63319-22.37937-10.79066-18.48718-23.38258,.00883-6.1613-10.70122,37.16403-.01417,41.30576,71.26627c12.77824,21.33018,30.33692,13.48427,35.29225,.2849Zm-170.08687-.97941c-11.91934,15.15123-21.43547-.29638-21.50668-.40432l-32.50734-56.21483,2.61862-4.53786,35.13155,60.75185s5.99115,8.1936,16.26384,.40516Zm2.99835-9.86875c-1.12266,2.7063-3.79265,4.61789-6.90961,4.61789-2.79416,0-5.23015-1.53026-6.51535-3.80064l-35.58677-61.61038h23.40456l5.68801,9.82629-10.1803,19.97785c1.89641,.06629,3.44844,.19478,4.69897,.33904,13.34161,1.83466,23.48459,11.09591,28.93246,22.10948l-3.53196,8.54046Z"/>
</svg>