<?xml version="1.0" encoding="UTF-8"?>
<svg id="Capa_2" data-name="Capa 2" xmlns="http://www.w3.org/2000/svg" width="210mm" height="209.99999mm" viewBox="0 0 595.27559 595.27557">
  <defs>
    <style>
      .cls-1 {
        fill: #fff;
      }
    </style>
  </defs>
  <rect class="cls-1" x="251.74565" y="251.74557" width="35.6948" height="35.69489" rx="3.96638" ry="3.96638" transform="translate(-111.66907 269.59304) rotate(-45)"/>
  <rect class="cls-1" x="307.83516" y="307.83506" width="35.6948" height="35.69492" rx="3.96637" ry="3.96637" transform="translate(-134.90211 325.68255) rotate(-45)"/>
  <rect class="cls-1" x="225.68397" y="225.68393" width="31.7286" height="31.7286" rx="3.96638" ry="3.96638" transform="translate(-100.05254 241.54826) rotate(-45)"/>
  <rect class="cls-1" x="337.86305" y="337.86301" width="31.7286" height="31.7286" rx="3.96638" ry="3.96638" transform="translate(-146.51864 353.72734) rotate(-45)"/>
  <path class="cls-1" d="M250.89339,210.59611l14.02236,14.02236c1.50692,1.50692,3.91759,1.53552,5.47404,.1105l-4.41281,4.41281c-1.54893,1.54893-1.54893,4.06029,0,5.60922l16.82621,16.82621c1.54902,1.54893,4.06037,1.54893,5.6093,0l16.82621-16.82621c.41221-.41221,.70658-.89453,.8994-1.40675,.19283,.51255,.48719,.99522,.89957,1.4076l14.12305,14.12296-17.91357,17.91357c-1.54902,1.54902-1.54902,4.06029,0,5.6093l19.63073,19.63073c1.54902,1.54902,4.06029,1.54902,5.6093,0l17.91357-17.91357,14.12296,14.12305c.41238,.41238,.89505,.70675,1.4076,.89957-.51221,.19283-.99453,.48719-1.40675,.8994l-16.82621,16.82621c-1.54893,1.54893-1.54893,4.06029,0,5.6093l16.82621,16.82621c1.54893,1.54893,4.06029,1.54893,5.6093,0l4.41195-4.41204c-1.42417,1.55645-1.39539,3.96661,.11119,5.47327l14.02245,14.02236c1.54893,1.54902,4.06029,1.54902,5.6093,0l14.02236-14.02236c1.54902-1.54902,1.54893-4.06029,0-5.6093l-14.02236-14.02236c-1.54902-1.54902-4.06029-1.54902-5.6093,0l-1.60897,1.60888c1.42502-1.55645,1.39641-3.96712-.11042-5.47395l-16.82621-16.82621c-.41238-.41238-.89513-.70675-1.40768-.89957,.51221-.19283,.99462-.48719,1.40683-.8994l7.57395-7.57395,11.71536,11.71545c1.54902,1.54893,4.06037,1.54893,5.6093,0l2.8637-2.8637,9.62151,9.62151c1.54902,1.54902,4.06037,1.54893,5.6093,0l.51879-.51879c.00623,.00632,.01025,.01401,.01657,.02032l8.41306,8.41306c1.54902,1.54893,4.06037,1.54893,5.6093,0l8.41315-8.41315c1.54893-1.54893,1.54893-4.06029,0-5.6093l-8.41315-8.41306c-.70777-.70777-1.61768-1.07575-2.54372-1.13672-.19155-.4222-.44902-.82212-.79624-1.16934l-11.21775-11.21775c-1.54893-1.54902-4.06029-1.54902-5.60922,0l-.05909,.05909-12.42621-12.42629c-1.54893-1.54893-4.06037-1.54893-5.6093,0l-4.77011,4.77011-13.21827-13.21827,5.92425-5.92425c.42246-.42246,.71887-.91938,.91093-1.44603l10.41033,10.41033c1.54893,1.54893,4.06029,1.54893,5.6093-.00009l8.52262-8.52262,4.70512,4.70512c1.54893,1.54893,4.06029,1.54893,5.60922,0l3.56592-3.56592,1.57438,1.57438c1.54902,1.54893,4.06029,1.54893,5.6093-.00009l8.41306-8.41306c1.54902-1.54902,1.54902-4.06037,.00009-5.6093l-8.41315-8.41306c-1.54893-1.54902-4.06029-1.54902-5.6093,0l-.76123,.76123-4.37907-4.37899c-1.54893-1.54893-4.06029-1.54893-5.6093,0l-5.71793,5.71793-5.03202-5.03194,5.8327-5.8327c1.54893-1.54893,1.54893-4.06029,0-5.6093l-14.02236-14.02236c-1.54902-1.54893-4.06037-1.54893-5.6093,0l-5.8327,5.8327-5.03202-5.03194,5.71801-5.71801c1.54893-1.54902,1.54893-4.06037,0-5.6093l-4.37899-4.37907,.76123-.76123c1.54902-1.54902,1.54902-4.06037,0-5.6093l-8.41306-8.41315c-1.54893-1.54893-4.06029-1.54893-5.6093,0l-8.41306,8.41315c-1.54902,1.54893-1.54902,4.06037-.00009,5.6093l1.57438,1.57438-3.56592,3.56592c-1.54893,1.54893-1.54893,4.06029,0,5.60922l4.70512,4.70512-8.52271,8.52262c-1.54893,1.54902-1.54893,4.06037,0,5.6093l10.41033,10.41033c-.52664,.19206-1.02357,.48847-1.44603,.91093l-5.92425,5.92425-13.21827-13.21827,4.77011-4.77011c1.54893-1.54893,1.54893-4.06037,0-5.6093l-12.42621-12.42629,.05901-.05901c1.54902-1.54893,1.54902-4.06029,0-5.60922l-11.21775-11.21775c-.34722-.34722-.74714-.6047-1.16934-.79624-.06097-.92605-.42895-1.83595-1.13672-2.54372l-8.41315-8.41315c-1.54893-1.54893-4.06029-1.54893-5.60922,0l-8.41315,8.41315c-1.54893,1.54893-1.54893,4.06029,0,5.60922l8.41306,8.41315c.00632,.00632,.01401,.01033,.02032,.01657l-.51879,.51879c-1.54902,1.54893-1.54902,4.06029,0,5.60922l9.62151,9.6216-2.8637,2.8637c-1.54893,1.54893-1.54893,4.06029,0,5.6093l11.71545,11.71536-7.57395,7.57395c-.41221,.41221-.70658,.89462-.8994,1.40683-.19283-.51255-.48719-.99522-.89957-1.4076l-16.82621-16.82629c-1.50683-1.50683-3.91759-1.53544-5.47404-.11042l1.60897-1.60897c1.54902-1.54902,1.54902-4.06029,0-5.6093l-14.02236-14.02236c-1.54902-1.54902-4.06029-1.54902-5.6093,0l-14.02236,14.02236c-1.54902,1.54902-1.54902,4.06037,0,5.6093Zm84.50404,35.0577l14.22433,14.22433-4.207,4.207-14.22433-14.22433,4.207-4.207Zm26.19272-21.03525l5.83262-5.8327,9.06695,9.06695-5.8327,5.83262c-.42246,.42254-.71887,.91938-.91093,1.44603l-9.60196-9.60196c.52664-.19206,1.02348-.48847,1.44603-.91093Z"/>
  <rect class="cls-1" x="199.62181" y="199.62171" width="27.76337" height="27.76349" rx="3.96638" ry="3.96638" transform="translate(-88.43602 213.50349) rotate(-45)"/>
  <path class="cls-1" d="M344.38223,384.67943l-14.02236-14.02245c-1.50666-1.50657-3.91691-1.53535-5.47327-.11119l4.41204-4.41195c1.54893-1.54902,1.54893-4.06037-.00009-5.6093l-16.82621-16.82621c-1.54893-1.54893-4.06029-1.54893-5.60922,0l-16.82621,16.82621c-.41221,.41221-.70658,.89453-.8994,1.40675-.19283-.51255-.48719-.99522-.89957-1.4076l-14.12296-14.12305,17.91348-17.91348c1.54902-1.54893,1.54902-4.06029,.00009-5.6093l-19.63081-19.63073c-1.54902-1.54902-4.06037-1.54902-5.6093,0l-17.91348,17.91348-14.12305-14.12296c-.41238-.41238-.89505-.70675-1.4076-.89957,.51221-.19283,.99453-.48719,1.40675-.8994l16.82621-16.82621c1.54893-1.54893,1.54893-4.06029,0-5.60922l-16.82621-16.82629c-1.54893-1.54893-4.06029-1.54893-5.6093,0l-4.41246,4.41246c1.42476-1.55645,1.39607-3.96686-.11076-5.47369l-14.02236-14.02236c-1.54893-1.54902-4.06029-1.54902-5.6093,0l-14.02236,14.02236c-1.54902,1.54902-1.54902,4.06029,0,5.6093l14.02236,14.02236c1.54902,1.54902,4.06029,1.54902,5.6093,0l1.60897-1.60897c-1.42502,1.55645-1.39641,3.9672,.11042,5.47404l16.82621,16.82621c.41238,.41238,.89513,.70675,1.40768,.89957-.51221,.19283-.99462,.48719-1.40683,.8994l-7.57395,7.57395-11.71536-11.71545c-1.54902-1.54893-4.06037-1.54893-5.6093,0l-2.8637,2.8637-9.6216-9.62151c-1.54893-1.54902-4.06029-1.54902-5.60922,0l-.51879,.51879c-.00623-.00632-.01025-.01392-.01657-.02024l-8.41315-8.41315c-1.54893-1.54893-4.06029-1.54893-5.60922,0l-8.41315,8.41315c-1.54893,1.54893-1.54893,4.06029,0,5.60922l8.41315,8.41315c.70777,.70777,1.61768,1.07566,2.54372,1.13663,.19155,.4222,.44902,.8222,.79624,1.16943l11.21775,11.21775c1.54893,1.54893,4.06029,1.54893,5.60922,0l.05909-.05909,12.42621,12.42629c1.54902,1.54893,4.06037,1.54893,5.6093,0l4.77011-4.77011,13.21827,13.21827-5.92425,5.92425c-.42246,.42246-.71887,.91938-.91093,1.44603l-10.41033-10.41033c-1.54893-1.54893-4.06029-1.54893-5.6093,0l-8.52262,8.52271-4.70512-4.70512c-1.54893-1.54893-4.06029-1.54893-5.60922,0l-3.56592,3.56592-1.57438-1.57438c-1.54893-1.54893-4.06029-1.54893-5.6093,0l-8.41306,8.41315c-1.54902,1.54893-1.54902,4.06037-.00009,5.6093l8.41315,8.41306c1.54893,1.54902,4.06029,1.54902,5.6093,0l.76131-.76131,4.37899,4.37907c1.54893,1.54893,4.06029,1.54893,5.6093,0l5.71801-5.71801,5.03202,5.03194-5.83279,5.83279c-1.54893,1.54893-1.54893,4.06029,0,5.6093l14.02236,14.02236c1.54902,1.54893,4.06037,1.54893,5.6093,0l5.8327-5.8327,5.03202,5.03194-5.71801,5.71801c-1.54893,1.54902-1.54893,4.06037,0,5.6093l4.37907,4.37899-.76131,.76131c-1.54902,1.54902-1.54902,4.06037,0,5.6093l8.41306,8.41315c1.54893,1.54893,4.06029,1.54893,5.6093-.00009l8.41306-8.41306c1.54902-1.54902,1.54902-4.06037,.00009-5.6093l-1.57438-1.57438,3.56592-3.56592c1.54893-1.54893,1.54893-4.06029,0-5.6093l-4.70504-4.70512,8.52254-8.52254c1.54902-1.54902,1.54902-4.06037,.00009-5.6093l-10.41033-10.41033c.52664-.19206,1.02357-.48847,1.44603-.91093l5.92425-5.92425,13.21827,13.21827-4.77011,4.77011c-1.54893,1.54893-1.54893,4.06037,0,5.6093l12.42629,12.42621-.05909,.05909c-1.54902,1.54893-1.54902,4.06029,0,5.60922l11.21775,11.21775c.34722,.34722,.74722,.6047,1.16943,.79624,.06097,.92605,.42886,1.83595,1.13663,2.54372l8.41315,8.41315c1.54893,1.54893,4.06029,1.54893,5.60922,0l8.41315-8.41315c1.54893-1.54893,1.54893-4.06029,0-5.60922l-8.41315-8.41315c-.00632-.00632-.01392-.01033-.02024-.01657l.51879-.51879c1.54893-1.54893,1.54902-4.06029,0-5.60922l-9.62151-9.6216,2.8637-2.8637c1.54893-1.54893,1.54893-4.06029,0-5.6093l-11.71545-11.71536,7.57395-7.57395c.41221-.41221,.70658-.89462,.8994-1.40683,.19283,.51255,.48719,.9953,.89957,1.40768l16.82621,16.82621c1.50683,1.50683,3.9175,1.53544,5.47395,.11042l-1.60888,1.60897c-1.54902,1.54893-1.54902,4.06029-.00009,5.6093l14.02245,14.02236c1.54893,1.54902,4.06029,1.54902,5.6093,0l14.02236-14.02236c1.54902-1.54902,1.54902-4.06037,0-5.6093Zm-84.50404-35.0577l-14.22433-14.22433,4.207-4.207,14.22433,14.22433-4.207,4.207Zm-26.19272,21.03525l-5.83262,5.8327-9.06695-9.06695,5.8327-5.83262c.42246-.42254,.71887-.91938,.91093-1.44603l9.60196,9.60196c-.52664,.19206-1.02348,.48847-1.44603,.91093Z"/>
  <rect class="cls-1" x="367.89041" y="367.89036" width="27.76337" height="27.76346" rx="3.9663" ry="3.9663" transform="translate(-158.13518 381.77045) rotate(-44.99983)"/>
  <path class="cls-1" d="M389.93531,199.97665c1.27737,1.27737,3.20239,1.48386,4.70922,.6544-.82946,1.50683-.62297,3.43185,.6544,4.70922l11.21775,11.21775c1.54893,1.54893,4.06029,1.54893,5.6093,0l11.21775-11.21775c.44688-.44688,.74936-.97754,.93834-1.53834l7.81622-7.81622c1.54893-1.54893,1.54893-4.06029,0-5.60922l-8.41315-8.41315c-.42306-.42306-.92067-.71964-1.44816-.91161l-8.01315-8.01315c-.19197-.5275-.48856-1.02511-.91161-1.44816l-8.41315-8.41315c-1.54893-1.54893-4.06029-1.54893-5.60922,0l-7.81622,7.81622c-.5608,.18898-1.09146,.49146-1.53834,.93834l-11.21775,11.21775c-1.54893,1.54902-1.54893,4.06037,0,5.6093l11.21775,11.21775Z"/>
  <rect class="cls-1" x="236.79186" y="174.05406" width="23.79706" height="23.797" rx="3.96644" ry="3.96644" transform="translate(-58.64859 230.3149) rotate(-45)"/>
  <rect class="cls-1" x="173.56022" y="173.56015" width="23.79703" height="23.79706" rx="3.96638" ry="3.96638" transform="translate(-76.81948 185.45872) rotate(-45)"/>
  <rect class="cls-1" x="174.05407" y="236.79185" width="23.79706" height="23.797" rx="3.96644" ry="3.96644" transform="translate(-121.38637 204.32806) rotate(-45)"/>
  <path class="cls-1" d="M205.34031,395.29889c-1.27737-1.27737-3.20239-1.48386-4.70922-.6544,.82946-1.50683,.62297-3.43185-.6544-4.70922l-11.21775-11.21775c-1.54893-1.54893-4.06029-1.54893-5.6093,0l-11.21775,11.21775c-.4468,.44688-.74927,.97754-.93834,1.53834l-7.81622,7.81622c-1.54893,1.54893-1.54893,4.06029,0,5.60922l8.41315,8.41315c.42314,.42314,.92075,.71973,1.44825,.9117l8.01306,8.01306c.19197,.5275,.48856,1.02511,.91161,1.44816l8.41315,8.41315c1.54893,1.54893,4.06029,1.54893,5.60922,0l7.81622-7.81622c.5608-.18898,1.09146-.49146,1.53834-.93834l11.21775-11.21775c1.54893-1.54902,1.54902-4.06037,0-5.6093l-11.21775-11.21775Z"/>
  <rect class="cls-1" x="334.68672" y="397.42451" width="23.797" height="23.797" rx="3.96638" ry="3.96638" transform="translate(-187.92261 364.96069) rotate(-45)"/>
  <rect class="cls-1" x="397.91837" y="397.91833" width="23.79706" height="23.79706" rx="3.96638" ry="3.96638" transform="translate(-169.75169 409.81689) rotate(-45)"/>
  <rect class="cls-1" x="397.4245" y="334.6867" width="23.79706" height="23.797" rx="3.96638" ry="3.96638" transform="translate(-125.1848 390.94754) rotate(-45)"/>
  <path class="cls-1" d="M418.72172,170.6151l5.93877,5.93877,2.47429,2.47429c1.54893,1.54902,4.06029,1.54902,5.60922,.00009l8.41315-8.41315c1.54893-1.54893,1.54893-4.06029,0-5.6093l-2.47429-2.47429-5.93877-5.93877-2.47429-2.47429c-1.54902-1.54893-4.06037-1.54893-5.6093,0l-8.41315,8.41315c-1.54893,1.54893-1.54893,4.06029,.00009,5.60922l2.47429,2.47429Z"/>
  <rect class="cls-1" x="219.24396" y="155.42171" width="19.83065" height="19.83062" rx="3.9663" ry="3.9663" transform="translate(-49.79173 210.46617) rotate(-45)"/>
  <rect class="cls-1" x="155.42175" y="219.24393" width="19.83065" height="19.83065" rx="3.9664" ry="3.9664" transform="translate(-113.61373 184.02874) rotate(-44.99971)"/>
  <path class="cls-1" d="M176.55391,424.66044l-8.41297-8.41306c-1.54902-1.54902-4.06037-1.54902-5.60939,0l-8.41306,8.41306c-1.54902,1.54902-1.54893,4.06037,0,5.6093l2.47429,2.47429,5.93877,5.93877,2.47429,2.47429c1.54893,1.54893,4.06037,1.54902,5.6093,0l8.41315-8.41306c1.54893-1.54902,1.54893-4.06037-.00009-5.6093l-2.47429-2.47429Z"/>
  <rect class="cls-1" x="356.20103" y="420.02318" width="19.83062" height="19.83065" rx="3.96636" ry="3.96636" transform="translate(-196.77967 384.81228) rotate(-45.00029)"/>
  <rect class="cls-1" x="420.02323" y="356.20098" width="19.83062" height="19.83065" rx="3.96634" ry="3.96634" transform="translate(-132.95746 411.24258) rotate(-44.99971)"/>
</svg>