<?xml version="1.0" encoding="UTF-8"?>
<svg id="Capa_2" data-name="Capa 2" xmlns="http://www.w3.org/2000/svg" width="210mm" height="209.99999mm" viewBox="0 0 595.27559 595.27557">
  <defs>
    <style>
      .cls-1 {
        fill: #fff;
      }
    </style>
  </defs>
  <path class="cls-1" d="M278.66645,358.55499c-6.99548,0-12.6868,5.69132-12.6868,12.6868s5.69132,12.6868,12.6868,12.6868,12.6868-5.69132,12.6868-12.6868-5.69132-12.6868-12.6868-12.6868Zm0,18.69633c-3.31353,0-6.00954-2.69568-6.00954-6.00954s2.69601-6.00954,6.00954-6.00954,6.00954,2.69568,6.00954,6.00954-2.69601,6.00954-6.00954,6.00954Z"/>
  <path class="cls-1" d="M291.48204,399.77143c1.95558,0,3.54664-1.61585,3.54664-3.60207s-1.59107-3.60272-3.54664-3.60272c-1.9559,0-3.5473,1.6165-3.5473,3.60272s1.59139,3.60207,3.5473,3.60207Z"/>
  <path class="cls-1" d="M350.62145,337.8871c-1.42674-25.03093-14.66683-36.93263-25.52259-42.50918-2.21653-1.13865-4.41651-2.06162-6.53014-2.81171,.28329-12.90626,2.96903-75.32717,28.27069-119.08157,1.35632-2.34519,1.41631-4.80939,.16889-6.93907-1.71626-2.93076-6.16049-6.50055-25.4538-8.10857-10.0648-.83922-19.40612-.72641-19.7553-.72185l-8.27909,.00033c-.39353-.00652-9.73517-.1177-19.79932,.72152-19.29363,1.60802-23.73786,5.17814-25.45413,8.10857-1.24742,2.12968-1.18743,4.59388,.16856,6.93907,25.30223,43.7544,27.98805,106.17531,28.27134,119.08157-2.11362,.75009-4.31361,1.67306-6.53014,2.81171-10.85577,5.57656-24.09585,17.47825-25.52227,42.50918-2.59722,45.57916,10.39997,70.16048,21.76044,82.75533,12.5792,13.94596,25.84407,16.74793,26.40257,16.86009l.32604,.06586h8.98887l.32604-.06586c.5585-.11216,13.82337-2.91413,26.40257-16.86009,11.36047-12.59485,24.35799-37.17618,21.76077-82.75533Zm-58.15412-62.50999c-.32506-3.84008-1.22786-5.57362-2.20337-7.151-.57839-.93508-.92758-1.49945-.92758-4.14949,0-2.17533,.58882-3.11334,1.33415-4.3011,1.47793-2.3553,2.60798-4.83156,.24877-9.17276-.17586-.38562-.3306-1.10951-.44948-2.06024,.06639-3.02796,.03692-5.96144-.06093-8.76497,.31145-3.60256,1.05486-7.23075,2.46762-9.42796,.84933-1.32078,1.45869-1.32078,1.6879-1.32078h6.1468c.2292,0,.83857,0,1.6879,1.32078,1.41154,2.1953,2.15483,5.81909,2.46807,9.41594-.09871,2.82251-.12838,5.77654-.06048,8.82646-.11574,.91283-.26474,1.60721-.43343,1.97783-2.37617,4.37413-1.24612,6.85039,.23181,9.20569,.74532,1.18776,1.33415,2.12577,1.33415,4.3011,0,2.65004-.34919,3.21441-.92758,4.14949-.97551,1.57737-1.87831,3.31092-2.20337,7.151-.46363,5.47288,.15911,7.36064,1.73028,9.5226,.46134,.63463,1.04976,1.44647,1.31764,4.717-2.38501-.27367-3.8909-.28353-4.05702-.28353h-8.3231c-.16612,0-1.67184,.00986-4.05669,.28349,.26788-3.27053,.8563-4.08232,1.31764-4.71696,1.57118-2.16196,2.19391-4.04972,1.73028-9.5226Zm13.64482-50.90809c-1.87435-1.68607-3.86857-2.11745-5.40094-2.11745h-6.1468c-1.53238,0-3.52659,.43139-5.40094,2.11745-.57403-4.49766-1.21213-8.03904-1.6542-10.24819,1.7994-.21421,4.50226-.3518,7.05514-.34038h6.16734c2.53821-.02543,5.23683,.12585,7.0346,.34038-.44207,2.20915-1.08016,5.75054-1.6542,10.24819Zm-52.03647-54.61612c.38831-.49721,3.29396-3.31744,19.86388-4.73342,9.85353-.84183,19.39764-.72935,19.53653-.72707l8.36679-.00033c.09553-.00196,9.63964-.11411,19.49252,.72739,16.56991,1.41566,19.47556,4.23589,19.86388,4.73342-.0225,.06227-.06423,.15813-.1402,.2892-23.40551,40.47556-28.05685,94.57805-28.97599,115.82412-.50397-2.49965-1.27978-3.80462-2.14305-4.99234-.45287-.62273-.8102-1.11472-.47862-5.03338,.21747-2.56657,.66381-3.28809,1.22884-4.20165,1.09158-1.76419,1.92623-3.44883,1.92623-7.66222,0-4.097-1.41761-6.35579-2.35563-7.85035q-.72967-1.16298-.02021-2.46909c1.17712-2.16685,1.81078-8.08163,1.31972-14.14887,.52749-13.71822,2.76705-24.24367,3.18124-26.08815,.39581-1.04365,.31952-2.18837-.23605-3.1792-.71761-1.2797-1.79712-3.19713-13.79435-3.13779h-6.12561c-12.00179-.07695-13.09793,1.85777-13.81554,3.13779-.55557,.99083-.63186,2.13522-.23605,3.17887,.41501,1.84823,2.65403,12.37278,3.18132,26.08913-.49101,6.067,.14256,11.98145,1.31964,14.14822q.70946,1.30611-.02021,2.46909c-.93801,1.49456-2.35563,3.75335-2.35563,7.85035,0,4.21339,.83466,5.89803,1.92623,7.66222,.56502,.91356,1.01137,1.63508,1.22884,4.20165,.33158,3.91865-.02576,4.41064-.47862,5.03338-.86339,1.18792-1.63936,2.49317-2.14333,4.99372-.91906-21.2451-5.57008-75.34905-28.97636-115.82551-.07597-.13107-.1177-.22692-.1402-.2892Zm39.40041,126.15754h8.3231c.09912,0,10.03611,.06064,20.2486,5.3066,13.53547,6.95309,20.90622,19.38493,21.90716,36.95023,.15365,2.69638,.24583,5.34214,.28964,7.94665-6.83201-4.9826-20.03048-11.47536-42.4454-11.47536h-8.3231c-22.41492,0-35.61339,6.49276-42.4454,11.47536,.04381-2.60452,.136-5.25027,.28964-7.94665,2.37225-41.62986,40.53828-42.25063,42.15576-42.25683Zm30.73953,119.8099c-10.15413,11.43742-20.93491,14.59347-22.80474,15.07079h-7.54648c-1.86983-.47732-12.65061-3.63337-22.80474-15.07079-12.33027-13.88919-19.1221-34.73782-19.96588-60.87585,2.81212-3.01243,14.62033-13.52867,42.38231-13.52867h8.3231c27.4838,0,39.50629,10.53723,42.38158,13.55039-.84684,26.12788-7.6383,46.96881-19.96515,60.85413Z"/>
  <path class="cls-1" d="M316.60882,358.55499c-6.99548,0-12.6868,5.69132-12.6868,12.6868s5.69132,12.6868,12.6868,12.6868,12.6868-5.69132,12.6868-12.6868-5.69132-12.6868-12.6868-12.6868Zm0,18.69633c-3.31353,0-6.00954-2.69568-6.00954-6.00954s2.69601-6.00954,6.00954-6.00954,6.00954,2.69568,6.00954,6.00954-2.69601,6.00954-6.00954,6.00954Z"/>
  <path class="cls-1" d="M302.60091,392.83073c-1.95558,0-3.54664,1.6165-3.54664,3.60272s1.59107,3.60207,3.54664,3.60207c1.9559,0,3.5473-1.61585,3.5473-3.60207s-1.59139-3.60272-3.5473-3.60272Z"/>
  <rect class="cls-1" x="288.77657" y="407.07599" width="16.67457" height="6.67726"/>
</svg>