<?xml version="1.0" encoding="UTF-8"?>
<svg id="Capa_2" data-name="Capa 2" xmlns="http://www.w3.org/2000/svg" width="210mm" height="209.99999mm" viewBox="0 0 595.27559 595.27557">
  <defs>
    <style>
      .cls-1, .cls-2 {
        fill: #fff;
      }

      .cls-2 {
        fill-rule: evenodd;
      }
    </style>
  </defs>
  <g>
    <path class="cls-2" d="M213.78644,232.4851c-.14504,.36361-.22285,.35586,0,.67846-.42874,.041-.67919-.09621-.8716-.2908-.30703-.01558-.32405,.25827-.67918,.19387-1.06474-.12454-1.93569-.77539-3.00253-1.16312-3.04079-2.75846-6.63195-4.73161-9.68686-7.45827-2.99688-2.67428-6.21951-5.18157-9.49299-7.55593-.12171-.29428-.07498-.37636,.09621-.58153-5.12289-5.60473-11.05305-9.926-16.46739-15.11113-.25182-.25472,.15634-.07643,.09621-.38773-.5235,.02405-.43011-.41809-.67773-.67773-1.27491-1.33931-3.19923-2.13521-3.68107-4.06873-.30848-1.24093,.05093-3.10729,.38701-4.06807,.79524-2.27315,4.66655-4.6793,7.16892-2.32545,.67708,.63673,1.23035,1.52108,1.93779,2.22787,1.93852,1.93917,4.35105,4.16493,6.3928,5.90886,.11178,.11461,.11041,.34245,.09766,.58153,3.70577,2.83917,6.98853,6.05115,10.26701,9.39613,1.07822,1.1001,2.0474,2.30002,3.19778,3.29399,2.3227,2.00785,5.16889,3.4646,7.65213,5.42434,1.82253,1.43828,3.35919,3.26921,5.23113,4.65025,.6297,.46409,1.37467,.68273,2.03473,1.1624,.3552,.2582,.69338,.78532,1.06481,1.1624,.37918,.38483,.8553,.71034,1.1624,1.06547,.63738,.73721,.94376,1.69655,1.55006,2.42173,.51857,2.44006-.95158,4.76979-2.80939,5.71499-.58653,.18539-.44359-.14996-.96788-.19379Z"/>
    <path class="cls-2" d="M205.64899,240.81642c-.33535-.05165-.51574-.25965-.8716-.2908-.23487,.0552,.04528,.62608-.29152,.58153-1.64272-.03535-2.54409-.81357-3.97107-1.06547-.77612-1.12987-2.21229-1.59751-3.39099-2.32545-.22639-1.11075-1.40785-1.26288-2.3248-1.84021-.70889-.44714-1.42552-1.26281-2.22714-1.84013-.8348-.6021-1.7616-1.10654-2.42239-1.64707-.5971-.48887-1.14262-1.13197-1.74327-1.64699-.6155-.5285-1.28121-.98549-1.74393-1.54941-.31203-.38128-.44786-.89138-.77467-1.25999-1.44472-1.62932-3.67469-2.63183-4.55267-4.74653-1.93214-.9105-3.50633-3.04499-5.23185-4.45573-.82987-.67918-1.83803-1.1716-2.71246-1.93779-.79314-.69614-1.43552-1.64489-2.22721-2.3248-.844-.72446-1.38242-1.26498-2.13093-2.13093-1.16378-1.34489-2.89923-2.8738-3.19705-4.65025-.35448-2.11398,.59638-3.45822,1.64699-4.55194,1.07959-.09693,2.39833-.56667,3.68099-.19459,.74569,.21719,1.49138,1.11357,2.3248,1.84086,.75417,.65796,1.7093,1.26716,2.22787,1.84021,.34035,.37563,.54125,.96006,.87233,1.25933,.71178,.64658,1.67394,1.04917,2.42101,1.64699,.76409,.61195,1.60179,1.11922,2.32552,1.74393,.88928,.76836,1.49775,1.7645,2.32408,2.71181,.61268,.70179,1.58614,1.23666,2.51867,1.93707,.8143,.61195,1.54651,1.47298,2.32545,2.13166,1.65337,1.39872,2.93538,3.18437,4.3588,4.55339,.39476,.37918,.8971,.5921,1.25933,.96853,.27522,.28508,.40468,.71171,.67773,.96853,1.53101,1.439,4.02982,1.76023,5.13492,3.58413,2.24489,1.59744,5.62878,2.53345,7.45834,4.55259,.37491,.41316,.49097,1.04996,1.06547,1.26006,.02898,.77894,.32898,1.28549,.58153,1.84013-.06723,.97208-.44851,1.93924-.48394,2.80874-.59565,.40606-1.1164,.88573-1.45313,1.55078-.41954-.06296-1.73262,.01558-1.4532,.67781Z"/>
    <path class="cls-2" d="M259.50828,239.36322c1.00034-.2285,1.62149-1.67249,2.61625-2.22787,2.53562-2.43731,5.25518-4.68988,7.94293-6.97505-3.30188-.15424-6.20821,1.84224-9.68686,1.84013-1.80623,0-3.67042,.02615-5.52193,.48467-.5787,3.26356-1.94982,5.7355-3.1964,8.33132-.16271,.12874-.32477,.25675-.67781,.19379-.14359,1.04141-1.18993,1.86991-2.03473,2.51867-1.32932,2.72593-4.00287,3.78858-6.68425,5.42427-.96788,.59145-1.50485,.90348-3.0026,1.35627-1.15603,.34948-2.35871,.798-3.68027,1.06547-.73584,.14924-2.11826-.25682-2.22859,.96853,.12736,.30703,.60985-.34245,.77467,0-1.1963,1.55788-3.1412,2.33748-5.23113,3.29406-1.50906,.69121-2.87445,1.34134-4.74646,1.93707-1.7348,.55327-3.66194,.88573-5.5212,1.06619-4.55339,.44004-7.35851-2.21374-10.75305-3.39099-.50727-.71954-1.7708-1.1992-2.13093-1.74393,.18604-.46836,.73859,.65796,.96853-.09621-.23915,0-.39338,.12519-.38766-.38773-.71881,.00782-1.43762-.48039-1.1624,.09693-3.98809-1.37249-8.34617-2.37363-11.624-4.45573,.08708-.2653,.35593,.18894,.38701-.19387-1.75168-.63811-3.32231-1.45668-5.32733-1.84086-.28935-.19524-.43084-.53835-.67773-.77467-1.59469-.54835-3.06346-1.63786-4.26332-2.71181-1.24231-1.11357-2.45354-2.41601-3.39027-3.68172-1.23028-1.66402-1.83028-4.23709-3.58413-5.5212-.10186-1.90381-2.02552-3.4412-2.32473-5.52193-.40331-2.80729,.48669-4.76066,3.29333-4.3588,4.38003,.62543,5.64284,3.80908,8.23439,6.78126,.60985,.69896,1.48145,1.11002,2.13093,1.74248,.89283,.87022,1.55223,1.99372,2.3248,2.80947,.78314,.82632,1.95829,1.15675,2.42239,2.13093,2.03755,.49944,3.85436,1.37249,5.71507,2.13166,1.86346,.76054,3.94846,1.24441,5.61878,2.22787,.75844,.44779,1.37539,1.2105,2.13028,1.64699,.82422,.47474,1.60034,.74359,2.32545,1.25861,1.21268,.86312,2.73514,1.90027,4.45573,2.32552,1.74965,1.40502,4.60005,2.11956,7.65213,1.45313-.48387-.68911-.58652-1.16168-1.06474-1.84086-.20444-3.62659,1.33504-5.51055,4.3588-5.90886,1.6633,.64941,3.1667,1.63142,5.32806,1.74393,4.61207,.23915,8.79121-1.54658,11.81852-3.29406,.85175-.49169,2.66008-1.29679,2.80867-2.22787,.07498-.46554-.19387-.70961-.29008-1.1624-.32115-1.49913-.39476-2.9403-.77539-4.3588-.33818-1.26143-.74214-2.54482-1.25933-3.77793-1.01947-2.43093-2.42949-4.48616-3.29399-6.87819-2.6474-2.37711-3.70157-5.59263-5.81128-8.52446-.73156-1.01591-1.61519-2.24127-2.51867-2.90633-2.70326-1.98735-6.99628-2.36088-10.55918-3.68034-.10468-.2837-.21719-.5582-.19314-.96926-.64238-.33035-1.02866-.24472-1.35692-.77467-.2887-.46554,.15279-1.62294-.87167-1.55006,.32833-.11041,.39831-1.00251,0-.77546-.15206-.56312,.70186-.94303,1.06547-1.06474-.25182-.20589-.5532-.54407-.48459-.96926,.046-.47119,.73576-.29783,.87233-.67773-.2561-.3318-.16134-.65796,.29007-.38773,.12171-.21647-.56457-.29428-.48394-.77539,.61695,.39193,.66078-1.04496,1.64707-.5808,.04528-.20734-.13866-.18467-.2908-.19387,.57022-.14011,1.18645-.23422,1.4532-.67781,3.58124,.12454,7.92801,1.71357,11.13999,3.10019,1.60671,.69338,2.79809,1.3909,3.97114,2.32408,1.7269,1.37467,3.30601,3.03303,4.84339,4.74726,1.50978,1.68097,3.12069,3.79278,4.06873,6.102,.47047,.49807,.96151,.97636,1.64699,1.25933,.90493-1.13907,2.28872-1.82528,3.4872-2.80874,3.43837-2.81997,7.34438-5.36834,11.23764-8.03979,2.55474-1.7553,5.2609-3.20705,8.03987-4.84412,1.25368-.73866,2.64458-1.63714,4.06801-2.3248,2.33327-1.1256,5.16462-2.97638,8.04059-1.35627,.10041,.22219,.69121-.046,.77467,.19387,6.62912,3.42352,13.4379,8.96732,19.95524,13.36858,.98911,.66643,2.25409,1.37822,3.39027,2.13021,1.21833,.80654,2.51367,2.02697,3.778,2.22859,1.61447,.25682,3.7496-.28087,5.61879-.29073,3.44475-.01913,6.40838-.24342,9.88073-.09693,1.13269,.04738,2.27169,.36078,3.10019,.19314,1.35764-.27385,2.95233-2.67573,3.87486-3.58341,1.36337-1.34214,2.67073-2.25264,3.87486-3.48792,5.71579-3.04571,11.38203-7.4816,17.82438-10.36459,2.56105-1.14682,5.88909-1.56781,9.29913-1.93779,1.63286-.17691,3.59681-.6063,5.23112-.38773,.59145,.07926,.77119,.42736,1.45247,.48467,.25537,.02188,.87022-.0092,.5808-.38701,.28515,.10823,.47974,.2377,.48539,.38701,.44286-.21582,.18039-.13866,.09621-.38701,2.95305-.10968,5.66689,.51364,7.94359,.96853,.54407,.07498-.38483,.05586,0,.2908,1.07822,.01413,1.58904,.64731,2.3248,.8716,1.45957,.44359,2.97711,.68483,4.26259,1.45247,1.20623,.72229,3.22473,2.33465,4.16493,3.39092,.55327,.62188,.97918,1.44045,1.55078,2.13093,1.94844,2.35878,3.80488,6.03702,4.06735,10.26846,.29145,4.68561-.91832,9.89203-2.3248,13.46479-.50227,1.27773-.99686,2.73586-1.64627,3.58486-.66788,.8716-1.70365,1.77645-2.51867,2.80867-.78814,.99896-1.53948,2.14158-2.32552,2.90633-1.96605,1.91446-4.32272,3.51973-6.48973,5.23047-3.22465,2.5462-6.47771,4.56745-10.26839,6.39418,8.42332,26.54901,16.53673,54.53703,24.50864,81.95199,.38483,1.32584,.56102,2.6524,1.45247,3.29333,.04173,1.64634,.8256,2.0708,.96919,3.48792,1.91874,2.44006,5.78867,3.7638,9.20227,4.9396,4.40763,1.51543,9.32181,2.46556,13.56244,4.45573,2.31132,1.08532,4.72878,2.84482,6.58667,4.55267,1.2197,1.12205,1.9972,2.5696,2.61553,4.3588-.12026,1.59606-.47612,3.60956,.67781,4.26259,.2356,.63035,.04173,1.16378,.38773,1.74393-.38346,1.45175-.69548,3.07969-1.744,4.26187-1.36119,.75706-2.06233,1.4461-4.26187,1.55013-3.93644,.18749-8.85199,.71171-12.98092,.67918-4.6467-.03825-10.04337,.17402-14.62646-.09766-3.57138-.21082-6.85834-1.14755-10.17218-1.64627-3.13699-.47264-6.56689,.31978-9.10606,1.06474-.44141,.12946-.81712,.47474-1.25861,.58153-.48532,.11671-1.17725-.18184-1.55006,.29007-5.56155,.68411-10.4177,.35941-14.82105-1.45247-2.9332-1.20695-5.35849-3.08034-9.59065-2.3248-1.14262,.20452-1.82463,.5632-3.39027,.67781-2.3177,.16981-3.77372,.8992-6.19893,.48532-.30427-.05238-.70469-.05376-.96926-.09766-.78814-.12801-2.18614-.70179-3.48792-1.25999-1.81963-.78039-3.45677-1.5105-4.74581-2.71181-.69049-.64448-.8829-1.22463-1.45312-2.13093-2.25475-3.58058-1.74538-10.87186,0-14.82033-1.64772-2.29437-.80372-6.55486-.67781-10.17218,.12316-3.57848-.65723-7.47812-1.84086-9.97693-1.13197-2.38776-2.1302-4.67365-2.42239-7.94431-.3736-4.18478,.47185-8.02712,1.16305-12.39867-5.69094,1.13052-11.79512,1.73828-18.01817,2.42173-8.45158,.92818-17.23707,.56457-25.57338-.2908-2.46694,13.48746-8.63197,23.63204-15.69265,32.93544-1.00389,1.32229-1.94699,2.76839-3.00326,3.97114-.64448,.73432-1.43407,1.29186-2.03472,2.03473-1.73335,2.14579-3.54733,4.3609-5.52193,6.39353-.74569,1.36047-.56805,2.67283,.09766,4.35945,1.7595,4.46356,5.50845,7.44631,8.81526,10.75167,1.61867,1.61939,3.41997,3.12424,5.13419,4.65098,1.7298,1.53948,3.67252,2.96218,5.13347,4.55194,.2745,.29855,.41316,.74141,.67846,1.06619,.89992,1.09937,2.22576,1.90171,3.29333,2.80939,2.18121,1.85433,4.05105,3.86146,5.71507,6.29587,1.15247,1.68597,1.9675,3.36904,2.80939,5.42572,1.04432,2.5462,1.85644,6.78684,.09766,9.78307-.68056,1.15813-2.75491,2.86032-4.06945,3.68099-4.54629,2.83917-12.16017,4.54564-19.08292,3.48792-1.4645,.43011-3.18865-.40041-5.13419-.67846-1.52673-.21792-3.05281-.41671-4.35953-.67853-2.9403-.5879-5.68529-1.53803-7.94293-2.22787-1.16805-.35651-2.41318-.54827-3.48785-.96853-.25537-.10041-.49597-.37208-.77467-.48387-.40121-.16271-.84262-.16271-1.16175-.29152-1.14892-.45916-2.14296-1.18928-3.19705-1.7432-1.60534-.84262-2.94103-1.51688-4.3588-2.6156-1.34924-1.04496-2.77194-1.96605-3.97187-3.00326-2.00712-1.73335-3.2098-4.21869-6.00652-5.13347-.76409-.75699-1.59041-1.34214-2.42173-2.03473-.87935-.73229-1.88896-1.01316-2.9056-1.55013-2.43094-1.28339-4.63403-3.06694-7.07199-4.26259-2.0524-1.62859-4.14588-3.21545-5.61813-5.42354-.31623-1.16943-.87022-2.10123-1.55006-2.90633,.32608-.71316-.64738-1.01736-.29007-1.74393-1.18863-1.96894-1.13625-4.46566-.67781-6.68433,.29573-1.4348,.43084-1.91229,1.16168-3.00253,.33398-.49734,.51227-1.09379,.77474-1.4532,.8072-1.10155,2.71884-2.25192,4.06873-3.1964,1.42487-.99824,2.99123-1.97597,4.16566-3.00326,1.18573-1.03714,2.35023-2.44789,3.58406-3.68107,3.40019-3.40084,7.01968-7.55238,8.52446-12.69012,3.23255-11.03103,3.26646-24.12373,8.81526-33.3231-1.64207-2.50736-3.42845-5.98674-4.16493-9.68614-.65231-3.27211-1.34424-8.24076-.38773-12.01238,.71881-2.83699,1.49283-5.83888,3.39027-7.74979,1.90171-3.40794,3.56856-6.88094,5.71507-9.97759,4.24209-6.11765,9.14207-11.57937,13.85252-17.33972,1.16167-1.4206,2.46063-2.79454,3.77792-4.068,1.31454-1.27208,2.40826-2.75919,3.778-3.97252-.12598,.35796-.52777,.44141-.77539,.67846Zm-4.06807-16.56433c1.70502-.34876,3.44265-.58297,5.1342-.96926,2.36935-.54045,4.83854-1.48993,6.9744-2.13093,.85675-.25747,1.84578-.21785,2.61552-.48387,.51929-.18046,1.21268-.74714,1.744-1.06619,1.63924-.98483,3.57138-2.74926,5.81193-2.80939,3.94781-.10476,5.10804,2.38986,6.78053,4.74719,1.14045,1.60671,1.88759,3.37042,2.90705,4.6496,.74851,.94021,1.77015,1.76233,2.61487,2.71246,2.56322,2.88372,5.66834,5.10659,7.36206,8.7176,.39476,1.79913-.85392,4.18196-1.64634,4.94105,.11251,.0163,.10476,.15286,.09621,.2908-1.20058,1.444-3.12917,1.95264-5.13346,2.42173-.14012-.16271-.57733-.28442-.7754-.09766-.0552-.29928-.36933-.33963-.77539-.29007-.79379-.43301-1.40647-1.04707-2.42101-1.25933,.14859-.43649-.5398-.62043-.8716-.8716-.53914-1.04352-1.53666-1.62794-1.93786-2.80939-1.10292-.64383-1.90237-2.09768-3.00253-2.42246-5.12354,2.47831-8.75296,7.11024-12.59391,10.85071-.97063,.94448-1.98162,2.00995-2.80867,3.00253-.24125,.28863-.64521,.67071-.5816,1.06547,3.59543-.91123,7.39039-.65086,10.84998-.2908,1.20413,.12526,2.43231,.25755,3.39027,.58087,.78952,.26812,1.4348,.75772,2.13093,.96853,1.5013,.45561,2.65023-.08701,4.068-.29007,3.51198-.50299,7.5121-.19314,11.43151-.19314,2.74506,0,5.53468,.34738,8.13752,.67781,9.285,1.17863,21.14735,1.44892,29.35131-.67781,2.97073-.77047,5.80773-1.67459,8.04052-3.10019,2.00365-1.28056,3.88268-3.61239,5.5212-5.61886,1.84796-2.2625,2.58235-6.85689,6.39353-6.97505,3.29051-.10113,7.53752,1.11712,10.65539,0,1.06547-.38128,2.16353-1.17935,3.19713-1.7432,3.29616-1.79985,5.92661-3.94492,8.81453-6.00587,3.11012-3.45887,6.38295-5.86568,7.45972-11.52772,.6084-3.20415,.55037-7.2694-1.35699-9.49299-.35658-.41599-1.04424-.8808-1.64627-1.35692-.55182-.43511-1.28411-.9268-1.84086-1.25861-3.49003-2.07935-10.4319-2.9545-15.79031-1.84093-1.73762,.36158-3.29688,1.17088-4.84347,1.93779-4.64815,2.30575-8.52866,5.09109-12.78633,7.55593-2.94522,1.70437-4.89367,3.35064-6.9744,5.61813-.74917,.81574-1.32222,1.83238-2.13159,2.42246-2.51091,1.82883-7.3317,2.61835-11.14006,1.74248-1.21543,.43866-2.55895,.42526-3.87414,.48539-4.3751,.19807-8.81671,.43221-12.59391-.38773-.72236-.15706-1.57274-.57377-2.42173-.87233-2.32762-.81857-3.74257-1.68242-5.61813-2.9056-6.40911-4.17986-12.85848-8.23156-18.79285-12.49698-.94166-.67636-2.39058-2.14013-3.10019-2.22721-1.77508-.22002-4.47768,1.62939-5.71507,2.6156-1.70502,1.35909-3.68454,2.05733-5.42499,3.00253-1.13407,.61623-2.34813,1.46168-3.48648,2.22787-1.15885,.77967-2.3545,1.53383-3.48785,2.3248-3.69729,2.58162-6.41975,5.27851-10.94619,6.58812-.08846,.52915,.52212,1.14045,.67773,1.7432-.82705,.14996-.93593,.50727-.58153,1.25933,1.62012,.21227,3.30963-.34528,4.94105-.67781Zm90.57338,37.39117c-4.02062,1.46878-7.86723,3.11084-12.78705,3.68107,4.36662,3.01601,9.26877,5.35566,13.56172,8.42753,1.15602,.82777,2.19041,2.24764,3.29333,3.00398,.46061,.31485,.95658,.41809,1.35699,.77467,1.51963,1.34989,2.2951,3.42707,3.68035,4.9404,3.78147,9.30123,8.25206,18.45112,12.10924,28.0927,1.84021,4.59932,3.87841,9.40388,5.81272,14.23953,.92391,2.30922,1.91302,4.77479,2.90561,7.16747,1.35061,3.25588,3.04288,6.17988,3.09946,9.68686-.55747,1.28339-1.24658,2.43521-2.22714,3.29333-1.46305,.46199-1.98799,1.18153-3.77793,.87233-1.19638,.90985-3.07476,1.31526-4.9404,1.744-1.54303,.35441-4.39278,.74779-6.19966,.48314-2.07856-.30203-4.18261-1.51681-6.29732-2.22714-.54052-.18112-1.04779-.20872-1.55006-.38694-.44714-.15996-.91478-.43163-1.35554-.58232-1.35271-.46127-3.58131-1.07677-4.45646-2.03328-.37071-.40606-1.18573-1.85361-1.55006-2.81012-.84052-2.20874-.46909-4.71893-.48394-7.16754-.01203-1.92012-.2908-3.93926-.2908-6.00579,0-2.13586,.04318-4.29374,0-6.49046-.16061-8.17353-1.78493-16.23107-.5808-24.50791,.20654-1.4277,.5214-2.82924,.38766-4.06873-.24762-2.27525-2.19816-6.12678-3.58478-8.03987-.61623-.85037-1.58404-1.41277-2.42174-2.13093-.66853-.57377-1.36967-1.31091-2.13093-1.74393-.96288-.54827-2.21018-.8348-3.29333-1.35627-1.03786-.49944-2.0524-.99186-3.09947-1.35692-4.21166-1.46378-8.7318-3.46597-12.88471-4.74581-5.21693-1.60881-11.42369-1.47298-17.63045-.5808,1.64134,5.2417,.45417,10.7169-2.3248,13.65793-1.45813,.59355-2.44861,1.87339-3.77793,2.71246-3.82683,2.41608-8.35827,3.87558-12.01166,6.48973,12.04136,1.83738,25.37669,.55472,36.03563-1.25861,2.89995-.49379,5.79005-.80365,8.33132-1.55006,1.34069-.39338,3.02449-1.17015,4.94033-.96853,1.00461,.10541,1.74327,.71526,2.42173,1.1624,.48249,.3176,.86312,.91543,1.4532,.87233-.27522,.76974,.59493,1.36047,.77467,1.93634,.10896,.34883,.08983,.88015,.19387,1.35699,.22705,1.04634,.53488,2.60278,.48387,4.16493-.09903,3.04079-1.20196,6.12185-1.35554,9.10599-.21502,4.14798-.00348,7.06496,1.35554,9.88073,1.19145,2.46774,2.1126,4.65525,2.3248,7.45899,.16699,2.19317,.0389,4.26469,0,6.19966-.05868,2.98841-.8603,5.83178-.5808,9.00913,.10258,1.16588,.69758,2.14506,.87233,3.39027,.24544,1.75595-.35659,3.31311-.48539,4.84339-.09339,1.12132-.21785,2.68421,.19386,3.68034,.59218,1.43262,3.29406,1.92432,5.61886,1.64772,.59783-.07216,1.1645-.40823,1.7432-.48467,3.55863-.47047,7.63373-1.34772,12.01166-.87233,2.9269,.3184,5.64501,1.87839,8.52518,2.13166,3.27848,.28797,6.01217-.41736,9.00905-1.55078,4.29584-.83552,8.18418-.8787,12.20553-.09621,6.38998,1.24231,12.6668,1.53521,19.56759,1.35627,1.89744-.04955,3.82886,.00703,5.71573-.2908-8.63269-4.15646-19.87179-4.52296-25.28331-12.01166-1.16095-1.60671-2.07718-3.74612-3.19713-5.71572-1.63714-2.88235-2.42811-6.53291-3.48719-9.58927-1.21971-3.52183-2.10544-7.62736-3.19641-11.13999-.20872-.67216-.21219-1.32866-.38766-2.03473-.41461-1.67112-1.149-3.33086-1.64707-5.03726-.94868-3.2587-1.87904-6.61782-2.9056-10.07387-.52421-1.7666-.86667-3.65064-1.35627-5.42572-1.44327-5.2283-2.97355-10.4771-4.55332-15.49879-.82212-2.61415-1.88831-4.9496-2.42101-7.84673-.18394-.99614-.27595-2.0411-.48467-3.00253-.29928-1.37959-1.12842-2.90915-1.64627-4.45573-1.5013-4.47059-3.12924-10.03214-4.6496-14.04639-3.35064,4.78689-7.30903,8.96595-12.69084,11.72086Zm-103.45737,31.19296c1.28483-1.67959,2.55337-3.27421,4.16566-4.55339,1.45675-1.73617,2.84272-2.89857,4.3588-4.35953,.45706-.44004,.94803-1.07532,1.4532-1.4524,.47684-.35586,1.15747-.48677,1.64699-.96926,.93956-.9268,1.48008-2.41746,2.03473-3.778,.60565-1.48783,.74786-3.11359,1.25933-4.55259,.91978-2.5901,3.224-4.38785,6.58667-3.68034,1.39307,.87233,2.5788,1.74958,3.29406,3.00253,.38346,.67208,.92536,1.76943,1.06547,2.6156,.49524,2.99261-.67636,5.98949-1.55078,7.65213-1.48153,2.81932-3.63788,4.69908-6.1028,6.78119-1.93142,1.63149-3.48648,3.57066-5.13347,5.13347-2.95726,2.80664-5.63154,6.54994-7.94359,9.97838-2.17766,3.22965-4.20391,6.65882-5.61813,10.65539-1.25014,3.53175-2.06943,7.10096-2.71254,11.04313-.63738,3.90174-.95433,8.03414-2.03473,11.72086-.77604,2.64878-1.71277,5.30401-2.71174,7.5552-.37498,.84472-.58015,1.82246-.96926,2.51859-.47264,.84972-1.23811,1.60316-1.84021,2.42173-.62326,.84972-1.11705,1.77225-1.74393,2.51939-2.65443,3.16452-5.38037,5.98174-8.71833,8.33132-1.63924,1.15385-3.68382,1.97952-5.13347,3.48785-.67991,.70534-1.73545,2.29292-1.84086,2.90495-.55892,3.2424,1.68169,4.83492,3.77727,6.00652,1.44038,.8051,2.75209,1.65974,3.97179,2.3248,1.36329,.74141,2.51294,1.77508,3.77865,2.51859,1.4553,.85465,2.64313,1.65272,3.77793,2.61487,2.20526,1.87056,5.08616,2.99761,7.65213,4.94033,1.86281,1.41002,3.48155,2.78962,5.52193,3.97187,.73649,.42729,1.28339,1.11285,1.84086,1.35692,.82495,.35941,1.88969,.38701,2.80874,.77467,1.7687,.74359,3.58696,1.2247,5.5212,1.84021,.91833,.29218,1.76161,.8256,2.61625,1.06547,1.51261,.42446,3.36976,.62115,5.23113,.8716,1.80123,.24342,3.69802,.67071,5.42499,.77539,4.28027,.25892,10.25708,.25045,10.26766-3.19713,.005-1.48-2.04103-3.78285-3.00326-4.94033-1.30034-1.56426-2.9587-2.66863-4.16566-3.87421-2.77332-2.77331-5.64922-5.39239-8.33059-7.74972-1.41705-1.24658-3.07897-2.21164-4.55267-3.39027-1.4319-1.14682-2.85395-2.54975-4.068-3.97179-2.48259-2.90705-5.01676-5.96059-6.58812-9.49372-.56385-1.26926-1.20623-2.91835-1.35547-4.26187-.75989-6.83994,1.51753-10.14602,4.55259-13.65865,1.79848-2.08073,3.55653-4.37228,5.13419-6.39353,1.61381-2.06588,3.28986-4.34395,4.84347-6.6836,2.46839-3.71787,4.94388-7.52695,6.87747-11.52772,2.15564-4.45856,4.23847-9.51212,4.74646-15.40265,.56812-6.56754,.07643-13.43226,3.68172-16.56425,.05665-.04955,.14156-.15851,.19387-.19387,1.58121-1.05844,3.60109-2.0156,5.5212-3.09947,1.98024-1.11857,4.09495-1.79565,5.90893-2.81012,1.04779-.58515,3.3881-1.75247,3.68172-2.80874,.43794-1.57839-.96781-3.8211-1.74465-4.93967-.98411-1.42132-2.00785-3.04919-3.09874-3.87486-.67781-.51292-1.79565-1.01591-2.71326-1.55078-2.89003-1.68314-5.98319-2.71536-10.26766-3.09947-6.43808-.5766-11.53764-.20872-16.37118,1.55006-1.93707,.70468-4.45146,1.83028-5.71499,3.10019-1.17233,1.17725-2.0758,2.9035-3.10019,4.26114-1.03721,1.37467-1.84723,2.83562-2.61632,4.36025-1.07959,2.14158-2.58792,4.66865-3.29333,7.16754-.26602,.94513-.67418,2.01842-.77467,2.81012-.28015,2.21084,.2858,3.88406,.67846,5.42427,.21154,.82987,.18184,1.81326,.77474,2.42166,.66643-.32898,.76685-1.1298,1.16233-1.64627Zm114.69363,41.36369c1.76588,2.29155,5.15187,2.74289,8.91284,2.71108-3.03789-8.03704-6.28312-15.86674-9.68685-23.53938,.51509,6.6857,.77118,13.63033,.77401,20.8283Z"/>
    <path class="cls-2" d="M232.19162,232.87276c.46909,1.08032,2.01422,1.92577,2.6156,3.1964-3.41432-3.08252-6.39005-6.82864-9.97838-9.88073-1.1758-1.00034-2.5696-1.83021-3.68034-2.9056-.80792-.78177-1.42625-1.69017-2.32545-2.42173-.85892-.69896-1.56281-1.50978-2.42173-2.22787-.84617-.70889-1.83166-1.33149-2.71181-2.03473-.86378-.68904-1.55433-1.58049-2.42166-2.22787-.54835-.40816-1.20065-.66571-1.744-1.06547-1.48638-1.09445-3.23603-2.2788-4.74646-3.58406-1.20485-1.04069-2.2951-2.24344-3.58486-3.29333-1.33142-1.08532-3.00746-1.67677-4.3588-2.71253-1.99792-1.53166-3.66332-3.1801-5.61879-4.74646-1.29186-1.03576-2.35595-1.96967-3.58413-3.19713-.88855-.88928-2.2625-1.63287-2.42173-3.09947-.32043-2.9587,3.02449-4.72386,6.10345-3.68179,1.90954,.64738,3.16887,2.61987,4.74653,2.6156v.58153c2.30147,1.16595,4.57954,2.37218,6.58739,3.87493,1.99082,1.49138,4.18261,2.67428,6.00507,4.3588,.27167,.05165,.50379,.14286,.77546,.19452,3.39874,2.73514,6.51589,5.75325,10.17145,8.23373,7.30903,6.4133,14.07044,13.37495,21.02071,20.14911,.34318,1.06894,1.04779,2.25685,.87233,3.58334-.11034,.83205-.87588,1.26853-.58153,1.93779-.3113,.08491-.13301-.31978-.38773-.29073-.23697,.2285,.14431,.18039,.09693,.48459-.85037,.22074-.97418,1.02801-1.74393,1.25933-.80864,.24197-1.69655-.20307-2.61487,.09621-.35513-.86385-1.32439-.87443-2.03473-1.25861-.87935-.47539-1.17443-1.50761-2.034-1.93779Zm-6.39353-6.39353c-.56457-1.07039-1.67814-1.60954-2.61553-2.51859,.69331,1.01801,1.70502,1.7177,2.61553,2.51859Zm6.00579,5.90959c-1.19138-1.42415-2.71884-2.51294-3.77793-4.06873-1.02939-.26175-1.08242-1.50058-2.13093-1.7432,1.93707,1.90526,3.96542,4.23571,5.90886,5.81193Z"/>
  </g>
  <g>
    <g>
      <path class="cls-1" d="M415.93413,337.41045l1.34489,.42729-.07288,.22712-1.098-.34876-.17901,.5603,1.01526,.32333-.06788,.21364-1.01454-.3226-.20024,.62615,1.1164,.35513-.07006,.22147-1.36257-.43374,.58863-1.84934Z"/>
      <path class="cls-1" d="M417.67951,338.06348c.07636-.06085,.19032-.06723,.34238-.01913,.01413,.00493,.0297,.0092,.0439,.01623,.01623,.005,.0318,.01137,.05094,.02057l-.06579,.20517c-.0234-.0092-.03898-.01558-.051-.01913l-.0297-.0092c-.06861-.02195-.11599-.01768-.14149,.01275-.02478,.0318-.06085,.12026-.10679,.26667l.22705,.07223-.05796,.17967-.22639-.07288-.37006,1.16385-.22429-.0715,.37006-1.16378-.18894-.05941,.05665-.17974,.18959,.06013,.06723-.21082c.03253-.09411,.06998-.15779,.11461-.19169Z"/>
      <path class="cls-1" d="M418.97985,338.97116c.07571,.07353,.12454,.15424,.14859,.2398,.02543,.08281,.0297,.17126,.0155,.26675-.00703,.06651-.0318,.16764-.07498,.3042l-.98193-.31195c-.03753,.13866-.04108,.2582-.00856,.36006,.03398,.10193,.11396,.17264,.23915,.21227,.11744,.03753,.22502,.02898,.3184-.02688,.05513-.03325,.09903-.07716,.13511-.13163l.22212,.07078c-.02123,.04738-.05941,.09548-.11106,.14649-.05303,.05021-.10541,.08911-.15844,.11389-.08991,.046-.18822,.06368-.2979,.0552-.0573-.0029-.12099-.01558-.19031-.03753-.16692-.05303-.28791-.15989-.36506-.3184-.07636-.15916-.08063-.34876-.01058-.5695,.06861-.21574,.18322-.37353,.34238-.47119,.15924-.09759,.33536-.11744,.52212-.05803,.09693,.03115,.18046,.08281,.25545,.15569Zm-.08701,.5561c.02333-.10048,.02615-.18684,.0113-.25617-.0255-.12874-.11178-.21574-.25537-.26175-.10403-.03325-.20234-.02195-.29645,.03043-.09338,.05165-.16134,.13584-.20162,.2519l.74214,.2356Z"/>
      <path class="cls-1" d="M419.74749,338.62378l.21719,.06861-.341,1.07394,.76547-.38694,.28935,.09193-.67773,.33608,.27732,1.02229-.29007-.09266-.20518-.82212-.2448,.12099-.16134,.50654-.21785-.06933,.58863-1.84934Z"/>
      <path class="cls-1" d="M421.0492,339.17488l.22857,.07216-.11961,.37708,.21509,.06795-.05941,.18539-.21437-.06795-.28022,.88015c-.01485,.04666-.00985,.08201,.01702,.10889,.01485,.01492,.04383,.02905,.08418,.04245l.0368,.01065c.0113,.00355,.02616,.00565,.04455,.00848l-.05803,.18112c-.0276-.00072-.05803-.00427-.08628-.01058-.02833-.005-.06085-.01203-.09338-.02268-.10476-.03398-.16837-.08418-.18822-.14996-.01978-.06651-.01695-.14221,.01065-.22922l.28435-.89218-.18322-.05868,.05803-.18539,.18394,.05875,.11954-.37643Z"/>
      <path class="cls-1" d="M421.82677,339.83638l-.28442,.895c-.02268,.07071-.02898,.12946-.02123,.17894,.01275,.09338,.07288,.15779,.17967,.19104,.15424,.04883,.28232,.0113,.38208-.11106,.05376-.06651,.10186-.16554,.14431-.29717l.21082-.66288,.22712,.07216-.42946,1.34917-.21437-.06723,.06513-.19879c-.04463,.04173-.09411,.07433-.14786,.09556-.10758,.04311-.22147,.04593-.34383,.00775-.18821-.06013-.29573-.16554-.32405-.31695-.01484-.07926-.00355-.17757,.03325-.29218l.29218-.91688,.23067,.07353Z"/>
    </g>
    <path class="cls-1" d="M414.79296,336.58978c.12946-.0142,.2448-.0481,.2448-.0481l.01274-.00355c.09266-.03188,.17329-.08773,.20799-.19597,.0113-.03543,.0155-.06933,.0134-.10121-.10048,.01913-.22002,.0347-.22002,.0347-.01484,.04666-.08346,.06651-.18539,.08418-.13366,.02543-.2582,.05165-.2582,.05165-.09266,.03253-.17336,.08911-.20799,.19807-.01348,.04318-.01695,.08353-.01275,.12099,.07433-.02688,.14714-.05238,.22502-.06788,.0226-.03898,.08556-.05593,.18039-.07288Z"/>
    <path class="cls-1" d="M414.23121,337.20528c.00072,.00848,.04666-.01203,.10113-.02333,.05448-.01065,.11678-.01275,.11888-.01702,.01485-.04738,.08281-.06578,.18604-.08346,.11251-.0205,.24552-.04955,.24552-.04955l.0113-.00355c.09273-.0318,.1741-.08773,.20872-.19597,.01203-.03963,.0142-.07781,.0113-.11316-.07281,.0318-.14714,.04318-.22067,.05303-.0184,.04173-.08353,.06158-.18329,.07781-.14076,.02412-.2582,.0531-.2582,.0531-.09201,.0318-.17264,.08773-.20727,.19597-.0121,.03818-.0163,.07288-.01348,.10613Z"/>
    <path class="cls-1" d="M413.91853,338.18439c.07498-.02188,.14359-.03253,.21929-.03253l.00072-.00493c.01485-.04738,.08274-.06651,.18604-.08418,.11744-.01558,.25755-.0531,.25755-.0531,.09267-.03108,.17329-.08701,.20799-.19669,.01413-.04311,.01558-.08556,.01058-.12309,0,0-.06505,.0276-.10751,.03608-.04455,.01137-.10613,.01065-.1104,.02195-.01486,.04673-.08202,.06651-.1846,.08418-.13019,.02123-.25827,.05238-.25827,.05238-.09193,.03253-.17329,.08846-.20727,.19669-.01129,.03608-.01702,.06998-.01413,.10324Z"/>
    <path class="cls-1" d="M413.61216,339.20675c.08063-.0255,.14221-.04108,.21154-.046-.00145-.01058-.00145-.02123,.00283-.03325,.01413-.04528,.08281-.06506,.18604-.08281,.14576-.02615,.25755-.05303,.25755-.05303,.09266-.0318,.17336-.08701,.20799-.19669,.01275-.041,.01486-.07853,.01203-.11533-.12519,.0368-.21792,.046-.21929,.04883-.01485,.0481-.08281,.06795-.18539,.08491-.15634,.01768-.2582,.0531-.2582,.0531-.09201,.0318-.17264,.08766-.20734,.19662-.01623,.05093-.01623,.09911-.00775,.14366Z"/>
    <path class="cls-1" d="M413.85623,339.53573c.14149-.02623,.25755-.05376,.25755-.05376,.09193-.03115,.17329-.08708,.20799-.19669,.01348-.04035,.01485-.07643,.01275-.11323,0,0-.07216,.02688-.11816,.03398-.04528,.00638-.10121,.01348-.10121,.01348-.0155,.0481-.08346,.06716-.18532,.08556-.13729,.01558-.25892,.0531-.25892,.0531-.09201,.03108-.17263,.08701-.20734,.19524-.0134,.04383-.01623,.08418-.01275,.12236,.00217,.00782,.11606-.02753,.21582-.04028l.00283-.0163c.01485-.046,.08346-.06578,.18677-.08346Z"/>
    <path class="cls-1" d="M403.3508,336.08251c-.18742,.58863,.14011,1.22036,.72947,1.4072l7.85447,2.49882c.73149,.23277,1.55716,.07708,1.76305,.03963,.09903-.01702,.19597-.03543,.2603-.0552,.09338-.02833,.17265-.08701,.20734-.19597,.01558-.046,.01695-.08983,.0113-.13019-.06723,.0255-.14149,.0347-.21582,.04383,.00145,.00782,0,.0142-.0021,.02057-.01485,.04666-.08273,.06578-.18532,.08491,0,0-.10331,.0205-.24907,.04528-.29362,.04311-.94593,.12446-1.52391-.05875l-7.8552-2.49882c-.47612-.15141-.73931-.66013-.5879-1.13552l.94658-2.97638c.15069-.47474,.66013-.73859,1.13552-.58718l7.85948,2.50019c.46546,.14786,.88999,.48039,1.14682,.71461,0,0,.04665-.03188,.10678-.0552,.0573-.02268,.11816-.03188,.11816-.03188-.25892-.24827-.74779-.65651-1.30671-.83407l-7.85875-2.50026c-.58863-.18749-1.22036,.13939-1.40712,.72801l-.44294,1.38879-1.19492-.38063-.06861,.21509,1.19638,.38056-.43729,1.37257Z"/>
    <path class="cls-1" d="M413.7643,338.69738c.07071-.02123,.14431-.0326,.21575-.0418-.00072-.00638,.00072-.01268,.00209-.0184,.01492-.04666,.08281-.06578,.18611-.08346,.15989-.0184,.2582-.05303,.2582-.05303,.09201-.03188,.17264-.08701,.20799-.19669,.01066-.03325,.01485-.06651,.01275-.09838,0,0-.0573,.0255-.12026,.0326-.0573,.00638-.09976,.00065-.09976,.00065-.01485,.04673-.08345,.06651-.18539,.08491-.15351,.01702-.2582,.05238-.2582,.05238-.09201,.0318-.17336,.08773-.20727,.19597-.0142,.04383-.01768,.08563-.01203,.12526Z"/>
    <path class="cls-1" d="M414.07625,337.70545c.08281-.02478,.13866-.03535,.21654-.04173l.0021-.00848c.01485-.046,.08208-.06578,.18604-.08281,.13511-.01978,.25755-.05376,.25755-.05376,.09193-.03115,.17329-.08701,.208-.19669,.01412-.04455,.01629-.08773,.01057-.12801-.0021-.00855-.08766,.03535-.21364,.04876l-.00355,.0142c-.0155,.04666-.08346,.06651-.18531,.08491-.1712,.0205-.25893,.05231-.25893,.05231-.09201,.03188-.17264,.08773-.20734,.19597-.01268,.04173-.01622,.07926-.01203,.11533Z"/>
    <path class="cls-1" d="M414.55664,336.11859c-.0113,.03463-.01558,.06578-.01413,.09831,.08556-.03745,.34311-.10613,.40679-.11744l.2469-.046c.3134-.05165,.96361-.12236,1.52608,.05665l6.83922,2.17549c.47612,.15214,.74004,.66223,.58863,1.13625l-.94593,2.97566c-.15206,.47612-.66143,.73859-1.13762,.5879l-6.84841-2.17976c-.46975-.14859-.89211-.48177-1.14827-.71526,0,0-.10259,.06223-.2264,.08418,.25327,.2448,.74222,.65796,1.30889,.8377l6.84842,2.17904c.59007,.18749,1.22115-.13866,1.40857-.72801l.43656-1.37249,1.16878,.37143,.06788-.21437-1.16805-.37143,.44149-1.38879c.18749-.58935-.13939-1.22043-.72874-1.40864l-6.83921-2.17476c-.70679-.22502-1.53174-.08636-1.76378-.0389l-.25327,.05303c-.09475,.03253-.17829,.08701-.21437,.20024Z"/>
    <path class="cls-1" d="M406.29255,336.05983l.54472,.17336c.15641,.05021,.28022,.0389,.37426-.0276,.05948-.04318,.10331-.10331,.12882-.18467,.04245-.13439,.01129-.24407-.09556-.33253-.05585-.04593-.13649-.08628-.24335-.11954l-.50234-.15989-.20654,.65086Z"/>
    <path class="cls-1" d="M408.0506,336.47872c.04035,.14714,.16206,.25465,.36513,.31905,.08983,.02898,.17612,.04173,.25965,.0389,.16054-.0071,.26102-.07781,.30348-.21227,.0318-.10041,.0255-.18184-.02268-.24407-.04876-.06158-.13439-.12946-.25465-.20089l-.22502-.13518c-.14786-.08773-.2469-.16337-.2971-.22922-.09128-.11316-.11106-.2469-.0623-.40113,.0531-.16626,.15286-.2837,.29862-.35513,.05158-.02478,.10823-.04173,.16619-.04955l-1.03221-.32898c.11178,.06651,.18538,.15351,.22146,.2611,.02898,.09476,.02833,.19104-.00355,.29073-.0368,.11678-.10113,.20169-.19032,.25545-.04666,.02898-.10896,.04883-.18394,.06223,.08418,.06578,.14221,.13019,.17474,.18894,.05665,.10751,.06296,.23205,.01768,.37426-.03818,.11816-.10889,.21364-.21574,.28725-.11179,.07636-.24763,.10541-.40324,.08911l1.01591,.3226c-.05165-.04455-.09266-.09621-.12236-.15206-.09056-.15779-.10331-.33535-.0368-.53422l.23414,.07433c-.02688,.10751-.03043,.19952-.0071,.27877Z"/>
    <path class="cls-1" d="M407.50798,335.18331c.0389-.12099,.01421-.21792-.07143-.29152-.04883-.04245-.12808-.07991-.23842-.11461l-.45206-.14431-.18256,.57233,.46199,.14721c.10613,.0339,.19387,.04528,.26247,.03535,.10751-.01768,.18256-.08418,.22002-.20444Z"/>
    <polygon class="cls-1" points="405.43646 334.28831 404.88043 335.01139 405.46058 335.19533 405.43646 334.28831"/>
    <path class="cls-1" d="M410.30042,337.51021c-.00993-.0347-.00993-.07998-.00072-.13656-.06433,.04528-.14714,.07708-.24827,.09483l-.00782-.00072,.27522,.08701c-.0092-.01348-.01413-.0276-.0184-.04455Z"/>
    <polygon class="cls-1" points="405.46689 335.4231 404.74104 335.19251 404.37809 335.66507 405.48391 336.01738 405.46689 335.4231"/>
    <rect class="cls-1" x="412.6065" y="337.4738" width="1.89954" height=".2288" transform="translate(-33.50252 629.36383) rotate(-72.35567)"/>
    <path class="cls-1" d="M413.32136,336.79495c.07433-.01768,.14859-.08701,.22429-.20662l-.75844-.24125-.06368,.19952-.62253-.19807-.51227,1.61019,1.32229,.42099,.41316-1.29686-.43931-.14004,.0573-.17829c.17264,.03818,.3,.04666,.37918,.03043Z"/>
    <path class="cls-1" d="M411.33474,337.87809l.51227-1.60954-.62333-.19807,.06368-.20097-2.02125-.64238c.041,.03535,.07926,.07288,.11316,.11606,.10121,.13511,.12026,.30558,.05448,.51219l-.23487-.07498c.01913-.10331,.0163-.18749-.00427-.25327-.0431-.11961-.15279-.20799-.32753-.2632-.14221-.04528-.25472-.04528-.33673-.00355-.08136,.04173-.13584,.10403-.16206,.18677-.02898,.09128-.0134,.16837,.0481,.23349,.03964,.04318,.13656,.11106,.29435,.20444l.23132,.14011c.11178,.06651,.19314,.13511,.24407,.20589,.08564,.12236,.10258,.26667,.05028,.43156-.06513,.20517-.18394,.32753-.3573,.37071-.04601,.00985-.09056,.01695-.13657,.01978l.77822,.24835c-.01695-.0205-.03325-.0439-.04738-.06933-.05586-.10186-.06506-.20872-.02898-.32333,.03964-.12519,.10961-.20944,.21082-.25255,.09977-.0439,.21509-.0531,.3481-.0297l.37426,.06933c.05448,.00985,.09621,0,.12519-.03115,.01768-.01695,.03115-.04528,.0439-.08346,.0247-.07788,.01485-.14221-.02833-.19387-.0439-.0531-.11606-.09556-.22074-.12881-.11599-.03673-.21082-.03253-.28016,.01702-.03963,.02688-.07498,.07426-.10541,.14076l-.21082-.06723c.05658-.16482,.14851-.26385,.27305-.2971,.12381-.03188,.25327-.02615,.39056,.01768,.15706,.05093,.2787,.12171,.35723,.21364,.07926,.09201,.09766,.20024,.05731,.3276l-.24756,.77822c-.00782,.0226-.0071,.04383-.0029,.06151,.00427,.01702,.02405,.03043,.05448,.03963,.00993,.00355,.02123,.0071,.03398,.0092,.01413,.00427,.0276,.00638,.04246,.00782l-.04529,.14149,.72019,.22922Z"/>
    <polygon class="cls-1" points="405.9848 336.17662 406.56068 334.36546 405.67705 334.08524 405.75841 336.10374 405.9848 336.17662"/>
    <polygon class="cls-1" points="404.25073 335.41955 405.37778 333.98975 404.7672 333.79524 404.25073 335.41955"/>
    <path class="cls-1" d="M410.39243,337.04539l.05796-.18184c-.0339,.00775-.07426,.01203-.12026,.00993-.04883-.00145-.09338-.0071-.13721-.01485l-.14149-.02623c-.08635-.01558-.15351-.0184-.20379-.00775-.08208,.0163-.13721,.06861-.16482,.15424-.02123,.06578-.01203,.12454,.02333,.17901,.03608,.05231,.08628,.08838,.15141,.10889,.07991,.02623,.16344,.03188,.24972,.01913,.14576-.0205,.24125-.10113,.28515-.24052Z"/>
  </g>
</svg>