<?xml version="1.0" encoding="UTF-8"?>
<svg id="Capa_2" data-name="Capa 2" xmlns="http://www.w3.org/2000/svg" width="210mm" height="209.99999mm" viewBox="0 0 595.27559 595.27557">
  <defs>
    <style>
      .cls-1 {
        fill: #fff;
      }
    </style>
  </defs>
  <path class="cls-1" d="M261.82226,154.92667c59.53206-9.83668,42.38932,62.52696,4.1304,59.62502-37.74444-2.86548-46.27926-52.66098-4.1304-59.62502Z"/>
  <path class="cls-1" d="M342.78945,156.96734c-39.54809-14.60315-54.25417,35.45209-8.10655,49.94326,12.56306,3.94485,40.71291,7.48651,42.63793-2.35833,.71198-3.65117-.25511-4.78227-2.97241-7.1803-3.21734-2.84222-4.99769-3.17168-6.27295-5.61474-4.18545-8.01678,5.93259-8.85935,7.73206-11.87032,6.39048-10.6833-27.36158-20.83146-33.01808-22.91957Z"/>
  <path class="cls-1" d="M182.81459,206.2343c-20.42273,23.57982-22.1896,45.33713-5.21671,37.1516,28.66655-13.82329,52.97994-12.55709,68.4421-12.27637,46.02504,.83598,66.76211,47.8968,9.2358,63.80029,.28267-.53172,13.91575-40.50561-5.54946-44.80953-5.1364-1.13572-9.1852,.42581-12.39648,4.5363-11.08555,14.18639,.84955,40.30027,.84955,40.30027,0,0-20.4072,3.47349-46.58884-20.4544-7.37566-6.7404-10.26262-11.37017-18.26429-10.83496-42.99145,2.87543-9.498,96.44223-3.86412,100.96301,4.92098,3.94638,37.66841-20.80432,22.39546-44.28275-22.71021-34.90989-18.97123-45.11174-2.86187-29.74397,25.58669,24.41333,43.57139,18.43509,43.57139,18.43509,0,0-27.12014,22.46919-40.44186,52.61028-18.3883,41.60771,12.01479,33.94187,16.94934,26.3765,30.08782-46.11944,64.96254-27.43891,69.86892-44.81498,3.80182-13.46485-5.36077-13.86958-13.63606-19.19364,0,0-18.59015-10.33892,2.90105-18.72629,5.56159-2.17047,18.69452-9.49039,21.39074-14.48705,0,0-1.27526,27.39973-1.7678,31.72215-.67835,5.93958-1.91998,26.46987,.86611,29.30057,3.27154,3.32584,19.31467,3.67925,22.51083-.29923,4.50875-5.61731-1.37922-38.89349-2.06857-61.57552-.48699-16.02709-10.26611-66.93435,69.10585-55.56767,14.18885,2.03145,28.97523,5.44612,49.60186,12.06158,23.33581,7.48507-37.24158-81.15477-46.56931-60.76115-2.02846,4.43584,2.83072,11.58857,5.60221,15.32909,17.9626,24.23103-1.6518,19.68218-6.0932,19.26594-61.66591-5.78143-78.68508,15.32005-81.49678,17.66737-.51557,.43075-13.32429-26.33032-81.78294-21.17592-20.89563,1.57253,.15116-21.0765-.27207-29.94028-.56884-11.91092-11.92246-6.55521-34.42085,19.42368Z"/>
  <path class="cls-1" d="M315.71415,281.89227c5.24478,27.66482,42.85479,34.69847,53.93386,10.13604,23.85395-52.89346-44.98475-56.23286-19.85141,3.18021-.24402,.17172-21.12164,5.14834-21.1307-24.40273-.01111-39.0757,87.81342-27.87777,61.85574,17.26255-9.72638,16.91222-17.85915,14.90237-18.98182,23.481-2.12985,16.27655,27.57546,14.93795,33.96193,13.48902,2.61386-.59146,8.08857-2.5386,7.87674,1.15875-1.53038,26.80529-12.79412,41.37872-21.63886,34.3576-23.69736-18.81205-34.64974-34.53529-59.755-26.19573-25.46011,8.45812,3.42125,18.13524,17.16528,21.78241,37.61608,9.97841,37.95345,26.65156,42.7896,31.89336,12.47278,13.51812,24.83903-6.88857,30.04268-15.79255,4.94052-8.45101,15.59871-31.34909,18.13422-44.44346,.72299-3.72839,5.90452-33.4628,1.98322-40.88412-4.34401-8.21257-22.29344,12.67504-27.18585,16.78616-3.40614,2.86331-7.55427,5.25527-11.57397,7.46903-7.28219,4.0056-24.65333,7.93391-21.52431-.92894,.67178-1.90641,20.71496-9.38489,22.415-10.20432,98.05692-47.2601-104.08996-100.26708-88.51635-18.14429Z"/>
  <path class="cls-1" d="M219.49227,388.55393c-19.72083,50.69738,51.00268,44.22558,37.61968,4.80088-7.96311-23.45427,33.15104-22.35073,33.8846-22.11875,41.57851,13.18671,19.18613,55.54751,11.49974,38.28785-10.48803-23.55668-33.99206-5.99881-28.34316,10.8802,13.03668,38.95972,77.29527,18.83817,58.27438-23.1501-6.34739-14.01313-21.82405-26.0129-22.39196-26.5331,41.82364,.64873,33.92583,14.26824,33.8194,24.74875-.54231,53.6044,55.49734,21.08853,38.1041-9.09276-21.04133-36.51151-147.13509-37.24056-162.46677,2.17705Z"/>
</svg>