<?xml version="1.0" encoding="UTF-8"?>
<svg id="Capa_2" data-name="Capa 2" xmlns="http://www.w3.org/2000/svg" width="210mm" height="209.99999mm" viewBox="0 0 595.27559 595.27557">
  <defs>
    <style>
      .cls-1 {
        fill: #fff;
      }
    </style>
  </defs>
  <rect class="cls-1" x="346.49483" y="233.07552" width="10.97936" height="24.15515"/>
  <rect class="cls-1" x="237.8014" y="233.07552" width="10.97936" height="24.15515"/>
  <rect class="cls-1" x="360.30766" y="221.13052" width="11.78275" height="25.92292"/>
  <rect class="cls-1" x="223.18391" y="221.13052" width="11.78275" height="25.92292"/>
  <rect class="cls-1" x="375.52588" y="208.41077" width="12.58606" height="27.69029"/>
  <polygon class="cls-1" points="357.92778 220.25443 370.51384 220.25443 370.51384 192.56406 365.68826 192.56406 365.68826 163.58862 352.29793 163.58862 352.29793 193.04708 357.92778 193.04708 357.92778 220.25443"/>
  <polygon class="cls-1" points="337.41931 208.41401 343.54365 208.41401 343.54365 232.98637 355.32632 232.98637 355.32632 207.06345 350.00545 207.06345 350.00545 180.72372 342.05449 180.72372 342.05449 154.12857 328.66424 154.12857 328.66424 183.5871 337.41931 183.5871 337.41931 208.41401"/>
  <polygon class="cls-1" points="245.27014 207.06187 239.95085 207.06187 239.95085 232.98478 251.7336 232.98478 251.7336 208.41401 257.85628 208.41401 257.85628 183.5871 266.61135 183.5871 266.61135 154.12857 253.22102 154.12857 253.22102 180.72372 245.27014 180.72372 245.27014 207.06187"/>
  <polygon class="cls-1" points="237.34781 193.04708 242.97766 193.04708 242.97766 163.58862 229.58733 163.58862 229.58733 192.56406 224.76167 192.56406 224.76167 220.25443 237.34781 220.25443 237.34781 193.04708"/>
  <rect class="cls-1" x="207.16364" y="208.41077" width="12.58606" height="27.69029"/>
  <path class="cls-1" d="M438.07887,288.96973h-1.21166v-25.42155h-5.9988v-24.74108h-10.57354v-23.15565h-13.39033v29.45846h10.57354v23.15565h5.99888v24.74108h1.21158v21.15982h-3.62255v24.05461h-8.32814v22.04818h-10.7047v-13.36502h9.63282v-23.16538h4.92289v-51.37018h-4.92289v-23.16538h-9.63282v-21.63382h-12.58614v27.69029h9.63282v21.63382h4.92297v42.32044h-4.92297v21.63375h-8.99982v-12.74261h6.2816v-21.84543h1.26719v-25.92292h-3.80038v-21.55535h-8.66481v-20.09696h-11.78275v25.92292h8.66481v20.09696h3.80038v17.47794h-1.26719v20.96728h-6.2816v18.95357h-8.60841v-10.63366h7.67789v-19.89224h2.61902v-24.15507h-2.61902v-19.89216h-7.67789v-18.53677h-10.97936v24.15515h7.67789v18.53669h2.61902v15.62933h-2.61902v18.53669h-6.8279v-9.87235h4.04996v-22.3877h-1.35832v-18.14654h-6.64857v-16.94343h-10.17596v22.38778h6.64857v16.94343h1.3584v13.50147h-4.05004v15.76128h-6.47327v-7.70131h5.56688v-36.89571h-5.56688v-15.29455h-9.37265v20.6204h5.56696v26.24409h-4.58131v-6.55499h1.48948v-18.85303h-4.40467v-13.30371h.84018v-20.62033h-3.2324v-20.71486h-6.19617v-20.83818h-8.54916v-20.99101h-10.53969v-13.42063h10.9663v22.32449h9.0885v22.06368h6.59146v21.85651h3.502v21.6445h10.17596v-22.38778h-2.69868v-23.4118h-5.78798v-23.62435h-8.2851v-23.83106h-10.4253v-24.09266h-13.39033v21.61705h-12.0597v-21.61705h-13.39041v24.09266h-10.42522v23.83106h-8.28518v23.62435h-5.78798v23.41053h-2.6986v22.38778h10.17596v-21.64324h3.502v-21.85651h6.59138v-22.06368h9.08858v-22.32449h10.9663v13.42063h-10.53969v20.99101h-8.54916v20.83739h-6.19625v20.71565h-3.23233v20.62033h.84018v13.30371h-4.40475v18.85303h1.48948v6.55499h-4.58123v-26.24409h5.56688v-20.6204h-9.37257v15.29455h-5.56688v36.89571h5.56688v7.7021h-6.47446v-15.76207h-4.04885v-13.50147h1.35919v-16.94469h6.6477v-22.38778h-10.17596v16.94469h-6.6477v18.14654h-1.35919v22.3877h4.04885v9.87235h-6.8268v-18.53669h-2.61894v-15.62933h2.61894v-18.53669h7.67797v-24.15515h-10.97936v18.53677h-7.67797v19.89216h-2.61894v24.15507h2.61894v19.89224h7.67797v10.63366h-8.60841v-18.95357h-6.2816v-20.96728h-1.26846v-17.47636h3.80157v-20.10021h8.66481v-25.92292h-11.78275v20.10021h-8.66481v21.5525h-3.80157v25.92292h1.26846v21.8467h6.2816v12.74261h-8.9999v-21.63375h-4.92289v-42.32044h4.92289v-21.63382h9.6329v-27.69029h-12.58614v21.63382h-9.63282v23.16538h-4.92297v51.37018h4.92297v23.16538h9.63282v13.36296h-10.70676v-22.04406h-8.32402v-24.05872h-3.62461v-21.15975h1.20952v-24.73911h6.00094v-23.15763h10.57354v-29.45853h-13.39033v23.15771h-10.57354v24.73903h-6.00094v25.42361h-1.20952v29.45838h3.62461v25.19475h8.32402v24.05872h12.72909v22.04414h13.39041v-21.18767h10.56374v-19.46555h10.30878v10.93403h-8.97372v19.49948h-8.62075v29.45846h13.39033v-21.26765h7.81648v-19.67074h8.1704v-18.01981h8.64598v-16.28472h8.24966v8.04731h-7.01436v16.25529h-6.64612v17.82901h-6.39361v19.38952h-6.20969v29.45853h13.39033v-21.15777h5.40551v-19.59631h5.59022v-18.02314h5.84272v-16.4404h6.21096v-14.79524h6.74619v-13.0005h6.1419v4.84774h-5.05246v12.93959h-4.67117v14.50833h-4.43702v16.06575h-4.27636v17.64422h-4.17265v19.21383h-4.09173v29.45853h13.39033v-20.98207h3.28754v-19.41167h3.36918v-17.83344h3.47304v-16.2757h3.63363v-14.70696h3.86778v-13.12398h4.24907v-11.44798h4.89473v-9.39226h3.86161v.83448h-3.09951v9.5307h-2.69457v11.11747h-2.48866v12.69768h-2.36889v14.28936h-2.29777v15.87448h-2.24588v17.47589h-2.21772v19.06923h-2.18948v29.45846h13.39033v-20.83739h1.38529v-19.24326h1.41433v-17.64224h1.44249v-16.05674h1.49438v-14.46506h1.5655v-12.88485h1.68526v-11.29807h1.89117v-9.67048h2.29619v-7.74861h1.98879v3.45501h-.40162v9.37304h-.40178v10.97975h-.4017v12.58527h-.4017v14.19451h-.4017v15.79846h-.4017v17.40849h-.40162v19.01488h-.40217v29.46051h13.39033v-29.46051h-.40209v-19.01488h-.4017v-17.40849h-.4017v-15.79846h-.4017v-14.19451h-.4017v-12.58527h-.4017v-10.97975h-.4017v-9.37304h-.4017v-3.45501h1.98887v7.74861h2.29619v9.67048h1.89117v11.29807h1.68518v12.88485h1.56557v14.46506h1.49438v16.05674h1.44249v17.64058h1.41433v19.24492h1.38521v20.83739h13.39041v-29.45846h-2.18948v-19.06923h-2.21772v-17.47755h-2.24588v-15.87282h-2.29785v-14.28936h-2.36889v-12.69768h-2.48858v-11.11747h-2.69457v-9.5307h-3.09951v-.83448h3.86161v9.39226h4.89473v11.44798h4.24899v13.12398h3.86659v14.70696h3.63489v16.2757h3.47296v17.83344h3.36926v19.41167h3.28754v20.98207h13.39025v-29.45853h-4.09165v-19.21383h-4.17265v-17.64422h-4.27644v-16.06575h-4.43821v-14.50833h-4.66991v-12.93959h-5.05246v-4.84774h6.14182v13.0005h6.74714v14.79437h6.21009v16.44127h5.84272v18.02314h5.59022v19.59631h5.40345v21.15777h13.39033v-29.45853h-6.20772v-19.38952h-6.39354v-17.82901h-6.64612v-16.25529h-7.01356v-8.04731h8.24887v16.28472h8.64598v18.01981h8.1704v19.67074h7.81443v21.26765h13.39033v-29.45846h-8.61869v-19.49948h-8.97372v-10.93403h10.30878v19.46555h10.56374v21.18965h13.39033v-22.04818h12.72711v-24.05461h8.32806v-25.19681h3.62263v-29.45838Zm-112.12479,26.20936h-4.25642v-4.24416h3.12166v-16.97863h2.62424v8.87863h-1.48948v12.34416Zm-38.54909-9.05551v-2.31241h1.65417v-13.05326h.33469v3.22544h-.16952v12.14023h-1.81935Zm-11.16929-68.78555h6.99956v-19.22325h8.91281v10.54206h-8.69669v17.94016h-6.52881v17.91397h-3.7174v18.85303h.37267v10.48526h-1.34115v-18.74592h-.03678v-18.6953h4.0358v-19.07002Zm46.80319,56.51124h-1.34123v-10.48526h.37274v-18.85303h-3.71748v-17.91397h-6.52881v-17.94016h-8.69669v-10.54206h8.91288v19.22325h6.99956v19.07081h4.03572v18.6945h-.0367v18.74592Zm-14.05853-35.13609h-6.65632v-7.66856h6.65632v7.66856Zm-3.57636,23.65702h-3.88336v-4.80399h3.88336v4.80399Zm-12.45253-31.32558v7.66856h-6.65632v-7.66856h6.65632Zm8.69669-16.32561v9.05179h-8.02081v-9.05179h8.02081Zm-1.16831,35.83166h-5.6842v-6.15946h5.6842v6.15946Zm-1.56059,20.35271h-2.56294v-3.26705h2.56294v3.26705Zm-5.16432-13.33717v4.80399h-3.88336v-4.80399h3.88336Zm8.93282-67.00235h-10.09994v-11.94373h10.09994v11.94373Zm-29.10992,100.37107v4.24416h-4.25635v-12.34416h-1.48955v-8.87863h2.62432v16.97863h3.12158Zm4.6442-11.64906h2.22057v6.21254h-2.22057v-6.21254Zm3.12166-15.92186h.43065v-16.1466h4.45213v6.45484h-4.12068v14.82103h-.00902v9.38071h-.75308v-14.50999Zm24.70754,16.77833v-6.15899h-.1696v-3.22544h.33469v13.05326h1.65417v2.31241h-1.81927v-5.98124Zm7.11854-11.64906v-14.82103h-4.12076v-6.45484h4.45213v16.1466h.43073v14.50999h-.75308v-9.38071h-.00902Zm1.66311,10.79259h2.22057v6.21254h-2.22057v-6.21254Z"/>
  <rect class="cls-1" x="392.13628" y="194.91499" width="13.39033" height="29.45853"/>
  <rect class="cls-1" x="373.71271" y="177.34964" width="13.39033" height="29.45846"/>
  <rect class="cls-1" x="208.17255" y="177.34964" width="13.39033" height="29.45846"/>
  <rect class="cls-1" x="189.74898" y="194.91499" width="13.39033" height="29.45853"/>
</svg>