<?xml version="1.0" encoding="UTF-8"?>
<svg id="Capa_2" data-name="Capa 2" xmlns="http://www.w3.org/2000/svg" width="210mm" height="209.99999mm" viewBox="0 0 595.27559 595.27557">
  <defs>
    <style>
      .cls-1 {
        fill-rule: evenodd;
      }
    </style>
  </defs>
  <g>
    <path class="cls-1" d="M338.30714,222.45548c.27423,.10307,.516,.57515,.34165,.85511-.10242-.0961-.15526-.24432-.42694-.1705,.16229-.25135,.17623-.32765,.08528-.68461Z"/>
    <path class="cls-1" d="M340.01801,226.39061c.11512,.28569,.59105,.56186,.34165,.94104-.18073-.24686-.37925-.47717-.34165-.94104Z"/>
    <path class="cls-1" d="M341.38651,228.69957c.15656-.38941,.18516,.47593,.34172,.08528,.17239,.19845-.05857,.38107,.08587,.68454-.33468-.06359-.22712-.57131-.42759-.76983Z"/>
    <path class="cls-1" d="M341.98525,233.66097c.17115-.02671,.19024,.71262,.25637,.25709,.40153,.14633-.04131,.31683,0,.59867-.16601-.27357-.22392-.33787-.25637-.85576Z"/>
    <path class="cls-1" d="M261.91926,234.34623c.12599,.0744,.27168,.12724,.25643,.3423-.08339,.00124-.06553,.10372-.08528,.17115-.26341,.06294-.16412-.23604-.42752-.17115-.02547-.22523,.33084-.06873,.25638-.3423Z"/>
    <path class="cls-1" d="M342.32691,239.5634c-.00574,.25129-.32641,.1877-.25638,.51346-.22718-.03056-.28888-.22458-.3423-.42759,.11005-.11766,.37156-.08522,.59868-.08587Z"/>
    <path class="cls-1" d="M341.8141,240.16273c.29012,.03629,.063,.49691-.17115,.51281-.06743-.29585,.09479-.36074,.17115-.51281Z"/>
    <path class="cls-1" d="M342.24162,241.35949c-.01336,.27168-.19402,.37605-.17109,.68526-.3468-.10561-.10691-.68207,.17109-.68526Z"/>
    <path class="cls-1" d="M341.38651,242.38575c.14509-.03114,.16099,.06743,.17057,.17115,.1533,.01147,.18066-.10372,.34165-.08522,.08463,.39762-.51026,.11643-.42694,.51339-.25636-.14568-.09544-.31175-.08528-.59933Z"/>
    <path class="cls-1" d="M340.78718,243.41332c.28634,.16092,.05408,.34419,.08593,.68396-.20679,.03433-.18646-.15591-.42759-.08593-.02352-.33657,.36524-.2621,.34165-.59802Z"/>
    <path class="cls-1" d="M339.84621,246.40682c.24751,.01466,.41358,.55033,0,.51346v-.51346Z"/>
    <path class="cls-1" d="M352.50614,299.09974c.34868,1.50538,1.17323,3.71948,1.0269,5.81657-.06997,.99382-.65275,1.76938-.51346,2.73772-.62029,1.89981-1.70636,3.55152-1.96789,5.55948-.04007,.31624-.04965,.59235,0,.94163,.72533,5.02062,3.19651,11.31429,3.67876,17.27784,.07571,.94287-.06424,1.87114,0,2.82359,.62858,9.37695-.52935,19.03575-1.2827,27.8006-.09856,1.14275-.36263,2.27267-.42817,3.42109-.1056,1.85785-.41925,3.4319-.08587,5.21783,.63685,3.40773,1.77193,7.17171,3.59348,9.5812,1.12868,1.49261,2.71869,2.78033,4.01976,4.19092,.66682,.72148,1.38257,1.38192,2.05317,2.05376,.96326,.96202,1.81199,1.77452,2.73772,2.73648,.78963,1.47483,2.42349,3.66098,3.24994,5.73129,.1088,.27233,.04834,.62988,.17115,.94098,.18835,.47593,.69419,1.24263,.51346,2.22368-.12151,.65601-.76729,.74123-1.11213,1.28328,.05851,.3124,.64832,.09356,.59867,.51346,.04391,.95056-.37089,1.84893-.76983,2.4807-.06619,.10502-.35058,.05473-.42759,.17057-.12789,.19278-.05662,.45423-.17174,.59933-.32895,.41612-.94424,.67125-1.625,1.11148-.29455,.19089-.45997,.50075-.68396,.59874-1.56135,.68396-3.70417,.66356-5.73129,.77048,.00254,.08274,.10502,.06619,.17115,.08463,.36713-.02163-.02417,.19402-.17115,.1718-.22523,.02476-.06743-.33214-.3423-.25644-1.64846-.08209-2.75681,.06365-4.01976-.08587-1.11089,.69028-3.32877,.42752-5.30304,.42752-5.61168,0-11.77498,.01277-16.85215-.08522-.26536,.19024-.66806,.24432-.94104,.42752-1.02052-.17369-2.41581,.3582-3.25052,.08587-1.72996,.63503-3.29131-.00378-4.70437-.42817-1.03519-.53378-1.08803-2.04868-2.13904-2.56533-.57392-3.76398-.32706-7.11953,.25702-10.43625,.28569-1.62435,1.0619-3.05461,1.45444-4.53387,.04326-.16607-.02795-.44218,0-.59874,.48863-2.74984,2.04047-6.17659,1.02626-9.66642-.25637-.87928-.84938-1.77381-.34164-3.07937-1.52442-4.56762-2.73519-8.9405-4.10695-13.60031-.86338,2.21664-.75268,5.40677-1.71022,7.52737-.0503,.278,.05792,.39697,.08463,.59802-.71451,2.48584-.60571,5.22167-1.36791,7.52803-.45111,1.36603-1.00717,2.46421-1.1122,3.84926-.40146,.31175-.78194,.64454-1.198,.94104,.25572,.64956-.2965,.93844-.59809,1.28263-.05596,1.2668-1.05363,2.15748-2.05317,2.823-.79784,.53189-1.31443,1.00528-2.4807,.42883-4.58156,.31116-9.49273,.28315-13.77146,.59744-1.1223-.51404-2.69323,.11011-4.10695-.25637-.42693-.11076-.80357-.52427-1.28263-.59809-1.37306-.21187-2.87011,.31364-4.27685,.42752-5.83435,.47274-12.35012,1.3444-17.96303,0-3.02406-.72468-5.16244-2.84144-7.44208-4.44794-1.15546-.81374-2.34395-1.58487-3.33647-2.56722-1.2038,2.09194-2.62006,3.57055-5.13319,4.44859-2.09833,.7336-5.26878,1.05232-7.78317,1.36922-1.46532,.18386-3.02979,.46635-4.70502,0-.47783-.13297-.79153-.54277-1.28329-.59874-.70813-.08268-1.562,.30797-2.30896,.1705-.6992-.12913-.89772-.60949-1.79674-.42752-.59998,.12151-.92893,.18575-1.62494-.08593-.32771-.12724-.78071-.52362-1.19807-.94098-.25897-.25898-.39253-.39195-.68331-.76924-.41481-.53698-.56688-1.29788-1.11278-2.13839,.37853-.16034-.01974-.52108,.08587-.85511-.5631-.34419-.20424-1.4042-.85575-2.05376-.06105-.23292,.40341,.0617,.34295-.17115-.4702-.5001-.31493-1.30368-.51411-2.05252-.42948-1.61542-1.57848-3.20029-2.0531-4.79089-2.0481-3.09787-3.58462-7.70621-3.59225-13.08686-.0013-.95948,.19657-1.9374,.25702-2.99415,.10503-1.84515,.05538-3.82828,.1705-5.73129,.17434-2.86945,.42824-6.00231,.9417-8.63957,.50258-2.5882,.42622-5.59766,1.0262-7.78374,.6102-2.22622,2.11232-5.26559,3.59289-6.67226,.92958-.88378,3.01898-1.73185,4.10505-1.88202,.45743-.063,.96899-.04072,1.36916,0,2.73778,.28061,4.79981,1.78404,6.84341,2.823,.51026,1.21904,1.79361,1.7955,2.56598,2.73713,.36394,.44342,.57711,1.05617,.94039,1.5403,.35182,.467,.88755,.84175,1.198,1.28205,.60571,.86208,.96137,1.91062,1.45385,2.73772,.53698,.90156,.93466,1.73504,1.53972,2.56598,1.16178,1.5951,2.36805,3.06927,3.84991,4.448,1.43978,1.3412,3.28427,1.99584,5.30305,2.99415,1.83368,.90664,3.41536,2.21853,5.47485,2.73707,1.99206,.5014,4.14388,.7667,6.41524,1.02626,.95565,.11011,2.23449,.80807,3.50697,.25767,1.3571,.35312,2.81726,.60258,4.02106,1.11154-.13428-.48479-.00762-1.34883-.08587-1.88202-.32641-2.21794-1.64279-4.08081-2.22432-6.24468-.4104-1.52825-.39958-3.09722-.85577-4.87552-4.22146-.99128-7.56425-2.17533-10.86318-4.01976-.9531-.53385-1.8744-1.29794-2.823-1.88267-.96522-.59555-1.89153-1.22732-2.65126-1.88137-1.16112-1.00014-1.75218-2.66521-2.82359-3.84991-.36648-.40524-.62799-.84488-.94038-1.19676-1.07591-1.21585-3.0425-1.59125-3.84927-3.07937-.35312-.0516-.54655-.50837-.76983-.76989-.25324-.2997-.50329-.60825-.76989-.94163-.50453-.62923-1.17259-1.17832-1.62494-1.79609-.25194-.34296-.39514-.81634-.68461-1.19741-2.17853-2.87519-4.05729-6.51512-5.56013-10.26516-.4543-1.13252-1.02945-2.29873-1.28328-3.84926-.23096-1.41306-.64832-3.339-.42759-4.70437,.13428-.8284,.90475-1.47991,1.02691-2.4807,1.11213-.91173,2.09578-1.9533,3.07879-2.99415-.45748-.62545-1.03962-1.12744-1.53907-1.71022-2.23892-4.44031-4.24375-9.48386-6.15881-14.45673-.70051-1.81707-1.35332-3.36122-2.05317-5.13255-.24497-.61842-.42883-1.46844-.77113-1.96724-.50518-.73868-1.9692-1.33293-2.73583-1.88202-1.92652-1.37619-3.15195-2.67478-4.61974-4.61974-.6248-.82716-1.48949-1.60904-2.05317-2.4807-.85003-1.31449-1.43854-3.24231-1.7955-4.96016-.44595-2.14478-.50577-4.6802-.34289-7.09985,.0916-1.35899,.60318-2.80391,.94098-4.10628,.33912-1.30752,.5001-2.70469,1.28393-3.76339,.38688-1.7312,1.06314-3.40135,1.71022-5.04668,1.26615-3.22316,2.62449-5.86869,4.27685-8.81066,1.15539-2.05695,2.41327-3.98862,3.59283-5.98831,1.08099-1.83427,2.53673-3.32056,3.9352-4.96146,.88944-1.0447,1.70572-2.21918,2.56591-3.07937,.84175-.8411,1.93036-1.56708,2.90828-2.39483,.95688-.80996,1.82156-1.71595,2.823-2.39607,1.04027-.70435,2.28537-1.17005,3.50696-1.79615,1.14777-.58786,2.44825-1.21963,3.59289-1.62494,.48095-.16926,.94671-.16418,1.36857-.34165,1.66631-.70305,4.20935-1.77452,6.75748-1.79674,1.96731-.0172,3.62658,.79784,5.30311,1.28328,1.70129,.49248,3.34786,.85895,5.13255,1.36791,3.29575,.3455,7.34033,.89075,11.03498,.42883,.03433-.75015-.31305-1.2782,.42817-1.71087-.1546,.01277-.25702-.0903-.3423-.3423,.67633-1.17702,1.48884-2.21794,2.56533-2.99415,1.23051-.27038,2.24022-.95818,3.33646-1.53965,1.09246-.57965,2.2358-.92319,3.42109-1.36798,1.28139-.48225,2.53099-1.14647,3.84926-1.62624,1.92848-.70044,3.84861-1.42896,5.64665-2.22361,.16672-.20301,.47912,.15584,.68331-.08652,2.54181-1.15669,6.22246-1.98705,9.23891-3.16407,2.23194-.43899,4.37861-.84872,6.32995-1.36922,2.09578,.27109,4.73174-.30725,6.5864,.1718,.33085,.07251,.13421,.27233,.25702,.42759,.41547,.03245,.50329-.22777,1.02626-.1718,.58024,.06235,1.16881,.53444,1.53907,.85635,.20933-.08652-.16666-.37853,.25767-.34224,1.37938,.72337,3.54071,.74689,4.6185,1.71022,1.08418,.23285,2.52331,.55098,2.823,1.28328,.7336-.20679,1.14907,.30217,1.53972,.68461,.33846,.11258-.02671-.33853,.17115-.08652,.43456-.00573,.43514,.42055,.68396,.59991,.86208,.0675,1.93414,.57835,2.823,1.11089,.52043,.3137,.516,.36778,1.11213,.59933,.56375,.21956,.98489,.54975,1.45385,.94104,.17877,.13551,.56812,.05981,.77113,.1718,.34543,.47971,1.13761,.51535,1.45313,1.02561,2.19312,.93974,4.02296,2.18928,6.15947,3.50696,.64577,.39892,1.33422,.72214,1.9673,1.11213,1.20823,.74631,2.02829,2.05891,3.33646,2.73713,2.89108,3.12778,4.83924,7.78948,6.07287,12.91759,.22015,.91433,.33976,1.82606,.68402,2.90763,.17174,.53893,.59548,.95883,.76983,1.45385,1.22856,3.49041,.96834,10.09909,.76984,14.79897-.3238,7.69221-.77492,14.75447-2.30956,20.95719,.19982,.27422,.23669,.18073,.17115,.68461,1.98828,1.32974,3.60052,3.00054,5.38898,4.53257,2.04426,1.75224,5.02316,3.20733,5.3037,6.84472,.03818,.49561-.02287,.9976,0,1.53907,.08528,2.02008,.47912,4.16798,.59874,5.64535,.09668,1.19995-.01974,2.87584,.08587,4.44865,.19024,2.8376,.20549,5.15796-1.11213,7.09914-.74572,1.09754-1.41691,2.41522-2.22368,3.33646-.28699,.32576-.7622,.57261-1.11278,.94104-.79783,.83661-1.46786,1.76872-2.48069,2.56591-.67576,.53189-1.51686,.97668-2.22369,1.53848-.71328,.56942-1.38257,1.3412-1.96665,1.71211-2.00672,1.27123-5.27953,.59867-8.21263,.59867-.61522,0-1.25019-.07316-1.79673-.34165Zm-10.00808-69.45919c-.1546,1.02307,.44407,3.09918,.51281,4.70568-.27422-.12978-.06743,.72787-.341,.59809,.15141,.23539,.42687,.34928,.51346,0,.05727,.75393,.02606,1.45124-.34296,1.96724,.23989,1.1821-.55483,2.2485-.25644,2.99415-.17622,.1705-.08079,.1705-.25701,0,.11198,1.19487,.03432,3.25313-.59868,3.93513-.28888,1.7942-.68337,3.743-1.36857,5.47485-.13551,.3423-.51854,.63373-.68396,1.02568-.34042,.80866-.47847,1.29025-.85576,1.96789-.45176,.81244-.83601,1.2025-1.2827,1.71081-.16092,.18197-.19278,.47782-.34289,.68402-.92064,1.26993-2.01884,2.23762-3.16531,3.25052-2.18171,1.92848-3.98732,4.53257-7.4415,4.96081-2.16133,1.63386-4.07006,3.55914-6.24409,5.04726-4.06491,2.78359-7.75449,5.86876-11.89009,8.55305-2.7314,1.77511-5.2865,3.76717-8.04082,5.56137-2.03532,1.32531-4.07704,2.80645-5.98766,4.19157-.66362,.47971-1.22347,1.07337-1.88202,1.53907-3.67303,2.59966-7.46118,5.0874-11.1202,7.69918-.88443-.04202-1.24771,.54141-1.9673,.68396-.28563,.05727-.96197,.11512-1.28329,.08587-.8112-.07251-1.58995-.59424-2.39418-.68461-.67822-.07629-1.38635,.175-2.05376,.17115-1.97108-.0114-3.69153-.52994-5.38963-.3423,.16223-.09923,.23096-.24744-.08463-.25702-1.67204-.03564-3.28869-.9486-5.04733-1.11213-1.44232-.13363-2.44376-.48355-3.59218-.51215-2.43112-.063-3.30023,1.40414-4.70502,2.73707-.42883,.40654-.92762,.83159-1.36857,1.2827-.46192,.47332-1.01988,.85635-1.36922,1.28328-.16288,.19975-.17174,.4702-.34224,.68461-.56884,.72083-1.57027,1.13884-1.70963,2.05252,1.38069,2.92034,2.97129,6.23197,4.6185,8.81131,.38941,.60825,.89583,1.26739,1.36857,1.88072,.57581,.7482,2.33691,3.13156,3.16465,3.42233,.38622,.13617,.93147,.05792,1.45509,.08463,2.11676,.10945,4.46071,.25644,6.50046,.1718,.49059-.42948,1.13506-.58792,1.71087-.94098,.91239-.55991,1.7484-1.37495,2.56533-1.88137,1.73504-1.07526,3.34858-1.87759,5.04798-3.16472,1.13441-.85954,2.67413-1.6065,3.33581-2.48194,.19213-.25259,.39449-.58473,.25637-1.02568,.47469-.16477,.48356-.42114,.42759-.77048,.50199-.06743,.49561-.26145,.68461-.51281,.34165-.31494,.94163-.37025,1.11213-.85576,1.97617-.60056,3.4147-1.59438,4.96139-2.56591,.92574-.58154,1.95839-1.01291,2.90764-1.53907,1.8884-1.04854,3.75635-2.23514,5.64665-3.25059,1.93798-1.04281,3.94151-1.95323,5.81656-3.08002,1.86482-1.12047,3.75128-2.20393,5.64535-3.24994,1.8858-1.04281,3.70359-2.32231,5.64535-3.25118,5.00472-2.39294,10.23271-4.73493,15.48299-6.75755,3.25821-1.25468,6.39993-2.83323,9.5799-4.10694,.80359-.32002,1.53333-.6579,2.3102-1.02561,1.94496-.92007,3.98986-.60512,5.47485-1.88078,.72723-1.88196,2.69257-3.0724,3.76339-5.04792,.63816-1.17644,.82136-2.97129,1.19801-4.61916,.24053-1.05356,.59744-2.06712,.76923-3.25052,.50199-3.45797,1.48435-6.76517,1.88261-10.17922,.27168-2.33567,.78963-4.95064,.94039-7.35629,.03375-.53313-.12086-1.14777-.08528-1.71081,.2348-3.71883,.34935-7.76088,.3423-11.12027-.00189-.74123-.25259-1.41372-.3423-2.13904-.70363-5.67975-2.12439-11.44218-4.27679-15.65284-4.01025-3.96758-9.36737-6.51636-14.62846-9.15296-3.23339-1.62181-6.33446-3.85115-10.09335-4.44859-4.53322-2.42792-10.59411-.10372-14.62657,.94098-4.17886,1.08353-8.08859,3.02849-11.80488,4.36337,5.0098-.00319,9.7676,.76155,14.02856,1.53907,1.75725,.32067,3.51965,.4988,5.04726,1.02685,.23349-.07629,.49059-.29201,.59874,.08528,.3251,.126,.01654-.38172,.34164-.25578,3.95168,1.17709,7.4243,2.6525,10.26516,4.61916,1.44682,1.00144,2.79114,2.1053,4.27679,2.90822,.32452,.47274,.79406,.80169,1.19741,1.19676-.02606,.19982-.16731,.35377,0,.51287,.52297,.24686,.74761,1.05675,1.19741,1.11278,.19402,.4186,.54017,.99636,.68461,1.19676,.64767,.27741,1.41756,1.79485,1.96789,2.90822-.71836-.20229,.46889,1.00463,.59809,1.54037h-.3423c-.00195,.42185,.39697-.08906,.51339,.17115,.65093,1.31449,1.26173,2.73518,1.96797,4.19157-.09422,.2621-.46832,.60695-.08594,.85576-.16223-.30035,.08079-.41612,.17115-.68461,.37794,.84807,.78449,1.66761,1.19741,2.48005Zm-61.93117,11.71894c.17943-.86912,.16731-1.87629,.59868-2.65185,.61078-.82012,1.22354-1.5435,2.13845-2.05252,.29136-.16157,.64897-.11766,.8557-.42817,.24373,.2666,1.04985-.06424,1.4545-.17115,.31683,.26275,.76475,.37918,1.11213,.17115,1.12106,.67633,2.14732,1.44557,2.90828,2.4807,.71191,1.56389,.70174,3.29131,1.28328,5.1332,.43391,1.37111,1.07845,2.14478,1.79609,3.07944,.73106,.95056,.96013,.87485,2.13839,1.45378,1.00593,.49437,1.94059,1.32276,3.07944,1.88202,2.21925,1.08926,4.33725,2.39352,6.84277,3.16465,1.29162,.39703,2.61433,.98365,3.84991,1.19741,1.60969,.27995,3.38103,.29077,4.96081,.42883,.51215,.04391,.98932,.23989,1.45509,.25513,1.53268,.05284,3.09468-.23728,4.19026-.42694,2.96874-.51404,5.47936-1.13884,7.1005-3.07872,.27162-.32641,.42687-.82266,.76983-1.19807,1.14523-1.25403,2.46226-2.51888,3.25052-4.27744,1.93551-4.31881,2.42669-11.12665,.94104-17.02271-.72148-1.61666-1.52193-3.15449-2.3102-4.70437-2.34713-3.24036-5.86804-5.30943-9.4094-7.35622-2.20205-.8284-4.5822-1.903-7.4415-2.30889-4.37927-.62226-9.76695-1.10966-13.68683-1.28393-1.47483-.06554-3.1621-.16353-4.44794,0-.49945,.06424-.96775,.39892-1.45385,.42883-.21565,.01147-.46954-.16418-.68461-.1718-.95499-.0331-1.91948,.50961-2.82235,.3423,0-.0471-.06932-.09734-.08522,0,.06548,.01844,.09923,.07186,.08522,.17115-9.91517,.78006-21.37898,.95433-28.22812-2.90952,.15649,.53763-.16738,.00886-.42825,0-3.85369,1.73439-8.26606,2.91271-11.54844,5.21907-1.64018,2.24276-3.62716,4.15339-5.30305,6.24409-1.54291,1.92652-3.05077,4.09866-4.1057,6.32931-.92443,1.09565-1.78716,2.82619-2.56591,3.9352-.49632,.70683-.84241,1.77511-1.28335,2.73772-.54141,1.18152-1.22856,2.32166-1.28328,3.33646-1.12614,1.8286-1.66631,3.72587-1.96659,6.41524-.14639,1.29729-.19793,2.54051-.25709,3.84861-.19402,4.27809,1.48435,7.32697,3.50696,9.23824,1.58937,.89205,2.81792,2.14354,4.87618,2.56722,1.324,1.08803,3.33203,1.46721,5.13196,2.05194,.68396,.22269,1.28393,.57261,1.96789,.76983,6.4871,1.88391,14.38095,2.70912,21.0424,4.36272,.20106,.00189,.25194-.14763,.51346-.08593,8.42066,1.78723,16.8496,3.56683,24.9776,5.64607,3.72327-2.54943,7.51148-5.03528,11.11962-7.69794-1.5448-1.02111-3.72776-1.40414-5.30246-2.39541-8.48686-3.36955-16.26167-8.3157-24.03721-12.40355-2.63341-1.38446-4.89142-3.39053-7.18507-5.13255-1.37306-1.04216-2.6398-2.15501-4.02107-3.16472-.60063-.60825-.94293-1.38759-1.53907-1.88196-.42374-.35058-1.30686-.45111-1.2827-1.2827-.56812-.08841-.79589-.51665-1.11213-.85511,.02228-.33781-.03375-.5949-.25702-.68585-.27618,.30536,.34231,.37475,.08522,.59998-.56623-.3754-.26719-.60701,0-1.11278,.41612-.04202,.37729,.4212,.77049,.17174,.05538-.55476-.70814-.99186-1.28394-1.198,.13493-.00827,.29715,.01147,.25774-.17115-.49182-.25513-.60571,.15271-.85576-.3423,.49946,.12216,.40524-.68461,.76983-.42759-.10054,.61333,.23734,.78898,.59874,.94104,.08521-.2653-.45561-.33149-.17181-.51346,.45997-.08906,.30028,.02352,.6852,.08587,.18711-1.03512-.03558-1.5104,0-2.30889,.16606,.20106,.58283-.40465,1.11088,0-.01016-.5459-.52681-.22777-.5128-.42817v-.42824c.68076-.13806,.73295,.35123,1.19806,.42824,.11708-.37859-.3455-.61783-.1705-.76989,.35058-.14887,.37664,.32452,.85446,.08528,.31872-.18327,.27546-.39638,.34165-.68461,.35437,.18894,.46831,.61718,1.02691,.59933-.13871-.41925-.66298-.60695-.59874-1.11148,.86019-.53763,1.14523,.59744,2.05383,.341,.18386,.47085,.61776,.69412,1.11148,.85576,.83921,.53255,1.2782,1.57021,2.05317,2.22368,.3868,.32765,.93909,.54968,1.36791,.8557,.46062,.3296,.76983,.78194,1.19807,1.1122,.68461,.5274,1.46206,.9187,2.13839,1.45378,.65659,.52043,1.23051,1.20504,2.05317,1.36857,1.32081,1.44557,3.09403,2.43744,4.61845,3.67876-.16862-.88501-.40271-1.70703-.59868-2.56663Zm56.62747-20.52895c-.11643,.11512-.16288,.59744,.08587,.59867-.1705-.57261,.12854-.14314,.25702-.25702-.10561-.12854-.28504-.61972-.42817-.42759,.05219,.00573,.10118,.01277,.08528,.08593Zm.77048,1.36791c-.18894-.03818-.21441-.44603-.34296-.08593,.29266-.06294,.14125,.31624,.34296,.34296,.07252-.37475,.29774-.21252,.51346-.08528-.15591-.30856,.01459-.25253,.08463-.51404-.52361,.12216-.16607-.23989-.34107-.34165-.1533,.33657-.24301,.39638-.42816,.34165,.11453,.05727,.15902,.18386,.17114,.3423Zm.25702,.94163c.27168-.07382,.32452,.0744,.42694,.1705,.17434-.27995-.06742-.75204-.34165-.85511,.09095,.35696,.07701,.43326-.08528,.68461Zm2.13781,4.19157c.2494-.37918-.22653-.65536-.34165-.94104-.03759,.46388,.16092,.69419,.34165,.94104Zm1.45444,2.13774c-.14444-.30347,.08652-.48609-.08587-.68454-.15656,.39065-.18516-.47469-.34172-.08528,.20047,.19852,.09291,.70624,.42759,.76983Zm.17115,2.30961c.21376,.11323,.20745-.39768,.34166-.08593-.15272,.14574-.23925,.38491,0,.51411,.20932-.14952,.20235-.516,.08527-.76989-.2507,.00638-.31748,.19597-.42694,.34172Zm.25637,2.73772c-.04131-.28184,.40153-.45234,0-.59867-.06613,.45554-.08522-.2838-.25637-.25709,.03245,.51789,.09036,.58219,.25637,.85576Zm-80.57874,.1718c.26341-.06489,.16412,.23409,.42752,.17115,.01975-.06743,.00189-.16991,.08528-.17115,.01525-.21506-.13043-.2679-.25643-.3423,.07446,.27357-.28185,.11708-.25638,.3423Zm81.00698,1.62428c.01459-.41351-.22334-.57581-.34295-.8557,.04775,.00124,.09733-.06873,0-.08528-.18517,.31494,.16033,.72083,.34295,.94098Zm-.59933,1.2827c-.14763,.05277,.00632,.40654-.1718,.42883-.01844-.06743-.00189-.16926-.08463-.17115-.21572,.25898,.29331,.33976,.59809,.341,.01909-.06613,.07251-.09857,.17174-.08522-.11193-.34361-.1692-.20933,0-.51346-.35312,.05916-.27865-.33338-.59867-.1705,.06235-.28184-.1705-.13108-.17115,0,.14698-.0045,.21949,.06613,.25644,.1705Zm-.3423,2.05376c.05342,.20301,.11512,.39703,.3423,.42759-.07003-.32576,.25064-.26217,.25638-.51346-.22713,.00065-.48863-.03179-.59868,.08587Zm-.08528,1.02626c.23415-.0159,.46127-.47652,.17115-.51281-.07636,.15206-.23858,.21695-.17115,.51281Zm.42759,1.36922c-.02293-.30921,.15773-.41358,.17109-.68526-.278,.00319-.51789,.57965-.17109,.68526Zm-.59874,.94033c-.08333-.39697,.51157-.11577,.42694-.51339-.16099-.0185-.18835,.09668-.34165,.08522-.00958-.10372-.02547-.20229-.17057-.17115-.01015,.28758-.17108,.45365,.08528,.59933Zm-1.02626,1.02626c.24112-.06997,.2208,.12027,.42759,.08593-.03186-.33976,.20041-.52303-.08593-.68396,.02358,.33592-.36517,.26145-.34165,.59802Zm-.59933,2.90894c.41358,.03688,.24751-.4988,0-.51346v.51346Zm14.62781,31.13576c-.21057,.93147-.52486,1.75667-.8557,2.56663-.57965,.41801-1.03584,.96007-1.53972,1.45444-.59933,.08463-1.12106,.24875-1.36857,.68461,.07447-.2965-.13173-.29396-.25644-.17115-1.22158,.38426-2.26308,.70116-3.25118,1.11148-.31683,.13174-.61972,.3913-.94038,.51287-.00887,.00378-.26596-.10568-.34225-.08528-1.71848,.47652-3.89767,.97408-5.21848,1.79739,1.00398,.15017,1.94307,.46381,2.90887,.68396,1.03708,.23604,2.09709,.19467,3.07879,.42817,.91492,.21572,1.68735,.67953,2.56663,.85511,.72403,.14314,1.70129,.37859,2.13905,.42694,.20424,.02228,.38236-.11962,.59801-.08587,1.71341,.278,3.3689,.87798,5.04734,1.3698,2.00228-1.50916,3.7914-3.11442,5.64541-4.87683,.56239-.53444,1.61158-1.19676,1.79674-1.71022,.18706-.51854,.08522-1.58806,.08522-2.30954,0-2.5596-.71705-6.14864-.51281-8.21198-1.16751-1.68409-2.76319-2.93943-4.44794-4.10563-.88886,4.16863-2.71042,7.21243-5.13261,9.66512Zm-102.90515,7.27166c.65594-.22777,1.05551-.71262,1.62559-1.02626,1.43789-.13297,2.57745-.82208,3.9352-.94163,2.307-.20301,4.38428,.11323,6.32996,.42752,3.5725,.579,7.12461,1.9348,10.52153,1.71087,1.02815-.06743,1.88515-.77048,2.9935-.94104,.96834-.14887,1.75732-.01968,2.56598-.34224,.94417-.78006,2.24974-1.59699,3.25118-2.30896,.28061-.20041,.95376-.65216,.76989-.76983-.53509,.02417-.73998-.12789-1.1122,.08457-1.43404-.60122-3.26583-.92827-4.87611-1.19611-5.01103-.83537-9.49468-1.70703-14.45607-2.73772-5.21144-1.08418-10.84605-1.76117-15.91115-3.07944,1.2922,3.86835,2.81153,7.51017,4.36271,11.12027Zm101.79302,109.23387c-.50133-.5917-.83921-1.2954-1.36922-1.88137-.51592-.57138-1.16236-1.11852-1.71079-1.71152-.53699-.57959-1.20954-1.17129-1.62501-1.79544-.18132-.27233-.25194-.59112-.42752-.85576-.34673-.52238-.8596-.89075-1.19741-1.36791-.80488-1.13891-1.2941-2.30896-1.79674-3.50761-.82651-1.97363-1.41691-4.25268-2.90827-5.47485,.34672-.89075-.23286-1.59002-.42818-2.22368,.5605-6.4,1.51105-12.22158,2.05376-18.73351,.17689-2.12504,.30413-4.25457,.51281-6.41589,.2049-2.11038,.39638-4.28825,.25644-6.41524,.16353-.24621,.22269-.58089,.25702-.94098,.16991-1.75159,.29266-5.44052-.08522-6.67226-.06235-.20295-.23037,.04391-.1718-.1705,.4549-6.40058-1.56643-11.53952-2.9935-17.19386-.09356-.37091-.07193-.8226-.17115-1.198-.48674-1.85082-1.75863-4.93722-1.19741-7.01333,.29585-1.09369,.95688-2.26179,1.36857-3.5082,.40909-1.23624,.92254-2.5596,1.02685-3.84868,.21441-2.6811-.37344-3.89572-1.88196-5.3037-1.1707-1.0918-1.91512-1.61542-3.25124-2.30889-.39384-.20614-.7164-.53001-1.02626-.68461-1.29729-.65151-3.02979-1.00274-4.79024-1.45444-1.81902-.467-3.28681-1.2483-4.87618-1.36857-1.66442-.12665-2.20263,.33846-3.24994,.51346-2.65185,.44283-5.00081,2.05565-7.09914,3.25052-1.91381,.64578-3.54389,1.87818-5.30435,2.90828-4.58736,2.68241-9.31845,5.11541-13.94262,7.7844-2.86822,1.65491-5.85533,3.0597-8.63957,4.78966-.21311,.6706-.91557,.85257-.94098,1.71146-3.75447,4.35445-10.51834,7.41225-14.45607,11.0344,.00508-.05153,.0127-.10118,.08528-.08528,.10939-.00573,.11831-.10945,.25637-.08587,0,.4371-.8239,.17115-.68396,.94163,.09988,.54525,1.79869,.93082,2.30954,1.11148,1.02053,.36016,1.96601,.41293,2.82242,.68396,.47971,.15148,.56434,.39899,.94098,.51346,.68461,.20744,1.48564,.3296,2.1384,.42824,3.84098,.57581,7.61584,.34739,11.20613,.08457,1.63771-.11897,3.32818-.71445,4.96146-1.11213,2.08686-.50642,4.1298-1.13311,5.73122-1.70957,2.49412-.90026,3.33646-2.13904,4.79031-4.44859,.96965-1.54102,1.84-3.2474,2.6512-4.61981,2.91656-4.93722,4.4798-10.11238,8.55364-13.25801,.91427-.32445,1.11024-1.00398,2.31021-.8557,.94038,.11643,3.1322,1.56324,3.6781,2.13839,.2348,.24686,.38491,.68904,.68526,1.02626,1.09754,1.23618,2.27645,2.55067,2.73648,4.10628-.16672,.58408,.28054,1.10327,.25703,1.7955-.01656,.47906-.49184,1.28139-.76984,1.88326-2.05129,4.43908-4.75532,9.18163-4.79089,15.22466-.00893,1.67836,.23031,3.52155,.42817,5.1332,.11388,.92762,.18959,1.99845,.59934,2.39483-.08972,1.27436,.27551,2.52077,.42693,3.76398,.31813,2.59523,1.0275,5.04414,1.62494,7.44209,.83029,3.3276,2.1524,6.72386,2.99415,9.9222,.48609,1.84769,.91049,3.66352,1.625,5.38963,.62539,2.12184,.92573,4.57583,1.79674,6.67226,.49053,1.18217,1.34628,1.93102,1.45444,3.07944-.00573-.05284-.35885,.24178,.08587,.17174,.01147,.35253-.55098,.13297-.42883,.59744,.14379,.55802,.75966,.84814,.94104,1.4545,.19148,.63816,.06809,1.37554,.25703,2.05376,.30789,1.109,1.01035,2.00418,1.11213,3.24929,.14,1.71719-.11709,3.29189-.25703,5.30435-.86208,1.70325-1.06828,4.06433-1.45384,6.24344-.892,1.35078-1.23873,3.44591-1.6256,5.04733,2.83512,.18705,5.80256,.06932,8.64016,.08587,4.73174,.02867,9.30633,.53001,13.42981,.17115-.32067-.76031-.94482-1.27885-1.45444-1.88261Zm-62.70164-41.48685c1.10386,2.4693,2.68684,4.84054,3.08002,7.44216-.48674,1.72931-.90599,3.15319-2.05252,4.02107-.84749,.64005-1.91955,.94033-2.99415,1.3685-3.75825,.01974-5.82289-1.40987-7.61324-3.25052-2.21475-1.05551-4.40728-1.90873-6.5864-2.82365-3.87024-.73614-6.71741-1.60461-10.00872-2.30889-1.49646-.32133-3.16974-.82397-4.448-1.28393-1.21135-.43521-2.18419-.81569-3.164-1.28205-3.07305-1.46271-5.5843-3.71818-7.95554-6.07424-2.0023-1.98887-4.61661-3.7086-5.90179-6.07287-.42374-.77751-.74318-1.74077-1.19872-2.65191-1.28771-2.57673-3.14491-7.82831-7.4415-7.01392-1.49007,.28184-2.05819,1.67399-2.30954,3.07879-.42374,2.37124-.04131,5.2121-.25637,8.12735-.16737,2.25996-.2507,4.59303-.25709,6.7569-.00697,2.39737-.25891,5.37243,0,7.52803,.20171,1.66885,.99128,3.6056,1.62435,5.4742,.66617,1.95903,.9703,3.9982,1.62624,5.47492,.18771,.42309,.52492,.73034,.68461,1.11148,.21122,.50583,.22712,1.03708,.42694,1.45509,.38425,.80169,1.43149,2.18804,2.05441,2.6512,1.15858,.86215,2.858,.86215,5.04668,1.02691,2.45269,.18327,7.07438,.57138,7.09979-1.62559,.0045-.47717-.50264-.83029-1.02685-1.36922-.44922-.46186-.78644-.99251-1.11154-1.28263-.85954-.7667-2.0264-1.37619-2.99481-2.22368-.47717-.41736-.8729-.9028-1.36857-1.28328-1.49515-1.14653-2.99858-2.45399-4.19157-3.76405-1.41052-1.54923-3.16016-3.70163-2.73772-6.50046,.19852-1.30622,1.13506-2.27267,1.79674-3.08002,.28758-.35058,.50837-.68402,.76983-.85576,1.08991-.71197,2.36238-.82397,4.27684-1.02626,.45489,.20171,.87928,.43202,1.45444,.51346,4.16231,4.10563,8.04845,8.48933,12.65999,12.14646,2.19247,2.19631,4.41738,3.92438,6.58633,5.81657,1.03649,.90469,2.07037,2.02321,3.25124,2.99415,1.11532,.91746,2.43613,2.07793,3.67746,2.56591,1.27442,.5014,3.20348,.45749,5.04733,.42759,2.59269-.04007,5.58555-.49567,8.12605-.59809,.40146-.01655,.82397,.10756,1.19741,.08528,.55164-.0331,1.19807-.32002,1.79674-.3423,.41423-.01466,.82143,.08717,1.2827,.08522,2.21794-.00567,4.91494-.51978,6.75813-.25572,.6076,.08652,1.09115,.38048,1.71022,.42752,2.73459,.20868,5.82738-.36771,9.06709-.34165,.7209-1.3902,1.44049-2.78163,2.13904-4.19157-.12978-1.01923,.29142-2.06145,.59874-2.90887-.62037-1.05428-.08848-2.35795,0-3.67811,.03622-.53828-.04326-1.05558,0-1.62565,.15903-2.06334,.95622-4.23098,1.36915-6.50111,.3913-2.15618,.94424-4.36461,1.2827-6.5864,.34165-2.24974,.62539-4.65851,.94098-6.92863,.35631-2.56468,1.19807-5.52639,.94104-7.78505-.09421-.82651,.11831-1.82925,0-2.82176-8.10064,2.71674-16.97944,5.02889-27.28721,5.04668,1.0651,5.39726,2.52207,10.21108,4.53263,14.71244Z"/>
    <path class="cls-1" d="M337.10907,220.74461c.14314-.19213,.32256,.29904,.42817,.42759-.12848,.11388-.42752-.31559-.25702,.25702-.24875-.00124-.20229-.48355-.08587-.59867,.0159-.07316-.0331-.0802-.08528-.08593Z"/>
    <path class="cls-1" d="M337.79369,221.85615c.18515,.05473,.27486-.00508,.42816-.34165,.175,.10177-.18254,.46381,.34107,.34165-.07004,.26152-.24054,.20549-.08463,.51404-.21572-.12724-.44093-.28947-.51346,.08528-.20171-.02671-.0503-.40589-.34296-.34296,.12854-.36009,.15402,.04776,.34296,.08593-.01212-.15845-.05662-.28504-.17114-.3423Z"/>
    <path class="cls-1" d="M342.41219,231.43729c.11708,.25389,.12405,.62037-.08527,.76989-.23925-.12919-.15272-.36836,0-.51411-.13421-.31175-.1279,.19917-.34166,.08593,.10945-.14574,.17623-.33533,.42694-.34172Z"/>
    <path class="cls-1" d="M342.32691,235.37184c.09733,.01655,.04775,.08652,0,.08528,.11961,.27989,.35754,.44218,.34295,.8557-.18262-.22015-.52812-.62604-.34295-.94098Z"/>
    <path class="cls-1" d="M341.8141,237.42501c.00065-.13108,.2335-.28184,.17115,0,.32002-.16288,.24555,.22966,.59867,.1705-.1692,.30413-.11193,.16985,0,.51346-.09923-.01336-.15265,.01909-.17174,.08522-.30478-.00124-.8138-.08203-.59809-.341,.08274,.00189,.06619,.10372,.08463,.17115,.17812-.02228,.02417-.37605,.1718-.42883-.03694-.10437-.10945-.175-.25644-.1705Z"/>
  </g>
  <g>
    <g>
      <path d="M367.4152,384.40078l.48863,.49691c.16672,.1692,.23539,.36074,.2036,.57261-.02736,.19083-.12593,.37221-.29774,.53887-.13232,.13043-.27676,.22269-.43202,.2793-.27233,.09864-.51411,.04326-.72148-.16796l-.48609-.49561,1.2451-1.22413Zm-.64324,1.54669c.05342,.05596,.10496,.09479,.15084,.11897,.08586,.04391,.17876,.05408,.28307,.0331,.08144-.0172,.16926-.05596,.26152-.11897,.05538-.03694,.10372-.07825,.14249-.11643,.15468-.15083,.24432-.2997,.27233-.44225,.02613-.14438-.02606-.28308-.15714-.41606l-.28822-.29396-.95623,.94098,.29136,.29461Z"/>
      <path d="M368.83849,386.70524c.00189,.15649-.07382,.30856-.22653,.45808-.14633,.14314-.30158,.22653-.46635,.2507-.16476,.02163-.32002-.04072-.467-.18959-.12151-.12346-.17558-.26341-.16412-.41931,.01336-.15526,.09095-.30347,.2335-.44407,.1533-.14952,.31175-.23037,.47653-.24308,.16671-.01147,.31369,.04834,.44028,.17689,.11388,.11708,.17239,.25383,.17369,.41039Zm-.69666,.49691c.11135-.03753,.2163-.10248,.30921-.19474,.08652-.08268,.13994-.16477,.16731-.24367,.04138-.12281,.01212-.23793-.08971-.3423-.09225-.09225-.19278-.1247-.30477-.09603-.11259,.02795-.2182,.09095-.31873,.19024-.09675,.09538-.15656,.19467-.18008,.30028-.02352,.10307,.01017,.20295,.09929,.29455,.09792,.09929,.20418,.12985,.31748,.09167Z"/>
      <path d="M369.57268,386.59644l.14952,.15271-1.2451,1.22413-.15017-.15271,1.24576-1.22413Z"/>
      <path d="M369.76103,387.46171l-.60441,.59301c-.04521,.04385-.07701,.08906-.09166,.13356-.02861,.07766-.00698,.1546,.06299,.22653,.10249,.10307,.21826,.12789,.35058,.07193,.07128-.0299,.15017-.08913,.2399-.1763l.44536-.43769,.15012,.15141-.90854,.89394-.1406-.1432,.13486-.13102c-.05342,.0159-.10626,.01844-.15838,.01459-.10372-.01147-.19474-.05596-.27552-.13871-.12405-.12659-.16607-.25637-.12535-.3868,.02228-.07062,.07128-.14574,.14887-.22145l.61783-.60565,.15395,.15584Z"/>
    </g>
    <path d="M366.72297,383.13782c.10815,.04391,.21637,.06489,.21637,.06489l.00887,.0013c.08846,.01336,.17564,.00254,.24939-.06808,.02294-.02417,.04202-.04899,.05284-.07447-.08652-.0286-.19024-.06619-.19024-.06619-.03055,.03056-.09225,.01974-.18132-.00951-.11708-.03564-.22841-.06743-.22841-.06743-.08783-.01401-.17305-.00384-.24622,.06997-.03056,.0286-.04899,.05851-.06111,.09036,.06808,.01016,.13682,.02033,.20679,.04007,.03375-.02039,.09095-.00827,.17304,.01909Z"/>
    <path d="M366.01738,383.39041c-.00319,.00697,.04261,.01082,.09103,.02417,.04957,.01525,.09667,.03818,.10052,.03564,.03049-.03121,.09414-.01844,.18386,.01147,.09734,.03303,.21506,.06548,.21506,.06548l.01082,.00195c.08776,.01205,.17493,.00319,.24811-.06939,.02546-.02606,.04455-.05408,.05726-.08398-.07251-.00632-.13551-.02736-.19852-.05219-.03179,.02678-.09291,.01531-.17747-.01336-.12216-.04007-.22718-.06808-.22718-.06808-.08841-.0127-.17428-.00189-.24875,.07062-.02352,.02358-.04202,.0503-.05473,.07766Z"/>
    <path d="M365.35824,384.03684c.06678,.01525,.12724,.03564,.18705,.06613l.00254-.00378c.03121-.03056,.09479-.01785,.18451,.0127,.09988,.03629,.22458,.06619,.22458,.06619,.08848,.0127,.1769,.00254,.24946-.07004,.0286-.02925,.04834-.05974,.06105-.0916,0,0-.06365-.00632-.10118-.01779-.04007-.01082-.08971-.03753-.09734-.0299-.03114,.03114-.0916,.01909-.18197-.00958-.11134-.03818-.22842-.06678-.22842-.06678-.08717-.01466-.17304-.00319-.24621,.06873-.02482,.02417-.04261,.04958-.05408,.07571Z"/>
    <path d="M364.68321,384.72145c.07694,.01394,.13167,.02795,.18894,.05277,.00384-.00827,.00827-.01844,.01467-.02482,.03178-.03056,.09478-.01844,.18385,.01212,.12724,.04137,.22712,.06554,.22712,.06554,.08652,.0127,.17434,.00189,.24751-.06939,.02671-.02736,.04581-.05596,.05851-.08652-.11512-.02228-.19278-.05538-.19591-.05219-.03121,.03121-.09225,.01909-.18138-.00951-.13356-.05473-.22712-.06808-.22712-.06808-.08716-.01401-.17493-.00254-.24874,.06932-.03441,.03499-.05538,.07316-.06744,.11076Z"/>
    <path d="M364.73983,385.08532c.1234,.03818,.22713,.06554,.22713,.06554,.08716,.01336,.17557,.00319,.24685-.06808,.02802-.02606,.0471-.05466,.05792-.08457,0,0-.06685-.00893-.10626-.02293-.03883-.01212-.08782-.03179-.08782-.03179-.03179,.03049-.0916,.01968-.18197-.01023-.11447-.0445-.22776-.06743-.22776-.06743-.08718-.01401-.17436-.00124-.24497,.06939-.03115,.02925-.05089,.06046-.0636,.09349-.0013,.0045,.10242,.02482,.18959,.05727,.0013-.00508,.00508-.00951,.00762-.01336,.03187-.0299,.09479-.0172,.18327,.0127Z"/>
    <path d="M364.40645,385.41173c.08776,.02736,.17174,.05284,.23031,.0643,.08718,.01909,.17434,.00313,.24876-.07004,.03055-.0286,.05029-.06235,.06234-.09734-.06359-.00762-.12594-.03114-.18894-.05596-.00319,.00632-.00704,.01082-.01082,.01459-.0331,.03245-.09225,.01974-.18197-.00951,0,0-.09102-.02736-.21826-.06932-.25194-.08848-.80481-.2965-1.18784-.68656l-5.19496-5.2878c-.31364-.31937-.30979-.83602,.01082-1.14966l2.00418-1.96854c.3188-.31364,.83537-.31051,1.14907,.01082l5.19874,5.29034c.3079,.3137,.50577,.75588,.61144,1.05043,0,0,.04893-.00762,.1075,.00065,.05408,.00638,.1075,.02482,.1075,.02482-.10242-.30602-.31937-.83667-.68774-1.21331l-5.19874-5.29099c-.38811-.39449-1.03011-.40088-1.42649-.0127l-.93459,.9187-.78898-.80292-.14444,.14249,.78898,.80299-.92319,.90788c-.39768,.39-.40146,1.02945-.01276,1.42453l5.1956,5.28722c.48479,.49495,1.20693,.71764,1.38446,.77491Z"/>
    <path d="M365.01913,384.38039c.06554,.01336,.12913,.03564,.19089,.05727,.0006-.00508,.00378-.00951,.00697-.01336,.03179-.03056,.09479-.0172,.18452,.01212,.13551,.05342,.22522,.06548,.22522,.06548,.08841,.01401,.17558,.00319,.24875-.06932,.02293-.02293,.04138-.0458,.05284-.07193,0,0-.05596-.00378-.11011-.02417-.04769-.01844-.08014-.04326-.08014-.04326-.0299,.03121-.09094,.01974-.18132-.00886-.12978-.05153-.22777-.06808-.22777-.06808-.08782-.01336-.17369-.00195-.24686,.06997-.03056,.03056-.0503,.06046-.063,.09414Z"/>
    <path d="M365.684,383.72314c.0776,.01531,.12471,.03056,.19024,.05792l.00378-.00573c.03186-.03114,.09487-.01844,.18516,.01147,.11454,.04196,.22523,.06554,.22523,.06554,.08717,.01459,.17565,.00378,.24751-.06808,.03056-.03056,.05219-.06365,.06235-.09734,.0045-.00827-.08332-.00827-.18959-.05219l-.00951,.01016c-.03056,.03056-.09167,.01909-.18196-.01082-.1451-.05538-.22719-.06619-.22719-.06619-.08776-.01459-.17369-.00254-.24686,.06873-.02802,.02736-.04645,.05603-.05916,.08652Z"/>
    <path d="M364.46111,385.58927c.0993,.30158,.31495,.83348,.6891,1.2152l3.11501,3.17104c.38941,.39638,1.0288,.40276,1.42584,.01212l.92319-.9073,.77112,.78572,.14568-.14249-.77178-.78637,.93401-.91811c.39638-.38876,.40276-1.0288,.01401-1.42394l-3.10804-3.16465c-.46824-.47593-1.18341-.71132-1.38831-.77237l-.22327-.0643c-.08848-.01459-.17754-.00573-.25455,.06939-.02222,.02228-.03942,.04704-.05212,.07251,.08463,.00573,.31748,.06046,.37221,.07636l.2163,.06808c.27168,.0916,.81758,.30732,1.19038,.68715l3.10869,3.16277c.31175,.32002,.30667,.83537-.01147,1.14966l-2.00352,1.96724c-.32003,.31559-.83538,.31116-1.14837-.00762l-3.11638-3.17104c-.30921-.31494-.50642-.75777-.61079-1.05167,0,0-.10815,.00762-.21695-.02736Z"/>
    <path d="M360.14804,379.19376l.36074,.36836c.10183,.10307,.20555,.14887,.30862,.13297,.06489-.00762,.1247-.03818,.17877-.0916,.09095-.08848,.11134-.18959,.06424-.30347-.02541-.06176-.07128-.12724-.14249-.19852l-.33279-.33911-.4371,.43137Z"/>
    <path d="M361.36838,380.26648c-.0299,.13421,.02228,.26973,.15714,.40589,.06046,.06111,.1234,.10691,.18959,.14001,.13109,.06294,.24047,.05023,.33149-.04013,.06743-.06554,.0967-.13297,.08522-.2036-.01393-.06997-.05277-.15838-.11897-.26849l-.12216-.20041c-.08014-.13108-.12658-.2335-.14125-.30856-.02287-.12665,.01655-.24054,.12157-.34361,.11005-.10939,.24047-.16157,.38556-.1578,.05155,.00195,.10307,.01401,.15395,.03186l-.68396-.69477c.06105,.09988,.08463,.19975,.06555,.30158-.01467,.08587-.05668,.16157-.12347,.22777-.07955,.0789-.16542,.11831-.25897,.12405-.04959,.00254-.1075-.00704-.1711-.0299,.03754,.08906,.0572,.16353,.05851,.22588,.00124,.1088-.04768,.20992-.14255,.30347-.08079,.0789-.17876,.126-.29325,.13871-.12092,.01336-.24119-.01974-.35761-.09864l.66995,.68142c-.01909-.05473-.0299-.11388-.03302-.1718-.00516-.16223,.06169-.30921,.1972-.44023l.15527,.15903c-.06686,.07382-.10692,.14568-.12471,.21826Z"/>
    <path d="M361.48162,379.0073c.08144-.07883,.10437-.16731,.06743-.26021-.02163-.05408-.06997-.11831-.14125-.19213l-.30093-.30536-.38491,.37983,.30536,.3111c.07004,.07128,.13551,.11831,.1941,.13806,.09289,.03245,.18065,.00893,.2602-.07128Z"/>
    <polygon points="360.21169 377.42628 359.46538 377.76793 359.84964 378.15923 360.21169 377.42628"/>
    <path d="M362.72353,382.03201c.00769-.03245,.02678-.06997,.05857-.11069-.07128,.01016-.15081,.00065-.23858-.0286l-.0045-.0013,.18073,.18386c0-.01401,.00065-.0286,.00378-.04326Z"/>
    <polygon points="359.76058 378.34185 359.27957 377.85256 358.79094 378.07649 359.522 378.8209 359.76058 378.34185"/>
    <polygon points="364.74361 384.13607 365.96265 382.93742 365.81697 382.78978 364.59923 383.9872 364.74361 384.13607"/>
    <path d="M365.42823,382.73187c.06553,.01785,.15394-.00567,.26405-.06867l-.5001-.51092-.13486,.13297-.41228-.4199-1.08483,1.06503,.8742,.88951,.87296-.85765-.28953-.29527,.12092-.11831c.1234,.10372,.21819,.16477,.28948,.18321Z"/>
    <path d="M363.3929,382.76053l1.08477-1.06633-.41294-.41996,.13428-.13167-1.33612-1.36029c.01655,.04515,.03179,.09225,.04073,.13936,.02292,.15141-.03369,.29585-.17181,.43071l-.15584-.15903c.05728-.07512,.09225-.14001,.10177-.20171,.01785-.11388-.03433-.23031-.14952-.34739-.09479-.09675-.18197-.14444-.26464-.14509-.08209,0-.15206,.02547-.20803,.08085-.06111,.05974-.08144,.12848-.06176,.20614,.01402,.04899,.0643,.14438,.14888,.28504l.12664,.20992c.0617,.09988,.09668,.18835,.1075,.26536,.01655,.13421-.03056,.25513-.1419,.36387-.13864,.13617-.28438,.18451-.43964,.1432-.04072-.00958-.08014-.02293-.11831-.03948l.51535,.52492c-.00573-.02352-.00762-.04899-.00762-.07571-.00254-.10307,.03564-.19409,.11199-.26849,.08398-.08339,.17558-.12092,.27422-.11199,.09799,.00508,.19337,.0471,.28947,.12216l.26784,.21187c.03883,.03179,.07636,.04072,.11388,.02736,.01974-.00638,.04203-.02098,.06875-.0471,.05218-.05088,.07192-.10685,.05856-.16731-.01147-.05916-.05219-.12411-.11903-.19154-.07825-.08079-.15648-.11577-.23285-.10815-.04137,.00704-.08841,.02867-.14124,.06939l-.14061-.14125c.11643-.10815,.23031-.14887,.34042-.12281,.11388,.02671,.215,.08652,.30602,.17877,.10372,.10626,.16861,.21252,.19467,.31937,.02358,.10626-.00762,.20171-.09414,.28569l-.52296,.51346c-.01597,.0159-.02425,.03121-.02802,.04899-.0032,.01401,.00572,.0331,.02606,.05408,.00703,.00697,.01465,.01466,.02416,.02098,.00893,.00893,.01909,.0159,.03122,.02417l-.09735,.09421,.47718,.48544Z"/>
    <polygon points="359.85473 379.15813 361.07253 377.95941 360.48846 377.36517 359.70397 379.00541 359.85473 379.15813"/>
    <polygon points="358.79348 377.82774 360.29059 377.16411 359.88658 376.75379 358.79348 377.82774"/>
    <path d="M362.99208,381.70052l.12274-.11962c-.0299-.00762-.06294-.02098-.09799-.04326-.03876-.02098-.07251-.04385-.10307-.06932l-.10242-.08144c-.06105-.0471-.11512-.07766-.1578-.08971-.07251-.02163-.13806-.00319-.19597,.05408-.04325,.04261-.06359,.09291-.05531,.14952,.00443,.05792,.0299,.10815,.07251,.15271,.05342,.05473,.11708,.09284,.19024,.11962,.1247,.0445,.23415,.01909,.32706-.07258Z"/>
  </g>
</svg>