<?xml version="1.0" encoding="UTF-8"?>
<svg id="Capa_2" data-name="Capa 2" xmlns="http://www.w3.org/2000/svg" width="210mm" height="209.99999mm" viewBox="0 0 595.27559 595.27557">
  <defs>
    <style>
      .cls-1 {
        fill: #fff;
      }
    </style>
  </defs>
  <path class="cls-1" d="M238.96144,260.74c5.16739,2.93561,10.86797,4.7107,17.20441,6.49854,2.35535,.6615,5.95664,1.76237,9.3658,2.48348,3.1106,.65711,7.40757,2.1889,10.51377,1.53174,5.63662-1.20319,10.29193-14.76364,4.78323-21.52238-10.21065-.43109-30.44023,1.13923-41.10343-7.72738-14.58008-12.11827,.08961-34.558,7.07044-45.11013-3.37519,2.48767-21.80844,22.68726-21.40717,44.34195,.16628,8.9435,7.24526,15.90287,13.57295,19.50416Z"/>
  <path class="cls-1" d="M293.44176,177.96144c3.49897,2.24868,11.17527-.01272,14.90884,2.10368,5.01365-7.13444,6.71582-12.13098,9.94187-15.67685,.01293-.32855-4.71488,4.71509-14.33716,7.26672-2.77769,.73818-6.49415-.62732-9.17809,.38398-2.81601,1.06255-3.93399,4.25422-1.33546,5.92246Z"/>
  <path class="cls-1" d="M314.82935,161.83396c-1.56426-3.69794-.73631-10.07001,.56921-12.80081-5.65369-1.06673-15.85935,7.53818-13.08584,18.95224,9.38726-1.38675,12.51663-6.15143,12.51663-6.15143Z"/>
  <path class="cls-1" d="M298.22081,292.85304c-2.88876-2.46637-6.58396-4.11755-10.13397-5.92682,.81921-.01272,1.33965-.32002,2.29971-.1921-1.79638-2.89725-8.63201-1.18194-9.56207-4.77884-.35416-1.36969,.913-2.96121,.55462-4.07505-3.46893,2.35121-6.98062,2.55163-12.59599,.8236-4.55696,9.30619,.37127,17.12752,2.67537,16.06079,1.37822-.6615,1.3399-4.77905,1.3399-4.77905,4.17298,1.74095,8.45698,8.09446,14.14485,8.78993,5.50012,.68275,11.27759-5.92246,11.27759-5.92246Z"/>
  <path class="cls-1" d="M295.15455,165.51462l-.00917,.00226c.01647,.09648,.03563,.19022,.00917-.00226Z"/>
  <path class="cls-1" d="M302.38107,243.08346c-7.27943-1.07092-11.25635,5.67076-11.99453,9.24227-1.81762-3.21731-3.93838-7.95801-8.986-6.69064,11.64865,11.73407,.69965,32.47556-10.31749,28.29823,.27313,.20481,8.22652,5.96518,15.28408-3.83171-.76382,3.94692-3.89985,7.00648-3.89985,7.00648,6.43437-2.33845,9.78396-11.70011,9.06289-18.09198,3.0081-.67836,3.76335,6.87839,1.71949,12.23766,1.7026,3.07646,4.71488,4.84301,5.73493,8.59783-2.36388-1.03256-5.61119-1.23737-7.07044-3.05935-1.0282-1.28008-.56315-2.94414-1.52761-4.58696-1.62135,2.39806-1.82198,6.20831-1.72384,10.32607,4.2884,1.00256,7.95801,2.61973,11.66154,4.20276,0,0,1.0201-3.08499,4.01528-4.58696,1.03673-4.56989,1.82176-9.89498,1.91593-15.37804,.19628-11.20071-4.27107-12.36558-4.09651-19.58084,.03879-1.52761,.13672-2.876,.22214-4.10483Z"/>
  <path class="cls-1" d="M258.26932,242.48613c4.30111-5.3466-2.846-13.90172-2.846-13.90172,11.64029,3.34105,9.10995,12.63435,15.0922,13.96568,7.68048,1.70677,14.29424-3.91274,9.60061-11.52073-3.94692-6.4004-4.05359-11.52073-4.05359-11.52073,0,0,6.61375,8.38888,15.14762,10.7357,5.20553,1.43361,9.81416,.85339,5.33388-3.4819-4.62988-4.48446-5.12053-8.53387-5.12053-8.53387,9.88666,6.25541,22.34577,7.02338,23.57503,.53337,.46919-2.47056,.87878-3.94273,1.26297-4.83448,.28128-.66129,.59298-1.32693,.90425-1.97137-.85339,1.17341-1.74927,2.29992-2.59391,3.12353-4.08777,4.00234-9.98898,.1621-10.06148-3.75064-.03874-2.20596,.78089-3.39648,.78089-3.39648-1.54467,.69547-8.64054-.69129-6.31541-7.99632,2.63266-8.26928,7.60799-16.34228,7.60799-16.34228-6.12706-2.38517-13.6413,1.65553-17.92113-5.05636,0,0-9.10683,6.33789-6.54667,29.37935,0,0-3.38752-3.44628-4.98677-10.2421-1.27155-5.40326-8.99035-4.85718-14.92574-.28294-5.90975,4.55696-8.22239,13.04957-3.81046,15.63098,2.44078,1.42947,5.32096,3.16188,6.25977,6.49001-8.9991-5.197-20.99341-2.93561-26.45935,2.19764-5.65369,19.02618,16.8544,24.78654,20.07584,20.77567Z"/>
  <path class="cls-1" d="M344.3291,223.75723c-.94798,.45464-1.96595,.86047-3.08059,1.19176l.24834,2.8804c.75379-1.80201,1.53929-3.14418,2.83226-4.07215Z"/>
  <path class="cls-1" d="M338.73545,208.20126l1.2459,9.61767c6.66918-2.93143,11.40944-10.57355,9.28059-21.50113-3.59272,6.42187-7.53131,10.38585-10.52649,11.88346Z"/>
  <path class="cls-1" d="M349.61614,252.91013c.46083,3.41355,.68254,6.5925,.67836,9.541,38.78201-9.04599,43.20272-57.14711,40.25837-67.28527-.00832-.11521-.02957-.22628-.1921-.1921,0,0-8.96475,38.38117-40.36086,49.58188-.50337,2.76911-.75508,5.59805-.38377,8.35449Z"/>
  <path class="cls-1" d="M327.65848,154.45058c4.65237-1.52428,4.84698-7.46714,8.03007-9.94188,5.2741-4.10048,13.59877-1.11798,13.7313,5.98224-4.08359-5.23971-10.80819-5.02637-13.44546,.87464-3.46479,7.74026-8.09425,4.39068-12.07948,9.81395,0,0,6.15288,.37127,6.5029,5.07343,0,0,6.40459-1.22026,8.32471,4.9668,2.56016-1.28008,8.67886-.2817,9.67311,5.47866,2.91435-.21335,4.53152,2.08662,4.53152,2.08662,4.75738-5.40621,8.15842-17.90406,5.5087-26.63003,3.37519,1.28008,5.28242,4.02381,5.9266,8.0305,6.11457-2.5687,9.55811-.1921,9.55811-.1921,0,0-5.142,2.62412-9.7502,8.60223-2.54305,3.30688-4.82155,6.99773-6.61788,10.93611-1.62554,3.56293-.34546,5.48306,1.95843,4.6638,2.74394-.97713,5.83286-2.82057,6.92545-6.37058,3.1106-10.10837,3.38769-10.37296,9.39558-12.66853,9.43018-3.60979,5.17575-40.2969-25.99831-22.17535-14.09671-9.3087-30.31107,1.07424-28.97015,15.6614,0,0,2.92601-2.92434,6.79501-4.19192Z"/>
  <path class="cls-1" d="M301.62557,201.52773c-.90463,3.2558,3.80611,4.82177,5.94414,1.83491,3.4773-4.85594,17.67779-29.62542,18.75284-28.84039,.75964,.64444-3.4473,7.53549-5.34198,11.4397,3.04228-1.01549,6.43872,.42669,7.36046,2.61141,2.50059-3.58,6.29373-12.02431,7.34753-11.37134,1.18215,.94299-4.30525,8.99474-5.807,13.98275,5.04322-.46941,6.17827,3.60129,6.2383,3.52876,3.23852-3.78917,6.53665-12.70267,7.4071-12.16077,2.06515,1.44218-4.41611,10.31318-6.44704,15.08784,0,0,.44794,3.42626,1.12216,7.36046,5.66201-2.87165,10.71859-13.01415,12.86038-18.56117,2.92728-7.57381-4.94116-6.61375-4.94116-6.61375-.35834-9.10142-9.38726-5.40617-9.38726-5.40617-1.28008-7.60799-8.25217-4.54864-8.25217-4.54864,.66543-3.80606-4.12195-6.68625-6.4004-4.62527-3.3923,3.07642-5.47452,8.03882-8.50387,12.89895-3.69525,5.931-10.37732,17.69067-11.95203,23.38272Z"/>
  <path class="cls-1" d="M372.39295,174.20662c-.6321,8.82594-5.22281,12.38265-10.72733,14.40091-4.85112,1.77927-6.77124,3.48604-6.28498,8.28217,0,0,16.2781-2.82475,19.45706-17.04231,1.61721-7.24086-2.13347-9.98728-2.44474-5.64076Z"/>
  <path class="cls-1" d="M322.76858,188.9788c-1.28465,.20042-1.90301,1.15634-1.26758,4.90698,.24752,1.46778,1.01131,6.39187,1.57053,9.78396,1.49343-1.30133,4.83448-1.16048,5.83286,.14939,0,0-1.28465-8.69179-1.71552-10.32172-.72546-2.71808-1.94137-4.90698-4.42029-4.5186Z"/>
  <path class="cls-1" d="M318.48457,329.17307s-.1921,2.44512-.1921,2.67558c3.60565-.46962,8.43552,.28166,10.13397-2.1039-3.03396-1.9968-6.4304,1.21215-9.94187-.57168Z"/>
  <path class="cls-1" d="M321.42018,311.85802l-.98131,5.5043c1.28008,.18335,3.20434,.91756,3.20434,.91756,0,0,1.48468,3.22977,1.33969,4.58235-1.40386,.06836-2.18889-.48626-3.63108-.37959-.71672-.62297-.74671-1.24176-1.40382-1.92012l-.89589,5.73451c1.15173-.48212,2.03093-1.60424,3.6394-1.51882,1.87762,.09831,3.45187,2.49599,5.73493,2.10343,.39252-7.97883-3.04228-11.40112-7.00627-15.02363Z"/>
  <path class="cls-1" d="M335.0827,288.9872c-2.01387,2.47474-5.02197,4.33943-5.02197,4.33943,0,0,4.25819,12.76249,7.01919,23.50233,0,0,1.65553-2.91436,.27291-6.13163-5.94371-13.88026-2.39388-21.45407-2.27014-21.71013Z"/>
  <path class="cls-1" d="M379.4026,421.97517c-5.08201-10.33691-.61671-63.69861-.45465-67.21883,.23502-5.01365,.68838-9.78272,.45503-14.5651-.28456-5.83162-2.27593-7.1117-4.08606-13.34501-1.45345-5.00448,1.29297-10.50481,.95589-15.10052-.69129-9.49393-8.74304-24.95304-13.91879-33.90921-1.50175-2.60287-2.16014-2.11098-1.93847-.39567,.56755,4.34801,.18335,8.08158-.39251,11.23049-3.7465-14.86174-10.03149-20.79692-10.03149-20.79692-.64879,5.5768-2.33431,10.09126-5.04365,13.50063-.69129,.87464-1.41214,1.617-2.12929,2.2485,0,0,.22209,2.5943-1.36508,4.61256-.86632,1.10531-2.59434,2.61141-3.08939,4.04087-3.30269,9.53664,2.15472,20.39173,3.25149,22.36728,.25998,.47376,1.23298,.90463,1.52756,1.91176,.93838,3.17853-1.34007,9.36558-1.34007,9.36558-2.35974,2.98686-9.13559,8.11179-9.13559,8.11179,3.52022,5.56827,8.64933,9.58354,13.67587,12.25037,21.17219,10.55606,17.2211-34.55804,17.2211-34.55804,5.01365,13.4196,4.76612,24.49196,1.98848,31.682-1.33138,3.46066-2.38932,7.3434,.32002,10.49649,3.92148,4.56157,4.49735,11.3928,.7767,15.46764,.7721-13.24875-15.61101-19.26206-18.2566-5.95788-4.07484,20.51129,13.4621,27.84176,12.66414,40.66381-.24748,4.04945-1.13091,6.55418-1.77095,9.68189-.95545,4.68488,1.6772,6.1912,1.96305,9.24223,.25584,2.73058-2.05219,5.3041-.81047,7.79177,1.32719,2.66683,6.82543,2.47597,10.58443,3.12058,6.60125,1.12634,13.93671,10.04189,18.76202,3.13731,2.55973-3.66274-6.18748-6.54292-10.38273-15.07636Z"/>
  <path class="cls-1" d="M327.72223,294.92255c-1.25883,.95153-3.2727,1.77931-3.2727,1.77931l-2.52598,11.82782c.08542,.43105,2.1251,2.32117,2.87181,3.24727,1.88138,2.35932,3.52859,5.35492,4.20277,8.41431,.38837,1.77095,.1196,3.92148,.96006,5.35074,1.0326,1.77513,4.0282,1.5701,5.53826,.1921,2.5006-6.12331-6.58375-28.7891-7.77423-30.81154Z"/>
  <path class="cls-1" d="M339.84469,315.97971c-.57587,1.93305-1.96723,4.51864-1.96723,4.51864,0,0,.16253,1.84763-.10207,3.81481,0,0,4.6382-4.69363,2.0693-8.33345Z"/>
  <path class="cls-1" d="M235.15537,446.24085c6.39622-4.72363,2.51327-11.89199,2.51327-11.89199-3.00376,7.66632-9.41704,11.20071-9.41704,11.20071,3.4348-.1621,6.90377,.69129,6.90377,.69129Z"/>
  <path class="cls-1" d="M220.59672,450.09402c-3.66961,.87882-3.03392,6.77999,1.43365,6.30205,0,0-2.47056-2.79058-1.43365-6.30205Z"/>
  <path class="cls-1" d="M215.13077,452.24874c-3.85317,.2346-2.35974,5.56827,1.07945,4.62527,0,0-2.11222-1.95426-1.07945-4.62527Z"/>
  <path class="cls-1" d="M210.54381,452.96546c-3.11064,1.07966-1.9543,4.62527,.59733,4.30986,0,0-1.98848-1.9543-.59733-4.30986Z"/>
  <path class="cls-1" d="M314.14053,295.55405c-2.3722,1.54886-4.01066,5.42328-4.07066,5.43181,.10249-5.84997,2.12515-10.31754,2.12515-10.31754,16.96107,8.66619,17.12313-7.28357,23.8223-13.66691,0,0-1.93719,5.53848-.21749,6.17852,2.83307,1.04527,6.81417-4.0067,7.06584-4.33964,3.8786-5.35074,5.12032-14.15338,3.58857-25.50348-.77671-5.77726,.76797-11.52073,2.13347-16.58127,1.0963-4.07066,2.12929-7.91943,1.1263-9.63478-.20456-.34562-.61879-.84481-1.80927-1.14337-.57586-.14525-1.21172,.03832-1.58303,.26873-3.44768,2.12493-4.93236,11.64865-5.40156,13.94861-.38006,1.89448-.87924-2.351-.87924-2.351,0,0-4.9924-36.04289-5.18864-37.404-.50755-3.58004-1.13048-7.17276-4.71074-6.41751l2.41517,16.56855c1.5576,11.17924,3.18309,23.7667,3.35813,27.7478,.07667,1.86051-.77215,.85339-1.09217-1.3824,0-.01707-4.12651-23.63878-4.3565-24.48799,0,0-.93467,2.99104-1.92012,5.54702-1.42093,3.69525-1.99304,7.46714-1.82219,9.88231,.28166,4.07484,2.1676,8.20946,2.93556,11.79803,.36295,1.71091-.13667,2.19743-.13667,2.19743-.97256,1.15216-3.29812-4.8003-5.17114-11.7895-.78546-2.91436-.46087-6.73753,.56755-10.09979,1.69803-5.55559,5.70912-12.84352,1.97555-14.11507-3.2002-.74257-5.12032,2.70955-7.67635,8.38884-1.17755,2.61559-1.90719,9.14392-1.85637,9.15245,3.88735,.71693,8.05636,4.88991,2.06097,13.67984-1.38215,2.02679-2.07761,3.09353-1.05799,5.90121,1.19466,3.28541,3.23857,5.58119,1.38262,6.53268-1.86888,.95153-5.54702-5.12886-4.9924-10.33874,.15792-1.46783,3.01685-5.32514,3.49436-6.08896,2.09097-3.35394,1.29301-5.26553-.66129-6.29373-2.41056-1.26737-5.20993,1.35676-8.33345,5.66641-2.75183,3.80193-3.68646,9.13973-3.9723,12.7581-.35838,4.42486,1.54049,7.54821,2.77351,10.81672,4.03233,10.67173-.16211,29.10477-.16211,29.10477,0,0-2.42349,.96859-3.94278,3.95984-1.31422,2.58994-.71667,5.02218-1.98387,6.46437-4.36111,4.97094-10.50545,8.43573-16.55166,11.59757-7.32193,3.82317-13.82065,7.72298-19.91374,12.08827,.51211-1.7197,6.57957-13.27457-1.11798-22.03036-5.7389-6.52833-2.84165-13.45352-2.86311-15.67241-.10228-8.98621-13.45356-6.635-21.03173-6.31084,1.86905-1.26715,2.81622-2.89725,3.11499-4.12608,.41812-1.74095-.9857-2.25286-1.70264-2.60287-9.02452-4.40779-23.99712-12.10952-20.72024-32.07451-13.03126,23.22502-1.65553,37.23755,10.89775,43.20273,6.14874,2.92289,6.83563,8.98181,2.10368,17.2042,0,0,.7765-7.80841-3.28981-10.41128-2.5687-1.64281-6.24683-.24313-4.83883,7.9109,1.28444,7.45446,5.018,13.56463,9.27205,18.17284,3.24727,3.52044,8.13717,8.63615,21.53531,11.82803,0,0-9.38726,22.08139,7.27504,28.92974,13.12936,5.40203,23.03728-9.96312,23.30186-10.37275-1.96697,8.40386-5.77201,12.97959-9.14033,15.50139-7.56028,5.65996-.16441,9.9269,4.38714,9.2156,11.50217-1.79762,18.55264-24.27319,22.38414-38.15366,.11751,11.29364-2.46851,20.97173-3.79442,25.17074-.15792,.5009,2.6464-.82796,4.45153-2.66265,4.6507-4.73195,5.65369-11.09403,6.69042-21.03173,.74006-7.09378,3.55854-19.55127,5.28656-27.3511,1.31887-5.95664-3.56272-8.06011-3.56272-8.06011Z"/>
  <path class="cls-1" d="M258.21389,358.45697c-9.45975-5.60658-12.58746-15.74056-10.68859-26.07955,.38398-2.10761-.36691-3.99773-1.89887-4.2069-4.16444-.56341-7.32193,9.45975-4.87279,25.23867-4.83448-5.26075-7.90237-15.19012-7.91948-24.87615-.00853-5.44452-1.07527-9.39144-6.19977-9.85645-3.94273-.3542-6.84416,2.8885-6.84416,2.8885,.05978-2.54723,1.19466-4.07902,2.0224-5.88415,1.44239-3.14891,1.66846-6.65625,.58047-9.87352-.86192-2.55163-2.03119-5.82432-2.81622-9.40433-1.50636-6.9167-8.76868-1.408-11.69576,8.16256-1.64281,5.37224-3.63103,12.0116-3.88295,13.68837-.74671,5.05201,30.39778,83.56363,38.15076,112.25459,4.33943,16.05226-6.40894,18.84287-6.40894,18.84287-7.85552-1.28008-11.23489-.53337-12.07121,1.59131-1.05381,4.58696,6.5925,5.61537,10.51381,4.97115,9.42558-1.55299,15.42907-6.1487,26.50603-5.10782,3.14896,.29877,5.87997,1.55346,8.98203,2.1039,4.18151,.74215,6.69478-1.42093,6.06332-5.71786-.29442-1.97969-2.15058-4.51446-3.76775-6.5154-2.21036-2.72683-4.88137-4.97533-4.97093-8.79433-.06836-2.83768,1.50614-6.65207-.10667-9.45557-1.22466-2.12472-3.91295-4.19862-5.24846-6.02914-2.69248-3.69939-2.2785-9.33601-.19188-13.95715,6.48996-14.31548,6.01202-28.66515,4.85987-33.71293-1.10505-4.86866-3.49876-7.54842-8.09425-10.27069Z"/>
  <path class="cls-1" d="M311.79833,213.4795c3.40894-1.74949,8.28635-11.53779,8.28635-11.53779l-1.85637-10.85508s-8.5468,14.78054-10.38982,18.24533c-1.69385,3.18749,1.91137,5.20135,3.95984,4.14755Z"/>
  <path class="cls-1" d="M295.14537,165.51688l.00917-.00226c-.03998-.19709-.02603-.09605-.00917,.00226Z"/>
</svg>