<?xml version="1.0" encoding="UTF-8"?>
<svg id="Capa_2" data-name="Capa 2" xmlns="http://www.w3.org/2000/svg" width="210mm" height="209.99999mm" viewBox="0 0 595.27559 595.27557">
  <defs>
    <style>
      .cls-1, .cls-2 {
        fill: #fff;
      }

      .cls-2 {
        fill-rule: evenodd;
      }
    </style>
  </defs>
  <path class="cls-2" d="M433.61518,143.75366c1.11887,1.9115,1.57123,3.47221,3.05123,5.14896-.07209,2.02575-1.60813,2.58733-1.90702,4.38615-4.30794,3.44736-22.44606,16.13939-24.02847,17.926-2.36255,1.31192-3.51849,1.71764-7.43738,1.14421-1.58782-1.20911-3.27565-2.31821-5.14896-3.24194-.43392-1.7191-.06034-2.43946-.57211-3.81404,1.24254-2.82588,30.9716-22.43954,32.41937-22.50286,1.11757-.04888,2.13497,1.13165,3.62334,.95351Z"/>
  <path class="cls-2" d="M339.59901,184.75463c1.66025,3.9459,1.56584,8.46215-1.33492,11.25143,.05326,2.723-1.43362,3.90604-1.71632,6.29317-.33914,.16938-.48459,.53235-1.14421,.3814-.544,2.42754-2.20389,3.9322-4.95826,3.62334-3.69524-4.66997,1.18294-9.39208,2.09772-14.11196,.69389-3.58004,2.10032-6.01317,4.19545-7.81879,1.28388-.20327,1.78467,.37666,2.86053,.3814Z"/>
  <path class="cls-2" d="M270.18342,192.57342c.63187,2.70624-1.46175,4.22972-3.43264,4.95826,.1121-1.95564-1.43772-2.24913-2.66983-2.86053,.84399-2.1631,3.93211-2.84777,6.10247-2.09772Z"/>
  <path class="cls-2" d="M208.58662,268.28218c-2.19756,1.10809-4.40924,2.20164-5.14896,4.76755-.75947,.19406-1.42468,.48234-1.71632,1.14421,1.18014,1.80757,3.35796,2.61731,2.86053,6.10247-.41344,.28569-.44416,.95425-1.14421,.95351-.66076,2.8989-3.51645,3.60322-4.00474,6.67458-1.51408,.40747-2.7123-.90955-3.62334-1.71632,.15214-.35644,.31864-.69837,.3814-1.14421-2.5622-2.34505-7.36587-5.28827-4.57685-10.10721,1.93216-.27116,4.19022-1.09169,6.10247-.76281,.219-1.26973-1.94837-1.71371-2.47913-2.86053,1.35912-1.8087-.42946-3.1857-.76281-4.38615-.54548-1.96381,.0525-3.65593,1.71632-4.95826,1.64797-.13931,2.74674,.85928,4.19545,.95351,3.05215,.19816,5.73205-2.52717,9.53511-1.71632,3.15868,2.30668-1.0161,4.32171-1.33492,7.05598Z"/>
  <path class="cls-2" d="M223.07999,267.32867c-2.24765,2.46423-7.41244,1.73178-6.67458-2.47913,1.79807-2.06307,4.81317-3.37938,6.48387-.3814,.30877,.70825,.15847,1.87575,.1907,2.86053Z"/>
  <path class="cls-2" d="M326.12525,428.63783h.57211v.76281c-.3421,.02422-.40225-.23353-.76281-.1907,.10094-.15344,.1989-.30951,.1907-.57211Z"/>
  <path class="cls-1" d="M399.47949,172.35899c-.27433-1.18397-2.36982-2.98502-3.81404-3.05123-1.34069-.06144-2.87432,1.13668-4.19545,2.09772-1.74874,1.27216-18.89479,13.7152-19.64233,14.68407-1.40141,1.01414-3.4535,1.37758-4.19545,3.05124-.16091,.79662,.37059,.90063,.3814,1.52562-2.72683,2.21254-5.58811,6.4619-9.72581,4.00475-4.43383,1.85935-18.57595,12.2541-21.74005,15.06547,.00242,1.43194-.15495,1.51976-.3814,2.66983-1.65636,.617-3.31625,1.64471-2.66983,4.00475-1.07867,.06583-1.64854,.96572-2.66983,.76281,.65945-2.15144,1.76399-5.65253,.76281-8.00949-.39351-.92642-1.51408-1.1051-1.52562-2.09772-.57268-.25373-1.45895-.19387-2.28843-.1907-.63897,1.18332-2.27725,1.77526-2.66983,3.43264-.31922,1.34758,.66,3.19138-.76281,4.00475-1.86085-.7454-4.95398-.2585-5.53036-2.28843,.49575,.62444,.51511-.19358,.95351-.3814,1.22074-.52294,3.24695-.64967,3.81404-2.09772,1.07493-2.74478-.30245-5.73447-2.09772-7.05598-9.67367-.58458-5.16872-7.1463,1.12038-8.47061,.11286-2.43145-1.09505-2.54942-2.09772-4.00475,1.40605-3.47099-15.77727-1.91959-16.96654-1.83755,.1814,1.11954-.04171,2.91408-.31716,3.74467,.10969,.21669,.23969,.69028-.0702,.19061,.33577,2.07733,1.63642,6.26403,.59594,7.8985-1.89027-.96934-4.34891,.65935-5.91177,0,.9602-3.01845,3.78107-11.45861-.52388-11.89663,0,0-13.51695,.29145-16.47209,.27814-.58868,1.92108,.26092,1.2717,.29202,2.78995,.00986,.48896-1.02615,3.2547-.9673,3.72364,.26445,2.10684,5.08265,5.67133,5.91755,7.96544-.9077-.38671-5.55645,1.42589-7.12582,.95351-.49128,2.24214-.86319,4.60359-2.09772,6.10247,.073,1.09011-.01733,2.01681-.76281,2.28843-.12552-.25598-.40766-.35514-.76281-.3814,.09348-2.74031-.79895-4.80358-1.90702-6.86528-.91459-.10252-1.42302-.61112-1.52562-1.52562-.95593,.34044-1.86102-.56046-2.47913-1.14421,.18344-.50227,.36874-1.63373,0-2.09772-1.46827-.26035-1.74128,.67444-1.90702,1.71632,2.04204,.66057,2.21933,4.4721,.3814,5.53036,1.33324,.74278,.21303,3.19594,.76281,4.19545-1.79399,1.94688-5.00986,1.80357-6.48387,4.00475-.91293,1.36331-.17804,3.4047-1.71632,4.57685-1.5718-.95771-2.95588-1.23825-5.14896-1.33492-1.66306-.07329-3.37007-.3774-4.76755-.3814-4.3949-.01257-7.70482,3.36568-11.82353,3.24194-.16948-1.39953-1.04812-2.87349-.1907-4.19545-.75779-1.84853-2.29365-2.91881-3.62334-4.19545,.60544-1.58483,2.81135-1.07102,2.47913-3.24194-.16686-1.09047-2.10053-2.39205-3.05123-2.47913-1.62116-.14852-3.70677,2.03077-3.81404,3.43264-.10058,1.31424,1.25017,2.1955,1.33492,3.43264-.29147,.72566-.89281,1.14133-1.14421,1.90702-.73338,2.11226,2.21392,3.67166,1.71632,6.48387,.92109,1.02214,1.82117,2.74348,3.05123,2.86053,.08269,1.06152,.73058,1.55785,1.33492,2.09772,2.91584-1.26973,7.33067-4.38234,10.67932-2.28843-2.49683,2.16775,.08789,7.13253-1.52562,10.29792-.4885-.02012-.90919-.10801-1.14421-.3814,.4734-2.85439-1.4042-4.24739-3.24194-5.33966-.73525,.72669-2.3106,.61345-3.43264,.95351-1.41779-1.25223-2.7948-2.54505-4.76755-3.24194-.78535,.54939-1.41127,1.25856-2.47913,1.52562-.1395,.68683-.68945,.9632-.57211,1.90702-3.52091,1.94594-5.75161,5.1821-10.67932,5.72106-.4803,3.0097-2.85923,4.94411-3.24194,7.43738,.68626,1.61353,1.17846,3.20841,1.52562,5.53036-.80751,.59093-.54381,2.25305-2.09772,2.09772-.91106,2.4497-1.2705,6.05554,.57211,7.43738,.97716-.29425,2.45546-.08715,3.43264-.3814,.41194-.47786,.60153-1.17848,1.14421-1.52562,2.9054-1.79863,4.98675-4.42116,7.62809-6.48387,2.33423,2.89368,8.58551,3.0909,9.1537-1.52562,1.81316-.60228,3.64121-1.19002,3.62334-3.62334,.20262-.71122-.71513-.30188-.57211-.95351,3.8092-4.38857,8.90005,.54436,14.30266,.3814,.97846,.80154,1.42243,2.1372,1.33492,4.00475-.52537,.30094-1.21536,.43747-1.71632,.76281-.69894,2.56628-2.40744,5.64639-5.91177,4.19545-2.23182,1.40717-5.74771,1.17923-6.67458,4.00475-.75444,2.29998,.09907,3.85167,1.33492,5.33966h2.28843c.48103,2.0616,2.96445,2.12081,3.81404,3.81404-1.12076,1.30791-3.3846,1.08759-4.95826,1.52562-.6263,5.16294-4.60834,9.71874-2.09772,14.68407-1.46808,.75686-2.76463,1.68504-4.19545,2.47913-2.13535-.93229-5.25716,.20895-5.53036-2.66983,.16183-.41009,.70209-.4421,1.33492-.3814,.01974-.59184-.60004-.54417-.3814-1.33492,.71252-3.63972,2.86406-7.18783,3.05123-10.87002,.01228-.24099-.54978-.48681-.57211-.76281-.0866-1.07196,.51901-2.11485,.57211-3.05123-.68254-.86375-.51141-1.91148-.95351-2.66983-.98145,.28996-2.0359,.50673-2.66983,1.14421-.64772,3.03932-1.699,5.67488-3.43264,7.62809,.14152,1.32374-1.10344,2.4661-1.71632,3.62334-2.186-.35682-2.16403-2.92123-3.43264-4.19545-1.8046,.15197-2.07575-1.22988-4.19545-.76281-.50078-.70693-.96432-1.4513-1.33492-2.28843-.77398,.11583-1.19469,.58515-2.28843,.3814-1.93124,2.64563-4.09935,5.05435-6.10247,7.62809-.52035,.01714-.38383-.31771-.76281,0-.49743,1.44926-.77398,3.23299-.1907,4.76755,.99205,.34752,1.72059,1.30364,2.66983,1.14421,2.39606,1.63289,4.51911,4.25801,8.963,3.24194,.6058-1.30139,1.80831-2.00573,2.66983-3.05123,.35906,1.29357,.61791,2.68772,1.52562,3.43264-.9755,.23243-.9226,1.49283-1.90702,1.71632-.49632-.33001-.07878-1.57404-.95351-1.52562-1.69584,.27452-1.22803,2.71304-2.86053,3.05123,.47805,1.19524-.59837,2.09475-.95351,3.05123h-2.66983c-.83768-.68533-1.62862-1.23733-2.66983-1.33492-2.56349-.24061-3.96397,1.77406-5.14896,3.24194,.12682,1.27086-.11454,2.17372-.76281,2.66993,1.16731,2.39272,3.14714,3.97235,4.76755,5.91177,1.83681,.07003,2.71154,1.10251,4.00475,1.71632,2.53182-.16612,4.15223,1.55058,6.48387,.95351,.7818,.55796,1.56435,1.45969,2.86053,.95351,1.50941,1.86158,4.76792,2.32903,7.24668,2.66983,1.66006-1.20158,3.79596-2.18302,3.81404-4.57685,.00763-1.00044-.88945-2.20574-.76281-3.62334,.11435-1.28053,.58607-2.24037-.1907-3.24194-.81161-.87279-2.60074,.25775-3.24194-.57211,.89317-1.8099,3.23988-1.3905,5.14896-.95361,.96821,1.2687,3.62967,2.2144,1.71632,4.19554,.64789,2.27614,1.70308,4.14516,4.57685,4.19545,2.41114-1.22541,1.78131-5.14001,1.71632-7.43738-1.18203-.59789-1.38036-2.17976-1.33492-4.00484,.91905-.54304,1.66435-1.25968,2.86053-1.52562,.69892,5.26414,.5153,10.47456,.95351,15.82837,2.41692,.9673,4.67628-2.01391,4.38615-4.38615,1.88858-1.08723,1.79769-4.64016,1.90702-6.48397,1.05927,.78525,2.89497,.92567,4.00475,1.14431,1.58948,2.98531-1.82975,5.60411-.1907,8.5816,.74847,.45925,1.49394,.92147,1.71632,1.90702,2.39085,1.36247,5.27522,.47714,8.20019,.76281,2.43107-1.3323,1.65747-5.44209-1.14421-5.91177,.95742-1.76325-1.0079-7.34995,1.14421-8.20029,.88049-.34788,2.3873,.32778,2.86053,1.14421-.53337,.73823-2.44692,.09573-2.66983,1.14431,4.01199-.88917,6.05106,2.63371,10.48862,1.90702,.10727,1.06078-1.29079,.61643-1.33492,1.52562,.47489,2.76705,3.29036,3.19352,3.81404,5.91177,2.11727,.10652,3.39295,1.08834,5.33966,.3814,.61698,.58105,.42776,2.13869,.57211,2.66983,.94922,.65815,.94159,1.89138,1.14421,2.66983,.28939,1.11181,1.43082,2.5309,1.90702,3.81404,.82854,2.23219,.33409,3.64197,.3814,5.91177,.04693,2.24596,.83282,4.23382,1.33492,6.10247-2.83298,3.38199-1.36937,8.82705-2.47913,13.15845-.85928-1.81055-.59074-4.74892-.95351-7.05598-.12907-.44287-.63376-.51064-.76281-.95351-.34529-4.61671-2.99948-8.56707-2.28843-14.87477-1.13454-2.66499-3.71646-4.05727-5.72106-6.10247-.96003-.97958-1.34275-1.13676-2.47913-1.90702-1.69174-1.14683-3.61441-2.18339-6.29317-1.33492-1.0673,.64921-1.56679,1.86568-2.28843,2.86053-1.43549-.08604-3.81517,.90955-4.95826,0-4.92959,.21305-6.67793,4.43121-9.72581,5.91177,.00259,1.54871-.52201,1.90107-.57211,3.05123-.95128-.56839-1.92378-.32963-2.86053,.1907-1.46919-.25514-2.22027-1.56174-3.24194-1.71632,.75796-1.14906,1.73083-2.08319,2.09772-3.62334-3.02461-1.83774-8.3218-1.90777-9.53511,1.71632,.06741,.45404,.86802,1.14906,.3814,1.52562-1.20642,.15569-1.45336-2.20871-1.90702-3.43264-2.70187,.2544-4.41149-2.04892-8.00949-1.52562-.61402,.21231-.6753,.97735-1.71632,.76281-.87437,3.76227-4.99272,1.97817-6.86528,.1907,.27747-.80303,.64679-1.51444,.76281-2.47913-1.6979-.90845-1.66864-3.54401-2.86053-4.95826-1.76735,.1825-2.62067,.15382-4.38615,0-.5034,1.02205-1.00735,2.04372-1.90702,2.66983-1.83515-.83394-3.07471-1.68169-2.66983-4.38615-.44809-.31474-1.08462-.441-1.14421-1.14421-1.14366-.12665-1.86121,.17283-2.86053,.1907-2.26627-1.35465-3.42055,1.44293-5.53036,1.14421-2.06942-.29313-2.76798-2.14056-5.72106-2.47913-1.39098-1.44554-2.29085-3.73023-.76281-5.72106,1.84966,.39407-.76468,2.71676,.1907,3.24194,.69948-.27711,.77231-2.6553,.76281-3.81404-.24286-.26557-.93415-.08305-.95351-.5722,.67825-.86485-.42853-1.26302-.76281-1.71632,.1378-1.02764-.2084-1.57142-.76281-1.90702-3.08793,1.03881-1.31182,5.15836-3.62334,7.24678,.3434,.9874-.14024,1.75618-.57211,2.47913,.71792,1.85973-.27749,3.38868,0,4.95826,.21025,1.18966,1.01328,2.86909,2.09772,3.43264,.58811,.30543,2.11988-.22907,2.86053,.76281-.8442,1.09618-32.22068,22.95577-34.8985,26.1262,.25812,2.00945-.70974,4.00587-.57211,6.48387,.84363,.74568,1.77515,1.40307,1.90702,2.86053,.11694,.26445,.73413,.02868,.76281,.3814,.30728,1.97108,2.37594,2.61844,3.43264,4.00475,.71624,.93972,1.04625,1.61315,1.71632,2.28843,.31416,.3166,.33558,.89466,.57211,1.14421,.53542,.56465,1.31405,.65405,1.90702,1.14421,.09571,.07933-.08194,.47527,0,.57211,.98685,1.16469,3.24436,1.72153,4.00475,2.86053,.74957-.41009,1.44888-.02943,2.09772,.1907,3.38868-.64623,7.45526-1.84071,9.5351-4.38615,2.37446-.67676,17.12968-13.00127,20.02373-13.53985,1.24384,.91739,2.58192,1.74054,4.76755,1.71632,.85555,2.11969,2.22193,4.8413,.95351,7.43738,1.14812,.23689,.28716,1.37849,.76281,2.28843,.37748,.72221,1.33472,.92372,1.52562,1.71632,.26668,1.10697-.41586,2.49477-.3814,4.00474,.90917,1.82433,2.85401,2.61285,4.38615,3.81404-.46037,1.89772,.01619,3.05905,0,5.14896-1.01553,.44659-1.82843,1.09579-3.43264,.95351-1.9845,2.98344,1.37401,4.90499,3.05123,6.48388,.19833,3.8226,.02681,7.1368,.76281,10.10721,1.90925,1.14198,3.99021,2.11226,5.53036,3.62334-.75201,1.2187-.8524,3.08886-2.66983,3.24194,.02533,.83878-.41958,1.2176-.1907,1.90702-.93154-.16538-.90715-1.8139-.57211-2.66983-1.31779,.14451-1.0174,1.90666-1.52562,2.86053,.64156,.93414,.15475,1.81241,.1907,2.66983,.18027,4.29416,1.96307,8.08324,2.66983,11.82353,1.23993,.67156,1.84592,1.86457,3.81404,1.33492,.69147,1.40607,1.17251,3.02293,2.09772,4.19545-.35236,2.06345-1.29134,3.53991-1.71632,5.53036-1.05279,.85406-2.67486,1.13901-3.43264,2.28843-.20171,2.259,2.30071,9.43306,2.98344,10.81415-.48309,.34342-.71662,.936-.95351,1.52562-.33262,4.89717-.00633,10.88381,1.90702,14.11196,1.8694,1.11517,4.06321,.90137,6.10247,1.14421v.76281c.48719,.08494,.87677,.26744,1.14421,.57211,10.48972-.19852,19.99951,.74717,27.46111-1.52562,1.81167-1.88355,1.84258-5.26143,2.28843-7.81879,.12291-.70358,.58887-1.20714,.57211-1.90702-.06034-2.52755-2.71415-5.22829-2.28843-7.62809-2.26794-1.50624-5.62907-9.31199-7.17889-11.19555-1.28091-.06964-2.15082,1.27719-3.05123,.95351,1.06841-.96579,1.63622-2.4322,3.05123-3.05123,.33409,.56391,1.01608-.11024,1.52562,0,1.37346-1.9316,3.63227-2.72532,2.86053-5.53036-.29797-1.08313-1.99232-2.17185-1.33492-4.00475,1.82656-.39817,2.06456-2.38526,3.43264-3.24194,.02123-2.0128,1.0699-2.99833,1.71632-4.38615,.16723-2.46498-.71439-6.02537-.1907-8.20019-.11566-.32927-.90454,.01453-.95351-.3814-.34864-4.56755,4.42934-6.82506,1.90702-10.67932,1.11757-.72593,1.79006-1.89659,3.05123-2.47913,.99951,.39891,1.11292,1.68392,1.14421,3.05123-1.04142,.48421-.8725,2.17854-1.71632,2.86053-.56486,3.28738,1.20026,5.75347,3.05123,7.24668v.76281c1.01886,.31622,1.50922,1.16059,1.90702,2.09772,.77286,.49836,2.19735,.34529,2.47913,1.33492,.48848,.20672,.90917-.57918,1.14421,0,.00223,.25217,.33428,.17432,.3814,.3814-.21902,.78777-.21902,1.50065,0,2.28843,1.45224,1.33604,3.06315,.86449,5.14896,1.33492,1.0105-.62724,2.10051-1.65524,3.24194-1.52562,.77322,.08789,1.30324,1.09318,2.09772,1.33492,.66261,.2015,1.79601-.25588,2.47913,0,.49052,.18401,.63449,.82053,1.14421,.95351,.73058,.1907,1.77609-.28382,2.47913,.1907,1.37103-.45627,1.90813-2.38565,3.62334-1.90702,1.16115-1.25446,3.43933-1.3919,4.57685-2.66983,.87044-.97325,1.00491-2.68175,2.09772-3.43264,.13464,.62834,.30634,1.21908,.3814,1.90702,2.31505,1.46305,4.6152,1.43772,7.05598,0,.83991,1.16693,1.93645,5.1633,2.09156,5.7043l-.00036-.02161c.02662,.10933,.02458,.10653,.00036,.02161,.05084,4.37871,.57062,11.97644-.90509,15.35265-1.22856,6.94164-7.46139,8.04635-8.83115,9.86586-.39481,.52443-.92351,1.62989-.95351,2.28843-.13706,3.01697,3.64701,3.96264,5.53036,4.76755,1.00212-.45256,1.82433-.73228,2.86053-.1907,1.43233-1.23771,3.25163-2.08806,4.57685-3.43264,1.20606,1.33676,13.27728,14.88779,14.95374,15.76049,5.04056,3.36374,6.63211,.51921,16.44229,3.78797,1.50216-.92967,7.55062-3.16857,3.30544-4.95826,1.8262-.20113,.50805,.21193,1.8262-.20113,2.41265-.44026,2.00406-2.12343,2.45827-4.71729,.13689-.7818,1.20325-1.71222,1.14421-2.47913-.16461-2.13607-3.17601-2.34056-3.62334-4.00475,.39296-.2879,1.72769,.64661,2.47913,0-.30224-1.84743-1.36434-3.69634-2.66983-3.43264,.21957-.22533,.21586-.67415,.1907-1.14421-.74437-.1607-.89334,.02348-1.49003-.53894-.10969-.02533-.29034-.08084-.03559-.03316-.44918-.00408-3.24249-11.15531-3.82522-11.29313-2.00813-2.31413-6.34493,.203-8.65311-1.81129-1.97573-.39557-2.58155-1.49657-4.57685-1.52562-.47563,1.4053-2.48992,1.78448-2.66983,3.05123-.23838,1.67869,9.77684,5.37206,10.15769,8.26871-1.73476,.80789-7.08521,2.99463-8.54939,4.0729-.66,1.56511-.80061,3.64905-1.71632,4.95826-.83283,.13372-1.07418-.3244-1.90702-.1907-.91867-2.45045-4.25317-11.24471-6.46953-12.39749-.40486-.97399-3.40284-2.63371-2.76686-3.18606,1.60905,.32589,5.32887,.47973,6.67458-.95351,4.34257,1.34497,4.59735-4.50311,7.62809-5.72106,.28922-1.26378,.26334-3.01586,.1907-4.57685-.17262-3.71162,2.55344-3.06315,2.87712-6.70364,.12142-1.3647,.1501-2.90224,.3814-4.19545,.30915-1.72749,1.3025-3.29259,1.33492-4.95826,.02792-1.43473-.34435-2.36255,.76281-3.05123,3.93621,.34193,4.90555-3.84124,6.86528-6.10247,.55758-4.85694-1.85078-7.72083,1.2282-11.91404,.05401-1.101-.468-2.10592,0-3.05123-1.03565,.01863-1.54406-.49016-1.52562-1.52562-1.4042-.1989,.99021-4.25317-.47656-4.57649,0,0-.21586-3.99729-.09554-6.8649-.41716-.63357-1.02651,.58254-1.33492,0-.31716-2.07909-.57304-1.91223,1.14421-1.23956,1.32319-.74418,0,0,2.28843-3.05123,1.15054-1.53382-1.61147-2.86389-1.51444-4.58206,.10595-1.87611,2.18694-4.19211,1.04905-5.72145,.76298-4.01815,1.53977-9.68447-.95351-12.58634,.29946-.84475,.22533-2.06309,.76281-2.66983,1.98038,1.32597,.64844,6.42651,3.24194,7.62809,1.71743-2.25341,.29872-5.83205,1.90702-7.81879,1.09896,.14638,1.81762-.45254,2.66983,0,1.51034-1.48055,3.90547-2.13423,4.38615-4.38615,.4475-2.09624-1.1973-3.56785-2.09772-5.53036,1.19654-1.41947,.39892-3.9552,1.14421-6.10247,.25159-.72482,.95406-1.14868,1.14421-1.90702,.79893-3.18532,.86113-8.52088,.57211-11.44222-.07002-.70731-2.02547-2.10964-2.47913-2.28843-2.50651-.98814-5.03574-.16871-7.24668-.76281-.34584,.41716-.6412,.88423-1.52562,.76281,1.07567-1.87201-.60638-5.29273,.95351-7.43738-.65014-1.32038-.94569-2.99536-1.52562-4.38615,1.18369-.6641,2.4698-1.90405,2.66983-3.62334,.04617-.39817-.27955-.9103-.1907-1.33492,.08957-.4287,.66559-.7695,.76281-1.14421,.21881-.84363-.1542-1.75877,0-2.66983,.30001-1.77368,.4369-3.60807-.76281-5.14896-.60844-.11322-.5898,.35795-.95351,0-1.05409-2.31488-3.5524-3.1857-3.62334-6.48387-2.16813-2.72645-4.39212-5.39739-5.72106-8.963,.67322-.97958,1.10287-2.20257,1.14421-3.81404-1.82843-4.29415-3.20321-7.31839-2.86053-12.77704,1.39785-1.71688,3.51607-2.7136,4.38615-4.95826,.02216-.67715-.13782-1.53641,.57211-1.52562,.82277,.74828-.28066,1.22337-.1907,2.28843,1.16469,2.08134,3.63581,1.79138,6.29317,2.47913,2.40723-1.15259,4.70535-2.41414,6.67458-4.00475,.48942-3.61236,4.33847-5.13191,2.66983-9.72581,3.68944-3.17592,6.574-7.15644,10.67932-9.91651-.03223,.41354,.67639,.0864,.95351,.1907,1.12558-.51083,1.36526-1.01469,2.28843-1.71632,1.59396-1.21153,3.87587-3.26316,3.62334-5.33966-.08177-.67266-1.24721-2.56712-1.90702-2.86053-1.65747-.73701-3.79785,.65619-5.14896,.76281,2.00497-4.22459,8.24749-4.21173,9.53511-9.1537,.75964,.06034,.51642-.882,1.14421-.95351,1.75822-.2124,2.03607-1.90506,4.00475-1.90702,1.24439-1.36182,14.99768-11.44641,15.44688-11.44213,1.02483-1.57888,3.76078-3.86256,3.24194-6.10247Zm-167.0551,67.50857c-1.59454-.03259-2.43351,1.2258-3.81404,1.90702-.62762,.89802-.34658,2.70484-1.52562,3.05123-.56169-.58254-.69429-1.59416-.76281-2.66983,2.20852-.84289,2.992-3.11045,5.91177-3.24194-.15756,.53896,.26872,.4939,.1907,.95351Zm-32.99147,74.37394c.68271,.08008,.91756,.60786,.95351,1.33492-.84494-.04506-1.36175-.41791-1.52562-1.14421,.15344-.10094,.30951-.1989,.57211-.1907Zm1.33492,13.34915c-.61067,.51512-24.95704,17.7111-26.1262,17.5446-.90473-.12888-.56131-.94941-1.14421-1.33492-.90454-.59818-1.71744,.16612-2.09772-.57211,.05288-.90063,1.1563-.75089,1.52562-1.33492,2.34186-4.90461,26.67017-21.19588,27.27041-21.74005,.22179-.03091,.33932,.04209,.3814,.1907-.07189,2.32641,.54211,5.49573,.1907,7.24668Zm16.01898,10.48862c-1.24292,1.20939-4.04702,1.11702-4.76755-1.14421-.4019-1.26117-.31008-3.31717-.76281-4.95826-.27823-1.00864-.94626-1.77256-1.14421-2.47913-.79187-2.82552-1.25616-6.40342-.76281-8.3909,1.14793,.94979,2.76518,1.43027,4.57685,1.71632-.55349,.97586-1.64425,2.92274-.3814,4.00475-1.71186,2.32493,1.1727,4.38243,.95351,7.05598,1.41741,1.02279,3.05999,1.94613,2.28843,4.19545Zm16.01898-14.30266c-.16036,.47527-.24955,1.02167-.1907,1.71632-1.09804,.27152-.80583-.84699-1.71632-.76281-.07767-1.37924,1.15165-1.21908,1.90702-.95351Zm-8.00949,80.47631v-.76281h.76281c-.06575,.44287-.12348,.89355-.76281,.76281Zm1.42355-23.43718c-1.62768-5.82908,3.08215-2.74228,3.04229-3.67195,.6006-.092,1.10138-1.98523,1.8139-2.18898,1.11033-.87864,3.21551-3.71423,5.25102-3.03857-.25384,1.81167,1.52859,9.97536,.47004,11.04806,1.48614,1.73754-3.01212-.19238-3.62576,1.396-.7913,2.04818-.4139,4.79902,.13959,7.98603,2.16859,.91663,3.83117,2.20759,.9184,5.6961-.2462-2.00424-.60964-3.91796-.9184-5.6961-1.90162-.80398-4.19219-1.32002-4.12849-2.77748-.47658-.60414-1.78747-8.84772-2.9626-8.75311Zm2.58119,22.67437c.88497-1.21275,2.17425-2.02137,2.47913-3.81404,.64156,1.47274,1.84071,3.34921,2.09772,4.57685-.53114,.7401-1.27961,1.26304-2.09772,1.71632-1.19898-.45366-1.51986-1.7856-2.47913-2.47913Zm1.14421,6.29317c.20037-1.26153,.79651-2.12751,1.14421-3.24194h.57211c.49798,1.79045,.63393,3.94292,2.66983,4.19545-.17135,.55832-.17135,.58589,0,1.14421,.4881,.27452,1.34516,.18065,1.71632,.57211-.54529,.85332-1.47758,1.31928-2.66983,1.52562-.3814-2.16142-2.42047-2.66499-3.43264-4.19545Zm24.15138,33.1263c-.13818,.43431-.16984,.97437-.3814,1.33492-2.30547-.61623-4.37051,.75499-7.07246,1.20829-.99859,.22291-2.02446,.17375-3.0709-.16576-1.0092-.3274-1.96679-.74101-2.9731-.96951-.00475,.02178-.00679,.04413-.01266,.06554-.41045-.22497-5.60597,.13967-6.48387,.3814,.21864-.79037,.33234-2.59794,.35207-3.1898-.88871,.06259-1.50401-.14861-2.09772-.3814,.02309-1.99789,1.55001-9.08665,2.38136-10.79477,1.15985,.04804,.5518,6.08197,1.43269,6.40862,.15802,1.23733,2.02573,3.02274,3.29501,4.70928,.75295-.8794,1.87807-1.51612,2.86705-1.9871,.35133-.16725,.75015-.35087,1.17074-.51102,.02916-.36632,.05485-.72389,.05969-1.06061,.00671-.46688,1.13649-1.42393,1.41369-.76447,.20468,.48681,.44371,.95517,.70518,1.41108,.2732,.02103,.53858,.07895,.78888,.18641,.21891,.09405,.22814,.27301,.1394,.46577,.07998-.00484,.15969-.01285,.23987-.01564,.80982-.02868,1.55512,.07394,2.26356,.30224-.04367-.14898-.09852-.29833-.16603-.44752-.30766-.26407-.60376-.54007-.95351-.76281,.85965-2.68062-2.32195-10.84842-.69501-12.91187,.19145,.14451,2.86686,7.27575,2.79274,7.95362,1.10064,3.4129,2.5741,6.45296,4.00475,9.53511Zm-.31361-40.56369c-1.02279-.25663-.81441-1.72116-.3814-2.47913,.92893,.17468,.87267,1.95395,.3814,2.47913Zm.36798-25.48407c-.79632,1.1606-2.26169,.60563-1.71119,1.78932,.59669,.03911,.6454,5.25884,.96181,5.57804,.16461,.92744-.54604,.97958-.3814,1.90702,.1013,.53412,.91886,.35272,1.33492,.57211,.61643,1.79306-.92447,2.30929-1.33492,3.62334-3.98016-.67974-3.18385,6.56246-4.76755,9.53511,.71046,.56093,.72072,1.8221,1.71632,2.09772-.07451,1.64183-1.75766,1.67498-3.43264,1.71632-2.58007-2.24336-2.0076-5.60672-2.47913-9.34441,2.77979-.73264,.14404-.79559,4.00475-1.71632-.50973-1.94911,.32534-6.63546-.29276-8.59426-.45162-.51438-5.26721-.71439-6.58594-.87082,.06072-1.08239,1.67461-9.67777,1.90702-10.29792,1.07308-1.15241,4.61429-.95202,6.29317-1.33492,.33207-1.13006,3.52799,0,4.95826,1.14421,1.20306,1.77088-.50858,4.19545-.1907,4.19545Zm3.82747-5.98179c-1.36343-1.49917,.61419-3.7362,.95351-5.33966,.39165,.98814-.19463,4.23717-.95351,5.33966Zm3.05123-19.83302c-1.62768,8.66429-5.82313,4.27814-4.48821,14.19465-.81775,1.63289-10.79926,1.46602-13.73056,2.95588-.58273,.13782-.69502-.1948-1.14421-.1907-.52872,.61568-5.5637,1.06376-7.24668,1.71632-.64827,.25142-.95929,1.12633-1.90702,1.71632-1.70085,1.05891-6.93307,.00782-8.20019-.76281,.15792-2.02547,.56186-1.05817,.29276-3.41998,.87771-.1784,.78794,.61048,1.14421,.95351,.98852-.2827,1.63548-.90696,2.66983-1.14421-.5952,.99262,.38158,1.84891,.3814,2.86053,.86411-.16648,1.32633,.91291,2.28843,.76281,2.16029-.3367,2.14466-3.64867,.57211-5.14896-.97476,.46632-1.5977,.16984-2.66983,.3814-.02086-1.3081,.11583-2.21766-.3814-3.43264-.33802-.82576-1.33175-1.3189-1.33492-2.09772-.00355-.84178,1.06599-1.27271,1.33492-2.09772,.33131-1.01608-.46783-2.00758,.3814-2.86053,2.52513,1.87947,7.7361-.39332,6.29317-4.00475-.78945-1.97592-3.2721-1.31815-5.33966-.57211,.01377-1.06711,.47899-1.68243,.76281-2.47913-2.71789-1.24702-1.60106-5.28788-2.09772-8.00949,.68626-.26706,1.43696-.47004,1.71632-1.14421-.20746-1.31815-1.0161-2.03515-1.14421-3.43264-.36373-.35793-.34509,.11324-.95351,0-.04935-.93936-.07376-1.85338,.95351-1.71632,.00521,.1855,.23334,.14787,.3814,.1907-.09053,.66523,.38754,1.90405,.1907,2.47913,1.09671,1.3189,4.33641,.49464,5.53036,1.71632,1.22969-.1084,2.60148-1.08126,3.81404-.57211,1.42001-1.94314,4.18669-1.60459,6.10247-2.47913,2.07276,1.11033,3.89299-.35459,6.10247-.57211,1.73531-.17096,4.21742,.25253,5.91177-.76281,.42292-.25327,.28735-.98442,.95351-.57211-.24025,.84029-1.46417,.69726-1.33492,1.90702,.54863,.71551,.87622,2.36404,.1907,3.24194,.76243,1.14459,1.2835,2.53052,2.28843,3.43264,.78533,.14974,.97865-.29277,1.71632-.1907-.55237,3.53245,.587,6.2455,0,9.1537Zm72.15151,92.65629c-.76243-.31807-.84958-1.31182-1.90702-1.33492-.43429-1.2783,.66225-1.27978,.76281-2.47913,1.49135,.11026,1.92901,2.61323,1.14421,3.81404Zm-1.71632-4.38615c-1.07177-.26332-2.05396-.61568-2.47913-1.52562,.86394-.23613,2.39961,.35682,2.47913,1.52562Zm-3.24194-3.62334c-.12552,.69765,.4127,.73153,.3814,1.33492-1.055,.42723-1.35614-1.42765-.3814-1.33492Zm.50601-184.76553v.76281c-.22125,.16017-.51122,.25142-.95351,.1907-.04359-.67938,.27413-.99709,.95351-.95351Zm-16.97249-40.81026c.22888,.25049,.0743,.29994,0,.57211,2.51544,.28653,6.30471-.15931,6.67458,1.90702-3.28589-1.19011-6.92413-.84801-10.10721-2.09772,.71736-.84893,1.89993-.21835,3.43264-.3814Zm-36.99622,16.40039c2.69329-.713,6.03746-1.66678,8.20019-2.28843,1.36358-2.29569,5.1363-1.95199,7.62809-2.66983,3.84438,.1759,8.02587-.89289,12.01424-.57211,.87715,.07057,1.75505,.64,2.66983,.76281,2.58323,.34687,4.85581-.61261,7.05598,.57211,2.9056-.57396,6.56246,.77379,9.53511,1.33492,.95481,.0649,1.05332-.72658,2.09772-.57211,1.10863,.73478,1.18071,2.50613,2.09772,3.43264,.71866,.14657,.91159-.2326,1.52562-.1907,1.01793,1.51185-.10542,2.84713,.3814,4.76755-2.16701,.34565-3.73044,2.19922-6.29317,1.52562,.39815-1.10882-.15552-2.03348,0-3.43264-3.74366-3.17786-9.23193-5.42811-15.82828-4.38615-.91907,.92437-1.44611,2.24075-2.66983,2.86053,.1067,1.37813-.11211,2.43071-1.14421,2.66983-.77473-.09274-1.98803-1.28724-2.66983-2.09772-2.33797,.04396-4.31185-1.95031-6.48387-1.71632-1.41835,.15271-2.19775,1.46899-3.62334,1.90702-.70062,5.1892,6.88873,4.13623,5.14896,8.5816-.24583,.26277-.82837,.18885-1.33492,.1907-1.36285,2.00628-4.79997,1.93831-5.53036,4.57685,.23129,1.1673,.9319,1.86512,1.71632,2.47913-.22665,2.73557,.88311,5.56761,3.43264,6.86528,1.76939-.14022,1.92935-1.09002,3.24194,0,1.09448-.24061,1.8681-.80154,2.09772-1.90702,1.53082-.2339,2.41282-.21826,3.43264-1.14421,2.35471-.07003,4.95732,.15607,6.48387-1.14421,2.80931,.28643,4.04235,.83507,6.29317,.76281-.88293,3.18531-2.35101,5.7855-4.38615,7.81879-.39147,2.64004-2.78419,4.63942-3.43264,7.62809-2.92833-1.61538-7.16958-.73897-11.25143-1.14421-1.25409-1.97127-.92372-5.17949-3.62334-6.10247v-1.52562c-1.86251-2.71415-2.995-6.15871-5.33966-8.3909-.32274-1.83141,.15344-3.58236-.1907-5.33966-.35776-1.82656-2.55438-3.03783-1.71632-6.29317,.31939-1.24067,1.69471-1.75095,2.09772-3.62334-1.87052-3.03112-7.02581-2.33795-9.53511-.3814-1.71744-.25327-2.1672-1.77404-2.09772-3.81404Zm43.8615,12.58634c-2.9261,1.71893-4.54632,1.60049-7.81879,.76281-.59074-1.24813-.23763-2.39066-.3814-4.19545,.45534-.75238,1.15091-1.26451,1.33492-2.28843,1.54535-2.04427,4.28538-.62873,7.62809-.95351-.08902,.40692,.27246,.36315,.57211,.3814-.40339,.93154-1.62972,1.03991-1.90702,2.09772,.49127,1.44442,.82166,2.52923,.57211,4.19545Zm-13.92126,49.96397c-.73916,1.92453-1.82937,4.32097-1.71632,6.48387-.66896,.32963-1.23807-.1814-1.90702-.3814-.09014-1.53828,1.17549-4.63719,1.52562-6.29317,.32776-1.55056-.1367-3.43636,.1907-4.19545,.49985-1.15911,2.18598-1.4407,2.66983-.1907-.54028,1.38482-1.38055,3.10711-.76281,4.57685Zm-44.81501-51.48958c3.31194,1.32263,8.09067,1.79565,11.44213,2.28843-.11547,1.80181-3.05999,1.55653-4.57685,2.28843-.65705-.29648-1.54146-.36558-1.90702-.95351-.58328-.13818-.56093,.32888-1.14421,.1907-.70247-.18735-1.09934-.68048-1.71632-.95351-.75182-.05252-.58311,.81533-1.33492,.76281-.39315-.75108-1.03435-1.2541-1.71632-1.71632-.17022-1.12373,.82315-1.08387,.95351-1.90702Zm21.74005,59.88048c-.34212-.0242-.40227,.23353-.76281,.1907-.02515-.47004-.02887-.91886,.1907-1.14421,.59575-.08715,.60971,.40747,.57211,.95351Zm3.81404-17.16319c-.93118-.14972-1.36733-.79408-1.90702-1.33492-2.99147-.32068-4.35022,.66374-6.86528,1.90702-.21362-1.62991-1.48969-2.19717-2.09772-3.43264,.1-2.02081,1.57571-3.79522,1.52562-6.29317-.01417-.7034-.39277-1.6057-.3814-2.47913,.00931-.72333,.4734-1.35633,.3814-1.90702-.10672-.63803-.83657-1.15575-.95351-1.90702-.27917-1.79416,1.08311-4.06434-.57211-5.33966-.76674,2.45306-1.19879,5.62255-1.71632,9.34441-3.77569-.59203-7.43292-2.62736-11.06073-1.33492-.62482,1.028-1.33083,1.97463-1.71632,3.24194,.63225,2.60968,1.83047,4.6534,3.05123,6.67458,.61475,.27526,1.59955,.18027,2.47913,.1907-.60786,2.37968-3.18068,2.79461-3.81404,5.14896-.73767-.10204-.93099,.34044-1.71632,.1907-.53469-2.62067-.49929-6.88017-.1907-9.1537-1.06042-2.64878-.34584-5.77004-2.28843-8.00949,.82761-1.58819,1.17923-3.65202,2.66983-4.57685,.42534-4.17533,.76876-7.45041,3.05123-9.53511,.97697,1.24795,2.68156,1.7681,4.00475,2.66983,1.6191-.61791,3.79522-.48345,4.57685,.76281,1.6003,.28867,2.51096-.77658,3.81404-.1907,1.06728-.45831,1.78038-1.27084,2.66983-1.90702,1.95228,.39965,1.89527,2.80876,3.43264,3.62334-.21938,2.26907,1.00843,4.52807,2.66983,5.53036,1.16731,3.33618,3.0773,6.54682,7.24668,6.29317-.29128,4.02896,4.65153,3.71646,7.43738,4.00475-.47714,1.3027-1.0025,2.55735-2.09772,3.24194-3.05404-.75871-3.53451,3.65315-5.14896,5.53036-2.13014-.76876-3.94366-2.19492-6.48387-.95351Zm6.10247,24.79138c1.15203-.23651,3.08028-.00485,4.19545-1.14421-.62798-1.76512,.49834-2.09401,.76281-3.43264,1.57533,.90397,.79596,4.1623,2.28843,5.14896-.75201,2.10816-4.36977,1.48725-4.00475,4.19545-2.3443-.32553-2.09997-3.23971-3.24194-4.76755Zm-19.83302,28.03322c-.37507,.57844-.9714,.93564-1.90702,.95351,.12831-.82502,1.04848-.85852,1.90702-.95351Zm4.57685,55.11292c-.69316-.8697-2.85794-2.54318-1.33492-3.81404,.59743,.10168,.61288,.78552,1.52562,.57211-.3814,1.04924,.06257,2.46498-.1907,3.24194Zm24.60058,2.86053c-.65089-.42982-1.553-.60823-1.71632-1.52562-.83415,1.3271-1.78934,2.53313-3.05123,3.43264-.62854-.33819-.95296,.203-1.33492-.3814-.50097,.13483-.37639,.89504-.76281,1.14421-1.82491-.85108-3.09147,.79262-4.57685,1.14421-2.08731,.4939-4.75564-.45553-6.48387,1.33492-.54028-.28605-1.43959-.21305-1.90702-.57211-.12813-.48867-.10653-1.64034-.95351-1.90702,.87082-3.16335-3.33506-2.71825-3.81404-5.14896,.71773-.20672,2.04799,.44659,2.47913,1.14421,1.12633-.717,3.74587,.05885,4.38615-1.14421,.64045,1.01236,.45515,2.85048,1.33492,3.62334,2.26979,.27301,2.6659,2.41953,5.91177,1.71632,1.06896-.8712,2.9637-1.73644,3.24194-3.43264,.21061-1.28388-.60973-2.1737-.57211-3.43264,.25346-.19145,.70955-.18027,.76281-.57211,1.65224,1.51742,3.7781-.55721,5.53036,0-.14322,1.35093,.1648,2.2508,.95351,2.66983,1.37885,.17096,.86466-1.55094,2.09772-1.52562,.33707,1.26527-1.30942,2.09511-1.52562,3.43264Zm6.48387-3.81404c-.75108-.30617-1.30438,.37507-1.52562-.3814-.82708,.18996-1.1338,.90025-2.09772,.95351-.00355-2.30855,2.61786-4.17907,4.95826-4.19545,.02178,1.67461-.94123,2.3644-1.33492,3.62334Zm-2.47913-20.59583c-.10319-.99299,.81104-.96879,1.71632-.95351-.35553,.53448-1.04459,.73525-1.71632,.95351Zm5.72106-20.59583c-.27917,.16574-.60453,.28569-.57211,.76281-1.52339,.08307-2.21096,.07077-3.24194,1.14421-.94552,.98442-.87679,2.57076-2.47913,2.47913-.8794,.8008,.60077,2.77823-1.14421,2.66983-.06091-.44212,.03053-.73226,.1907-.95351-.78815,.26929-.31289,.61643-.3814,1.52562-.82669,1.84296-1.50197,3.83788-2.47913,5.53036-1.84594,.42349-4.17926,1.41463-6.10247,.76281-1.49732,.75015-3.38832,2.54318-1.90702,4.57685,.23577,.61717-.61719,.14564-.3814,.76281,.1231,1.48017,1.70644,1.35204,2.47913,1.71632,2.21951-1.45298,6.07415-1.36173,8.5816-1.52562,.7913,2.10554,.87715,5.95162,1.71632,8.00949-.97718,2.07427-4.31241,1.79006-4.95826,4.19545-1.53624,.30728-2.7177,.96915-4.38615,1.14421-2.36461-1.28724-4.83722,.47973-7.24668-.3814-2.16142,1.08052-3.92411,2.55958-6.67458,3.05123-.79765-3.62036-4.1381-5.26926-8.00949-4.76755-1.32412-1.53641-.55796-5.16311-3.62334-4.95826,.20504-1.63847,1.02241-2.66462,1.71632-3.81404,.33073-3.03224-1.30271-6.1412-.3814-8.3909,.38959,.1825,.75461,.3896,1.14421,.57211-1.04049,.77622-.31418,2.05192,0,3.05123,2.09511,.40562,3.76953,.39481,5.53036-.76281,.42424-2.1819,3.11399-2.09847,3.43264-4.38615-.47546-1.62246-2.29811-1.89733-3.62334-2.66983-.97437,.75238-2.627,.57508-3.81404,.3814-.95557,.06146-.94943,1.08462-2.09772,.95351-1.64315-4.76607,2.40165-6.00153,2.09772-9.91651-1.22673-.04321-.87343,.83209-.57211,1.52562-.87233,.9714-1.14963,2.53724-2.47913,3.05123,.59463-3.13205-.56745-6.00079-1.14421-8.5816,1.78633,.77622,3.29295,.81756,5.53036,.3814,.34656-.22533,.14991-.99411,.3814-1.33492,.73729-.41493,1.73196,.04321,2.28843-.1907,.12478-.74456-.09573-2.18711,.57211-2.86053,1.64181,2.33871,.12514,6.51143,3.05123,8.20019-.33001,1.66493,1.05407,1.61576,1.14421,2.86053,1.24813-.1732,1.4608,.61419,1.52562,1.14421,2.15209,.6764,4.35114-.53597,6.10247-.1907,.33503-.17358,.34881-.6682,.57211-.95351,3.04359,.24658,2.3091-3.28477,4.19545-4.19545-.52052-4.01592-1.12653-8.37898,.3814-12.39564,.99615,.12701,1.50027-.5911,2.09772-1.33492-.02868-.79782-.52258-1.13006-.57211-1.90702,1.38576-1.52413-.63841-3.42147,.1907-4.76755-1.12541-.92893-.97773-2.33833-.1907-3.43264-.61196-1.23136-1.22616-2.4605-2.66983-2.86053,1.28518-1.79714-.3814-3.81591,1.14421-5.14896-.90101-.40971-.9673-.90545-.76281-2.09772,1.48389,1.24403,2.96761,3.24827,4.95826,2.86053,1.12539-.219,2.99572-2.11039,3.24194-3.62334,.24171-1.48576-.46466-3.23822-.3814-4.76755,2.11988-.44994,1.80608-2.92608,3.24194-4.38615h1.52562c.3732,2.32493-.98313,5.00481-.3814,7.24668,.36054,1.34348,1.81726,1.63066,1.71632,3.05123-1.75524,.15159-2.43778,1.37626-4.19545,1.52562-2.42941,2.19569-7.16251,2.84674-6.48387,7.05598,2.21075,1.51183,5.34933,1.98115,8.3909,3.05123,.16015,1.96587,3.14491,2.61321,4.76755,1.90702-.56803,2.78082,1.75076,3.96824,1.71632,5.91177-.04209,2.37224-2.96855,3.00953-3.62334,5.53036-.22013,3.3723,.84698,5.82498,1.33492,8.963Zm19.26092,52.25239c-.94159,.37135-1.58336-.51623-2.47913-.3814-1.48242,.22274-1.43568,1.11517-2.47913,1.90702-2.6676,2.02472-4.66812,6.01681-3.76936,9.53511-2.18859,1.28016-2.32435,.08156-1.39619,2.12679-.955,1.59898-4.77108,1.16954-5.26981,2.18487-.12403-.54455,1.20139,.05233,.44546-3.06855-.00503,.02216-.00614,.01974-.0028-.01175l.0028,.01175c.09386-.42723,1.63457-10.36646,1.85954-11.64458-.91794-1.24328-.72427-2.03887-.64194-4.2826,2.33479-.78777,3.11249,1.57591,4.38615,2.47913h2.09772c2.05413,1.70478,4.28744-1.06414,6.86528-1.14421,.04209,.14861,.15977,.22161,.3814,.1907,.18344,.50208,.36874,1.63363,0,2.09772Zm1.90702-11.82353c-.59875-.09013-.50376,.51326-.95351,.57211-.44361,2.67132-3.24752,2.98195-5.72106,3.62334-.5263-.04581-.58179-.56242-.76281-.95351-1.88543,2.02659-4.01295-.25476-5.91177,1.52562,.12756-3.06092-2.47057-4.38205-1.90702-7.24668,.79689,.09312,1.34087,.43913,1.90702,.76281,4.82564,.3408,10.29363-1.6761,13.73056-4.38615,.10466,2.50297-.93955,4.07513-.3814,6.10247Zm7.00047-35.6885c-2.61861-.12811,.28773,2.20648-.71847,4.3232-.9025-.43242-1.77982-.89018-2.66983-1.33492,.09329-.60189-.34361-.67341-.1907-1.33492-1.81987,.17545-2.97284,1.08538-4.38615,0-.73842-.10279-.78535,.48608-1.33492,.57211-1.09226,4.45991,3.42015,4.79849,5.91177,6.29317,.70283,.80007,.49966,1.75059,.3814,3.05123-1.19263,.16204-2.25192-.08566-3.05123,.76281-.21324,2.62887,.49947,4.33178,2.47913,4.76755-.08698,1.31146-1.60067,1.19637-2.28843,1.90702-2.75588-.68012-9.49657,1.09618-11.24025,2.37857-.14638,1.4124-.08418,1.56696,.57211,2.28843-.27862,.1665-.73842,.15159-.57211,.76281,1.17923,1.43362,2.94656,1.07233,4.76755,1.14421-.55311,1.54461-3.4388,.75648-4.38615,1.90702-2.44766-.71886-4.49306,1.3878-6.29317,1.33492-.50097,.13483-.37639,.89504-.76281,1.14421-1.4476-.76988-2.8773,.30953-3.62334,1.33492-.16427-1.11702,.1609-2.33759,.76281-3.43264,6.66954,1.25074,4.10046-6.92487,1.52562-9.15371,.66708-1.67051-.28998-3.57603,.57211-4.38615-.09741-.53822-.4615-.8101-.57211-1.33492,1.06152-2.43817,.65628-6.46562,1.90702-8.20019-.65256-2.08767,.19106-5.77097,3.05123-5.14896,.51139-.25142,.31678-1.20901,.57211-1.71632,.91663,.16389,1.51797,.64326,2.09772,1.14421,2.91006-.51102,5.98235-.39704,8.7723-1.71632,2.74022,.55757,4.83049-2.45306,5.53036,.57211,1.7299,.68571,3.46447-.62276,3.18642,2.07053Zm-1.66081-80.25851c.08082,.39855-.13075,.50507-.1907,.76281,2.31188,.93005,1.90887,4.575,2.66983,7.05598-.8455,.90435-2.19643,.31548-3.43264,.57211-1.46808,.30468-2.77264,1.4176-4.19545,1.14421-.47526,.65851-2.16106,1.20716-2.66983,2.47913-.21828,.54566-.03129,1.59787-.1907,2.47913-.22703,1.2552-.74439,1.83253-.57211,2.66983,.28008,1.36098,2.03588,1.98674,2.09772,3.24194h2.86053c2.06718,1.11107,2.98418,3.37268,4.00475,5.53036,.79279,.60563,1.55354,1.24328,2.09772,2.09782,1.47607,.26818,2.03216-.38327,3.05123-.57211,.27188,.84065-.08698,1.19486,0,2.28843,.13408,.69242,.61456,1.03807,.95351,1.52562-.98444,3.97345,1.00268,6.20899,.76281,10.10721-1.67723,2.00983-3.0166,4.35747-5.14896,5.91177,.09609,2.83223-2.34114,4.33586-3.24194,6.67458-.82539,2.14317-.87008,3.82224-2.28843,5.14896-1.50495,.14787-2.54301,.76245-3.05123,1.90702-1.93738-.10988-2.33128,1.9629-4.19545,1.33492-3.05459,.95015-4.48709,3.5224-6.48387,5.53036,4.92975-.15643,8.82556-1.72042,14.30266-1.14421,.06089,.7602,.01041,1.40904-.3814,1.71632-.96694,.16873-1.17997,.165-1.71632-.3814-2.24933,.7859-5.72368,2.22101-8.00949,1.71632-1.95191,.09981-3.58535,1.47645-4.95826,1.52562,.18603-1.28427,.28754-2.28879-.3814-3.43264,.07151-3.28477,3.41979-6.15201,3.62334-9.53511,.10447-1.73754-.58961-3.94069-3.24194-3.81404-.18811-.44771-.33447-.93675-.3814-1.52562,1.5148-.97438,2.4698-3.77083,0-4.38615-1.03862-4.94224,.61753-10.00553,1.71632-14.49336,.58607-.04954,.85759-.4138,1.33492-.57211-.09835-1.49694,1.03936-1.75766,1.52562-2.66983,.58924-2.46124,.51232-4.03203-.57211-5.91186-.84197-.36577-1.50607-.90955-2.47913-1.14421,1.00658-2.17185,2.77653-3.58013,2.86053-6.67458-.37061-.3285-.28756-1.11107-.57211-1.52562,1.21981-3.63562,1.41051-7.13457,2.09772-11.82353,.71065-1.07548,3.69354-5.6449,3.62334-6.86528-.03633-.62983-.6576-1.48595-1.33492-1.71632,.56093-1.88393-.94626-2.71079-1.33492-4.57685,1.39897-.19032,2.85084-.3274,4.00475-.76281,.50302,1.97611,1.66565,3.29259,3.24194,4.19545,.12104,1.40458,.88274,2.16849,1.90702,2.66983,.46055,1.38297,1.12913,2.55771,2.28843,3.24194Zm3.05123-43.8615c-1.26174-4.21519,.94214-6.35462,4.57685-6.67458-.34435,1.72545-3.09929,2.5215-1.71632,4.76755,1.01217,.22451,1.26638-1.02632,2.09772-.3814-1.05557,1.78198-3.54624,1.028-4.95826,2.28843Zm23.26566-22.69356c.1596,1.24021-.31531,1.84604-.76281,2.47913-.44584-.06276-.78777-.22924-1.14421-.3814,1.02558-1.63651,2.02024-3.14314,3.81404-3.24194-.14973,.8672-1.17421,.85993-1.90702,1.14421Z"/>
  <path class="cls-2" d="M275.90448,214.88558c-.86878-2.97497,2.73053-.53671,0,0h0Z"/>
</svg>