<?xml version="1.0" encoding="UTF-8"?>
<svg id="Capa_1" data-name="Capa 1" xmlns="http://www.w3.org/2000/svg" width="210mm" height="209.99999mm" viewBox="0 0 595.27559 595.27557">
  <path d="M301.90081,306.99014c10.83937-26.38414,45.46761-54.26978,45.46761-54.26978-21.85031,.89821-48.08348,32.18356-48.08348,32.18356,0,0-10.44204-6.15002,19.10335-28.42123,26.00615-19.60335,50.62804-5.76297,49.18427-6.95057,0,0-27.65941-39.6199-86.07418-6.77194l10.69441-44.58056s-42.28878-13.9118-64.55025,81.5855c0,0,16.78278-34.3629,31.09529-31.18966,0,0-12.3988,6.36795-18.77087,34.35648,0,0,8.7333-19.78624,20.37411-16.94607,0,0-16.31756,17.87234-26.42279,46.70877,0,0,18.80869-9.77846,28.18695,16.10207,0,0-.55512-13.93212,9.54367-18.22686,10.17632-4.32771,21.10945,8.45125,18.97113,17.78685-2.50164,10.92177-11.48243,11.61949-11.48243,11.61949,0,0,7.42413,13.21347-1.07866,21.05406-11.97871,11.0458-20.5303-1.70819-20.5303-1.70819-4.18514,17.26118,14.99177,39.99549,45.63123,9.51347,0,0,1.15052,22.60388-24.75322,28.63835,0,0,24.24665,4.68578,44.01406-21.24241,24.08343-31.58935-20.51989-69.24132-20.51989-69.24132Zm-20.64496-38.78007c-2.66372,1.8615-16.31234,4.83352-12.30823,.47857,10.41349-11.32593,23.16453-9.74937,23.16453-9.74937-7.44577,4.72344-10.8563,9.27081-10.8563,9.27081Z"/>
</svg>