<?xml version="1.0" encoding="UTF-8"?>
<svg id="Capa_2" data-name="Capa 2" xmlns="http://www.w3.org/2000/svg" width="210mm" height="209.99999mm" viewBox="0 0 595.27559 595.27557">
  <defs>
    <style>
      .cls-1 {
        fill: #fff;
      }
    </style>
  </defs>
  <g>
    <rect class="cls-1" x="296.69479" y="226.77081" width="6.77654" height="4.89046"/>
    <rect class="cls-1" x="296.69479" y="236.20845" width="6.77654" height="4.89013"/>
    <rect class="cls-1" x="296.69479" y="255.08367" width="6.77654" height="4.89013"/>
    <rect class="cls-1" x="296.69479" y="264.52098" width="6.77654" height="4.89046"/>
    <rect class="cls-1" x="296.69479" y="273.95856" width="6.77654" height="4.89019"/>
    <path class="cls-1" d="M341.73673,238.37927v9.88961l77.17383,80.94112h-1.42213l-75.7517-79.45177v7.58343l27.64357,28.99334h-1.42088l-26.22269-27.50366v7.58303l18.99352,19.92063h-1.42088l-17.57264-18.43095v7.5831l10.34355,10.84786h-1.42088l-8.92267-9.35818v7.58336l1.69351,1.77482h-1.42088l-.27263-.2854v57.91828h33.71802v35.16359h46.58561v-56.52729l-80.30363-84.22491Zm37.33771,58.12244l31.18615,32.70829h-1.42351l-29.76264-31.21762v-1.49067Zm0,9.07278l22.5348,23.63551h-1.42213l-21.11267-22.14458v-1.49093Zm0,9.07304l13.88482,14.56247h-1.4222l-12.46262-13.07214v-1.49034Zm-34.40206-24.25912h30.91096v13.7276h-30.91096v-13.7276Zm30.91096,44.57003h-30.92893v-22.94983h30.92893v22.94983Zm.06426-24.09551h-30.99319v-1.09782h30.99319v1.09782Zm0-2.31645h-30.99319v-1.09782h30.99319v1.09782Zm0-2.31619h-30.99319v-1.09815h30.99319v1.09815Zm3.42685,17.49035l5.23478,5.48937h-1.4222l-3.81258-3.99903v-1.49034Zm1.44149,27.94345v-1.09808h36.3553v1.09808h-36.3553Zm36.3553,1.21771v1.09947h-36.3553v-1.09947h36.3553Zm-36.3553-3.5335v-1.09815h36.3553v1.09815h-36.3553Zm36.37584,20.44397h-36.37584v-14.56373h36.37584v14.56373Zm0-22.7354h-36.37584v-14.3281h36.37584v14.3281Z"/>
    <path class="cls-1" d="M323.00681,364.30032h-8.03796v-16.21477h3.60303v-80.91314l-9.60928-.00869v18.3773h-22.64961v-18.3773l-9.60928,.00869v80.91314h3.60401v16.21477h-8.0373l-3.5834,11.85186,2.8276,8.48157h1.84329v2.83142h48.5611v-2.83142h1.84262l2.82761-8.48157-3.58242-11.85186Zm1.73209,11.06874h-21.22386v-2.78132h20.38287l.84099,2.78132Zm-1.30646-4.3244h-13.35372v-.39219l1.6176-1.74618h11.08934l.64678,2.13836Zm-1.57263-5.20002l.45908,1.51733h-9.19141l1.40679-1.51733h7.32555Zm-4.91844-26.08087h-1.97252v-26.76854h1.97252v26.76854Zm0-49.84727v15.95761h-1.97252v-15.95761h1.97252Zm-9.05118,0h5.53434v15.95761h-5.53434v-15.95761Zm0,25.48104v-2.4023h5.53434v26.76854h-5.53434v-24.36623Zm-4.58991-25.48104h2.2734v15.95761h-2.2734v-15.95761Zm0,25.48104v-2.4023h2.2734v26.76854h-2.2734v-24.36623Zm-.38574,48.45273h.38574v-15.76471h2.2734v15.76471h2.31652v-15.76471h5.53434v16.68537l-4.89013,5.27593v.99782h-5.01936v-6.03581h-.60049v-1.15859Zm-4.03248-73.93377h2.1011v15.95761h-2.1011v-15.95761Zm0,25.48104v-2.4023h2.1011v26.76854h-2.1011v-24.36623Zm-4.59057-25.48104h2.2734v15.95761h-2.2734v-15.95761Zm0,25.48104v-2.4023h2.2734v26.76854h-2.2734v-24.36623Zm-.38574,48.45273h.38574v-15.76471h2.2734v15.76471h2.31718v-15.76471h2.1011v15.76471h.38574v1.15859h-7.46314v-1.15859Zm-.60055,2.70291h8.66551v4.49149h-8.66551v-4.49149Zm0,6.03456h8.66551v2.78132h-8.66551v-2.78132Zm-3.6033-82.67124h2.27372v15.95761h-2.27372v-15.95761Zm0,25.48104v-2.4023h2.27372v26.76854h-2.27372v-24.36623Zm0,35.71754v-3.02953h2.27372v15.76471h.3858v1.15859h-.60056v6.03581h-5.01903v-.99782l-4.89013-5.27593v-16.68537h5.53368v15.76471h2.31652v-12.73519Zm-7.8502-38.11984h5.53368v26.76854h-5.53368v-26.76854Zm5.53368-23.07874v15.95761h-5.53368v-15.95761h5.53368Zm-9.05184,0h1.97417v15.95761h-1.97417v-15.95761Zm0,49.84727v-26.76854h1.97417v26.76854h-1.97417Zm-4.91745,26.08087h7.32653l1.40607,1.51733h-9.19069l.45809-1.51733Zm-.9252,3.06165h11.08934l1.6176,1.74618v.39219h-13.35273l.64579-2.13836Zm-1.1129,3.68144h20.38287v2.78132h-21.22353l.84066-2.78132Zm51.27131,10.50294h-50.0218l-2.05897-6.17729h54.13947l-2.0587,6.17729Z"/>
    <path class="cls-1" d="M253.53919,238.37927l-80.30396,84.22491v56.52729h46.58659v-35.16359h33.71736v-57.93757l-.29027,.30469h-1.42029l1.71056-1.79404v-7.58343l-8.94097,9.37747h-1.41956l10.36054-10.86715v-7.5831l-17.59068,18.45024h-1.42055l19.01123-19.93992v-7.58336l-26.24132,27.52328h-1.42055l27.66187-29.01263v-7.58343l-75.76902,79.47106h-1.42318l77.1922-80.96074v-9.86999Zm-38.77886,115.60199h-36.35655v-1.09947h36.35655v1.09947Zm0-2.31718h-36.35655v-1.09808h36.35655v1.09808Zm0-2.31579h-36.35655v-1.09815h36.35655v1.09815Zm1.42312-24.13732l-3.81291,3.99903h-1.42055l5.23346-5.48937v1.49034Zm0-9.07311l-12.46289,13.07214h-1.42154l13.88443-14.56247v1.49034Zm0-9.07245l-21.11293,22.14458h-1.4222l22.53513-23.63551v1.49093Zm34.43808,27.89302h-30.9286v-22.94983h30.9286v22.94983Zm-30.9286-44.57003h30.9286v13.7276h-30.9286v-13.7276Zm-.06459,14.74372h30.99319v1.09815h-30.99319v-1.09815Zm0,2.31652h30.99319v1.09782h-30.99319v-1.09782Zm0,2.31645h30.99319v1.09782h-30.99319v-1.09782Zm-3.44489-13.26339v1.49067l-29.7633,31.21762h-1.42213l31.18543-32.70829Zm-37.8006,36.22705h36.37748v14.3281h-36.37748v-14.3281Zm0,22.49977h36.37748v14.56373h-36.37748v-14.56373Z"/>
    <g>
      <polygon class="cls-1" points="319.60182 239.25398 340.70679 265.17546 340.70679 257.73062 319.60182 231.81144 319.60182 239.25398"/>
      <polygon class="cls-1" points="319.60182 248.32708 340.70679 274.24824 340.70679 266.8034 319.60182 240.88448 319.60182 248.32708"/>
      <polygon class="cls-1" points="319.60182 230.18127 340.70679 256.10268 340.70679 248.65784 319.60182 222.73866 319.60182 230.18127"/>
      <polygon class="cls-1" points="319.60182 257.39953 340.70679 283.32095 340.70679 275.87611 319.60182 249.95726 319.60182 257.39953"/>
      <path class="cls-1" d="M297.5949,209.09757h-10.25223v75.41377h20.58992v-75.41377h-10.33769Zm-5.44822,10.89579h14.92826v6.26281h-.94258v-1.06214h-4.63356v-4.42433h-7.20605v4.42433h-.51564v1.06214h-1.63044v-6.26281Zm13.04126,28.38804v.61017h-.70853v-.61017h-.90011v.61017h-.70721v-.61017h-.90137v.61017h-.70728v-.61017h-.90137v.61017h-.70721v-.61017h-.90143v.61017h-.70846v-.61017h-.90011v.61017h-.70721v-.61017h-.90143v.61017h-.70853v-.61017h-.90005v.61017h-.1929v-4.11833h12.82584v4.11833h-.47059v-.61017h-.90203Zm-1.20099,2.6698v-1.03001h1.11481v30.71457h-10.29596v-30.71457h1.3746v1.03001h7.80655Zm1.11481-24.82755v17.62024h-10.29596v-17.62024h10.29596Zm-9.78033-1.02961v-3.39505h5.14867v3.39505h-5.14867Zm10.81092,18.64986v-16.55811h.94258v16.55811h-.94258Zm-13.98568,38.60881v-55.16692h1.63044v16.55811h-1.07241v6.17729h1.07241v31.74418h12.35525v-31.74418h.94258v32.43152h-14.92826Z"/>
      <polygon class="cls-1" points="318.57189 220.77865 318.57189 210.02369 316.76908 207.8104 308.9626 207.8104 308.9626 220.77002 318.57189 220.77865"/>
      <rect class="cls-1" x="276.70371" y="221.80382" width="9.60928" height="8.04342"/>
      <polygon class="cls-1" points="275.67443 221.08538 275.67443 211.28768 254.56881 237.20726 254.56881 247.00713 275.67443 221.08538"/>
      <polygon class="cls-1" points="286.31299 220.77002 286.31299 207.8104 278.50526 207.8104 276.70371 210.02369 276.70371 220.77865 286.31299 220.77002"/>
      <polygon class="cls-1" points="340.70679 247.02964 340.70679 237.20726 319.60182 211.28768 319.60182 221.10849 340.70679 247.02964"/>
      <polygon class="cls-1" points="254.56881 274.22572 275.67443 248.30391 275.67443 240.8613 254.56881 266.78055 254.56881 274.22572"/>
      <polygon class="cls-1" points="254.56881 283.29876 275.67443 257.37668 275.67443 249.93408 254.56881 275.85359 254.56881 283.29876"/>
      <polygon class="cls-1" points="254.56881 292.36897 275.67443 266.44972 275.67443 259.00719 254.56881 284.92637 254.56881 292.36897"/>
      <rect class="cls-1" x="276.70371" y="230.87676" width="9.60928" height="8.0431"/>
      <polygon class="cls-1" points="254.56881 265.15294 275.67443 239.2312 275.67443 231.78859 254.56881 257.70777 254.56881 265.15294"/>
      <polygon class="cls-1" points="254.56881 256.08023 275.67443 230.15842 275.67443 222.71582 254.56881 248.63506 254.56881 256.08023"/>
      <rect class="cls-1" x="276.70371" y="239.94947" width="9.60928" height="8.04326"/>
      <rect class="cls-1" x="308.9626" y="258.09519" width="9.60929" height="8.04323"/>
      <rect class="cls-1" x="276.70371" y="249.02241" width="9.60928" height="8.04326"/>
      <rect class="cls-1" x="308.9626" y="230.87676" width="9.60929" height="8.0431"/>
      <rect class="cls-1" x="308.9626" y="239.94947" width="9.60929" height="8.04326"/>
      <rect class="cls-1" x="308.9626" y="221.80382" width="9.60929" height="8.04342"/>
      <rect class="cls-1" x="308.9626" y="249.02241" width="9.60929" height="8.04326"/>
      <polygon class="cls-1" points="319.60182 266.47257 340.70679 292.39181 340.70679 284.94888 319.60182 259.02997 319.60182 266.47257"/>
      <rect class="cls-1" x="276.70371" y="258.09519" width="9.60928" height="8.04323"/>
    </g>
  </g>
  <g>
    <path class="cls-1" d="M330.51249,336.73103c-.05397,0-.30625-.02698-.30625,.36916v1.56669l.7575,.24302v-1.62082c0-.41402-.28934-.55805-.45125-.55805Z"/>
    <path class="cls-1" d="M319.60191,268.10378v79.8865l21.10495-4.02254v-49.92077l-21.10495-25.94318Zm7.29214,61.10623h-3.346v-3.34649h3.346v3.34649Zm0-25.56655h-3.346v-3.34583h3.346v3.34583Zm8.61533,39.70462l-7.56231-2.43928v-4.67276c0-1.89033,.73832-2.42139,1.62001-2.42139,.72044,0,1.47761,.39533,1.85571,1.44916l.1619,.07201c.25228-.36006,.54033-.87307,1.50329-.87307,1.81832,0,2.42139,1.73721,2.42139,4.04205v4.84328Zm0-8.59793l-7.56231-2.43993v-7.15706l2.34044,.76498v4.19583l.51432,.1619v-4.19566l1.8271,.60372v4.17713l.53122,.17101v-4.16819l2.34922,.76514v7.12114Zm0-13.19819l-1.74647,.35112v1.64748l1.74647,.55772v2.96205l-7.56231-2.43098v-4.09618c0-2.02509,.7484-3.00691,2.31313-3.00691,1.34269,0,2.32386,.72938,2.89995,1.68356l2.34922-.50408v2.83623Zm0-3.08868l-7.56231-2.43976v-7.1569l2.34044,.76465v4.1955l.51432,.16174v-4.19469l1.8271,.60307v4.1773l.53122,.17101v-4.16852l2.34922,.76563v7.12097Zm0-13.80175l-.81927-.00862v2.85362l.81927,.51318v3.14183l-7.56231-5.03233v-4.16835l7.56231-.24334v2.944Zm0-9.5344l-2.64637,1.59384v.26074l.84593,1.06245,1.80044,.58503v2.95262l-7.56231-2.4752v-2.944l2.11677,.69329v-.36932l-2.11677-2.47569v-3.34925l3.43085,3.99751,4.13146-2.47601v2.944Z"/>
    <path class="cls-1" d="M332.81815,337.28062c.00878,0-.34234-.05462-.34234,.3781v1.73737l.77408,.25261v-1.81052c0-.33307-.17978-.55756-.43174-.55756Z"/>
    <path class="cls-1" d="M330.90977,320.56169c-.39728,0-.51432,.21587-.51432,.67492v1.23313l1.22533,.3963-.00878-1.48509c0-.25261-.18011-.81927-.70223-.81927Z"/>
    <polygon class="cls-1" points="332.521 304.61651 330.71178 304.58985 330.71178 305.00355 332.521 306.13801 332.521 304.61651"/>
    <path class="cls-1" d="M254.56888,343.96774l21.1056,4.02254v-79.90942l-21.1056,25.94302v49.94386Zm13.81346-43.67011h3.34567v3.34583h-3.34567v-3.34583Zm0,25.5659h3.34567v3.34649h-3.34567v-3.34649Zm-11.25227-22.45869l1.09886,.0117v-3.82846l-1.09886-.68923v-4.21501l10.14528,6.75214v5.59183l-10.14528,.32624v-3.94923Zm0,5.48325l6.84837,2.2343v-3.55098l3.29691,1.06342v10.99023l-3.29691-1.07415v-3.46694l-6.84837-2.23478v-3.9611Zm0,8.1171l10.14528,3.27317v9.60219l-3.14053-1.02669v-5.62922l-.68793-.21668v5.62776l-2.45195-.80935v-5.6037l-.71263-.22888v5.59151l-3.15223-1.02669v-9.55342Zm0,18.89l3.40582,1.09935v-.3503l-3.40582-1.66715v-2.83802l3.40582,.39874v-.35046l-3.40582-1.0987v-3.7805l10.14528,3.26098v4.78281l-4.80703-.53171v.33811l4.795,2.5963v5.18187l-10.13325-3.23644v-3.80489Z"/>
    <polygon class="cls-1" points="261.13961 303.46498 263.56783 303.50074 263.56783 302.94546 261.13961 301.42396 261.13961 303.46498"/>
  </g>
</svg>