<?xml version="1.0" encoding="UTF-8"?>
<svg id="Capa_2" data-name="Capa 2" xmlns="http://www.w3.org/2000/svg" width="210mm" height="209.99999mm" viewBox="0 0 595.27559 595.27557">
  <defs>
    <style>
      .cls-1 {
        fill: #fff;
      }
    </style>
  </defs>
  <path class="cls-1" d="M313.38431,291.98191c0-.04752,.005-.09385,.01398-.13872-.00898-.04487-.01398-.09118-.01398-.1387v.27742Z"/>
  <path class="cls-1" d="M314.08833,292.40851c-.0475,0-.09383-.005-.1387-.01398-.04487,.00898-.0912,.01398-.1387,.01398h.2774Z"/>
  <path class="cls-1" d="M313.81092,291.27787c.0475,0,.09383,.005,.1387,.01398,.04487-.00898,.0912-.01398,.1387-.01398h-.2774Z"/>
  <path class="cls-1" d="M314.51494,291.70449c0,.04752-.005,.09383-.01398,.1387,.00898,.04487,.01398,.0912,.01398,.13872v-.27742Z"/>
  <path class="cls-1" d="M313.94962,291.29185c-.27748,.05548-.49586,.27386-.55134,.55134,.05548,.27748,.27386,.49586,.55134,.55134,.27748-.05548,.49586-.27386,.55134-.55134-.05548-.27748-.27386-.49586-.55134-.55134Z"/>
  <path class="cls-1" d="M311.33801,286.53121c0,.0475-.005,.09383-.01398,.1387,.00898,.04487,.01398,.0912,.01398,.1387v-.2774Z"/>
  <path class="cls-1" d="M310.77269,286.11857c-.27748,.05548-.49586,.27386-.55134,.55134,.05548,.27748,.27386,.49586,.55134,.55134,.27748-.05548,.49586-.27386,.55134-.55134-.05548-.27748-.27386-.49586-.55134-.55134Z"/>
  <path class="cls-1" d="M310.20737,286.80861c0-.0475,.005-.09383,.01398-.1387-.00898-.04487-.01398-.0912-.01398-.1387v.2774Z"/>
  <path class="cls-1" d="M310.91139,287.23523c-.0475,0-.09383-.005-.1387-.01398-.04487,.00898-.0912,.01398-.1387,.01398h.2774Z"/>
  <path class="cls-1" d="M310.63399,286.10459c.0475,0,.09383,.005,.1387,.01398,.04487-.00898,.0912-.01398,.1387-.01398h-.2774Z"/>
  <path class="cls-1" d="M305.99339,282.13367c.04752,0,.09385,.005,.13872,.01398,.04487-.00898,.09118-.01398,.1387-.01398h-.27742Z"/>
  <path class="cls-1" d="M306.69743,282.56027c0,.04752-.005,.09383-.01398,.1387,.00898,.04487,.01398,.0912,.01398,.13872v-.27742Z"/>
  <path class="cls-1" d="M305.56679,282.83769c0-.04752,.005-.09385,.01398-.13872-.00898-.04487-.01398-.09118-.01398-.1387v.27742Z"/>
  <path class="cls-1" d="M305.58077,282.69897c.05548,.27746,.27388,.49586,.55134,.55134,.27748-.05548,.49586-.27388,.55134-.55134-.05548-.27748-.27386-.49584-.55134-.55132-.27746,.05548-.49586,.27384-.55134,.55132Z"/>
  <path class="cls-1" d="M306.27081,283.26429c-.04752,0-.09383-.005-.1387-.01398-.04487,.00898-.0912,.01398-.13872,.01398h.27742Z"/>
  <path class="cls-1" d="M300.43379,279.85869c.0475,0,.09383,.005,.1387,.01398,.04487-.00898,.0912-.01398,.1387-.01398h-.2774Z"/>
  <path class="cls-1" d="M301.13781,280.28531c0,.0475-.005,.09383-.01398,.1387,.00898,.04487,.01398,.0912,.01398,.1387v-.2774Z"/>
  <path class="cls-1" d="M300.57249,279.87268c-.27748,.05548-.49586,.27386-.55134,.55134,.05548,.27748,.27386,.49586,.55134,.55134,.27748-.05548,.49586-.27386,.55134-.55134-.05548-.27748-.27386-.49586-.55134-.55134Z"/>
  <path class="cls-1" d="M300.71119,280.98933c-.0475,0-.09383-.005-.1387-.01398-.04487,.00898-.0912,.01398-.1387,.01398h.2774Z"/>
  <path class="cls-1" d="M300.00717,280.56271c0-.0475,.005-.09383,.01398-.1387-.00898-.04487-.01398-.0912-.01398-.1387v.2774Z"/>
  <path class="cls-1" d="M294.13564,280.56271c0-.0475,.005-.09383,.01398-.1387-.00898-.04487-.01398-.0912-.01398-.1387v.2774Z"/>
  <path class="cls-1" d="M294.70096,279.87268c-.27748,.05548-.49586,.27386-.55134,.55134,.05548,.27748,.27386,.49586,.55134,.55134,.27748-.05548,.49586-.27386,.55134-.55134-.05548-.27748-.27386-.49586-.55134-.55134Z"/>
  <path class="cls-1" d="M294.56225,279.85869c.0475,0,.09383,.005,.1387,.01398,.04487-.00898,.0912-.01398,.1387-.01398h-.2774Z"/>
  <path class="cls-1" d="M294.83966,280.98933c-.0475,0-.09383-.005-.1387-.01398-.04487,.00898-.0912,.01398-.1387,.01398h.2774Z"/>
  <path class="cls-1" d="M295.26628,280.28531c0,.0475-.005,.09383-.01398,.1387,.00898,.04487,.01398,.0912,.01398,.1387v-.2774Z"/>
  <path class="cls-1" d="M289.28006,283.26429c-.04752,0-.09383-.005-.1387-.01398-.04487,.00898-.0912,.01398-.13872,.01398h.27742Z"/>
  <path class="cls-1" d="M289.00264,282.13367c.04752,0,.09385,.005,.13872,.01398,.04487-.00898,.09118-.01398,.1387-.01398h-.27742Z"/>
  <path class="cls-1" d="M288.59001,282.69897c.05548,.27746,.27388,.49586,.55135,.55134,.27746-.05548,.49584-.27388,.55132-.55134-.05548-.27748-.27386-.49584-.55132-.55132-.27748,.05548-.49587,.27384-.55135,.55132Z"/>
  <path class="cls-1" d="M288.57602,282.83769c0-.04752,.005-.09385,.01398-.13872-.00898-.04487-.01398-.09118-.01398-.1387v.27742Z"/>
  <path class="cls-1" d="M289.70666,282.56027c0,.04752-.005,.09383-.01398,.1387,.00898,.04487,.01398,.0912,.01398,.13872v-.27742Z"/>
  <path class="cls-1" d="M284.50078,286.11857c-.27748,.05548-.49587,.27386-.55135,.55134,.05548,.27748,.27388,.49586,.55135,.55134,.27746-.05548,.49584-.27386,.55132-.55134-.05548-.27748-.27386-.49586-.55132-.55134Z"/>
  <path class="cls-1" d="M284.63948,287.23523c-.04752,0-.09383-.005-.1387-.01398-.04487,.00898-.0912,.01398-.13872,.01398h.27742Z"/>
  <path class="cls-1" d="M284.36206,286.10459c.04752,0,.09385,.005,.13872,.01398,.04487-.00898,.09118-.01398,.1387-.01398h-.27742Z"/>
  <path class="cls-1" d="M283.93544,286.80861c0-.0475,.005-.09383,.01398-.1387-.00898-.04487-.01398-.0912-.01398-.1387v.2774Z"/>
  <path class="cls-1" d="M285.06608,286.53121c0,.0475-.005,.09383-.01398,.1387,.00898,.04487,.01398,.0912,.01398,.1387v-.2774Z"/>
  <path class="cls-1" d="M281.1851,291.27787c.04752,0,.09385,.005,.13872,.01398,.04487-.00898,.09118-.01398,.1387-.01398h-.27742Z"/>
  <path class="cls-1" d="M280.77249,291.84319c.05548,.27748,.27388,.49586,.55134,.55134,.27748-.05548,.49586-.27386,.55134-.55134-.05548-.27748-.27386-.49586-.55134-.55134-.27746,.05548-.49586,.27386-.55134,.55134Z"/>
  <path class="cls-1" d="M281.88914,291.70449c0,.04752-.005,.09383-.01398,.1387,.00898,.04487,.01398,.0912,.01398,.13872v-.27742Z"/>
  <path class="cls-1" d="M280.7585,291.98191c0-.04752,.005-.09385,.01398-.13872-.00898-.04487-.01398-.09118-.01398-.1387v.27742Z"/>
  <path class="cls-1" d="M281.46253,292.40851c-.04752,0-.09383-.005-.1387-.01398-.04487,.00898-.0912,.01398-.13872,.01398h.27742Z"/>
  <path class="cls-1" d="M280.60167,297.49802c0,.0475-.005,.09383-.01398,.1387,.00898,.04487,.01398,.0912,.01398,.1387v-.2774Z"/>
  <path class="cls-1" d="M280.03635,297.08538c-.27748,.05548-.49587,.27386-.55135,.55134,.05548,.27748,.27388,.49586,.55135,.55134,.27748-.05548,.49586-.27386,.55134-.55134-.05548-.27748-.27386-.49586-.55134-.55134Z"/>
  <path class="cls-1" d="M279.47101,297.77542c0-.0475,.005-.09383,.01398-.1387-.00898-.04487-.01398-.0912-.01398-.1387v.2774Z"/>
  <path class="cls-1" d="M280.17505,298.20204c-.04752,0-.09383-.005-.1387-.01398-.04487,.00898-.0912,.01398-.13872,.01398h.27742Z"/>
  <path class="cls-1" d="M279.89763,297.0714c.04752,0,.09385,.005,.13872,.01398,.04487-.00898,.09118-.01398,.1387-.01398h-.27742Z"/>
  <path class="cls-1" d="M281.32382,303.98158c.27748-.05548,.49586-.27388,.55134-.55135-.05548-.27748-.27386-.49586-.55134-.55134-.27746,.05548-.49586,.27386-.55134,.55134,.05548,.27748,.27388,.49587,.55134,.55135Z"/>
  <path class="cls-1" d="M280.7585,303.56895c0-.04752,.005-.09385,.01398-.13872-.00898-.04487-.01398-.09118-.01398-.1387v.27742Z"/>
  <path class="cls-1" d="M281.46253,303.99556c-.04752,0-.09383-.005-.1387-.01398-.04487,.00898-.0912,.01398-.13872,.01398h.27742Z"/>
  <path class="cls-1" d="M281.1851,302.86491c.04752,0,.09385,.005,.13872,.01398,.04487-.00898,.09118-.01398,.1387-.01398h-.27742Z"/>
  <path class="cls-1" d="M281.88914,303.29152c0,.04752-.005,.09383-.01398,.1387,.00898,.04487,.01398,.0912,.01398,.13872v-.27742Z"/>
  <path class="cls-1" d="M285.05209,308.60352c-.05548-.27748-.27386-.49586-.55132-.55134-.27748,.05548-.49587,.27386-.55135,.55134,.05548,.27748,.27388,.49586,.55135,.55134,.27746-.05548,.49584-.27386,.55132-.55134Z"/>
  <path class="cls-1" d="M284.63948,309.16884c-.04752,0-.09383-.005-.1387-.01398-.04487,.00898-.0912,.01398-.13872,.01398h.27742Z"/>
  <path class="cls-1" d="M285.06608,308.46482c0,.0475-.005,.09383-.01398,.1387,.00898,.04487,.01398,.09118,.01398,.1387v-.2774Z"/>
  <path class="cls-1" d="M284.36206,308.0382c.04752,0,.09385,.005,.13872,.01398,.04487-.00898,.09118-.01398,.1387-.01398h-.27742Z"/>
  <path class="cls-1" d="M283.93544,308.74222c0-.04752,.005-.09383,.01398-.1387-.00898-.04487-.01398-.0912-.01398-.1387v.2774Z"/>
  <path class="cls-1" d="M288.57602,312.71316c0-.04752,.005-.09385,.01398-.13872-.00898-.04487-.01398-.09118-.01398-.1387v.27742Z"/>
  <path class="cls-1" d="M289.28006,313.13978c-.04752,0-.09383-.005-.1387-.01398-.04487,.00898-.0912,.01398-.13872,.01398h.27742Z"/>
  <path class="cls-1" d="M289.00264,312.00914c.04752,0,.09385,.005,.13872,.01398,.04487-.00898,.09118-.01398,.1387-.01398h-.27742Z"/>
  <path class="cls-1" d="M289.69268,312.57444c-.05548-.27746-.27386-.49584-.55132-.55132-.27748,.05548-.49587,.27386-.55135,.55132,.05548,.27748,.27388,.49587,.55135,.55135,.27746-.05548,.49584-.27388,.55132-.55135Z"/>
  <path class="cls-1" d="M289.70666,312.43574c0,.04752-.005,.09383-.01398,.1387,.00898,.04487,.01398,.0912,.01398,.13872v-.27742Z"/>
  <path class="cls-1" d="M295.25229,314.84942c-.05548-.27748-.27386-.49586-.55134-.55134-.27748,.05548-.49586,.27386-.55134,.55134,.05548,.27748,.27386,.49586,.55134,.55134,.27748-.05548,.49586-.27386,.55134-.55134Z"/>
  <path class="cls-1" d="M295.26628,314.71072c0,.04752-.005,.09383-.01398,.1387,.00898,.04487,.01398,.0912,.01398,.13872v-.27742Z"/>
  <path class="cls-1" d="M294.13564,314.98814c0-.04752,.005-.09385,.01398-.13872-.00898-.04487-.01398-.09118-.01398-.1387v.27742Z"/>
  <path class="cls-1" d="M294.83966,315.41474c-.0475,0-.09383-.005-.1387-.01398-.04487,.00898-.0912,.01398-.1387,.01398h.2774Z"/>
  <path class="cls-1" d="M294.56225,314.2841c.0475,0,.09383,.005,.1387,.01398,.04487-.00898,.0912-.01398,.1387-.01398h-.2774Z"/>
  <path class="cls-1" d="M300.43379,314.2841c.0475,0,.09383,.005,.1387,.01398,.04487-.00898,.0912-.01398,.1387-.01398h-.2774Z"/>
  <path class="cls-1" d="M300.71119,315.41474c-.0475,0-.09383-.005-.1387-.01398-.04487,.00898-.0912,.01398-.1387,.01398h.2774Z"/>
  <path class="cls-1" d="M301.12383,314.84942c-.05548-.27748-.27386-.49586-.55134-.55134-.27748,.05548-.49586,.27386-.55134,.55134,.05548,.27748,.27386,.49586,.55134,.55134,.27748-.05548,.49586-.27386,.55134-.55134Z"/>
  <path class="cls-1" d="M300.00717,314.98814c0-.04752,.005-.09385,.01398-.13872-.00898-.04487-.01398-.09118-.01398-.1387v.27742Z"/>
  <path class="cls-1" d="M301.13781,314.71072c0,.04752-.005,.09383-.01398,.1387,.00898,.04487,.01398,.0912,.01398,.13872v-.27742Z"/>
  <path class="cls-1" d="M306.68344,312.57444c-.05548-.27746-.27386-.49584-.55134-.55132-.27746,.05548-.49586,.27386-.55134,.55132,.05548,.27748,.27388,.49587,.55134,.55135,.27748-.05548,.49586-.27388,.55134-.55135Z"/>
  <path class="cls-1" d="M305.56679,312.71316c0-.04752,.005-.09385,.01398-.13872-.00898-.04487-.01398-.09118-.01398-.1387v.27742Z"/>
  <path class="cls-1" d="M305.99339,312.00914c.04752,0,.09385,.005,.13872,.01398,.04487-.00898,.09118-.01398,.1387-.01398h-.27742Z"/>
  <path class="cls-1" d="M306.69743,312.43574c0,.04752-.005,.09383-.01398,.1387,.00898,.04487,.01398,.0912,.01398,.13872v-.27742Z"/>
  <path class="cls-1" d="M306.27081,313.13978c-.04752,0-.09383-.005-.1387-.01398-.04487,.00898-.0912,.01398-.13872,.01398h.27742Z"/>
  <path class="cls-1" d="M310.63399,308.0382c.0475,0,.09383,.005,.1387,.01398,.04487-.00898,.0912-.01398,.1387-.01398h-.2774Z"/>
  <path class="cls-1" d="M310.91139,309.16884c-.0475,0-.09383-.005-.1387-.01398-.04487,.00898-.0912,.01398-.1387,.01398h.2774Z"/>
  <path class="cls-1" d="M311.33801,308.46482c0,.0475-.005,.09383-.01398,.1387,.00898,.04487,.01398,.09118,.01398,.1387v-.2774Z"/>
  <path class="cls-1" d="M310.20737,308.74222c0-.04752,.005-.09383,.01398-.1387-.00898-.04487-.01398-.0912-.01398-.1387v.2774Z"/>
  <path class="cls-1" d="M311.32403,308.60352c-.05548-.27748-.27386-.49586-.55134-.55134-.27748,.05548-.49586,.27386-.55134,.55134,.05548,.27748,.27386,.49586,.55134,.55134,.27748-.05548,.49586-.27386,.55134-.55134Z"/>
  <path class="cls-1" d="M313.38431,303.56895c0-.04752,.005-.09385,.01398-.13872-.00898-.04487-.01398-.09118-.01398-.1387v.27742Z"/>
  <path class="cls-1" d="M314.08833,303.99556c-.0475,0-.09383-.005-.1387-.01398-.04487,.00898-.0912,.01398-.1387,.01398h.2774Z"/>
  <path class="cls-1" d="M314.51494,303.29152c0,.04752-.005,.09383-.01398,.1387,.00898,.04487,.01398,.0912,.01398,.13872v-.27742Z"/>
  <path class="cls-1" d="M314.50096,303.43023c-.05548-.27748-.27386-.49586-.55134-.55134-.27748,.05548-.49586,.27386-.55134,.55134,.05548,.27748,.27386,.49587,.55134,.55135,.27748-.05548,.49586-.27388,.55134-.55135Z"/>
  <path class="cls-1" d="M313.81092,302.86491c.0475,0,.09383,.005,.1387,.01398,.04487-.00898,.0912-.01398,.1387-.01398h-.2774Z"/>
  <path class="cls-1" d="M315.3758,298.20204c-.0475,0-.09383-.005-.1387-.01398-.04487,.00898-.0912,.01398-.1387,.01398h.2774Z"/>
  <path class="cls-1" d="M314.67178,297.77542c0-.0475,.005-.09383,.01398-.1387-.00898-.04487-.01398-.0912-.01398-.1387v.2774Z"/>
  <path class="cls-1" d="M315.0984,297.0714c.0475,0,.09383,.005,.1387,.01398,.04487-.00898,.0912-.01398,.1387-.01398h-.2774Z"/>
  <path class="cls-1" d="M315.80242,297.49802c0,.0475-.005,.09383-.01398,.1387,.00898,.04487,.01398,.0912,.01398,.1387v-.2774Z"/>
  <path class="cls-1" d="M314.68576,297.63672c.05548,.27748,.27386,.49586,.55134,.55134,.27748-.05548,.49586-.27386,.55134-.55134-.05548-.27748-.27386-.49586-.55134-.55134-.27748,.05548-.49586,.27386-.55134,.55134Z"/>
  <rect class="cls-1" x="321.90264" y="290.36047" width="1.67851" height="1.67851" rx=".70402" ry=".70402"/>
  <rect class="cls-1" x="318.97547" y="284.28308" width="1.67851" height="1.67851" rx=".70402" ry=".70402"/>
  <rect class="cls-1" x="314.67352" y="278.92142" width="1.67851" height="1.67851" rx=".70402" ry=".70402"/>
  <rect class="cls-1" x="309.31186" y="274.61948" width="1.67851" height="1.67851" rx=".70402" ry=".70402"/>
  <rect class="cls-1" x="303.23447" y="271.6923" width="1.67849" height="1.67851" rx=".70402" ry=".70402"/>
  <rect class="cls-1" x="296.79748" y="270.39691" width="1.67849" height="1.67849" rx=".70402" ry=".70402"/>
  <rect class="cls-1" x="290.36049" y="271.6923" width="1.67849" height="1.67851" rx=".70404" ry=".70404"/>
  <rect class="cls-1" x="284.2831" y="274.61948" width="1.67849" height="1.67851" rx=".70402" ry=".70402"/>
  <rect class="cls-1" x="278.92142" y="278.92142" width="1.67851" height="1.67851" rx=".70404" ry=".70404"/>
  <rect class="cls-1" x="274.61948" y="284.28308" width="1.67851" height="1.67851" rx=".70404" ry=".70404"/>
  <rect class="cls-1" x="271.6923" y="290.36047" width="1.67851" height="1.67851" rx=".70402" ry=".70402"/>
  <rect class="cls-1" x="270.3969" y="296.79746" width="1.67849" height="1.67851" rx=".70402" ry=".70402"/>
  <rect class="cls-1" x="271.6923" y="303.23445" width="1.67851" height="1.67851" rx=".70404" ry=".70404"/>
  <rect class="cls-1" x="274.61948" y="309.31184" width="1.67851" height="1.67851" rx=".70404" ry=".70404"/>
  <rect class="cls-1" x="278.92142" y="314.67352" width="1.67851" height="1.67851" rx=".70404" ry=".70404"/>
  <rect class="cls-1" x="284.2831" y="318.97547" width="1.67849" height="1.67849" rx=".70402" ry=".70402"/>
  <rect class="cls-1" x="290.36049" y="321.90264" width="1.67849" height="1.67851" rx=".70404" ry=".70404"/>
  <rect class="cls-1" x="296.79748" y="323.19804" width="1.67849" height="1.67851" rx=".70404" ry=".70404"/>
  <rect class="cls-1" x="303.23447" y="321.90264" width="1.67849" height="1.67851" rx=".70402" ry=".70402"/>
  <rect class="cls-1" x="309.31186" y="318.97547" width="1.67851" height="1.67849" rx=".70404" ry=".70404"/>
  <rect class="cls-1" x="314.67352" y="314.67352" width="1.67851" height="1.67851" rx=".70404" ry=".70404"/>
  <rect class="cls-1" x="318.97547" y="309.31184" width="1.67851" height="1.67851" rx=".70402" ry=".70402"/>
  <rect class="cls-1" x="321.90264" y="303.23445" width="1.67851" height="1.67851" rx=".70402" ry=".70402"/>
  <rect class="cls-1" x="323.19804" y="296.79746" width="1.67851" height="1.67851" rx=".70404" ry=".70404"/>
  <rect class="cls-1" x="330.38299" y="289.77744" width="2.22636" height="2.22636" rx=".70402" ry=".70402"/>
  <rect class="cls-1" x="327.6348" y="283.25234" width="2.22638" height="2.22638" rx=".70402" ry=".70402"/>
  <rect class="cls-1" x="323.6628" y="277.17214" width="2.22636" height="2.22638" rx=".70402" ry=".70402"/>
  <rect class="cls-1" x="318.67737" y="271.76453" width="2.22636" height="2.22638" rx=".70404" ry=".70404"/>
  <rect class="cls-1" x="312.90465" y="267.25796" width="2.22638" height="2.22636" rx=".70402" ry=".70402"/>
  <rect class="cls-1" x="306.57362" y="263.87249" width="2.22636" height="2.22636" rx=".70402" ry=".70402"/>
  <rect class="cls-1" x="299.91008" y="261.80793" width="2.22638" height="2.22636" rx=".70404" ry=".70404"/>
  <rect class="cls-1" x="293.13699" y="261.80793" width="2.22638" height="2.22636" rx=".70404" ry=".70404"/>
  <rect class="cls-1" x="286.47347" y="263.87249" width="2.22638" height="2.22636" rx=".70404" ry=".70404"/>
  <rect class="cls-1" x="280.14242" y="267.25796" width="2.22638" height="2.22636" rx=".70402" ry=".70402"/>
  <rect class="cls-1" x="274.36972" y="271.76453" width="2.22636" height="2.22638" rx=".70402" ry=".70402"/>
  <rect class="cls-1" x="269.38429" y="277.17214" width="2.22636" height="2.22638" rx=".70402" ry=".70402"/>
  <rect class="cls-1" x="265.41228" y="283.25234" width="2.22638" height="2.22638" rx=".70404" ry=".70404"/>
  <rect class="cls-1" x="262.6641" y="289.77744" width="2.22636" height="2.22636" rx=".70402" ry=".70402"/>
  <rect class="cls-1" x="261.32278" y="296.52355" width="2.22636" height="2.22634" rx=".70402" ry=".70402"/>
  <rect class="cls-1" x="262.6641" y="303.26964" width="2.22636" height="2.22636" rx=".70402" ry=".70402"/>
  <rect class="cls-1" x="265.41228" y="309.79472" width="2.22638" height="2.22636" rx=".70402" ry=".70402"/>
  <rect class="cls-1" x="269.38429" y="315.87493" width="2.22636" height="2.22636" rx=".70402" ry=".70402"/>
  <rect class="cls-1" x="274.36972" y="321.28253" width="2.22636" height="2.22638" rx=".70404" ry=".70404"/>
  <rect class="cls-1" x="280.14242" y="325.78911" width="2.22638" height="2.22638" rx=".70404" ry=".70404"/>
  <rect class="cls-1" x="286.47347" y="329.17459" width="2.22638" height="2.22638" rx=".70402" ry=".70402"/>
  <rect class="cls-1" x="293.13699" y="331.23915" width="2.22638" height="2.22638" rx=".70402" ry=".70402"/>
  <rect class="cls-1" x="299.91008" y="331.23915" width="2.22638" height="2.22638" rx=".70402" ry=".70402"/>
  <rect class="cls-1" x="306.57362" y="329.17459" width="2.22636" height="2.22638" rx=".70404" ry=".70404"/>
  <rect class="cls-1" x="312.90465" y="325.78911" width="2.22638" height="2.22638" rx=".70404" ry=".70404"/>
  <rect class="cls-1" x="318.67737" y="321.28253" width="2.22636" height="2.22638" rx=".70404" ry=".70404"/>
  <rect class="cls-1" x="323.6628" y="315.87493" width="2.22636" height="2.22636" rx=".70402" ry=".70402"/>
  <rect class="cls-1" x="327.6348" y="309.79472" width="2.22638" height="2.22636" rx=".70402" ry=".70402"/>
  <rect class="cls-1" x="330.38299" y="303.26964" width="2.22636" height="2.22636" rx=".70402" ry=".70402"/>
  <rect class="cls-1" x="331.72431" y="296.52355" width="2.22636" height="2.22634" rx=".70402" ry=".70402"/>
  <rect class="cls-1" x="338.83069" y="289.36143" width="2.77423" height="2.77423" rx=".70402" ry=".70402"/>
  <rect class="cls-1" x="336.18322" y="282.61424" width="2.77423" height="2.77424" rx=".70404" ry=".70404"/>
  <rect class="cls-1" x="332.45077" y="276.1543" width="2.77423" height="2.77423" rx=".70402" ry=".70402"/>
  <rect class="cls-1" x="327.78962" y="270.13277" width="2.77423" height="2.77423" rx=".70402" ry=".70402"/>
  <rect class="cls-1" x="322.36644" y="264.70958" width="2.77424" height="2.77423" rx=".70404" ry=".70404"/>
  <rect class="cls-1" x="316.34491" y="260.04846" width="2.77424" height="2.77423" rx=".70404" ry=".70404"/>
  <rect class="cls-1" x="309.88497" y="256.31598" width="2.77423" height="2.77424" rx=".70404" ry=".70404"/>
  <rect class="cls-1" x="303.13778" y="253.66852" width="2.77423" height="2.77423" rx=".70404" ry=".70404"/>
  <rect class="cls-1" x="296.24961" y="252.24864" width="2.77423" height="2.77424" rx=".70404" ry=".70404"/>
  <rect class="cls-1" x="289.36145" y="253.66852" width="2.77423" height="2.77423" rx=".70404" ry=".70404"/>
  <rect class="cls-1" x="282.61425" y="256.31598" width="2.77423" height="2.77424" rx=".70404" ry=".70404"/>
  <rect class="cls-1" x="276.1543" y="260.04846" width="2.77423" height="2.77423" rx=".70402" ry=".70402"/>
  <rect class="cls-1" x="270.13277" y="264.70958" width="2.77423" height="2.77423" rx=".70402" ry=".70402"/>
  <rect class="cls-1" x="264.70958" y="270.13277" width="2.77424" height="2.77423" rx=".70402" ry=".70402"/>
  <rect class="cls-1" x="260.04846" y="276.1543" width="2.77423" height="2.77423" rx=".70402" ry=".70402"/>
  <rect class="cls-1" x="256.316" y="282.61424" width="2.77423" height="2.77424" rx=".70404" ry=".70404"/>
  <rect class="cls-1" x="253.66852" y="289.36143" width="2.77424" height="2.77423" rx=".70404" ry=".70404"/>
  <rect class="cls-1" x="252.24865" y="296.24961" width="2.77423" height="2.77421" rx=".70402" ry=".70402"/>
  <rect class="cls-1" x="253.66852" y="303.13778" width="2.77424" height="2.77423" rx=".70402" ry=".70402"/>
  <rect class="cls-1" x="256.316" y="309.88495" width="2.77423" height="2.77423" rx=".70402" ry=".70402"/>
  <rect class="cls-1" x="260.04846" y="316.34491" width="2.77423" height="2.77423" rx=".70402" ry=".70402"/>
  <rect class="cls-1" x="264.70958" y="322.36644" width="2.77424" height="2.77424" rx=".70404" ry=".70404"/>
  <rect class="cls-1" x="270.13277" y="327.78962" width="2.77423" height="2.77423" rx=".70402" ry=".70402"/>
  <rect class="cls-1" x="276.1543" y="332.45077" width="2.77423" height="2.77423" rx=".70404" ry=".70404"/>
  <rect class="cls-1" x="282.61425" y="336.18321" width="2.77423" height="2.77424" rx=".70404" ry=".70404"/>
  <rect class="cls-1" x="289.36145" y="338.83069" width="2.77423" height="2.77423" rx=".70402" ry=".70402"/>
  <rect class="cls-1" x="296.24961" y="340.25057" width="2.77423" height="2.77423" rx=".70402" ry=".70402"/>
  <rect class="cls-1" x="303.13778" y="338.83069" width="2.77423" height="2.77423" rx=".70402" ry=".70402"/>
  <rect class="cls-1" x="309.88497" y="336.18321" width="2.77423" height="2.77424" rx=".70404" ry=".70404"/>
  <rect class="cls-1" x="316.34491" y="332.45077" width="2.77424" height="2.77423" rx=".70404" ry=".70404"/>
  <rect class="cls-1" x="322.36644" y="327.78962" width="2.77424" height="2.77423" rx=".70402" ry=".70402"/>
  <rect class="cls-1" x="327.78962" y="322.36644" width="2.77423" height="2.77424" rx=".70404" ry=".70404"/>
  <rect class="cls-1" x="332.45077" y="316.34491" width="2.77423" height="2.77423" rx=".70402" ry=".70402"/>
  <rect class="cls-1" x="336.18322" y="309.88495" width="2.77423" height="2.77423" rx=".70402" ry=".70402"/>
  <rect class="cls-1" x="338.83069" y="303.13778" width="2.77423" height="2.77423" rx=".70402" ry=".70402"/>
  <rect class="cls-1" x="340.25057" y="296.24961" width="2.77423" height="2.77421" rx=".70402" ry=".70402"/>
  <path class="cls-1" d="M351.39395,295.97581h-1.91377c-.38882,0-.70402,.3152-.70402,.70402v1.91377c0,.38882,.3152,.70402,.70402,.70402h1.91458c.38882,0,.70402-.3152,.70402-.70402v-1.91377c0-.38882-.3152-.70402-.70402-.70402h-.00081Z"/>
  <rect class="cls-1" x="347.251" y="289.04037" width="3.32183" height="3.32183" rx=".70402" ry=".70402"/>
  <rect class="cls-1" x="344.64544" y="282.19772" width="3.32181" height="3.32181" rx=".70402" ry=".70402"/>
  <rect class="cls-1" x="341.06968" y="275.54413" width="3.32183" height="3.32183" rx=".70402" ry=".70402"/>
  <rect class="cls-1" x="336.65198" y="269.18259" width="3.32183" height="3.32183" rx=".70404" ry=".70404"/>
  <rect class="cls-1" x="331.52142" y="263.22122" width="3.32181" height="3.32183" rx=".70402" ry=".70402"/>
  <rect class="cls-1" x="325.80616" y="257.78367" width="3.32183" height="3.32183" rx=".70404" ry=".70404"/>
  <rect class="cls-1" x="319.63223" y="252.99216" width="3.32183" height="3.32181" rx=".70402" ry=".70402"/>
  <rect class="cls-1" x="313.11011" y="248.98147" width="3.32183" height="3.32183" rx=".70402" ry=".70402"/>
  <rect class="cls-1" x="306.3499" y="245.87463" width="3.32183" height="3.32183" rx=".70402" ry=".70402"/>
  <rect class="cls-1" x="299.44909" y="243.7969" width="3.32183" height="3.32183" rx=".70404" ry=".70404"/>
  <rect class="cls-1" x="292.50319" y="243.7969" width="3.32183" height="3.32183" rx=".70404" ry=".70404"/>
  <rect class="cls-1" x="285.60239" y="245.87381" width="3.32183" height="3.32183" rx=".70404" ry=".70404"/>
  <rect class="cls-1" x="278.84151" y="248.98147" width="3.32183" height="3.32183" rx=".70404" ry=".70404"/>
  <rect class="cls-1" x="272.31939" y="252.99216" width="3.32183" height="3.32181" rx=".70402" ry=".70402"/>
  <rect class="cls-1" x="266.14478" y="257.78435" width="3.32183" height="3.32183" rx=".70402" ry=".70402"/>
  <rect class="cls-1" x="260.4302" y="263.22122" width="3.32183" height="3.32183" rx=".70404" ry=".70404"/>
  <rect class="cls-1" x="255.29962" y="269.18193" width="3.32183" height="3.32183" rx=".70404" ry=".70404"/>
  <rect class="cls-1" x="250.88275" y="275.54413" width="3.32181" height="3.32183" rx=".70404" ry=".70404"/>
  <rect class="cls-1" x="247.30618" y="282.19838" width="3.32183" height="3.32183" rx=".70402" ry=".70402"/>
  <rect class="cls-1" x="244.70062" y="289.04103" width="3.32183" height="3.32183" rx=".70402" ry=".70402"/>
  <rect class="cls-1" x="243.17546" y="295.97581" width="3.32183" height="3.32181" rx=".70404" ry=".70404"/>
  <rect class="cls-1" x="244.70062" y="302.91057" width="3.32183" height="3.32183" rx=".70404" ry=".70404"/>
  <rect class="cls-1" x="247.30618" y="309.75389" width="3.32183" height="3.32185" rx=".70402" ry=".70402"/>
  <rect class="cls-1" x="250.88194" y="316.40749" width="3.32183" height="3.32183" rx=".70404" ry=".70404"/>
  <rect class="cls-1" x="255.29962" y="322.76901" width="3.32183" height="3.32183" rx=".70404" ry=".70404"/>
  <rect class="cls-1" x="260.42941" y="328.73038" width="3.32183" height="3.32183" rx=".70402" ry=".70402"/>
  <rect class="cls-1" x="266.14546" y="334.16727" width="3.32181" height="3.32183" rx=".70404" ry=".70404"/>
  <rect class="cls-1" x="272.31858" y="338.95946" width="3.32183" height="3.32183" rx=".70404" ry=".70404"/>
  <rect class="cls-1" x="278.84151" y="342.97015" width="3.32183" height="3.32181" rx=".70402" ry=".70402"/>
  <rect class="cls-1" x="285.60239" y="346.07699" width="3.32183" height="3.32181" rx=".70402" ry=".70402"/>
  <rect class="cls-1" x="292.50253" y="348.1547" width="3.32183" height="3.32183" rx=".70404" ry=".70404"/>
  <rect class="cls-1" x="299.44909" y="348.1547" width="3.32183" height="3.32183" rx=".70404" ry=".70404"/>
  <rect class="cls-1" x="306.34923" y="346.07779" width="3.32183" height="3.32183" rx=".70402" ry=".70402"/>
  <rect class="cls-1" x="313.11011" y="342.97081" width="3.32183" height="3.32183" rx=".70402" ry=".70402"/>
  <rect class="cls-1" x="319.63223" y="338.95946" width="3.32183" height="3.32183" rx=".70404" ry=".70404"/>
  <rect class="cls-1" x="325.80684" y="334.16727" width="3.32183" height="3.32183" rx=".70404" ry=".70404"/>
  <rect class="cls-1" x="331.52142" y="328.73038" width="3.32181" height="3.32183" rx=".70402" ry=".70402"/>
  <rect class="cls-1" x="336.65198" y="322.76969" width="3.32183" height="3.32183" rx=".70402" ry=".70402"/>
  <rect class="cls-1" x="341.06968" y="316.40816" width="3.32183" height="3.32183" rx=".70402" ry=".70402"/>
  <rect class="cls-1" x="344.64544" y="309.75389" width="3.32181" height="3.32185" rx=".70404" ry=".70404"/>
  <rect class="cls-1" x="347.251" y="302.91123" width="3.32183" height="3.32183" rx=".70402" ry=".70402"/>
  <rect class="cls-1" x="355.65842" y="288.77824" width="3.8697" height="3.8697" rx=".70404" ry=".70404"/>
  <rect class="cls-1" x="353.04883" y="281.91425" width="3.86968" height="3.86968" rx=".70402" ry=".70402"/>
  <rect class="cls-1" x="349.56384" y="275.17822" width="3.8697" height="3.86968" rx=".70402" ry=".70402"/>
  <rect class="cls-1" x="345.3163" y="268.63527" width="3.86968" height="3.86968" rx=".70402" ry=".70402"/>
  <rect class="cls-1" x="340.4074" y="262.36747" width="3.8697" height="3.8697" rx=".70404" ry=".70404"/>
  <rect class="cls-1" x="334.94892" y="256.45483" width="3.86968" height="3.8697" rx=".70402" ry=".70402"/>
  <rect class="cls-1" x="329.03628" y="250.99635" width="3.8697" height="3.86968" rx=".70402" ry=".70402"/>
  <rect class="cls-1" x="322.76848" y="246.08745" width="3.8697" height="3.8697" rx=".70402" ry=".70402"/>
  <rect class="cls-1" x="316.22553" y="241.83991" width="3.8697" height="3.86968" rx=".70402" ry=".70402"/>
  <rect class="cls-1" x="309.48952" y="238.35492" width="3.86968" height="3.8697" rx=".70402" ry=".70402"/>
  <rect class="cls-1" x="302.62549" y="235.74533" width="3.8697" height="3.86968" rx=".70404" ry=".70404"/>
  <rect class="cls-1" x="295.70189" y="234.10052" width="3.86966" height="3.8697" rx=".70402" ry=".70402"/>
  <rect class="cls-1" x="288.77826" y="235.74533" width="3.8697" height="3.86968" rx=".70404" ry=".70404"/>
  <rect class="cls-1" x="281.91425" y="238.35492" width="3.86968" height="3.8697" rx=".70404" ry=".70404"/>
  <rect class="cls-1" x="275.17822" y="241.83991" width="3.86968" height="3.86968" rx=".70402" ry=".70402"/>
  <rect class="cls-1" x="268.63527" y="246.08745" width="3.8697" height="3.8697" rx=".70402" ry=".70402"/>
  <rect class="cls-1" x="262.36747" y="250.99635" width="3.8697" height="3.86968" rx=".70402" ry=".70402"/>
  <rect class="cls-1" x="256.45483" y="256.45483" width="3.8697" height="3.8697" rx=".70402" ry=".70402"/>
  <rect class="cls-1" x="250.99635" y="262.36747" width="3.8697" height="3.8697" rx=".70402" ry=".70402"/>
  <rect class="cls-1" x="246.08745" y="268.63527" width="3.8697" height="3.86968" rx=".70402" ry=".70402"/>
  <rect class="cls-1" x="241.83991" y="275.17822" width="3.86968" height="3.86968" rx=".70402" ry=".70402"/>
  <rect class="cls-1" x="238.35494" y="281.91425" width="3.86968" height="3.86968" rx=".70402" ry=".70402"/>
  <rect class="cls-1" x="235.74533" y="288.77824" width="3.86968" height="3.8697" rx=".70402" ry=".70402"/>
  <rect class="cls-1" x="234.10053" y="295.70188" width="3.86968" height="3.86968" rx=".70402" ry=".70402"/>
  <rect class="cls-1" x="235.74533" y="302.6255" width="3.86968" height="3.8697" rx=".70402" ry=".70402"/>
  <rect class="cls-1" x="238.35494" y="309.4895" width="3.86968" height="3.86968" rx=".70402" ry=".70402"/>
  <rect class="cls-1" x="241.83991" y="316.22553" width="3.86968" height="3.8697" rx=".70404" ry=".70404"/>
  <rect class="cls-1" x="246.08745" y="322.76848" width="3.8697" height="3.86968" rx=".70402" ry=".70402"/>
  <rect class="cls-1" x="250.99635" y="329.03628" width="3.8697" height="3.86968" rx=".70402" ry=".70402"/>
  <rect class="cls-1" x="256.45483" y="334.94892" width="3.8697" height="3.86968" rx=".70402" ry=".70402"/>
  <rect class="cls-1" x="262.36747" y="340.40741" width="3.8697" height="3.8697" rx=".70404" ry=".70404"/>
  <rect class="cls-1" x="268.63527" y="345.31628" width="3.8697" height="3.8697" rx=".70402" ry=".70402"/>
  <rect class="cls-1" x="275.17822" y="349.56384" width="3.86968" height="3.8697" rx=".70404" ry=".70404"/>
  <rect class="cls-1" x="281.91425" y="353.04882" width="3.86968" height="3.8697" rx=".70402" ry=".70402"/>
  <rect class="cls-1" x="288.77826" y="355.65842" width="3.8697" height="3.8697" rx=".70404" ry=".70404"/>
  <rect class="cls-1" x="295.70189" y="357.30322" width="3.86966" height="3.8697" rx=".70402" ry=".70402"/>
  <rect class="cls-1" x="302.62549" y="355.65842" width="3.8697" height="3.8697" rx=".70404" ry=".70404"/>
  <rect class="cls-1" x="309.48952" y="353.04882" width="3.86968" height="3.8697" rx=".70404" ry=".70404"/>
  <rect class="cls-1" x="316.22553" y="349.56384" width="3.8697" height="3.8697" rx=".70404" ry=".70404"/>
  <rect class="cls-1" x="322.76848" y="345.31628" width="3.8697" height="3.8697" rx=".70402" ry=".70402"/>
  <rect class="cls-1" x="329.03628" y="340.40741" width="3.8697" height="3.8697" rx=".70404" ry=".70404"/>
  <rect class="cls-1" x="334.94892" y="334.94892" width="3.86968" height="3.86968" rx=".70402" ry=".70402"/>
  <rect class="cls-1" x="340.4074" y="329.03628" width="3.8697" height="3.86968" rx=".70402" ry=".70402"/>
  <rect class="cls-1" x="345.3163" y="322.76848" width="3.86968" height="3.86968" rx=".70402" ry=".70402"/>
  <rect class="cls-1" x="349.56384" y="316.22553" width="3.8697" height="3.8697" rx=".70404" ry=".70404"/>
  <rect class="cls-1" x="353.04883" y="309.4895" width="3.86968" height="3.86968" rx=".70402" ry=".70402"/>
  <rect class="cls-1" x="355.65842" y="302.6255" width="3.8697" height="3.8697" rx=".70402" ry=".70402"/>
  <rect class="cls-1" x="357.30324" y="295.70188" width="3.86968" height="3.86968" rx=".70402" ry=".70402"/>
  <path class="cls-1" d="M369.54302,299.84549c.38882,0,.70402-.3152,.70402-.70402v-3.00951c0-.38882-.3152-.70402-.70402-.70402h-3.01057c-.38884,0-.70404,.3152-.70404,.70402v3.00951c0,.38882,.3152,.70402,.70404,.70402h3.01057Z"/>
  <rect class="cls-1" x="364.05297" y="288.5548" width="4.41755" height="4.41755" rx=".70402" ry=".70402"/>
  <rect class="cls-1" x="361.40173" y="281.72115" width="4.41755" height="4.41755" rx=".70404" ry=".70404"/>
  <rect class="cls-1" x="357.96309" y="274.96994" width="4.41755" height="4.41755" rx=".70404" ry=".70404"/>
  <rect class="cls-1" x="353.8212" y="268.3502" width="4.41757" height="4.41755" rx=".70404" ry=".70404"/>
  <rect class="cls-1" x="349.07346" y="261.91468" width="4.41755" height="4.41755" rx=".70402" ry=".70402"/>
  <rect class="cls-1" x="343.81154" y="255.72167" width="4.41755" height="4.41755" rx=".70404" ry=".70404"/>
  <rect class="cls-1" x="338.11712" y="249.84475" width="4.41757" height="4.41757" rx=".70404" ry=".70404"/>
  <rect class="cls-1" x="332.07249" y="244.35417" width="4.41757" height="4.41755" rx=".70404" ry=".70404"/>
  <rect class="cls-1" x="325.75165" y="239.33611" width="4.41757" height="4.41755" rx=".70402" ry=".70402"/>
  <rect class="cls-1" x="319.21503" y="234.88285" width="4.41755" height="4.41755" rx=".70402" ry=".70402"/>
  <rect class="cls-1" x="312.52383" y="231.08258" width="4.41757" height="4.41755" rx=".70402" ry=".70402"/>
  <rect class="cls-1" x="305.72563" y="228.0218" width="4.41757" height="4.41755" rx=".70402" ry=".70402"/>
  <rect class="cls-1" x="298.867" y="225.802" width="4.41755" height="4.41757" rx=".70402" ry=".70402"/>
  <rect class="cls-1" x="291.9889" y="225.80308" width="4.41755" height="4.41755" rx=".70402" ry=".70402"/>
  <rect class="cls-1" x="285.13027" y="228.0218" width="4.41755" height="4.41755" rx=".70402" ry=".70402"/>
  <rect class="cls-1" x="278.33285" y="231.08042" width="4.41757" height="4.41757" rx=".70404" ry=".70404"/>
  <rect class="cls-1" x="271.6418" y="234.88285" width="4.41757" height="4.41755" rx=".70404" ry=".70404"/>
  <rect class="cls-1" x="265.10518" y="239.33611" width="4.41755" height="4.41755" rx=".70402" ry=".70402"/>
  <rect class="cls-1" x="258.78434" y="244.35417" width="4.41755" height="4.41755" rx=".70402" ry=".70402"/>
  <rect class="cls-1" x="252.73971" y="249.8438" width="4.41755" height="4.41757" rx=".70402" ry=".70402"/>
  <rect class="cls-1" x="247.04434" y="255.72072" width="4.41757" height="4.41757" rx=".70404" ry=".70404"/>
  <rect class="cls-1" x="241.78244" y="261.91374" width="4.41755" height="4.41755" rx=".70404" ry=".70404"/>
  <rect class="cls-1" x="237.03468" y="268.3502" width="4.41755" height="4.41755" rx=".70404" ry=".70404"/>
  <rect class="cls-1" x="232.89389" y="274.96954" width="4.41755" height="4.41755" rx=".70402" ry=".70402"/>
  <rect class="cls-1" x="229.45417" y="281.72115" width="4.41755" height="4.41755" rx=".70404" ry=".70404"/>
  <rect class="cls-1" x="226.80293" y="288.5548" width="4.41755" height="4.41755" rx=".70402" ry=".70402"/>
  <rect class="cls-1" x="225.02747" y="295.42794" width="4.41757" height="4.41755" rx=".70404" ry=".70404"/>
  <rect class="cls-1" x="226.80293" y="302.30108" width="4.41755" height="4.41755" rx=".70404" ry=".70404"/>
  <rect class="cls-1" x="229.45417" y="309.13379" width="4.41755" height="4.41755" rx=".70402" ry=".70402"/>
  <rect class="cls-1" x="232.89281" y="315.88594" width="4.41755" height="4.41757" rx=".70404" ry=".70404"/>
  <rect class="cls-1" x="237.03468" y="322.50474" width="4.41755" height="4.41757" rx=".70402" ry=".70402"/>
  <rect class="cls-1" x="241.78244" y="328.9412" width="4.41755" height="4.41757" rx=".70402" ry=".70402"/>
  <rect class="cls-1" x="247.04341" y="335.13327" width="4.41755" height="4.41757" rx=".70402" ry=".70402"/>
  <rect class="cls-1" x="252.73971" y="341.01113" width="4.41755" height="4.41755" rx=".70402" ry=".70402"/>
  <rect class="cls-1" x="258.7834" y="346.50077" width="4.41755" height="4.41757" rx=".70402" ry=".70402"/>
  <rect class="cls-1" x="265.10423" y="351.51977" width="4.41755" height="4.41755" rx=".70402" ry=".70402"/>
  <rect class="cls-1" x="271.64087" y="355.97304" width="4.41755" height="4.41757" rx=".70402" ry=".70402"/>
  <rect class="cls-1" x="278.33205" y="359.77331" width="4.41755" height="4.41755" rx=".70402" ry=".70402"/>
  <rect class="cls-1" x="285.13027" y="362.83409" width="4.41755" height="4.41757" rx=".70404" ry=".70404"/>
  <rect class="cls-1" x="291.9889" y="365.05389" width="4.41755" height="4.41755" rx=".70402" ry=".70402"/>
  <rect class="cls-1" x="298.867" y="365.05281" width="4.41755" height="4.41755" rx=".70402" ry=".70402"/>
  <rect class="cls-1" x="305.72563" y="362.83409" width="4.41757" height="4.41757" rx=".70404" ry=".70404"/>
  <rect class="cls-1" x="312.52303" y="359.77439" width="4.41755" height="4.41755" rx=".70402" ry=".70402"/>
  <rect class="cls-1" x="319.21408" y="355.97304" width="4.41755" height="4.41757" rx=".70402" ry=".70402"/>
  <rect class="cls-1" x="325.75072" y="351.52085" width="4.41755" height="4.41755" rx=".70402" ry=".70402"/>
  <rect class="cls-1" x="332.07156" y="346.50172" width="4.41755" height="4.41755" rx=".70402" ry=".70402"/>
  <rect class="cls-1" x="338.11619" y="341.01206" width="4.41755" height="4.41757" rx=".70402" ry=".70402"/>
  <rect class="cls-1" x="343.81154" y="335.13421" width="4.41755" height="4.41757" rx=".70402" ry=".70402"/>
  <rect class="cls-1" x="349.07346" y="328.94215" width="4.41755" height="4.41755" rx=".70402" ry=".70402"/>
  <rect class="cls-1" x="353.8212" y="322.50569" width="4.41757" height="4.41755" rx=".70404" ry=".70404"/>
  <rect class="cls-1" x="357.96309" y="315.88687" width="4.41755" height="4.41757" rx=".70404" ry=".70404"/>
  <rect class="cls-1" x="361.40173" y="309.13553" width="4.41755" height="4.41757" rx=".70402" ry=".70402"/>
  <rect class="cls-1" x="364.05297" y="302.30108" width="4.41755" height="4.41755" rx=".70404" ry=".70404"/>
  <rect class="cls-1" x="372.44105" y="288.35755" width="4.96542" height="4.96542" rx=".70402" ry=".70402"/>
  <rect class="cls-1" x="369.72657" y="281.58594" width="4.96542" height="4.96542" rx=".70402" ry=".70402"/>
  <rect class="cls-1" x="366.29049" y="274.86897" width="4.9654" height="4.96542" rx=".70402" ry=".70402"/>
  <rect class="cls-1" x="362.21211" y="268.23673" width="4.96542" height="4.96542" rx=".70402" ry=".70402"/>
  <rect class="cls-1" x="357.57192" y="261.72575" width="4.96542" height="4.9654" rx=".70402" ry=".70402"/>
  <rect class="cls-1" x="352.45128" y="255.37939" width="4.96542" height="4.96542" rx=".70404" ry=".70404"/>
  <rect class="cls-1" x="346.92282" y="249.24667" width="4.96542" height="4.96542" rx=".70402" ry=".70402"/>
  <rect class="cls-1" x="341.06135" y="243.38519" width="4.96543" height="4.96542" rx=".70404" ry=".70404"/>
  <rect class="cls-1" x="334.92864" y="237.85675" width="4.96542" height="4.96542" rx=".70404" ry=".70404"/>
  <rect class="cls-1" x="328.58228" y="232.73611" width="4.96542" height="4.9654" rx=".70402" ry=".70402"/>
  <rect class="cls-1" x="322.0713" y="228.0959" width="4.96542" height="4.96542" rx=".70404" ry=".70404"/>
  <rect class="cls-1" x="315.43905" y="224.01755" width="4.96543" height="4.96542" rx=".70402" ry=".70402"/>
  <rect class="cls-1" x="308.7221" y="220.58144" width="4.96542" height="4.96542" rx=".70402" ry=".70402"/>
  <rect class="cls-1" x="301.95046" y="217.86698" width="4.96543" height="4.96542" rx=".70404" ry=".70404"/>
  <rect class="cls-1" x="295.15403" y="215.95226" width="4.9654" height="4.96542" rx=".70402" ry=".70402"/>
  <rect class="cls-1" x="288.35755" y="217.86698" width="4.96543" height="4.96542" rx=".70404" ry=".70404"/>
  <rect class="cls-1" x="281.58594" y="220.58144" width="4.96542" height="4.96542" rx=".70402" ry=".70402"/>
  <rect class="cls-1" x="274.86897" y="224.01755" width="4.96542" height="4.96542" rx=".70404" ry=".70404"/>
  <rect class="cls-1" x="268.23673" y="228.0959" width="4.96542" height="4.96542" rx=".70404" ry=".70404"/>
  <rect class="cls-1" x="261.72575" y="232.73611" width="4.96542" height="4.9654" rx=".70402" ry=".70402"/>
  <rect class="cls-1" x="255.37939" y="237.85675" width="4.96542" height="4.96542" rx=".70402" ry=".70402"/>
  <rect class="cls-1" x="249.24667" y="243.38519" width="4.96542" height="4.96542" rx=".70404" ry=".70404"/>
  <rect class="cls-1" x="243.38521" y="249.24667" width="4.96542" height="4.96542" rx=".70402" ry=".70402"/>
  <rect class="cls-1" x="237.85675" y="255.37939" width="4.96542" height="4.96542" rx=".70402" ry=".70402"/>
  <rect class="cls-1" x="232.73611" y="261.72575" width="4.96542" height="4.9654" rx=".70404" ry=".70404"/>
  <rect class="cls-1" x="228.09592" y="268.23673" width="4.96542" height="4.96542" rx=".70402" ry=".70402"/>
  <rect class="cls-1" x="224.01755" y="274.86897" width="4.96542" height="4.96542" rx=".70404" ry=".70404"/>
  <rect class="cls-1" x="220.58146" y="281.58594" width="4.96542" height="4.96542" rx=".70402" ry=".70402"/>
  <rect class="cls-1" x="217.86698" y="288.35755" width="4.96542" height="4.96542" rx=".70402" ry=".70402"/>
  <rect class="cls-1" x="215.95228" y="295.15401" width="4.96542" height="4.96542" rx=".70402" ry=".70402"/>
  <rect class="cls-1" x="217.86698" y="301.95047" width="4.96542" height="4.96542" rx=".70402" ry=".70402"/>
  <rect class="cls-1" x="220.58146" y="308.72208" width="4.96542" height="4.96543" rx=".70404" ry=".70404"/>
  <rect class="cls-1" x="224.01755" y="315.43905" width="4.96542" height="4.96542" rx=".70404" ry=".70404"/>
  <rect class="cls-1" x="228.09592" y="322.0713" width="4.96542" height="4.96542" rx=".70404" ry=".70404"/>
  <rect class="cls-1" x="232.73611" y="328.58228" width="4.96542" height="4.96542" rx=".70402" ry=".70402"/>
  <rect class="cls-1" x="237.85675" y="334.92863" width="4.96542" height="4.96543" rx=".70404" ry=".70404"/>
  <rect class="cls-1" x="243.38521" y="341.06135" width="4.96542" height="4.96542" rx=".70402" ry=".70402"/>
  <rect class="cls-1" x="249.24667" y="346.92282" width="4.96542" height="4.96542" rx=".70402" ry=".70402"/>
  <rect class="cls-1" x="255.37939" y="352.45127" width="4.96542" height="4.96542" rx=".70402" ry=".70402"/>
  <rect class="cls-1" x="261.72575" y="357.57192" width="4.96542" height="4.96542" rx=".70404" ry=".70404"/>
  <rect class="cls-1" x="268.23673" y="362.21211" width="4.96542" height="4.96542" rx=".70404" ry=".70404"/>
  <rect class="cls-1" x="274.86897" y="366.29047" width="4.96542" height="4.96542" rx=".70402" ry=".70402"/>
  <rect class="cls-1" x="281.58594" y="369.72657" width="4.96542" height="4.96542" rx=".70402" ry=".70402"/>
  <rect class="cls-1" x="288.35755" y="372.44104" width="4.96543" height="4.96542" rx=".70404" ry=".70404"/>
  <rect class="cls-1" x="295.15403" y="374.35575" width="4.9654" height="4.96542" rx=".70402" ry=".70402"/>
  <rect class="cls-1" x="301.95046" y="372.44104" width="4.96543" height="4.96542" rx=".70404" ry=".70404"/>
  <rect class="cls-1" x="308.7221" y="369.72657" width="4.96542" height="4.96542" rx=".70404" ry=".70404"/>
  <rect class="cls-1" x="315.43905" y="366.29047" width="4.96543" height="4.96542" rx=".70404" ry=".70404"/>
  <rect class="cls-1" x="322.0713" y="362.21211" width="4.96542" height="4.96542" rx=".70404" ry=".70404"/>
  <rect class="cls-1" x="328.58228" y="357.57192" width="4.96542" height="4.96542" rx=".70404" ry=".70404"/>
  <rect class="cls-1" x="334.92864" y="352.45127" width="4.96542" height="4.96542" rx=".70402" ry=".70402"/>
  <rect class="cls-1" x="341.06135" y="346.92282" width="4.96543" height="4.96542" rx=".70402" ry=".70402"/>
  <rect class="cls-1" x="346.92282" y="341.06135" width="4.96542" height="4.96542" rx=".70402" ry=".70402"/>
  <rect class="cls-1" x="352.45128" y="334.92863" width="4.96542" height="4.96543" rx=".70404" ry=".70404"/>
  <rect class="cls-1" x="357.57192" y="328.58228" width="4.96542" height="4.96542" rx=".70402" ry=".70402"/>
  <rect class="cls-1" x="362.21211" y="322.0713" width="4.96542" height="4.96542" rx=".70404" ry=".70404"/>
  <rect class="cls-1" x="366.29049" y="315.43905" width="4.9654" height="4.96542" rx=".70402" ry=".70402"/>
  <rect class="cls-1" x="369.72657" y="308.72208" width="4.96542" height="4.96543" rx=".70402" ry=".70402"/>
  <rect class="cls-1" x="372.44105" y="301.95047" width="4.96542" height="4.96542" rx=".70402" ry=".70402"/>
  <rect class="cls-1" x="374.35575" y="295.15401" width="4.96542" height="4.96542" rx=".70402" ry=".70402"/>
  <path class="cls-1" d="M387.69127,294.88007h-4.10657c-.38884,0-.70402,.3152-.70402,.70404v4.1052c0,.38884,.31518,.70404,.70402,.70404h4.10657c.38882,0,.70402-.3152,.70402-.70404v-4.1052c0-.38884-.3152-.70404-.70402-.70404Z"/>
  <rect class="cls-1" x="380.8137" y="288.1819" width="5.51328" height="5.51328" rx=".70402" ry=".70402"/>
  <rect class="cls-1" x="378.01946" y="281.4969" width="5.51328" height="5.51328" rx=".70402" ry=".70402"/>
  <rect class="cls-1" x="374.55624" y="274.84613" width="5.51327" height="5.51328" rx=".70402" ry=".70402"/>
  <rect class="cls-1" x="370.50284" y="268.24666" width="5.51328" height="5.51328" rx=".70402" ry=".70402"/>
  <rect class="cls-1" x="365.92873" y="261.72562" width="5.51328" height="5.51327" rx=".70402" ry=".70402"/>
  <rect class="cls-1" x="360.90558" y="255.3093" width="5.51327" height="5.51327" rx=".70402" ry=".70402"/>
  <rect class="cls-1" x="355.50024" y="249.03424" width="5.51328" height="5.51328" rx=".70404" ry=".70404"/>
  <rect class="cls-1" x="349.77775" y="242.9445" width="5.51328" height="5.51328" rx=".70404" ry=".70404"/>
  <rect class="cls-1" x="343.79798" y="237.08384" width="5.51328" height="5.51327" rx=".70402" ry=".70402"/>
  <rect class="cls-1" x="337.60874" y="231.51469" width="5.51328" height="5.51328" rx=".70404" ry=".70404"/>
  <rect class="cls-1" x="331.25944" y="226.2897" width="5.51327" height="5.51328" rx=".70404" ry=".70404"/>
  <rect class="cls-1" x="324.78468" y="221.48489" width="5.5133" height="5.51327" rx=".70402" ry=".70402"/>
  <rect class="cls-1" x="318.22256" y="217.1589" width="5.51328" height="5.51328" rx=".70402" ry=".70402"/>
  <rect class="cls-1" x="311.59313" y="213.39329" width="5.51328" height="5.51328" rx=".70404" ry=".70404"/>
  <rect class="cls-1" x="304.92399" y="210.2553" width="5.51327" height="5.51327" rx=".70402" ry=".70402"/>
  <rect class="cls-1" x="298.22943" y="207.81717" width="5.51328" height="5.51327" rx=".70402" ry=".70402"/>
  <rect class="cls-1" x="291.53073" y="207.81717" width="5.51328" height="5.51327" rx=".70402" ry=".70402"/>
  <rect class="cls-1" x="284.83726" y="210.2553" width="5.51328" height="5.51327" rx=".70402" ry=".70402"/>
  <rect class="cls-1" x="278.16702" y="213.39329" width="5.5133" height="5.51328" rx=".70404" ry=".70404"/>
  <rect class="cls-1" x="271.53761" y="217.1589" width="5.51328" height="5.51328" rx=".70402" ry=".70402"/>
  <rect class="cls-1" x="264.97493" y="221.48368" width="5.51327" height="5.51328" rx=".70404" ry=".70404"/>
  <rect class="cls-1" x="258.50073" y="226.2897" width="5.51328" height="5.51328" rx=".70404" ry=".70404"/>
  <rect class="cls-1" x="252.15249" y="231.51469" width="5.51328" height="5.51328" rx=".70404" ry=".70404"/>
  <rect class="cls-1" x="245.96219" y="237.08505" width="5.51327" height="5.51327" rx=".70402" ry=".70402"/>
  <rect class="cls-1" x="239.9824" y="242.94342" width="5.51328" height="5.51328" rx=".70402" ry=".70402"/>
  <rect class="cls-1" x="234.25871" y="249.03424" width="5.51328" height="5.51328" rx=".70404" ry=".70404"/>
  <rect class="cls-1" x="228.85461" y="255.30822" width="5.51327" height="5.51328" rx=".70404" ry=".70404"/>
  <rect class="cls-1" x="223.83144" y="261.72454" width="5.51328" height="5.51328" rx=".70404" ry=".70404"/>
  <rect class="cls-1" x="219.25732" y="268.24666" width="5.51328" height="5.51328" rx=".70404" ry=".70404"/>
  <rect class="cls-1" x="215.20394" y="274.84613" width="5.51327" height="5.51328" rx=".70402" ry=".70402"/>
  <rect class="cls-1" x="211.7407" y="281.4969" width="5.51328" height="5.51328" rx=".70404" ry=".70404"/>
  <rect class="cls-1" x="208.94647" y="288.1819" width="5.51328" height="5.51328" rx=".70404" ry=".70404"/>
  <rect class="cls-1" x="206.8795" y="294.88007" width="5.51327" height="5.51328" rx=".70402" ry=".70402"/>
  <rect class="cls-1" x="208.94647" y="301.57825" width="5.51328" height="5.51328" rx=".70402" ry=".70402"/>
  <rect class="cls-1" x="211.7407" y="308.26325" width="5.51328" height="5.51328" rx=".70402" ry=".70402"/>
  <rect class="cls-1" x="215.20394" y="314.91401" width="5.51327" height="5.51328" rx=".70402" ry=".70402"/>
  <rect class="cls-1" x="219.25732" y="321.51349" width="5.51328" height="5.51328" rx=".70404" ry=".70404"/>
  <rect class="cls-1" x="223.83144" y="328.03563" width="5.51328" height="5.51327" rx=".70404" ry=".70404"/>
  <rect class="cls-1" x="228.85461" y="334.45195" width="5.51327" height="5.51328" rx=".70402" ry=".70402"/>
  <rect class="cls-1" x="234.25871" y="340.72591" width="5.51328" height="5.51328" rx=".70404" ry=".70404"/>
  <rect class="cls-1" x="239.9824" y="346.81567" width="5.51328" height="5.51327" rx=".70402" ry=".70402"/>
  <rect class="cls-1" x="245.96219" y="352.67512" width="5.51327" height="5.51328" rx=".70402" ry=".70402"/>
  <rect class="cls-1" x="252.15249" y="358.24548" width="5.51328" height="5.51328" rx=".70402" ry=".70402"/>
  <rect class="cls-1" x="258.49953" y="363.47044" width="5.51327" height="5.51328" rx=".70404" ry=".70404"/>
  <rect class="cls-1" x="264.97438" y="368.27527" width="5.51328" height="5.51327" rx=".70402" ry=".70402"/>
  <rect class="cls-1" x="271.53761" y="372.60124" width="5.51328" height="5.51328" rx=".70402" ry=".70402"/>
  <rect class="cls-1" x="278.1681" y="376.36686" width="5.51328" height="5.51328" rx=".70404" ry=".70404"/>
  <rect class="cls-1" x="284.8362" y="379.50487" width="5.51327" height="5.51327" rx=".70402" ry=".70402"/>
  <rect class="cls-1" x="291.53073" y="381.94299" width="5.51328" height="5.51327" rx=".70402" ry=".70402"/>
  <rect class="cls-1" x="298.22943" y="381.94299" width="5.51328" height="5.51327" rx=".70402" ry=".70402"/>
  <rect class="cls-1" x="304.92399" y="379.50353" width="5.51327" height="5.51327" rx=".70402" ry=".70402"/>
  <rect class="cls-1" x="311.59234" y="376.36565" width="5.51327" height="5.51328" rx=".70402" ry=".70402"/>
  <rect class="cls-1" x="318.22203" y="372.60246" width="5.51327" height="5.51327" rx=".70402" ry=".70402"/>
  <rect class="cls-1" x="324.78523" y="368.27649" width="5.51328" height="5.51327" rx=".70402" ry=".70402"/>
  <rect class="cls-1" x="331.25944" y="363.47044" width="5.51327" height="5.51328" rx=".70404" ry=".70404"/>
  <rect class="cls-1" x="337.60766" y="358.24548" width="5.51328" height="5.51328" rx=".70402" ry=".70402"/>
  <rect class="cls-1" x="343.79678" y="352.67607" width="5.51327" height="5.51328" rx=".70402" ry=".70402"/>
  <rect class="cls-1" x="349.77775" y="346.81673" width="5.51328" height="5.51328" rx=".70404" ry=".70404"/>
  <rect class="cls-1" x="355.50145" y="340.72591" width="5.51328" height="5.51328" rx=".70404" ry=".70404"/>
  <rect class="cls-1" x="360.90558" y="334.45195" width="5.51327" height="5.51328" rx=".70402" ry=".70402"/>
  <rect class="cls-1" x="365.92873" y="328.03563" width="5.51328" height="5.51327" rx=".70402" ry=".70402"/>
  <rect class="cls-1" x="370.50284" y="321.51349" width="5.51328" height="5.51328" rx=".70404" ry=".70404"/>
  <rect class="cls-1" x="374.55624" y="314.91401" width="5.51327" height="5.51328" rx=".70404" ry=".70404"/>
  <rect class="cls-1" x="378.01946" y="308.26325" width="5.51328" height="5.51328" rx=".70404" ry=".70404"/>
  <rect class="cls-1" x="380.8137" y="301.57933" width="5.51328" height="5.51327" rx=".70402" ry=".70402"/>
  <rect class="cls-1" x="389.19091" y="288.01823" width="6.06087" height="6.06087" rx=".70402" ry=".70402"/>
  <rect class="cls-1" x="314.33662" y="206.42575" width="6.06087" height="6.06087" rx=".70402" ry=".70402"/>
  <rect class="cls-1" x="307.77382" y="202.91486" width="6.06087" height="6.06087" rx=".70402" ry=".70402"/>
  <rect class="cls-1" x="301.19434" y="200.02165" width="6.06089" height="6.06089" rx=".70404" ry=".70404"/>
  <rect class="cls-1" x="294.60629" y="197.80414" width="6.06087" height="6.06089" rx=".70404" ry=".70404"/>
  <rect class="cls-1" x="288.01823" y="200.02165" width="6.06089" height="6.06089" rx=".70404" ry=".70404"/>
  <rect class="cls-1" x="281.43876" y="202.91486" width="6.06087" height="6.06087" rx=".70402" ry=".70402"/>
  <rect class="cls-1" x="274.87596" y="206.42575" width="6.06087" height="6.06087" rx=".70402" ry=".70402"/>
  <rect class="cls-1" x="200.02167" y="288.01823" width="6.06087" height="6.06087" rx=".70402" ry=".70402"/>
  <rect class="cls-1" x="197.80416" y="294.60629" width="6.06087" height="6.06085" rx=".70402" ry=".70402"/>
  <rect class="cls-1" x="200.02167" y="301.19434" width="6.06087" height="6.06087" rx=".70402" ry=".70402"/>
  <rect class="cls-1" x="274.87596" y="382.78681" width="6.06087" height="6.06087" rx=".70402" ry=".70402"/>
  <rect class="cls-1" x="281.43876" y="386.29771" width="6.06087" height="6.06087" rx=".70402" ry=".70402"/>
  <rect class="cls-1" x="288.01823" y="389.19089" width="6.06089" height="6.06089" rx=".70404" ry=".70404"/>
  <rect class="cls-1" x="294.60629" y="391.4084" width="6.06087" height="6.06089" rx=".70404" ry=".70404"/>
  <rect class="cls-1" x="301.19434" y="389.19089" width="6.06089" height="6.06089" rx=".70404" ry=".70404"/>
  <rect class="cls-1" x="307.77382" y="386.29771" width="6.06087" height="6.06087" rx=".70402" ry=".70402"/>
  <rect class="cls-1" x="314.33662" y="382.78681" width="6.06087" height="6.06087" rx=".70402" ry=".70402"/>
  <rect class="cls-1" x="389.19091" y="301.19434" width="6.06087" height="6.06087" rx=".70402" ry=".70402"/>
  <rect class="cls-1" x="391.40842" y="294.60629" width="6.06087" height="6.06085" rx=".70402" ry=".70402"/>
  <path class="cls-1" d="M442.1359,293.23662h-2.33717v-5.1949c0-.38884-.31518-.70404-.70402-.70404h-2.8172v-5.20456c0-.38884-.3152-.70402-.70402-.70402h-3.27241v-5.2215c0-.38882-.3152-.70402-.70404-.70402h-3.66854v-5.24608c0-.38882-.3152-.70402-.70402-.70402h-4.02761v-5.28018c0-.38882-.3152-.70402-.70402-.70402h-4.3417v-5.31414c0-.38884-.3152-.70404-.70402-.70404h-4.60542v-5.35175c0-.38882-.3152-.70402-.70402-.70402h-4.83236v-5.38491c0-.38884-.3152-.70404-.70402-.70404h-5.02116v-5.42023c0-.38882-.3152-.70402-.70402-.70402h-5.1667v-5.44507c0-.38882-.3152-.70402-.70404-.70402h-5.2791v-5.45689c0-.38882-.31518-.70402-.70402-.70402h-5.36704v-5.45676c0-.38882-.3152-.70402-.70404-.70402h-5.41485v-5.43514c0-.38882-.3152-.70402-.70404-.70402h-5.44882v-5.39446c0-.38882-.3152-.70402-.70404-.70402h-5.45661v-5.32825c0-.38882-.3152-.70402-.70402-.70402h-5.45447v-5.2243c0-.38884-.3152-.70404-.70404-.70404h-5.43285v-5.10103c0-.38884-.3152-.70404-.70402-.70404h-5.40452v-4.92621c0-.38882-.3152-.70402-.70402-.70402h-5.36854v-4.72991c0-.38882-.3152-.70402-.70402-.70402h-5.33348v-4.47557c0-.38882-.3152-.70402-.70404-.70402h-5.29669v-4.18983c0-.38882-.3152-.70402-.70402-.70402h-5.26192v-3.85264c0-.38884-.3152-.70402-.70402-.70402h-5.23493v-3.47707c0-.38882-.3152-.70402-.70402-.70402h-5.21129v-3.04977c0-.38884-.3152-.70402-.70402-.70402h-5.19962v-2.58317c0-.38884-.31518-.70402-.70402-.70402h-13.28703c-.38884,0-.70402,.31518-.70402,.70402v2.58317h-5.19962c-.38882,0-.70402,.31518-.70402,.70402v3.04977h-5.21129c-.38884,0-.70404,.3152-.70404,.70402v3.47504h-5.23492c-.38882,0-.70402,.3152-.70402,.70404v3.85465h-5.26192c-.38884,0-.70404,.3152-.70404,.70402v4.18983h-5.29669c-.38882,0-.70402,.3152-.70402,.70402v4.47557h-5.33348c-.38882,0-.70402,.3152-.70402,.70402v4.72991h-5.36854c-.38882,0-.70402,.3152-.70402,.70402v4.92621h-5.40452c-.38882,0-.70402,.3152-.70402,.70404v5.09928h-5.43124c-.38884,0-.70404,.3152-.70404,.70404v5.22605h-5.45447c-.38882,0-.70402,.3152-.70402,.70402v5.32987h-5.45663c-.38882,0-.70402,.3152-.70402,.70404v5.3912h-5.45043c-.38884,0-.70404,.3152-.70404,.70404v5.43514h-5.41485c-.38884,0-.70404,.3152-.70404,.70402v5.45676h-5.3653c-.38884,0-.70404,.31518-.70404,.70402v5.4585h-5.28083c-.38884,0-.70404,.3152-.70404,.70402v5.44346h-5.1667c-.38882,0-.70402,.3152-.70402,.70402v5.41769h-5.01739c-.38884,0-.70404,.3152-.70404,.70402v5.38908h-4.83422c-.38884,0-.70404,.3152-.70404,.70402v5.35175h-4.60729c-.38882,0-.70402,.3152-.70402,.70404v5.31414h-4.33982c-.38882,0-.70402,.3152-.70402,.70402v5.28018h-4.02949c-.38882,0-.70402,.3152-.70402,.70402v5.24608h-3.66854c-.38884,0-.70404,.3152-.70404,.70402v5.22002h-3.27025c-.38884,0-.70404,.31518-.70404,.70402v5.20604h-2.81934c-.38884,0-.70402,.3152-.70402,.70404v5.1949h-2.33503c-.38882,0-.70402,.3152-.70402,.70402v7.39215c0,.38882,.3152,.70402,.70402,.70402h2.33503v5.19342c0,.38884,.31518,.70404,.70402,.70404h2.8172v5.20456c0,.38884,.3152,.70404,.70402,.70404h3.27241v5.22148c0,.38884,.3152,.70404,.70404,.70404h3.66652v5.24592c0,.38884,.31522,.70402,.70404,.70402h4.0315v5.28179c0,.38882,.3152,.70402,.70402,.70402h4.33781v5.31416c0,.38882,.31518,.70402,.70402,.70402h4.6093v5.35027c0,.38882,.3152,.70402,.70404,.70402h4.83047v5.38639c0,.38884,.3152,.70404,.70402,.70404h5.02116v5.42023c0,.38882,.3152,.70402,.70402,.70402h5.16496v5.44346c0,.38884,.3152,.70404,.70404,.70404h5.28085v5.45849c0,.38884,.31518,.70402,.70402,.70402h5.36545v5.45676c0,.38884,.31518,.70402,.70402,.70402h5.41646v5.43514c0,.38882,.3152,.70402,.70404,.70402h5.44882v5.39283c0,.38884,.3152,.70404,.70402,.70404h5.45824v5.32987c0,.38882,.3152,.70402,.70402,.70402h5.45286v5.2243c0,.38884,.3152,.70404,.70402,.70404h5.43018v5.0993c0,.38882,.3152,.70402,.70402,.70402h5.40721v4.92796c0,.38882,.3152,.70402,.70402,.70402h5.36706v4.72614c0,.38882,.3152,.70402,.70402,.70402h5.33496v4.47934c0,.38882,.3152,.70402,.70402,.70402h5.29521v4.18983c0,.38882,.3152,.70402,.70404,.70402h5.2634v3.85465c0,.38884,.3152,.70404,.70402,.70404h5.23317v3.47302c0,.38884,.3152,.70402,.70402,.70402h5.21305v3.0518c0,.38884,.3152,.70402,.70402,.70402h5.19814v2.58317c0,.38884,.31518,.70402,.70402,.70402h5.87366l.02124,.00214h7.39213c.38884,0,.70402-.31518,.70402-.70402v-2.58531h5.19962c.38882,0,.70402-.31518,.70402-.70402v-3.04977h5.21277c.38882,0,.70402-.3152,.70402-.70402v-3.47504h5.23346c.38882,0,.70402-.3152,.70402-.70404v-3.85465h5.2634c.38882,0,.70402-.3152,.70402-.70402v-4.18983h5.29521c.38884,0,.70404-.3152,.70404-.70402v-4.47557h5.33335c.38882,0,.70402-.3152,.70402-.70402v-4.72803h5.36867c.38882,0,.70402-.31518,.70402-.70402v-4.92434h5.40439c.38882,0,.70402-.3152,.70402-.70402v-5.10118h5.43124c.38884,0,.70404-.3152,.70404-.70402v-5.22794h5.45608c.38882,0,.70402-.3152,.70402-.70402v-5.32825h5.45661c.38884,0,.70404-.3152,.70404-.70402v-5.39124h5.44869c.38884,0,.70404-.3152,.70404-.70402v-5.43836h5.41659c.38884,0,.70404-.31518,.70404-.70402v-5.45513h5.3653c.38884,0,.70404-.3152,.70404-.70404v-5.45688h5.27908c.38884,0,.70402-.3152,.70402-.70404v-5.44507h5.16846c.38882,0,.70402-.3152,.70402-.70402v-5.41767h5.01739c.38884,0,.70404-.3152,.70404-.70404v-5.3876h4.83422c.38884,0,.70404-.3152,.70404-.70402v-5.35162h4.60729c.38882,0,.70402-.3152,.70402-.70402v-5.31429h4.33779c.38884,0,.70404-.3152,.70404-.70402v-5.28018h4.0315c.38882,0,.70402-.31518,.70402-.70402v-5.24754h3.66854c.38884,0,.70404-.3152,.70404-.70404v-5.22148h3.27241c.38882,0,.70402-.3152,.70402-.70404v-5.2031h2.81506c.38882,0,.70402-.31518,.70402-.70402v-5.19638h2.33931c.38882,0,.70402-.3152,.70402-.70402v-7.39215c0-.38882-.3152-.70402-.70402-.70402Zm-128.1954,132.30396h-.07386v-1.89067h.07386v1.89067Zm-5.93746,3.75379h-.19149v-1.78471h.19149v1.78471Zm-5.91681,3.28933h-.32335v-1.68857h.32335v1.68857Zm-20.75475-262.85086h.07532v1.89067h-.07532v-1.89067Zm5.93894-3.75379h.19149v1.78471h-.19149v-1.78471Zm5.91533-3.28719h.32483v1.68643h-.32483v-1.68643Zm140.58005,136.44515v-2.99912h.27179v2.99912h-.27179Zm-2.76725-5.62646h-.10338v-3.28128h.10338v3.28128Zm-24.54644,36.51295h-.27689v-3.71527h.27689v3.71527Zm-4.99052,6.15999h-.23848v-3.64304h.23848v3.64304Zm-5.27293,6.18159h-.21618v-3.58259h.21618v3.58259Zm-5.50696,6.18776h-.2115v-3.5227h.2115v3.5227Zm-5.71014,6.18979h-.21203v-3.46792h.21203v3.46792Zm-5.8643,6.1734h-.22639v-3.4142h.22639v3.4142Zm-5.985,6.13607h-.24466v-3.35486h.24466v3.35486Zm-6.07015,6.07013h-.27769v-3.28638h.27769v3.28638Zm-6.13607,5.98502h-.31071v-3.21507h.31071v3.21507Zm-6.1734,5.86428h-.35155v-3.13316h.35155v3.13316Zm-6.18977,5.71014h-.39949v-3.04333h.39949v3.04333Zm-6.18778,5.50697h-.45896v-2.93873h.45896v2.93873Zm-6.18159,5.27291h-.52343v-2.8294h.52343v2.8294Zm-6.15997,4.99054h-.60037v-2.71139h.60037v2.71139Zm-6.13623,4.66448h-.691v-2.59147h.691v2.59147Zm-6.11163,4.28101h-.79238v-2.45976h.79238v2.45976Zm-6.09162,3.85975h-.90356v-2.33474h.90356v2.33474Zm-6.06974,3.38548h-1.02912v-2.21012h1.02912v2.21012Zm-6.05509,2.87065h-3.84499v-2.09948h3.84499v2.09948Zm-110.73787-160.26354h.27689v3.71527h-.27689v-3.71527Zm4.99052-6.15997h.23848v3.64302h-.23848v-3.64302Zm5.27293-6.18161h.21618v3.58259h-.21618v-3.58259Zm5.50696-6.18776h.2115v3.5227h-.2115v-3.5227Zm5.71014-6.18979h.21203v3.46792h-.21203v-3.46792Zm5.8643-6.1734h.22639v3.41422h-.22639v-3.41422Zm5.985-6.13607h.24466v3.35487h-.24466v-3.35487Zm6.07013-6.07013h.2777v3.28638h-.2777v-3.28638Zm6.13609-5.98502h.31071v3.21507h-.31071v-3.21507Zm6.17338-5.86428h.35157v3.13316h-.35157v-3.13316Zm6.18979-5.71014h.39949v3.04333h-.39949v-3.04333Zm6.18778-5.50697h.45896v2.93873h-.45896v-2.93873Zm6.18159-5.27291h.52343v2.8294h-.52343v-2.8294Zm6.15997-4.99054h.60037v2.71139h-.60037v-2.71139Zm6.13621-4.66448h.691v2.59147h-.691v-2.59147Zm6.11163-4.28101h.7924v2.45976h-.7924v-2.45976Zm6.09162-3.85975h.90358v2.33474h-.90358v-2.33474Zm6.06976-3.38548h1.02912v2.21012h-1.02912v-2.21012Zm6.05509-2.87065h3.84499v2.09948h-3.84499v-2.09948Zm7.36178,243.67228v2.27727h-10.87856v-2.27727c0-.13093-.03812-.25203-.10039-.35704h1.96137v1.83655c0,.38884,.3152,.70404,.70404,.70404h5.74853c.38884,0,.70404-.3152,.70404-.70404v-1.83481h1.96042c-.06164,.10463-.09944,.22507-.09944,.3553Zm-10.87856-231.59105v-2.27727h10.87856v2.27727c0,.13023,.0378,.25067,.09944,.3553h-1.96042v-1.83481c0-.38884-.3152-.70404-.70404-.70404h-5.74853c-.38884,0-.70404,.3152-.70404,.70404v1.83481h-1.96042c.06164-.10463,.09944-.22507,.09944-.3553Zm130.44537,111.9433h-.65059v-4.12537h.65059v4.12537Zm-20.48902,31.05151v-4.61804h.9217v4.61804h-.9217Zm-89.09366,75.00574v2.95539h-5.63224c-.38882,0-.70402,.3152-.70402,.70402v2.41921h-5.63052c-.38884,0-.70402,.31518-.70402,.70402v1.83481h-5.50777v-1.83655c0-.38884-.3152-.70404-.70404-.70404h-5.6293v-2.42094c0-.38882-.31518-.70404-.70402-.70404h-5.63213v-2.95188c0-.15035-.04798-.28902-.12826-.40337h1.99773c.22672,0,.4262-.10903,.55497-.27549v2.87342c0,.38882,.3152,.70402,.70402,.70402h5.2007c.22939,0,.43115-.11138,.55967-.28117v2.27242c0,.38884,.31518,.70402,.70402,.70402h5.20068c.27801,0,.51609-.1625,.63052-.39647,.11443,.23397,.35249,.39647,.6305,.39647h5.20068c.38884,0,.70402-.31518,.70402-.70402v-2.27227c.12854,.16972,.33023,.28102,.55956,.28102h5.20068c.38884,0,.70404-.3152,.70404-.70402v-2.87179c.12877,.16644,.32824,.27547,.55497,.27547h1.99652c-.07956,.11405-.12695,.25216-.12695,.40176Zm-120.86218-75.00574v-4.61925h.91995v4.61925h-.91995Zm.91995-54.39854v4.61802h-.91995v-4.61802h.91995Zm89.09538-75.00739v-2.95376h5.63226c.38882,0,.70402-.3152,.70402-.70402v-2.41921h5.63052c.38884,0,.70402-.31518,.70402-.70402v-1.83481h5.50523v1.83481c0,.38884,.31518,.70402,.70402,.70402h5.63052v2.42096c0,.38882,.3152,.70402,.70402,.70402h5.63345v2.95539c0,.14954,.04733,.28761,.12684,.40163h-1.99627c-.22673,0-.42622,.10903-.55499,.27549v-2.87342c0-.38882-.3152-.70402-.70402-.70402h-5.2007c-.22939,0-.43115,.11138-.55967,.28117v-2.27242c0-.38884-.31518-.70402-.70402-.70402h-5.20068c-.27801,0-.51607,.1625-.6305,.39647-.11443-.23397-.35251-.39647-.63052-.39647h-5.20068c-.38884,0-.70402,.31518-.70402,.70402v2.27227c-.12854-.16972-.33023-.28102-.55956-.28102h-5.20068c-.38882,0-.70402,.3152-.70402,.70402v2.87503c-.1287-.16741-.32883-.2771-.55632-.2771h-1.99788c.08104-.11469,.12962-.25389,.12962-.405Zm120.8622,75.00739v4.61923h-.91995v-4.61923h.91995Zm12.54205,29.54137v-4.68422h1.36965v4.68422h-1.36965Zm-2.54058-10.88233h1.21081v4.96193h-1.21081v-4.96193Zm-11.91603,23.96486v-5.09754c0-.2287-.11077-.42988-.27971-.55848h1.91657l-.00241,.02389v5.63213h-1.63445Zm-5.90472-5.80158c-.38882,0-.70402,.3152-.70402,.70404v5.20068c0,.22429,.10687,.42175,.27026,.55067h-2.77559c.18799-.12642,.31172-.34095,.31172-.58451v-4.65283c0-.38882-.31518-.70402-.70402-.70402h-4.65283c-.38882,0-.70402,.3152-.70402,.70402v4.65283c0,.38884,.3152,.70404,.70402,.70404h4.28616c-.18797,.12642-.31172,.34095-.31172,.58451v5.20068c0,.21876,.10188,.41174,.2584,.54088h-2.5679c.11132-.12453,.18101-.28712,.18101-.4673v-4.65281c0-.38884-.31518-.70404-.70402-.70404h-4.65283c-.38882,0-.70402,.3152-.70402,.70404v4.65281c0,.38884,.3152,.70404,.70402,.70404h3.57361c-.1113,.12451-.18101,.28712-.18101,.46728v5.2007c0,.20782,.09175,.39266,.23496,.52153h-2.4327c.06319-.10556,.10177-.22762,.10177-.3596v-4.65281c0-.38884-.3152-.70404-.70404-.70404h-4.65281c-.38884,0-.70404,.3152-.70404,.70404v4.65281c0,.38884,.3152,.70404,.70404,.70404h3.01377c-.06319,.10556-.10177,.22762-.10177,.3596v5.20068c0,.18958,.07579,.36087,.19765,.48744h-2.34848c.03255-.08104,.0515-.16904,.0515-.26171v-4.65283c0-.38882-.3152-.70402-.70404-.70402h-4.65283c-.38882,0-.70402,.3152-.70402,.70402v4.65283c0,.38882,.3152,.70402,.70402,.70402h2.57048c-.03253,.08104-.0515,.16904-.0515,.26171v5.20068c0,.1679,.06122,.32,.15932,.44098h-2.31149c.01571-.05844,.02679-.11869,.02679-.18209v-4.65281c0-.38884-.3152-.70404-.70404-.70404h-4.65281c-.38884,0-.70404,.3152-.70404,.70404v4.65281c0,.38884,.3152,.70404,.70404,.70404h2.23837c-.01571,.05842-.02677,.11869-.02677,.18207v5.2007c0,.13671,.04068,.26325,.10812,.37127h-2.2973c.00675-.03915,.01209-.07882,.01209-.1199v-4.65283c0-.38882-.3152-.70402-.70402-.70402h-4.65283c-.38882,0-.70402,.3152-.70402,.70402v4.65283c0,.38882,.3152,.70402,.70402,.70402h1.99394c-.00675,.03915-.01209,.07884-.01209,.11992v5.20068c0,.09696,.01967,.18933,.05512,.27338h-2.31017c.0029-.02596,.00786-.05129,.00786-.07801v-4.65281c0-.38884-.3152-.70404-.70402-.70404h-4.65283c-.38882,0-.70402,.3152-.70402,.70404v4.65281c0,.38884,.3152,.70404,.70402,.70404h1.82267c-.0029,.02596-.00786,.05129-.00786,.07801v5.20068c0,.0536,.00718,.10531,.01853,.15549-.02823-.00345-.05597-.00858-.08513-.00858h-2.26395c.00203-.02177,.00658-.04282,.00658-.06512v-4.65283c0-.38882-.3152-.70402-.70404-.70402h-4.65281c-.38884,0-.70404,.3152-.70404,.70402v4.65283c0,.38882,.3152,.70402,.70404,.70402h1.7161c-.00203,.02177-.00658,.04282-.00658,.06512v5.20068l.00172,.01715c-.06893-.02255-.14118-.03782-.21766-.03782h-2.20963c.00328-.02759,.00838-.05465,.00838-.08313v-4.65281c0-.38884-.3152-.70404-.70404-.70404h-4.65281c-.38884,0-.70404,.3152-.70404,.70404v4.65281c0,.38884,.3152,.70404,.70404,.70404h1.66178c-.00328,.02759-.00838,.05465-.00838,.08311v5.05599c-.09802-.05177-.20801-.08385-.32657-.08385h-2.20379c.00877-.04438,.01381-.09014,.01381-.13709v-4.65283c0-.38884-.3152-.70402-.70404-.70402h-4.65281c-.38884,0-.70404,.31518-.70404,.70402v4.65283c0,.38882,.3152,.70402,.70404,.70402h1.65592c-.00877,.04438-.01381,.09014-.01381,.13709v4.85226c-.11545-.08282-.25595-.13283-.40888-.13283h-2.25876c.027-.07471,.04421-.15418,.04421-.23822v-4.65281c0-.38884-.3152-.70404-.70402-.70404h-4.65283c-.38882,0-.70402,.3152-.70402,.70404v4.65281c0,.38884,.3152,.70404,.70402,.70404h1.71089c-.027,.07471-.04421,.15416-.04421,.2382v4.58469c-.12455-.11145-.28725-.18124-.46755-.18124h-2.38175c.07162-.11024,.11414-.24117,.11414-.38241v-4.65283c0-.38882-.31518-.70402-.70402-.70402h-4.65283c-.38882,0-.70402,.3152-.70402,.70402v4.65283c0,.38882,.3152,.70402,.70402,.70402h1.8339c-.07162,.11024-.11416,.24117-.11416,.38243v4.25783c-.12803-.13258-.30683-.21573-.50569-.21573h-2.65876c.18787-.12642,.31153-.34092,.31153-.58438v-4.65283c0-.38882-.3152-.70402-.70404-.70402h-4.65281c-.38884,0-.70404,.3152-.70404,.70402v4.65283c0,.38882,.3152,.70402,.70404,.70402h2.11087c-.18787,.12642-.31151,.34092-.31151,.58438v3.86519c-.12911-.14999-.31803-.24699-.53148-.24699h-5.20068c-.38884,0-.70404,.31518-.70404,.70402v3.4024c-.12904-.16045-.32456-.2652-.5465-.2652h-5.20068c-.38884,0-.70404,.3152-.70404,.70402v2.87177c-.12877-.16644-.32824-.27545-.55497-.27545h-5.20068c-.38884,0-.70404,.3152-.70404,.70402v2.27227c-.12854-.1697-.33023-.28102-.55954-.28102h-5.20068c-.27801,0-.51607,.16252-.6305,.39649-.11443-.23397-.35251-.39649-.63052-.39649h-5.20068c-.22939,0-.43113,.11138-.55967,.28117v-2.27242c0-.38882-.3152-.70402-.70402-.70402h-5.2007c-.22673,0-.4262,.10903-.55497,.27549v-2.87342c0-.38882-.3152-.70402-.70402-.70402h-5.2007c-.22255,0-.41857,.10531-.54758,.26653v-3.40211c0-.38884-.3152-.70402-.70404-.70402h-5.20068c-.21353,0-.4025,.09705-.53161,.24714v-3.8683c0-.24168-.12201-.45464-.30755-.58143h2.10947c.38882,0,.70402-.3152,.70402-.70402v-4.65283c0-.38882-.3152-.70402-.70402-.70402h-4.65283c-.38884,0-.70402,.3152-.70402,.70402v4.65283c0,.24168,.12201,.45464,.30755,.58143h-2.65733c-.19924,0-.37828,.08354-.50635,.21656v-4.25867c0-.14005-.04207-.26982-.11257-.37948h1.83551c.38884,0,.70404-.3152,.70404-.70402v-4.65283c0-.38882-.3152-.70402-.70404-.70402h-4.65281c-.38884,0-.70404,.3152-.70404,.70402v4.65283c0,.14005,.04207,.26982,.11257,.37948h-2.38338c-.18042,0-.34325,.06984-.46783,.18145v-4.58626c0-.08244-.01683-.16038-.04286-.2339h1.71305c.38882,0,.70402-.3152,.70402-.70404v-4.65281c0-.38884-.3152-.70404-.70402-.70404h-4.65283c-.38884,0-.70402,.3152-.70402,.70404v4.65281c0,.08244,.01684,.1604,.04288,.23392h-2.26094c-.15191,0-.29169,.04921-.40672,.13105v-4.84752c0-.0465-.00508-.09177-.01368-.13574h1.65713c.38884,0,.70404-.3152,.70404-.70402v-4.65283c0-.38884-.3152-.70402-.70404-.70402h-4.65281c-.38884,0-.70404,.31518-.70404,.70402v4.65283c0,.0465,.00508,.09177,.01368,.13574h-2.205c-.1185,0-.22846,.03204-.32644,.08377v-5.05591c0-.02801-.00506-.05461-.00824-.08176h1.66286c.38882,0,.70402-.3152,.70402-.70404v-4.65281c0-.38884-.3152-.70404-.70402-.70404h-4.65283c-.38882,0-.70402,.3152-.70402,.70404v4.65281c0,.02802,.00506,.05463,.00824,.08178h-2.21071c-.07651,0-.14882,.01529-.21779,.03786l.00172-.01703v-5.2007c0-.02189-.00449-.04252-.00644-.06391h1.71731c.38884,0,.70404-.3152,.70404-.70402v-4.65283c0-.38882-.3152-.70402-.70404-.70402h-4.65281c-.38884,0-.70404,.3152-.70404,.70402v4.65283c0,.02189,.00449,.04252,.00644,.06391h-2.26516c-.02886,0-.05628,.00512-.08422,.00849,.01156-.05061,.01897-.10276,.01897-.15687v-5.20068c0-.02581-.00489-.05023-.0076-.07532h1.8224c.38882,0,.70402-.3152,.70402-.70404v-4.65281c0-.38884-.3152-.70404-.70402-.70404h-4.65283c-.38884,0-.70402,.3152-.70402,.70404v4.65281c0,.02581,.00489,.05025,.0076,.07534h-2.31079c.03509-.08369,.05467-.1755,.05467-.27193v-5.20068c0-.04066-.00536-.07992-.01198-.11871h1.99515c.38884,0,.70404-.3152,.70404-.70402v-4.65283c0-.38882-.3152-.70402-.70404-.70402h-4.65281c-.38884,0-.70404,.3152-.70404,.70402v4.65283c0,.04066,.00536,.07994,.01198,.11871h-2.30073c.06795-.10829,.10886-.23536,.10886-.37264v-5.20068c0-.06245-.01074-.12187-.026-.17953h2.24042c.38882,0,.70402-.3152,.70402-.70404v-4.65281c0-.38884-.3152-.70404-.70402-.70404h-4.65283c-.38882,0-.70402,.3152-.70402,.70404v4.65281c0,.06245,.01074,.12187,.026,.17953h-2.3132c.09783-.12091,.15886-.27278,.15886-.44043v-5.20068c0-.09194-.01883-.17919-.05088-.2597h2.57279c.38884,0,.70404-.3152,.70404-.70402v-4.65283c0-.38882-.3152-.70402-.70404-.70402h-4.65281c-.38884,0-.70404,.3152-.70404,.70402v4.65283c0,.09194,.01883,.17917,.05088,.25969h-2.35017c.12248-.12669,.19862-.29851,.19862-.48864v-5.20068c0-.13067-.03801-.2515-.10003-.35638h3.01337c.38884,0,.70404-.3152,.70404-.70404v-4.65281c0-.38884-.3152-.70404-.70404-.70404h-4.65281c-.38884,0-.70404,.3152-.70404,.70404v4.65281c0,.13067,.03801,.2515,.10003,.35638h-2.42999c.14185-.12879,.23251-.31283,.23251-.51952v-5.20068c0-.17961-.06931-.34171-.18001-.46609h3.57409c.38882,0,.70402-.3152,.70402-.70404v-4.65281c0-.38884-.3152-.70404-.70402-.70404h-4.65283c-.38884,0-.70402,.3152-.70402,.70404v4.65281c0,.17961,.06931,.34171,.18001,.46609h-2.56851c.15746-.12911,.26001-.32271,.26001-.54222v-5.20068c0-.24199-.12225-.45523-.30819-.58196h4.28264c.38882,0,.70402-.3152,.70402-.70404v-4.65283c0-.38882-.3152-.70402-.70402-.70402h-4.65283c-.38884,0-.70402,.3152-.70402,.70402v4.65283c0,.24199,.12225,.45525,.30819,.58198h-2.77011c.16313-.12894,.26978-.32621,.26978-.55027v-5.2007c0-.38882-.31518-.70402-.70402-.70402h-2.57879c.16828-.12864,.27858-.32936,.27858-.55753v-5.2007c0-.38882-.3152-.70402-.70404-.70402h-1.95362c.16885-.1286,.27954-.3297,.27954-.55833v-5.20068c0-.22929-.1113-.431-.281-.55954h1.95508c.38884,0,.70404-.3152,.70404-.70402v-5.2007c0-.22817-.1103-.42889-.27858-.55753h2.57879c.38884,0,.70402-.31518,.70402-.70402v-5.20068c0-.22484-.10732-.42273-.2714-.55162h2.77529c-.18799,.1264-.31175,.34095-.31175,.58451v4.65281c0,.38884,.31518,.70404,.70402,.70404h4.65283c.38882,0,.70402-.3152,.70402-.70404v-4.65281c0-.38882-.3152-.70402-.70402-.70402h-4.2862c.18799-.1264,.31175-.34095,.31175-.58451v-5.2007c0-.21807-.10124-.41053-.25692-.53966h2.56542c-.1107,.12438-.18001,.28648-.18001,.46609v4.65281c0,.38884,.31518,.70404,.70402,.70404h4.65283c.38882,0,.70402-.3152,.70402-.70404v-4.65281c0-.38884-.3152-.70404-.70402-.70404h-3.57261c.1107-.12438,.18001-.28646,.18001-.46607v-5.2007c0-.20744-.09137-.39202-.23412-.52087h2.43085c-.06251,.10516-.10075,.22651-.10075,.35772v4.65283c0,.38882,.3152,.70402,.70404,.70402h4.65281c.38884,0,.70404-.3152,.70404-.70402v-4.65283c0-.38884-.3152-.70402-.70404-.70402h-3.01409c.06251-.10516,.10075-.22651,.10075-.35772v-5.2007c0-.19007-.0761-.36183-.1985-.4885h2.35043c-.03234,.08083-.05125,.16854-.05125,.26092v4.65281c0,.38884,.3152,.70404,.70404,.70404h4.65281c.38884,0,.70404-.3152,.70404-.70404v-4.65281c0-.38884-.3152-.70404-.70404-.70404h-2.57169c.03234-.08081,.05125-.16853,.05125-.2609v-5.2007c0-.16763-.06103-.31952-.15886-.44043h2.3121c-.01548,.05802-.02638,.11786-.02638,.18075v4.65281c0,.38884,.3152,.70404,.70402,.70404h4.65283c.38882,0,.70402-.3152,.70402-.70404v-4.65281c0-.38884-.3152-.70404-.70402-.70404h-2.2393c.01546-.05802,.02636-.11784,.02636-.18073v-5.2007c0-.13677-.04068-.26336-.10818-.3714h2.29857c-.00661,.03877-.01198,.07803-.01198,.11869v4.65283c0,.38882,.3152,.70402,.70404,.70402h4.65281c.38884,0,.70404-.3152,.70404-.70402v-4.65283c0-.38882-.3152-.70402-.70404-.70402h-1.99381c.00661-.03879,.01198-.07805,.01198-.11871v-5.20068c0-.09692-.01965-.18922-.05508-.27325h2.30999c-.0028,.02552-.00773,.0504-.00773,.07666v4.65283c0,.38882,.31518,.70402,.70402,.70402h4.65283c.38882,0,.70402-.3152,.70402-.70402v-4.65283c0-.38884-.3152-.70402-.70402-.70402h-1.82253c.0028-.02552,.00773-.05042,.00773-.07668v-5.20068c0-.0536-.00718-.10531-.01853-.15549,.0278,.00333,.05508,.00845,.08379,.00845h2.26516c-.00195,.02139-.00644,.04203-.00644,.06391v4.65283c0,.38884,.3152,.70402,.70404,.70402h4.65281c.38884,0,.70404-.31518,.70404-.70402v-4.65283c0-.38882-.3152-.70402-.70404-.70402h-1.71731c.00195-.02139,.00644-.04203,.00644-.06391v-5.20068l-.00201-.01997c.06907,.02262,.14145,.03795,.21807,.03795h2.21099c-.00341,.02806-.00853,.05561-.00853,.0846v4.65281c0,.38884,.3152,.70404,.70402,.70404h4.65283c.38882,0,.70402-.3152,.70402-.70404v-4.65281c0-.38884-.3152-.70404-.70402-.70404h-1.66314c.00341-.02806,.00853-.05561,.00853-.08458v-5.05383c.0983,.05216,.20873,.08451,.32779,.08451h2.20366c-.0086,.044-.01368,.08927-.01368,.13576v4.65281c0,.38884,.3152,.70404,.70404,.70404h4.65281c.38884,0,.70404-.3152,.70404-.70404v-4.65281c0-.38884-.3152-.70404-.70404-.70404h-1.65579c.0086-.04398,.01368-.08925,.01368-.13574v-4.85032c.11503,.08184,.25482,.13105,.40672,.13105h2.26046c-.02666,.0743-.04375,.15323-.04375,.23672v4.65283c0,.38882,.31518,.70402,.70402,.70402h4.65283c.38882,0,.70402-.3152,.70402-.70402v-4.65283c0-.38882-.3152-.70402-.70402-.70402h-1.7126c.02668-.07431,.04375-.15325,.04375-.23674v-4.58334c.12457,.11153,.28733,.18135,.4677,.18135h2.38217c-.07051,.10965-.11257,.23943-.11257,.37948v4.65283c0,.38884,.3152,.70402,.70404,.70402h4.65281c.38884,0,.70404-.31518,.70404-.70402v-4.65283c0-.38882-.3152-.70402-.70404-.70402h-1.8343c.07051-.10965,.11255-.23943,.11255-.37948v-4.26181c.12817,.13393,.3077,.21823,.50772,.21823h2.65656c-.18664,.12661-.30933,.34039-.30933,.5829v4.65283c0,.38882,.31518,.70402,.70402,.70402h4.65283c.38882,0,.70402-.3152,.70402-.70402v-4.65283c0-.38882-.3152-.70402-.70402-.70402h-2.10871c.18664-.12661,.30935-.34039,.30935-.5829v-3.86519c.12909,.14916,.31752,.24551,.53027,.24551h5.20068c.38884,0,.70404-.31518,.70404-.70402v-3.40065c.12904,.16038,.32451,.26507,.54637,.26507h5.2007c.38882,0,.70402-.3152,.70402-.70402v-2.87505c.1287,.16741,.32883,.27712,.55632,.27712h5.20068c.38884,0,.70404-.3152,.70404-.70402v-2.27227c.12854,.1697,.33023,.28102,.55954,.28102h5.20068c.27801,0,.51609-.16252,.63052-.39649,.11443,.23397,.35249,.39649,.6305,.39649h5.20068c.22939,0,.43113-.11138,.55967-.28117v2.27242c0,.38882,.3152,.70402,.70402,.70402h5.2007c.22672,0,.4262-.10903,.55497-.27549v2.87342c0,.38882,.3152,.70402,.70404,.70402h5.20066c.22188,0,.41735-.10469,.54639-.26507v3.40065c0,.38884,.3152,.70402,.70404,.70402h5.20068c.21351,0,.4025-.09707,.53161-.24716v3.86684c0,.24252,.12271,.45629,.30933,.5829h-2.11003c-.38884,0-.70404,.3152-.70404,.70402v4.65283c0,.38882,.3152,.70402,.70404,.70402h4.65281c.38884,0,.70404-.3152,.70404-.70402v-4.65283c0-.24252-.12271-.45629-.30935-.5829h2.65792c.19922,0,.37828-.08354,.50635-.21654v4.26013c0,.14005,.04207,.26982,.11257,.37948h-1.83432c-.38882,0-.70402,.3152-.70402,.70402v4.65283c0,.38884,.3152,.70402,.70402,.70402h4.65283c.38884,0,.70402-.31518,.70402-.70402v-4.65283c0-.14005-.04205-.26982-.11255-.37948h2.38217c.18037,0,.34313-.06982,.4677-.18135v4.58334c0,.08349,.01707,.16242,.04375,.23674h-1.7126c-.38882,0-.70402,.3152-.70402,.70402v4.65283c0,.38882,.3152,.70402,.70402,.70402h4.65283c.38882,0,.70402-.3152,.70402-.70402v-4.65283c0-.08349-.01707-.16242-.04375-.23672h2.26046c.15253,0,.29277-.04972,.40807-.13216v4.85144c0,.0465,.00508,.09177,.01368,.13574h-1.65713c-.38884,0-.70404,.3152-.70404,.70404v4.65281c0,.38884,.3152,.70404,.70404,.70404h4.65281c.38884,0,.70404-.3152,.70404-.70404v-4.65281c0-.0465-.00508-.09177-.01368-.13576h2.205c.1185,0,.22844-.03206,.32642-.08377v5.05457c0,.02846,.0051,.05552,.00838,.08311h-1.66297c-.38884,0-.70404,.3152-.70404,.70404v4.65281c0,.38884,.3152,.70404,.70404,.70404h4.65281c.38884,0,.70404-.3152,.70404-.70404v-4.65281c0-.02848-.0051-.05554-.00838-.08313h2.21084c.07657,0,.1489-.01531,.2179-.0379l-.00186,.01844v5.20068c0,.02189,.00449,.04252,.00644,.06391h-1.71729c-.38884,0-.70404,.3152-.70404,.70402v4.65283c0,.38884,.3152,.70402,.70404,.70402h4.65281c.38884,0,.70404-.31518,.70404-.70402v-4.65283c0-.02189-.00449-.04252-.00644-.06391h2.26516c.02871,0,.05599-.00512,.08379-.00845-.01135,.05017-.01853,.10188-.01853,.15549v5.20068c0,.02626,.00493,.05116,.00773,.07668h-1.82253c-.38882,0-.70402,.31518-.70402,.70402v4.65283c0,.38882,.3152,.70402,.70402,.70402h4.65283c.38882,0,.70402-.3152,.70402-.70402v-4.65283c0-.02626-.00493-.05114-.00773-.07666h2.30962c-.03511,.08371-.0547,.17557-.0547,.27204v5.2007c0,.04108,.00534,.08076,.01209,.1199h-1.99394c-.38882,0-.70402,.3152-.70402,.70402v4.65283c0,.38882,.3152,.70402,.70402,.70402h4.65283c.38882,0,.70402-.3152,.70402-.70402v-4.65283c0-.04108-.00534-.08076-.01209-.1199h2.29936c-.06795,.10829-.10884,.23536-.10884,.37262v5.2007c0,.06289,.0109,.12271,.02636,.18073h-2.2393c-.38884,0-.70404,.3152-.70404,.70404v4.65281c0,.38884,.3152,.70404,.70404,.70404h4.65281c.38884,0,.70404-.3152,.70404-.70404v-4.65281c0-.06289-.0109-.12273-.02638-.18075h2.31244c-.09804,.12097-.1592,.27301-.1592,.44085v5.20068c0,.09222,.01887,.17978,.05112,.2605h-2.57157c-.38882,0-.70402,.3152-.70402,.70404v4.65281c0,.38884,.3152,.70404,.70402,.70404h4.65283c.38884,0,.70404-.3152,.70404-.70404v-4.65281c0-.09224-.01887-.1798-.05112-.26052h2.35109c-.12292,.12674-.1993,.29895-.1993,.48945v5.2007c0,.13067,.03801,.2515,.10003,.35638h-3.01337c-.38884,0-.70404,.31518-.70404,.70402v4.65283c0,.38882,.3152,.70402,.70404,.70402h4.65281c.38884,0,.70404-.3152,.70404-.70402v-4.65283c0-.13067-.03801-.2515-.10003-.35638h2.42997c-.14266,.12883-.23397,.31337-.23397,.52073v5.20068c0,.17904,.06893,.34063,.17902,.46488h-3.57162c-.38882,0-.70402,.3152-.70402,.70404v4.65281c0,.38884,.3152,.70404,.70402,.70404h4.65283c.38884,0,.70402-.3152,.70402-.70404v-4.65281c0-.17904-.06893-.34063-.179-.46488h2.56458c-.15577,.12915-.25709,.32165-.25709,.5398v5.20068c0,.24269,.12282,.45659,.30965,.58319h-4.28409c-.38882,0-.70402,.3152-.70402,.70402v4.65281c0,.38884,.3152,.70404,.70402,.70404h4.65283c.38884,0,.70402-.3152,.70402-.70404v-4.65281c0-.24267-.12282-.45658-.30965-.58317h2.77485c-.16417,.12889-.27158,.32686-.27158,.55175v5.20068c0,.38884,.3152,.70402,.70402,.70402h2.57554c-.16722,.12872-.2768,.32871-.2768,.55605v5.2007c0,.38882,.3152,.70402,.70404,.70402h1.95654c-.17057,.12847-.28246,.33076-.28246,.56075v5.20068c0,.22863,.11071,.42973,.27956,.55833h-1.95525c-.38884,0-.70404,.3152-.70404,.70402v5.2007c0,.2287,.11079,.42986,.27971,.55846h-2.57684Zm-201.14221,.70188v5.09849h-1.63767v-5.63226l-.00239-.02376h1.91866c-.16828,.12864-.2786,.32936-.2786,.55753Zm0-25.74957v5.09849c0,.22817,.1103,.42889,.27858,.55753h-1.91678l.00227-.02257v-5.63345h1.63593Zm-3.00196,6.33749l-.00227,.02255v5.2007c0,.22929,.1113,.43098,.281,.55952h-1.95509c-.03505,0-.06867,.00538-.10236,.01033,.01285-.05321,.02153-.10799,.02153-.16513v-5.62796h1.7572Zm-4.29778,6.33198h1.83655c.03507,0,.06867-.00538,.10236-.01033-.01285,.05321-.02153,.108-.02153,.16515v5.20068c0,.05626,.0083,.11024,.02077,.16269-.03399-.00504-.06795-.01042-.10334-.01042h-1.83481v-5.50777Zm2.51807,6.0491c.03399,.00504,.06795,.01042,.10334,.01042h1.95364c-.16883,.1286-.27954,.3297-.27954,.55833v5.2007l.00239,.02376h-1.75906v-5.6305c0-.05626-.0083-.11026-.02077-.16271Zm211.8286-13.61861v-5.09875h1.63271v5.63091l.00241,.02389h-1.91189c.16722-.12872,.27678-.32871,.27678-.55605Zm5.46171,13.07983c-.0345,0-.06753,.00536-.10069,.01016,.01283-.05315,.02147-.10789,.02147-.16498v-5.20068c0-.05618-.00828-.11013-.02071-.16252,.03348,.00489,.06685,.01025,.10168,.01025h1.83481v5.50777h-1.83655Zm-.68157-6.04929c-.03348-.00489-.06685-.01025-.10168-.01025h-1.95671c.1697-.12854,.281-.33023,.281-.55952v-5.2007l-.00241-.02389h1.75908v5.63184c0,.0562,.00828,.11013,.02071,.16252Zm-1.78138,12.38262l.00241-.02389v-5.2007c0-.22863-.11071-.42973-.27956-.55833h1.95525c.03492,0,.06842-.00538,.10198-.01029-.01266,.05283-.02115,.10721-.02115,.1639v5.6293h-1.75892Zm-5.02035-30.85223v5.53437h-1.82602c.16417-.12889,.27158-.32686,.27158-.55177v-4.9826h1.55444Zm-4.14041-6.33641v5.41432h-1.76385c.15577-.12915,.25709-.32166,.25709-.53982v-4.8745h1.50676Zm-6.28023-1.0302c.14266-.12885,.23399-.31337,.23399-.52073v-4.77904h1.48179v5.29978h-1.71578Zm-4.90237-6.42545c.12292-.12674,.19928-.29895,.19928-.48945v-4.69779h1.48541v5.18724h-1.68469Zm-5.23067-6.39417c.09802-.12097,.15918-.27301,.15918-.44083v-4.6296h1.5089v5.07043h-1.66809Zm-5.50309-6.34555c.06795-.10829,.10884-.23536,.10884-.37262v-4.58206h1.5453v4.95467h-1.65414Zm-5.73509-6.27733c.03511-.08371,.0547-.17557,.0547-.27206v-4.55894h1.59686v4.831h-1.65156Zm-5.84999-6.17676c-.02871,0-.05599,.00512-.08381,.00845,.01135-.05017,.01853-.10188,.01853-.15549v-4.55479h1.65596v4.70183h-1.59068Zm-5.96997-6.05175c-.07657,0-.14891,.01531-.21792,.03792l.00186-.01844v-4.58179h1.73062v4.56231h-1.51455Zm-6.12076-5.88524c-.1185,0-.22844,.03206-.32644,.08377v-4.49715h1.80527v4.41338h-1.47883Zm-6.23116-5.67482c-.15253,0-.29277,.04972-.40807,.13216v-4.38778h1.89094v4.25562h-1.48287Zm-6.31278-5.42332c-.18037,0-.34313,.06984-.4677,.18137v-4.26094h1.98602v4.07957h-1.51832Zm-6.3724-5.10601c-.19924,0-.3783,.08356-.50637,.21658v-4.12358h2.08282v3.90701h-1.57645Zm-6.41109-4.74761c-.21353,0-.4025,.09705-.53161,.24716v-3.86682c0-.0357-.00536-.06994-.0105-.1042h2.19968v3.72385h-1.65757Zm-6.43631-4.3237c-.22188,0-.41735,.10469-.54639,.26507v-3.40065c0-.14954-.04733-.28761-.12684-.40163h2.43068v3.43302c0,.0357,.00536,.06994,.0105,.1042h-1.76794Zm-41.76869-.1042v-3.43637h2.43212c-.08102,.11469-.12961,.25389-.12961,.40498v3.40065c-.12904-.16038-.32451-.26507-.54639-.26507h-1.76662c.00513-.03426,.0105-.0685,.0105-.1042Zm-6.33641,.70404h2.19833c-.00513,.03426-.0105,.0685-.0105,.1042v3.86519c-.12909-.14916-.31752-.24553-.53028-.24553h-1.65755v-3.72385Zm-6.32997,4.56604h2.08282v4.12362c-.12817-.13393-.3077-.21821-.50772-.21821h-1.57511v-3.90542Zm-6.31426,4.93186h1.98465v4.26092c-.12457-.11153-.28733-.18135-.4677-.18135h-1.51696v-4.07957Zm-6.27733,5.24727h1.88959v4.38668c-.11503-.08184-.25482-.13106-.40674-.13106h-1.48285v-4.25562Zm-6.22847,5.51705h1.8066v4.49639c-.0983-.05216-.20871-.08449-.32777-.08449h-1.47883v-4.4119Zm-6.155,5.73483h1.72912v4.58179l.00201,.01995c-.06905-.02262-.14143-.03795-.21806-.03795h-1.51307v-4.56379Zm-6.04759,5.91372h1.65594v4.55479c0,.0536,.00718,.10531,.01853,.15549-.0278-.00333-.05508-.00845-.08379-.00845h-1.59068v-4.70183Zm-5.91089,6.04611h1.59686v4.56042c0,.09692,.01965,.18924,.05508,.27327h-1.65194v-4.83369Zm-5.73765,6.15514h1.5453v4.58325c0,.13679,.04068,.26338,.10818,.37142h-1.65348v-4.95467Zm-5.51704,6.22847h1.5089v4.63092c0,.16763,.06103,.31952,.15886,.44043h-1.66776v-5.07136Zm-5.24727,6.27733h1.48541v4.69874c0,.19007,.07611,.36183,.19852,.4885h-1.68393v-5.18724Zm-4.93186,6.31426h1.48018v4.7777c0,.20744,.09141,.39202,.23416,.52087h-1.71434v-5.29856Zm-2.80238,11.74294h-1.76368v-5.41297h1.50676v4.87331c0,.21807,.10124,.41053,.25692,.53966Zm-4.34966,.92344v4.98128c0,.22484,.10736,.42273,.27143,.55162h-1.8225v-5.5329h1.55106Zm-15.49031,13.22352v4.96193h-1.21255v-4.96193h1.21255Zm-3.91197,6.19811h1.3714v4.68422h-1.3714v-4.68422Zm3.91023,10.88233h-1.21081v-4.96193h1.21081v4.96193Zm13.93925,13.22352v-5.53409h1.82259c-.16313,.12894-.26978,.32621-.26978,.55027v4.98381h-1.55281Zm4.13878,6.33643v-5.41553h1.76529c-.15744,.12911-.26001,.32271-.26001,.54222v4.87331h-1.50528Zm6.27877,1.03139c-.14185,.12879-.23253,.31285-.23253,.51954v4.77904h-1.48018v-5.29858h1.71271Zm4.90169,6.42426c-.12248,.12669-.19862,.29851-.19862,.48864v4.69861h-1.48393v-5.18724h1.68254Zm5.23101,6.39335c-.09783,.12091-.15886,.27278-.15886,.44043v4.63079h-1.50742v-5.07122h1.66629Zm5.50354,6.34513c-.06795,.10829-.10884,.23536-.10884,.37264v4.58192h-1.54396v-4.95456h1.6528Zm5.73638,6.27735c-.03507,.08368-.05467,.17548-.05467,.27191v4.55909h-1.59819v-4.831h1.65285Zm5.85005,6.17662c.02884,0,.05626-.00512,.08421-.00849-.01156,.05061-.01895,.10274-.01895,.15685v4.55481h-1.65742v-4.70317h1.59216Zm5.96997,6.05308c.07651,0,.1488-.01529,.21777-.03786l-.00172,.01703v4.58179h-1.7306v-4.56097h1.51455Zm6.12076,5.88389c.1185,0,.22846-.03206,.32644-.08377v4.49851h-1.80662v-4.41474h1.48018Zm6.23114,5.67616c.15193,0,.29171-.04923,.40674-.13106v4.38668h-1.88959v-4.25562h1.48285Zm6.31146,5.42049c.18041,0,.34323-.06986,.46781-.18145v4.26236h-1.98479v-4.08091h1.51697Zm6.37253,5.10883c.19924,0,.3783-.08356,.50637-.21658v4.12199h-2.08161v-3.90542h1.57524Zm6.41109,4.74613c.21351,0,.4025-.09707,.53161-.24716v3.8683c0,.0357,.00536,.06994,.0105,.1042h-2.19847v-3.72533h1.65636Zm6.43631,4.32517c.22257,0,.41858-.10531,.5476-.26654v3.40213c0,.15035,.048,.289,.12828,.40337h-2.43214v-3.43476c0-.0357-.00536-.06994-.0105-.1042h1.76675Zm41.76988,.1042v3.43476h-2.43079c.07956-.11405,.12695-.25216,.12695-.40176v-3.40243c.12904,.16047,.32456,.26524,.54652,.26524h1.76781c-.00513,.03426-.0105,.0685-.0105,.1042Zm6.33643-.70404h-2.19955c.00513-.03426,.0105-.0685,.0105-.1042v-3.86521c.12911,.15001,.31803,.24703,.53148,.24703h1.65757v3.72238Zm6.3305-4.56604h-2.08336v-4.11822c.12803,.13258,.30683,.21574,.50569,.21574h1.57767v3.90248Zm6.31373-4.93025h-1.98668v-4.26094c.12455,.11145,.28725,.18124,.46757,.18124h1.51912v4.0797Zm6.27733-5.24888h-1.89173v-4.3871c.11545,.08282,.25595,.13283,.40888,.13283h1.48285v4.25427Zm6.22847-5.51556h-1.80662v-4.49872c.09802,.05177,.20801,.08385,.32657,.08385h1.48004v4.41488Zm6.15379-5.73632h-1.72912v-4.58327l-.00172-.01713c.06893,.02255,.14118,.03782,.21764,.03782h1.5132v4.56258Zm6.0488-5.91222h-1.65729v-4.55507c0-.0536-.00718-.10531-.01853-.15549,.02823,.00345,.05597,.00858,.08513,.00858h1.59068v4.70198Zm5.9094-6.04759h-1.59538v-4.55909c0-.09698-.01967-.18933-.05512-.2734h1.6505v4.83249Zm5.73767-6.15515h-1.54382v-4.58204c0-.13673-.04066-.26327-.10812-.37129h1.65194v4.95333Zm5.51704-6.22845h-1.50877v-4.6296c0-.16788-.0612-.31998-.15928-.44096h1.66805v5.07056Zm5.24727-6.27733h-1.48541v-4.69794c0-.18958-.07577-.36087-.19763-.48744h1.68304v5.18539Zm4.93334-6.31292h-1.48152v-4.77717c0-.20782-.09173-.39268-.23494-.52155h1.71646v5.29871Zm2.80092-11.74431h1.7634v5.41432h-1.50502v-4.87344c0-.21876-.10187-.41174-.25838-.54088Zm4.35111-.9221v-4.9826c0-.22431-.10687-.42177-.27028-.55069h1.82134v5.53329h-1.55106Zm15.49031-13.22486v-4.96193h1.21255v4.96193h-1.21255Zm5.66421-22.58755h.51791v4.00074h-.51791v-4.00074Zm-7.70447,4.13812h-1.08471v-4.83907h1.08471v4.83907Zm-3.755-11.05785v4.72199h-.98402v-4.72199h.98402Zm-9.68886-7.95328v-4.52095h.87967v4.52095h-.87967Zm-4.93345-6.33641v-4.43219h.86099v4.43219h-.86099Zm-5.24729-6.32997v-4.34679h.85765v4.34679h-.85765Zm-5.51704-6.31292v-4.261h.87241v4.261h-.87241Zm-5.73767-6.27733v-4.17908h.89941v4.17908h-.89941Zm-5.91087-6.22981v-4.08791h.93163v4.08791h-.93163Zm-6.04611-6.15366v-3.99055h.97447v3.99055h-.97447Zm-6.15648-6.04759v-3.88916h1.02777v3.88916h-1.02777Zm-6.22712-5.91224v-3.77689h1.08579v3.77689h-1.08579Zm-6.27733-5.73632v-3.65215h1.14891v3.65215h-1.14891Zm-6.31426-5.51704v-3.51734h1.22544v3.51734h-1.22544Zm-6.32999-5.24727v-3.37862h1.30817v3.37862h-1.30817Zm-6.33641-4.93345v-3.22959h1.39853v3.22959h-1.39853Zm-6.3391-4.56445v-3.07785h1.50072v3.07785h-1.50072Zm-6.33749-4.13706v-2.92557h1.61137v2.92557h-1.61137Zm-6.33452-3.65939v-2.42096c0-.13023-.0378-.25067-.09944-.3553h1.83231v2.77625h-1.73287Zm-21.55131-2.77625h1.83231c-.06164,.10463-.09944,.22507-.09944,.3553v2.41919h-1.73287v-2.77449Zm-6.21302,3.51008h1.61137v2.92221h-1.61137v-2.92221Zm-6.22684,3.98477h1.50191v3.07785h-1.50191v-3.07785Zm-6.23694,4.41272h1.39987v3.2312h-1.39987v-3.2312Zm-6.24603,4.78442h1.30949v3.37862h-1.30949v-3.37862Zm-6.24726,5.10855h1.22678v3.51734h-1.22678v-3.51734Zm-6.23773,5.38222h1.15025v3.65215h-1.15025v-3.65215Zm-6.21422,5.61159h1.08713v3.77541h-1.08713v-3.77541Zm-6.16912,5.79997h1.02779v3.88916h-1.02779v-3.88916Zm-6.10316,5.94619h.97595v3.98907h-.97595v-3.98907Zm-6.00327,6.0563h.93163v4.08791h-.93163v-4.08791Zm-5.87866,6.13863h.89941v4.17774h-.89941v-4.17774Zm-5.71067,6.19542h.87241v4.25965h-.87241v-4.25965Zm-5.50228,6.22712h.85765v4.34679h-.85765v-4.34679Zm-5.25062,6.24457h.86099v4.43219h-.86099v-4.43219Zm-4.95213,6.24766h.88128v4.52095h-.88128v-4.52095Zm-7.82182,17.19754h-.98737v-4.72331h.98737v4.72331Zm-3.65941,1.49547v4.83651h-1.08297v-4.83651h1.08297Zm-8.78744,.70095v4.00074h-.51791v-4.00074h.51791Zm-3.2528,6.06974v4.12537h-.65059v-4.12537h.65059Zm-3.52124,6.05511h.8218v3.84497h-.8218v-3.84497Zm2.87065,5.77471h.65059v4.12537h-.65059v-4.12537Zm3.90339,10.1951h-.51791v-4.00074h.51791v4.00074Zm7.70447-4.13812h1.08122v4.83905h-1.08122v-4.83905Zm3.755,11.05785v-4.72331h.98563v4.72331h-.98563Zm9.69047,7.95328v4.52095h-.88128v-4.52095h.88128Zm4.93184,6.33641v4.43219h-.86099v-4.43219h.86099Zm5.24729,6.32999v4.34678h-.85765v-4.34678h.85765Zm5.51704,6.3129v4.261h-.87241v-4.261h.87241Zm5.73632,6.27735v4.17907h-.89807v-4.17907h.89807Zm5.91074,6.22845v4.08925h-.93015v-4.08925h.93015Zm6.04759,6.15381v3.99174h-.97447v-3.99174h.97447Zm6.15514,6.04878v3.88918h-1.02644v-3.88918h1.02644Zm6.22847,5.91089v3.77823h-1.08579v-3.77823h1.08579Zm6.27733,5.73767v3.65215h-1.14891v-3.65215h1.14891Zm6.31426,5.51704v3.51734h-1.22544v-3.51734h1.22544Zm6.32997,5.24579v3.38009h-1.30815v-3.38009h1.30815Zm6.33643,4.93332v3.2312h-1.39855v-3.2312h1.39855Zm6.3391,4.56606v3.07785h-1.50072v-3.07785h1.50072Zm6.33615,4.1388v2.92382h-1.61003v-2.92382h1.61003Zm6.33332,3.65591v2.42096c0,.13093,.03812,.25203,.10039,.35704h-1.83072v-2.778h1.73033Zm21.55385,2.778h-1.83231c.06164-.10463,.09944-.22507,.09944-.3553v-2.41919h1.73287v2.77449Zm6.21302-3.51008h-1.61137v-2.92382h1.61137v2.92382Zm6.22684-3.98477h-1.50193v-3.07785h1.50193v3.07785Zm6.23692-4.41272h-1.39987v-3.2312h1.39987v3.2312Zm6.24605-4.78442h-1.30949v-3.37701h1.30949v3.37701Zm6.24726-5.10855h-1.22625v-3.51734h1.22625v3.51734Zm6.23773-5.38222h-1.15025v-3.65068h1.15025v3.65068Zm6.21422-5.61159h-1.08713v-3.77541h1.08713v3.77541Zm6.1691-5.79995h-1.02777v-3.8877h1.02777v3.8877Zm6.10318-5.94621h-.97716v-3.98905h.97716v3.98905Zm6.00327-6.0563h-.93163v-4.08791h.93163v4.08791Zm5.87866-6.13863h-.90089v-4.17772h.90089v4.17772Zm5.71067-6.19542h-.87389v-4.25965h.87389v4.25965Zm5.50228-6.22712h-.85913v-4.34545h.85913v4.34545Zm5.25062-6.24457h-.86247v-4.43085h.86247v4.43085Zm4.95213-6.24766h-.88128v-4.5196h.88128v4.5196Zm7.82182-17.1962h.98737v4.72197h-.98737v-4.72197Zm3.65941-1.49683v-4.83649h1.08297v4.83649h-1.08297Zm8.78744-.70093v-4.00074h.51791v4.00074h-.51791Zm3.2528-6.06974v-4.12537h.65059v4.12537h-.65059Zm2.69944-6.05511v-3.84497h.8218v3.84497h-.8218Zm-9.29408-18.16716h-.41317v-3.89427h.41317v3.89427Zm-4.28099-6.20806h-.33663v-3.79785h.33663v3.79785Zm-4.6645-6.21878h-.27689v-3.71527h.27689v3.71527Zm-4.99052-6.23222h-.23848v-3.64302h.23848v3.64302Zm-5.27293-6.24203h-.21618v-3.58259h.21618v3.58259Zm-5.50696-6.24766h-.2115v-3.5227h.2115v3.5227Zm-5.71014-6.24457h-.21203v-3.46792h.21203v3.46792Zm-5.8643-6.2271h-.22639v-3.41422h.22639v3.41422Zm-5.985-6.19542h-.24466v-3.35487h.24466v3.35487Zm-6.07015-6.13863h-.27769v-3.28638h.27769v3.28638Zm-6.13607-6.05632h-.31071v-3.21507h.31071v3.21507Zm-6.1734-5.94619h-.35155v-3.13316h.35155v3.13316Zm-6.18977-5.79997h-.39949v-3.04333h.39949v3.04333Zm-6.18778-5.61157h-.45896v-2.93873h.45896v2.93873Zm-6.18159-5.38224h-.52343v-2.8294h.52343v2.8294Zm-6.15997-5.10855h-.60037v-2.71139h.60037v2.71139Zm-6.13623-4.7844h-.691v-2.59147h.691v2.59147Zm-6.11163-4.41272h-.79238v-2.45976h.79238v2.45976Zm-6.09162-3.98477h-.90356v-2.33474h.90356v2.33474Zm-6.06974-3.5101h-1.02912v-2.21012h1.02912v2.21012Zm-121.12083,100.34324h-.33663v-3.79785h.33663v3.79785Zm-4.20446,6.20806h-.41317v-3.89427h.41317v3.89427Zm-.41317,32.48937h.41317v3.89425h-.41317v-3.89425Zm4.28099,6.20804h.33663v3.79785h-.33663v-3.79785Zm4.6645,6.21878h.27689v3.71527h-.27689v-3.71527Zm4.99052,6.23222h.23848v3.64304h-.23848v-3.64304Zm5.27293,6.24203h.21618v3.58259h-.21618v-3.58259Zm5.50696,6.24766h.2115v3.5227h-.2115v-3.5227Zm5.71014,6.24457h.21203v3.46792h-.21203v-3.46792Zm5.8643,6.22712h.22639v3.4142h-.22639v-3.4142Zm5.985,6.19542h.24466v3.35486h-.24466v-3.35486Zm6.07013,6.13861h.2777v3.28638h-.2777v-3.28638Zm6.13609,6.05632h.31071v3.21507h-.31071v-3.21507Zm6.17338,5.94619h.35157v3.13316h-.35157v-3.13316Zm6.18979,5.79997h.39949v3.04333h-.39949v-3.04333Zm6.18778,5.61157h.45896v2.93873h-.45896v-2.93873Zm6.18159,5.38224h.52343v2.8294h-.52343v-2.8294Zm6.15997,5.10855h.60037v2.71139h-.60037v-2.71139Zm6.13621,4.7844h.691v2.59147h-.691v-2.59147Zm6.11163,4.41272h.7924v2.45976h-.7924v-2.45976Zm6.09162,3.98477h.90358v2.33474h-.90358v-2.33474Zm6.06976,3.5101h1.02912v2.21012h-1.02912v-2.21012Zm121.12083-100.34324h.33663v3.79785h-.33663v-3.79785Zm4.20446-6.20804h.41317v3.89425h-.41317v-3.89425Zm-101.04245-142.25789h-.07534v-1.89067h.07534v1.89067Zm-5.93894-3.85975h-.19149v-1.78471h.19149v1.78471Zm-5.91533-3.38548h-.32483v-1.68643h.32483v1.68643Zm-137.70941,125.8495v3.28276h-.10338v-3.28276h.10338Zm-3.14243,5.9101h.27179v2.99617h-.27179v-2.99617Zm3.03905,5.62498h.10338v3.2798h-.10338v-3.2798Zm117.05657,121.88703h.07532v1.88866h-.07532v-1.88866Zm5.93719,3.85975h.19323v1.78471h-.19323v-1.78471Zm5.91707,3.38548h.32483v1.68643h-.32483v-1.68643Zm137.70941-125.85098v-3.28128h.10124v3.28128h-.10124Z"/>
</svg>