<?xml version="1.0" encoding="UTF-8"?>
<svg id="Capa_2" data-name="Capa 2" xmlns="http://www.w3.org/2000/svg" width="210mm" height="209.99999mm" viewBox="0 0 595.27559 595.27557">
  <path d="M280.81493,351.65621c-6.20325,0-11.25004,5.04679-11.25004,11.25004s5.04679,11.25004,11.25004,11.25004,11.25004-5.04679,11.25004-11.25004-5.04679-11.25004-11.25004-11.25004Zm0,16.579c-2.93827,0-5.32897-2.3904-5.32897-5.32897s2.39069-5.32897,5.32897-5.32897,5.32897,2.3904,5.32897,5.32897-2.39069,5.32897-5.32897,5.32897Z"/>
  <path d="M292.17916,388.20496c1.73411,0,3.14499-1.43285,3.14499-3.19414s-1.41088-3.19472-3.14499-3.19472c-1.7344,0-3.14557,1.43343-3.14557,3.19472s1.41117,3.19414,3.14557,3.19414Z"/>
  <path d="M344.62114,333.32893c-1.26517-22.19622-13.00583-32.75007-22.6322-37.69509-1.96551-1.0097-3.91635-1.82815-5.79061-2.49329,.2512-11.44465,2.63279-66.79649,25.06908-105.59578,1.20272-2.0796,1.25592-4.26473,.14976-6.15323-1.5219-2.59885-5.46283-5.76437-22.5712-7.19029-8.92498-.74418-17.20841-.64415-17.51805-.6401l-7.34149,.00029c-.34896-.00578-8.63268-.10437-17.55708,.63981-17.10866,1.42591-21.04959,4.59172-22.57149,7.19029-1.10615,1.8885-1.05296,4.07363,.14947,6.15323,22.4368,38.79929,24.81845,94.15113,25.06966,105.59578-1.87426,.66514-3.8251,1.48359-5.79061,2.49329-9.62637,4.94502-21.36704,15.49887-22.63191,37.69509-2.30309,40.41739,9.22219,62.21492,19.29611,73.38343,11.15463,12.3666,22.91727,14.85125,23.41252,14.95071l.28911,.0584h7.9709l.28911-.0584c.49525-.09946,12.25789-2.58411,23.41252-14.95071,10.07392-11.16851,21.59948-32.96604,19.29639-73.38343Zm-51.56827-55.43084c-.28825-3.4052-1.08881-4.94242-1.95384-6.34116-.51289-.82918-.82253-1.32964-.82253-3.67957,0-1.92897,.52214-2.76076,1.18306-3.814,1.31056-2.08857,2.31263-4.28439,.22059-8.13396-.15594-.34195-.29316-.98386-.39858-1.82692,.05887-2.68505,.03274-5.28632-.05403-7.77235,.27618-3.19457,.9354-6.41188,2.18817-8.36026,.75314-1.1712,1.2935-1.1712,1.49675-1.1712h5.45068c.20325,0,.7436,0,1.49675,1.1712,1.25169,1.94668,1.9108,5.16009,2.18856,8.3496-.08753,2.50287-.11384,5.12236-.05363,7.82688-.10264,.80945-.23476,1.42519-.38434,1.75384-2.10707,3.87877-1.105,6.07459,.20556,8.16316,.66092,1.05325,1.18306,1.88503,1.18306,3.814,0,2.34993-.30964,2.85038-.82253,3.67957-.86503,1.39874-1.66559,2.93596-1.95384,6.34116-.41112,4.85308,.14109,6.52706,1.53433,8.44418,.4091,.56276,.93088,1.28266,1.16842,4.18281-2.11491-.24268-3.45026-.25142-3.59756-.25142h-7.38052c-.1473,0-1.48251,.00875-3.59728,.25139,.23754-2.90015,.75932-3.62001,1.16842-4.18277,1.39324-1.91712,1.94545-3.5911,1.53433-8.44418Zm12.09957-45.14283c-1.66209-1.49512-3.43046-1.87766-4.7893-1.87766h-5.45068c-1.35884,0-3.12721,.38254-4.7893,1.87766-.50902-3.9883-1.07486-7.12863-1.46686-9.0876,1.59563-.18995,3.99239-.31195,6.25616-.30184h5.4689c2.25076-.02255,4.64376,.1116,6.23794,.30184-.392,1.95897-.95784,5.0993-1.46686,9.0876Zm-46.14342-48.43094c.34434-.4409,2.92093-2.94174,17.61432-4.19737,8.73763-.74649,17.20089-.64675,17.32405-.64473l7.41927-.00029c.08471-.00173,8.54797-.10119,17.28502,.64502,14.6934,1.25534,17.26999,3.75618,17.61432,4.19737-.01995,.05522-.05696,.14022-.12432,.25644-20.75487,35.89177-24.87946,83.86724-25.69451,102.70723-.4469-2.21657-1.13485-3.37375-1.90035-4.42696-.40158-.55221-.71845-.98848-.42442-4.46336,.19284-2.27591,.58864-2.91572,1.08967-3.72582,.96796-1.5644,1.70809-3.05826,1.70809-6.79449,0-3.63302-1.25707-5.63601-2.08886-6.96131q-.64704-1.03127-.01793-2.18947c1.04381-1.92146,1.60571-7.1664,1.17026-12.54654,.46775-12.16465,2.45368-21.49811,2.82097-23.13371,.35099-.92546,.28333-1.94054-.20932-2.81916-.63634-1.13478-1.5936-2.83506-12.23216-2.78244h-5.43189c-10.64261-.06823-11.61461,1.64738-12.25095,2.78244-.49265,.87862-.5603,1.89341-.20932,2.81887,.36801,1.63892,2.35347,10.97158,2.82104,23.13458-.43541,5.37992,.12642,10.62457,1.17019,12.54596q.62911,1.15819-.01793,2.18947c-.83178,1.3253-2.08886,3.32829-2.08886,6.96131,0,3.73623,.74013,5.23009,1.70809,6.79449,.50104,.8101,.89683,1.44991,1.08967,3.72582,.29403,3.47487-.02284,3.91115-.42442,4.46336-.76561,1.05339-1.45371,2.21083-1.90061,4.42819-.81498-18.83912-4.93927-66.8159-25.69483-102.70846-.06736-.11622-.10437-.20122-.12432-.25644Zm34.93838,111.8704h7.38052c.08789,0,8.89953,.05378,17.95548,4.70563,12.0026,6.16566,18.53862,17.18961,19.42621,32.76568,.13625,2.39102,.21799,4.73715,.25684,7.04671-6.05829-4.41833-17.76206-10.1758-37.63853-10.1758h-7.38052c-19.87647,0-31.58024,5.75747-37.63853,10.1758,.03885-2.30956,.1206-4.65569,.25684-7.04671,2.1036-36.91534,35.94739-37.46582,37.38169-37.47131Zm27.25833,106.24162c-9.00419,10.14215-18.56407,12.94078-20.22214,13.36405h-6.69185c-1.65807-.42326-11.21795-3.2219-20.22214-13.36405-10.93389-12.31626-16.95655-30.80382-17.70478-53.98176,2.49365-2.67128,12.9646-11.99657,37.58259-11.99657h7.38052c24.3713,0,35.03227,9.3439,37.58194,12.01583-.75094,23.16894-6.77328,41.64967-17.70413,53.9625Z"/>
  <path d="M314.46038,351.65621c-6.20325,0-11.25004,5.04679-11.25004,11.25004s5.04679,11.25004,11.25004,11.25004,11.25004-5.04679,11.25004-11.25004-5.04679-11.25004-11.25004-11.25004Zm0,16.579c-2.93827,0-5.32897-2.3904-5.32897-5.32897s2.39069-5.32897,5.32897-5.32897,5.32897,2.3904,5.32897,5.32897-2.39069,5.32897-5.32897,5.32897Z"/>
  <path d="M302.03885,382.05028c-1.73411,0-3.14499,1.43343-3.14499,3.19472s1.41088,3.19414,3.14499,3.19414c1.7344,0,3.14557-1.43285,3.14557-3.19414s-1.41117-3.19472-3.14557-3.19472Z"/>
  <rect x="289.78009" y="394.68229" width="14.7862" height="5.92107"/>
</svg>