<?xml version="1.0" encoding="UTF-8"?>
<svg id="Capa_1" data-name="Capa 1" xmlns="http://www.w3.org/2000/svg" width="210mm" height="209.99999mm" viewBox="0 0 595.27559 595.27557">
  <path d="M402.44844,367.29911c-.06279-.35002-.48729-.66535-.79894-.93467-1.1037-.95458-1.95818-2.01928-1.72372-3.33469-.50333-.71588-.88463-1.19859-1.20191-1.72068-.7909-1.30083-1.53146-2.63329-2.33399-3.9268-.55213-.89007-1.17451-1.73641-1.76531-2.60261-.26819-.39286-.48151-.84117-.81307-1.17031-1.40448-1.39422-2.6253-2.90352-3.18258-4.73098-.63283-.41316-1.23863-.68194-1.66549-1.12383-.41086-.42548-.63691-1.02967-.91903-1.5126-1.32648-.11115-2.58979-.17238-3.84059-.33088-2.65251-.33598-5.30176-.60102-7.97964-.32117-.62564,.0654-1.26342,.0185-1.89551,.01828-1.60135-.00147-3.20281-.00553-4.80407-.00874l.00691,.17185c-.61095-.13818-1.22206-.27634-1.83296-.41452l-.0238,.02096c-.31465-.08386-.64955-.25343-.92773-.18659-.98357,.23641-1.92315,.13384-2.91407-.00028-1.37817-.18652-2.79133-.20052-4.18546-.1574-1.22702,.03829-2.38817-.16325-3.48297-.65285-.75277-.33679-1.4329-.8366-1.96566-1.15569-2.2955-.1524-4.39411-.26621-6.48763-.43933-1.62645-.13418-3.23586-.4776-4.88119-.37037-.84036,.48456-1.70544,.9394-2.51932,1.4727-.37996,.2488-.68547,.62925-.97853,.9876-.25735,.31493-.45033,.68225-.61658,.94058-.91251,.38938-1.93355-.11409-2.80083,.79118,.53946,.23886,.9512,.42122,1.35611,.60088-.40227,.15165-.77938,.29386-1.05128,.39652-.05331,.73704,.0753,1.42032-.18278,1.89302-.30685,.56227-.94551,.94318-1.43936,1.40162,.1339,.2375,.23098,.40966,.34978,.62008,.13524-.01474,.26923-.03302,.40471-.04758,.35658-.224,.70883-.44516,1.10014-.69088,.16195,.17676,.32296,.35233,.49607,.54127,.69661-.06234,1.39141-.12944,2.09258-.17824,8.67056,.58456,17.3411,1.16892,26.01166,1.75348,13.61287,2.86133,25.95603,8.27035,37.03008,16.2259,.27297-.13194,.54421-.26692,.81723-.39844-.1943-.45665-.36143-.92512-.45128-1.42578Z"/>
  <path d="M328.75397,334.00299c-1.48568,.50911-2.78699,1.38977-4.09711,2.26728-.3954,.26517-.90566,.50874-1.36194,.50578-1.63376-.01047-2.73522,.90413-3.80029,1.95582-2.14081,2.11405-4.29434,4.21502-6.59636,6.47172-.19617,.03392-.60183,.1248-1.01245,.17065-.3168,.03562-.63435,.06678-.95155,.09964-.19438,.1197-.38301,.25453-.57499,.38045-.11483,.46551-.31971,.90649-.63813,1.26502-.03385,.03825-.07365,.07046-.10819,.10835,.41285-.02838,.82823-.05141,1.24815-.06393-.41522,.58618-.68173,1.07168-1.05018,1.46072-.91396,.96458-1.86531,1.89435-2.81881,2.82069-.72238,.70175-1.56659,1.08909-2.59843,1.24392-1.16799,.17508-2.3315,.37839-3.49525,.58196-1.29428,.9218-2.63518,1.72511-4.05545,2.32452,1.53556-.23092,3.10347-.46083,4.7008-.83349-5.17001,4.57576-11.01164,7.09911-17.33175,9.28861,.06939-.54351,.06146-.92284,.15156-1.24113-.86004,.32728-1.70596,.72366-2.54257,1.14797,.08783,.46135,.05086,.9579-.32768,1.52885-.44989,.14539-1.15796,.3751-1.88964,.61256-.04293-.053-.08302-.1022-.12586-.15477-3.41397,4.29466-9.4239,6.04401-15.05369,5.63666-.68098-.04932-1.34847-.17658-2.00738-.34453-1.05931,1.01542-2.34518,1.31093-4.09587,.94619-.11783-.73458-.16976-1.48131-.15879-2.26298l-.96866,.04577c-.24275,.03316-.49217,.04934-.73797,.07484-.06308,.80096-.11043,1.62786-.18426,2.51294-2.22393,.25196-4.48182,.61844-6.82744,.43435-.36741-.43907-.72084-.86131-1.1213-1.33998,.0454-.07796,.08482-.15873,.12863-.23782-.1396,.03077-.27371,.06872-.42625,.08276-.91587,.08516-1.85969,.23342-2.81844,.40578,.1673,.26691,.31981,.5419,.43915,.83845-1.53189,.52906-3.28267,.04314-4.1979,1.67277-.75291,.16071-1.50074,.32044-2.21083,.47217-3.08842-.61075-5.1686-1.358-6.28908-2.27338l.01264-.02968c-.39012-.1292-.7732-.28445-1.14918-.4692-.10775,.16037-.23318,.31316-.39503,.4494-4.75624-1.38049-8.85863-4.02554-13.11422-6.2776-4.76415-2.52107-9.46794-5.23795-13.20403-9.07691-1.74522-.76238-3.26899-.52237-4.73584,.40614-.65187,.41281-1.35173,.75006-2.00026,1.16726-1.05553,.67953-2.00742,1.61131-3.15181,2.03504-1.06202,.39315-1.81465,.9606-2.41143,1.77524-.15372,.7968-.52308,1.5778-.39694,2.2687,.0856,.46958,.16315,.94414,.25017,1.41595,1.61574,2.2195,3.12659,4.50962,4.54639,6.86129,1.36396,1.20487,2.69286,2.49436,4.22818,3.43472,3.70832,2.27154,7.51495,4.38719,11.33023,6.47727,1.46865,.80441,3.04195,1.44425,4.61987,2.01403,1.03833,.37479,2.17589,.467,3.25927,.72649,3.47483,.83174,6.94609,1.67834,10.41565,2.5316,.39776,.0977,.77659,.27393,1.09323,.38803,.17643,.42101,.34068,.87251,.49342,1.34169,.52014-.08846,1.03993-.17818,1.56003-.2675-.0457-.37413-.09068-.74359-.13679-1.12048,.87993-.5109,1.89216,.13222,3.08005-.1228-.06779,.26294-.15078,.51717-.23745,.76791,.86065-.14935,1.72065-.30208,2.58117-.45314,1.00876-1.33934,2.25866-2.39779,3.88135-3.16702,3.16968,.01519,6.45476,.37854,9.85262-.73457-.05927,.72494-.42397,1.15785-.77925,1.55129,.7576-.142,1.51592-.27976,2.27346-.42326,.7906-1.00384,1.56501-2.01153,2.22193-3.11313,1.03864-.48025,2.11238-.97642,3.23038-1.49319,.70485,.76909,1.35863,1.48196,2.11109,2.30288-.1466,.2657-.29776,.54011-.45125,.81844,1.10982-.25039,2.21854-.508,3.32684-.76838-.24113-.17979-.49877-.37183-.78318-.58406,.12971-1.11022,.25688-2.20007,.37713-3.22912,2.55185-.77203,4.958-1.49209,7.35922-2.22804,2.38702-.73202,4.64887-1.9008,7.30857-2.00758-.00463,.52025-.04305,1.03769-.08689,1.55444,.52349-.45606,1.04766-.91176,1.57602-1.36273,.03833-.48957,.07809-.99917,.12776-1.6358,.44763,.6349,.53533,.77655,.203,1.35672,.89071-.75726,1.78497-1.50627,2.68025-2.2489l-.12545-.21746c.4141-.27153,.82847-.5431,1.24262-.81464l.05416,.06085c1.99305-1.64301,3.97398-3.25359,5.88498-4.83538,8.17913-5.49787,16.82601-9.64218,25.94082-12.43295,.66173-.46551,1.32573-.90881,2.02393-1.288,2.12898-1.1571,3.9339-2.67007,5.58661-4.40429,.19175-.20128,.41523-.37211,.71747-.63987,.44517,.0962,.87807,.21901,1.30603,.35251-.03481-.56995-.00246-1.13513,.227-1.62761-.0531-.0264-.1047-.05037-.15819-.07737,.87199-.91313,1.75965-1.7826,2.64908-2.63542-.11581-.01999-.233-.03443-.34223-.08323-.29482-.13138-.55291-.44693-.65725-.74662-.11486-.32987-.08314-.71006,.06538-1.02306,.36775-.77542,.80824-1.51967,1.12645-2.31756-.01452-.81281,.0416-1.62511,.04776-2.43801,.0012-.16042,.03366-.30847,.07641-.4503-.59949-.41744-.63824-1.39848-.18085-1.92532,.29118-.33547,.56823-.68019,.83015-1.03883,.01655-.02254,.04274-.06126,.05792-.08343,.04038-.06251,.0804-.12542,.11915-.18905,.10156-.16661,.19745-.33627,.28827-.50883,.08107-.154,.14853-.31387,.22108-.47169-.43393,.22185-.88884,.45441-1.38304,.70703-.13876-.05465-.45242-.17901-.77842-.30807Z"/>
  <path d="M366.04552,280.15931c-.00266,.48676-.0216,.9699-.05711,1.4556-.04776,.22717-.14771,.42838-.3,.60332l-.25276,.2237c-.16726,.1243-.3661,.18475-.57026,.20734,.25322,.636,.52706,1.26198,.81505,1.88102,1.2998,2.79442,2.64777,5.56803,3.87687,8.39317,.52772,1.21298,.8471,2.5232,1.19468,3.80723,.66177,2.44501,1.53864,4.78113,2.9559,6.90983,.73438,1.10286,1.33264,2.29961,1.95217,3.47547,1.36244,2.58583,2.28257,5.41581,4.18454,7.60259,1.87168,.417,3.67153,.70855,5.30719-.71836,.67797,.22138,1.47669,.26435,1.94591,.67979,1.02821,.9101,1.90263,.59832,2.80016-.02661,.85503,.34012,1.70716,.41873,2.53415,.32382-.30308-.59104-.58888-1.19389-.83959-1.82023-1.98067-3.23021-3.02634-6.78367-3.13703-10.66015-.00555-.10686-.00742-.21273-.00718-.31947,.00955-.23888,.02641-.47747,.03834-.71629-5.51902-8.53557-11.71287-16.50494-14.88486-26.5574-3.87787-12.28993,.52456-24.87817,10.71369-32.50261-.09389-.0429-.18265-.08324-.27789-.12664-.26612,.09177-.5904,.20337-.97353,.33544-1.02987-.96695-2.32178-.76195-3.57757-.67148-.98252,.07072-1.91198,.31559-2.80992,.79152-.88583,.46964-1.87603,.73939-2.8141,1.1133-1.02803,.40964-2.04883,.83762-3.07249,1.25769,.04168,.06134,.08342,.12268,.12537,.18399-1.18681,.90003-2.37343,1.79983-3.54156,2.68595l-2.65532,.17619c-1.37884,1.26919-3.10416,1.7177-5.10392,1.62141-1.99086,3.38798-1.75892,6.96783-1.08645,10.59233-.19684,.51377-.39146,1.02211-.58392,1.52405,.40141,.19461,.71136,.34487,1.10258,.53466,.56263,2.23213,1.03918,4.49708,1.56509,6.75752,.05937,.00411,.11899,.00712,.17727,.02107,2.1005,.50762,3.33188,2.41346,3.9066,4.37857,.38902,1.33028,.59552,2.78155,.53863,4.19803,.24805,.0976,.48183,.28586,.62137,.49185,.10623,.14471,.16916,.30429,.1887,.47908,.03872,.13122,.0413,.26487,.0254,.39989-.01675,.33774-.0224,.67577-.02421,1.01382Z"/>
  <path d="M337.57396,329.56308c1.07475,.11397,1.94615-.12793,2.62605-1.051-1.30714-1.69322-3.72046-.48266-4.97541-2.2332,1.2666-.53426,2.40258-1.12925,3.60776-1.49869,.84603-.25965,1.66652-.60595,2.49066-.95588-.62099-.16733-1.13836-.53151-1.53532-1.0231-2.39898,1.04288-4.81298,1.94893-7.2784,2.61821-1.81692-.72604-3.47203-1.38073-5.11748-2.05872-.11569-.04766-.16065-.26633-.24452-.41596,.28705-.55168,.57533-1.10545,1.04927-2.01601-1.40031,.38769-2.42493,.67157-3.26903,.9053-.77873,1.02307-.53494,1.77264,.07521,2.546,1.36693,.83235,3.29141,.4804,4.78942,1.99295-1.24339,.36173-2.18462,.75273-3.16229,.89669-2.67481,.39422-5.36516,.6845-8.2472,1.0404-.40065-.38728-.93661-.90562-1.58214-1.52931,.71165-.52626,1.29824-.95981,1.84634-1.36498,.60219,.5433,1.08499,.97866,1.7237,1.5547,.42898-.70174,.76133-1.24561,1.031-1.68718-.30438-.90563-.35004-1.80988-.82407-2.30105-1.17617-1.21908-.79503-2.64099-.85222-4.0607,.64512,.69632,1.11015,1.48788,1.65798,2.21705,.57901,.77049,1.02332,1.79156,2.23232,1.67617,1.09319-1.68294-.78237-2.48922-.98819-4.12299,.11242-.46827,.30395-1.26704,.49158-2.05004l1.25357-.08309c.04157-1.22957-.54923-2.49562,.34324-3.751,.67708,.52628,1.24616,1.02935,1.87888,1.43258,.27978,.17817,.68884,.15367,1.54425,.3179-1.41752-1.37466-2.44364-2.36967-3.51939-3.41316,.44536-1.85922,.85744-3.67842,1.31985-5.48485,.52506-2.05153,1.03367-4.11077,1.66503-6.13046,.49903-1.59581,1.24399-3.09205,2.62005-4.16231l-.02953-.02562c.15994-.15223,.32013-.30428,.55921-.53156,2.24106,2.26754,4.84666,3.78118,7.82655,4.67995,2.95727,.89194,5.60228,2.34404,7.69831,4.66325,.50531,.55862,.95631,1.18289,1.33875,1.83213,.68318,1.15985,1.20281,2.42491,1.96072,3.52963,.8885,1.29451,1.38675,2.72467,1.69989,4.2059,.54921,2.59802,1.45079,5.03492,2.75541,7.34601,.69732,1.23499,1.25656,2.5479,2.01375,4.10472,.83493,.34641,1.91308,.79419,3.0691,1.27366,.26391,.44172,.55748,.93312,.84127,1.40767-1.06572,.84957-2.03241,.23238-2.93872,.03913-.81509,.54142-1.9611,.34601-2.36751,1.41921,1.10029,.98131,1.10452,1.00223,2.3785,.73978,1.40368-.28891,2.79432-.77513,4.34892-.07298,.26036,.28139,.58627,.66817,.94945,1.0159,.33225,.31762,.69791,.60048,1.05208,.89476-.16236-.55497-.32905-1.12393-.56748-1.93933,1.20915,.37042,2.07411,.63514,3.00394,.92023,.29637-.58013,.54832-1.07334,.80668-1.57912,1.44841,.12637,2.89954,1.12819,4.20744-.44293-.16149-.32262-.33204-.66392-.53503-1.0695-.44159,.39334-.78976,.70348-1.10491,.98453-1.17359-.20278-2.23917-.38666-3.52448-.60901-.19822,.51694-.38116,.99376-.57387,1.49585-.63008-.41368-.895-.58785-1.37936-.90574,1.06699-.88946,1.99702-1.66461,2.93495-2.44646-.63712-1.18021-1.54055-1.4362-2.62519-1.50308-1.1782-.07266-2.34862-.28594-3.51771-.46869-.10997-.01696-.18571-.25151-.29586-.41188,.29404-.2632,.59046-.52881,.85883-.76934,.07603-.87193,.14859-1.70482,.20318-2.33053,.54857-.54304,.93831-.929,1.40212-1.38806,2.77408,1.58038,4.80772,3.93621,6.59896,6.52454,.30812-.14441,.58114-.27246,.83242-.39037,1.40354,1.04286,2.78073,2.03416,4.12196,3.07172,1.37855,1.06676,3.03179,1.81021,4.24973,3.45505-2.46648,.91566-4.94016,1.04493-7.25106,1.89265-.64221-.36591-1.29093-.73565-1.99927-1.1395-.27684,.51709-.49831,.93115-.71056,1.32735-2.50133,.35176-4.93353,.69361-7.36552,1.03544-.95137-.48817-1.91485-.7307-2.89309-.83122-3.60965-.37031-7.32965-.2648-10.53211-2.67357-.42196-.90815-1.47205-1.87484-.28604-2.92093,1.26228-.00714,2.35208,.06306,3.42477-.042,.96637-.09455,2.24408,.5045,2.86196-1.16421-2.63284-1.06157-5.17859-.68833-7.54102-.2841-1.72927,1.72442-.91922,3.60317-.74246,5.42309-1.37444,.28313-2.83221,.08282-3.39963,1.6918,.21476,.29759,.45654,.63241,.71374,.98889,.89533-.00407,1.73908-.00771,2.95113-.01348,.24022,.36264,.61935,.93545,.98144,1.48225,.95179-.27831,1.58013-.49478,2.22427-.64213,.90186-.20676,1.81847-.52487,2.72353-.50754,2.11745,.04047,4.24557,.14653,6.34364,.4209,2.74799,.35927,5.41433,.02559,8.09982-.47867,1.06716-.20037,2.1783-.16576,3.29261-.23972,.32944,.58514,.648,1.15116,1.0775,1.91354,.7406-.1017,1.60187,.01719,2.15603-.33982,1.82654-1.17705,3.89157-1.64067,5.89689-2.31271,2.08328-.69848,4.13219-1.4997,6.18559-2.28306,.21028-.08039,.3491-.34761,.58573-.59591-1.36331-1.49614-2.93539,.00377-4.18684-.33655-1.34495-1.10131-2.59016-2.12104-3.96212-3.24468,.06938-1.61949-1.01898-2.62954-2.3605-3.49879-1.92411-1.24706-3.85392-2.49004-5.7208-3.82003-2.67294-1.90442-4.20413-4.5615-4.87491-7.73513-.39663-.53418-1.01701-1.02236-1.14499-1.61671-.24251-1.12321-.20183-2.30754-.28307-3.53172l-1.06235-.04533c-.50332-1.44343-1.08115-2.94614-1.55129-4.48208-.99652-3.25574-2.06434-6.49129-3.71732-9.4724-.75223-1.35678-.98913-2.66185-.7156-4.14796,.48517-2.63637,.25874-5.25273-.33925-7.84791-.14997-.65093-.30095-1.30165-.45119-1.95255,.0812-.03639,.16259-.07303,.24406-.10934,.09951,.14101,.19897,.28203,.29851,.42326,.12621-.90354,.05122-2.02331-.19394-2.89792-.07443-.26558-.07794-.53414-.03197-.79006-1.02227-.90719-1.99467-1.78136-2.27018-3.2331-.11479-.60411-.6294-1.19704-1.09837-1.65571-.96631-.94472-2.07533-1.74448-3.03137-2.69853-1.13699-1.13468-2.32605-2.2654-3.22398-3.58103-1.79276-2.62608-2.64236-5.67793-3.47011-8.71423-.03268-.11892,.11167-.28641,.23508-.57367,.35558,.26064,.67253,.51673,1.01313,.73612,.30556,.19718,.63678,.3543,.95697,.52914,.00903-.75089-.21047-1.27662-.55075-1.7071-.68429-.86637-1.43761-1.67781-2.15634-2.51731-.46575-.54403-.60604-1.13143-.13608-2.04674,2.6761,3.0034,4.44566,6.34,5.92811,9.60412-.00762,.81576-.01319,1.40221-.01884,1.98845,.1283,.0222,.25631,.04464,.38436,.06697,.38402-.61777,.76801-1.23533,1.11646-1.79597-1.20652-4.03125-3.31451-7.40538-5.73363-10.77108,.00631-.97644,.01352-2.061,.02054-3.11615,.4048-.21068,.75167-.39107,1.08545-.56463-.23697-.67515-.42584-1.21372-.67538-1.92497,1.41828-.8272,2.70447-1.63492,4.04217-2.34575,2.94349-1.56463,5.65777-3.42463,7.97456-5.84258,2.11688-2.20973,4.20873-4.44698,6.40996-6.5701,.9222-.88955,1.71614-2.02423,3.07276-2.37173-.57321,.78065-1.16436,1.54932-1.70615,2.3516-.29664,.43899-.50029,.94076-1.01658,1.93543,2.26978-.91722,3.18095-2.52664,4.52025-3.59775,1.32423-1.05921,2.69385-2.08556,4.14659-2.95378,1.47958-.8841,2.7546-2.20203,4.56978-2.54952,.47564,1.22222,.89539,2.30084,1.19076,3.05991,1.4085,.44978,2.44437,.77137,3.47402,1.11265,.72587,.24068,1.4255,.59288,2.16742,.74551,1.69328,.34745,3.35019,.39687,4.83045-1.3166-1.83987-1.84608-3.65635-3.63704-4.47096-6.15298,.20219-1.10916,.41328-2.26843,.62261-3.41854-.41819-.50212-.78546-.94283-1.20791-1.44978,.03136-3.5444,1.56623-6.65326,2.61206-9.80839l-.04183-.02007-.01293-.00421-.09742-.02869c-.11807-.03379-.23739-.06279-.35735-.08914-.23494-.05172-.47264-.09061-.71134-.12075-.11323-.01423-.22676-.02421-.34016-.03647l-.01594-.00204c-.0057-.00024-.00621,.00003-.0124-.00027-.24071-.00702-.48052-.01425-.7214-.00895-.22109,.00499-.44213,.01645-.66217,.03849-.07751,.0078-.15461,.01837-.23188,.02787-.10888,.04902-.17682,.06486-.18748,.05673-.16506,.04586-.33695,.08361-.48719,.14103-.01993,.0079-.03909,.01744-.05877,.02563-.00512,.00304,.00021,.00041-.00594,.004-.01287,.01426-.0365,.02677-.05344,.04039,.00151,.0708,.00616,.14125-.00489,.21277,.00448,.21251-.0455,.41432-.14976,.60476-.04641,.10184-.13303,.16831-.20141,.25094,.08028-.0027,.16014-.00428,.24083-.00768-.69057,1.04413-1.24392,1.88061-1.85899,2.81077l.18853,2.84137c-1.7245,2.39637-2.59161,3.19372-4.83879,4.4446-.1149,.46185-.25495,1.02397-.44882,1.80268-2.66121,2.22793-5.25047,4.90478-8.30982,6.83826-4.58771,2.89916-8.82471,6.30369-13.51151,9.04796-2.19761,1.28695-4.25378,2.81371-6.39048,4.20657-.91733,.59782-1.87616,1.13202-2.97866,1.79237-.32424-.54585-.56524-.95183-.89121-1.50062-2.5971-1.1657-5.38506-.93411-8.06285,.02716-2.50003,.89718-4.69024,2.36694-6.27289,4.62136-.9752,1.38914-2.05516,2.70698-3.12481,4.02735-.76617,.94555-1.4369,1.90468-1.32297,2.90312,.74519,1.37937,1.36149,2.52069,1.97428,3.65506-.82772-.48837-1.65185-.97442-2.34458-1.38322-1.95064-4.9936-4.83632-8.79394-10.22683-10.08065,.24394-.34673,.35517-.58568,.5352-.74885,.63203-.57298,1.26152-1.1485,1.89157-1.72386-.93031,.11222-1.86035,.22442-2.79032,.33726-.88991,.74832-1.78796,1.50368-2.7175,2.28569-1.29217,.38832-2.73243,.8212-4.26309,1.28132,.3976-.59776,2.08283-1.8632,4.36073-3.26324-.16545,.01847-.33075,.03498-.49623,.0527-3.00464,.70355-5.97543,1.54177-8.92294,2.48449-1.60868,1.59365-3.04321,3.37245-4.65201,4.97843,.03157,.10824,.07115,.21323,.07657,.33134,.04124,.8949-.12976,1.77599-.39053,2.62767,.04143-.02666,.0771-.05615,.11884-.08241,.11146,.61268,.31573,1.01867,.22325,1.33939-.75361,2.61822-1.6408,5.17323-4.06501,6.87135-1.32696-.40823-2.21513-1.22376-2.71477-2.52394-.2285,.2149-.44658,.43871-.6889,.64183-.41309,.34617-.84201,.67246-1.2643,1.0071,1.36793,1.07785,2.63492,2.07684,4.07263,3.20973-.00772,.49142-.00423,1.24667-.03652,2.00064-.02511,.58653-.15777,1.17376-.1337,1.75623,.10934,2.63269,.2405,5.26483,.39814,7.89517,.08151,1.35743,.17502,2.71993,.38457,4.06092,.0834,.53463,.4949,1.01793,.76767,1.54595,.46809-.08041,.80342-.10908,1.11818-.20496,.1391-.04227,.23712-.22102,.32874-.31245-.77866-5.3253-.84314-9.09147-.19245-10.81538,1.3471,.68664,2.71184,1.34134,4.03259,2.0746,.58074,.32228,1.12119,.75545,1.59648,1.22294,3.8107,3.74907,8.27858,4.75434,13.36796,3.28097,.373-.10806,.77703-.10988,1.27869-.1757-.14688,.90666-.26432,1.63254-.38165,2.35646,.76218,.11305,.90291-.53641,1.19904-1.01024,.84867-1.35785,1.70383-2.7122,2.57834-4.05354,.06077-.09303,.30088-.0692,.5305-.11379,.19871,.21272,.42358,.4539,.70672,.757-1.08333,3.0376,.46807,5.38616,2.15494,7.82213l.13555,2.0428c-2.05599,.95278-2.4237,1.14062-3.45516,.93283-5.12615-1.03158-9.73411,.7035-14.20661,2.78359-2.19877,1.02267-4.20643,2.49208-6.21059,3.8881-2.9879,2.08111-6.13594,3.94617-8.80181,6.47606-.7056,.66946-1.39381,1.46675-2.54159,1.73111-.34286-.84592-.64744-1.59783-.95571-2.35831-1.32595-.57187-2.27356,.14202-3.17454,.97104-.73994,.68088-1.42036,1.4312-2.19409,2.06975-2.6793,2.21056-5.38716,4.38709-7.52084,7.16689-.61602,.80259-1.06232,1.8309-1.84876,2.38054-.83049,.58047-1.97427,.71316-3.39629,1.1771,1.04101,.2181,1.68751,.35391,2.3123,.48475-.09319,1.13799-.38101,1.96151-1.06264,2.69727-1.14132,1.2326-2.29186,2.48414-3.22799,3.87-.75874,1.12371-1.73573,1.81974-2.90544,2.35802-1.15529,.53185-2.29196,1.10909-3.46719,1.5917-1.6947,.69564-3.36806,1.48055-5.1291,1.75744-.12429-1.87316-.25014-3.61308-.35219-5.35451-.02518-.43059-.04129-.86173-.06262-1.29263-.18535,.14561-.37162,.28969-.55988,.43184,.45919,2.29633,.0826,4.65462-.93067,7.04042-2.87312,1.32636-5.85789,2.70464-8.98718,4.14966-.21132-.59888-.15207-1.15014-.03423-1.68165-2.80873,2.399-6.2882,4.00144-9.9483,4.378-.84985,.1944-1.70946,.3473-2.58318,.4054-.98135,.06508-1.93587,.02808-2.87368-.05977-.09253,.84241-.14759,1.65308-.05791,2.43998,.04779,.41754,.14045,.8291,.25338,1.23587,.69705,.0655,1.39297,.14192,2.08672,.2445,1.68633,.24949,3.28717,.68219,4.87721,1.21997,.66926-.4039,1.25553-.9409,1.78794-1.34285,.15247,.61782,.27787,1.12605,.40247,1.63048,.52793-.68574,1.05582-1.3719,1.56907-2.03876,.42588,.20156,.65008,.30738,.87434,.41362l-.05717-.0454c3.68221-1.04366,7.21051-2.81344,11.14066-2.52602,.17503,.82771,.24282,1.62197,.2414,2.39309,.12056-.07061,.23473-.15088,.36713-.20398,.12791-.07853,.26735-.12355,.40266-.17977-.12747-.97504-.16026-1.70528,.55853-2.70453,.04161,1.42788,.03831,1.54273-.42498,2.64504,.27786-.09855,.566-.16712,.87476-.17594l.80479-.05339c.02101-.00143,.0412,.00091,.06199-.00006,.34479-.80424,.68638-1.60165,1.03974-2.42583,1.87344-.20338,3.80539-.43539,5.74228-.61653,2.03318-.19012,4.07249-.31503,6.10634-.49853,1.94796-.17522,3.89446-.36885,5.83742-.59191,.43186-.04967,.86604-.08794,1.30159-.12462-.08103-.4366-.09517-.90468-.01524-1.40743,.01104-.0686,.04266-.13426,.05892-.20257l-9.31419,.61819c-.5885-.57569-1.25129-1.22407-2.07811-2.03256,1.40338-1.40915,2.64476-3.0847,4.27176-4.19528,2.86253-1.9536,5.30586-4.51755,8.56116-5.91193,.76014-.32568,1.51944-.82116,2.07459-1.42616,1.38324-1.50772,3.25368-2.10523,5.01189-2.91872,.71856-.33259,1.69657-.2515,1.91421-1.30758,1.73235-1.05078,3.46266-2.10436,5.19992-3.14725,.14021-.08409,.32564-.13131,.48999-.13075,2.22708,.00821,4.22158-1.0355,6.3737-1.41011,2.15117-.3745,4.21371-1.23198,6.35394-1.70088,2.40356-.52634,4.8624-.79624,7.27484-1.28715,2.22175-.45176,4.41294-1.05507,6.62096-1.57683,.39818-.09407,.81301-.11769,1.59643-.22589,.1798,1.54027,.32477,2.78277,.48992,4.19654-.89382,.41424-1.71621,.91249-2.51147,1.44311,.24632,.26261,.44734,.5604,.61985,.87167,.31789-.1539,.65905-.31034,1.02391-.5104,.26744,2.05283-.66307,3.86428,.17891,6.20875,.38647-1.94267,.65972-3.3189,.93323-4.69473,1.01365,5.08366,.24116,10.22293,1.1522,15.18125-.33181,.32888-.48237,.56369-.69722,.67698-1.1972,.63039-2.4096,1.23176-3.63938,1.85403-.0894-.04037-.17955-.08109-.26821-.12154-.24734,.65839-.57434,1.30775-.87627,1.90966-.1566,.31215-.33027,.61494-.51301,.91223,.20538,.05494,.40919,.11243,.61997,.19163,.88949,.33463,1.06724,1.55693,.61533,2.32424,.0346,.01027,.06932,.01858,.10182,.02649,.13304,.03043,.26781,.05354,.40311,.07097,.04107,.00568,.08243,.00959,.12376,.01373,1.06795-.03261,2.11826-.15468,3.17924-.24335,.13837-.13217,.28198-.26534,.41862-.39797,2.66487-.07321,4.77668-.02759,6.86638-.22128,1.68286-.15582,3.38245-.45992,4.99555-.95592,1.76095-.54128,3.32652-.37995,4.86898,.47237,1.00335-.11846,1.99552-.09075,2.97976,.01386Zm43.282-119.90351c.04216-.28304,.30582-.53256,.47185-.79692,.14151,.06407,.28299,.12781,.42441,.19157-.14086,.51803-.28175,1.03618-.58322,2.14417-.19758-.89784-.35892-1.23398-.31304-1.53881Zm-8.70588,11.51655c1.12008-.87461,2.39239-1.55413,3.65259-2.35361,1.49881-1.88561,3.06228-3.85237,4.95959-6.23884,.03195,1.43088,.0372,2.3108,.07542,3.18885,.03671,.84344,.10762,1.68509,.17132,2.64483-.33748,.25454-.71724,.54037-1.19441,.89968,.96869,2.25591,2.30581,4.26773,4.22418,6.11162-1.94079,.84387-3.28515-.52698-4.57888-.5081-1.84988-1.08191-1.46508-2.97849-2.11745-4.34508-.90684-.73507-1.73922-.64595-2.59607-.0194-1.02669,.75091-2.04646,1.51965-3.1278,2.18537-.7813,.48136-1.63826,.83941-2.4709,1.23769,.98873-.94994,1.92716-1.96407,3.00241-2.80301Zm-52.36709,89.02842l-.1942,.01286-.06803-1.02569,.19419-.01296,.06804,1.0258Zm-.74412-6.97945c-.27167-.97012-.38099-1.9858-.55997-2.97207,.57876-1.66596,2.20256-1.4912,3.7874-2.37425-.67789,3.00906-1.25521,5.57198-1.87477,8.32248-1.44685-.75408-1.0844-2.01799-1.35266-2.97616Zm2.15673,11.62797c.20361-1.80154,.34599-3.05853,.51462-4.54778,.41968,.33595,.71908,.45279,.75331,.62317,.19926,.98957,.06015,1.38936-1.26793,3.92461Zm1.92238-5.70574c-.45396-.29128-.70636-.4531-1.01967-.65397,.31028-3.92205,1.55569-7.60886,2.31696-11.50069,.41684-.17009,.8661-.35343,1.82701-.74571-1.10927,4.58042-2.09225,8.639-3.1243,12.90037Zm6.65935-35.76791c.38904,1.78122,.80112,3.66728,1.24034,5.67892l-1.75693,.89166c.11636-.80115,.23259-1.60111,.34072-2.34498-1.03754-1.30429-2.024-2.54427-2.97464-3.73955,.18905-.84029,.33378-1.48425,.51472-2.28953,1.12185,.32507,1.81897,1.00448,2.63579,1.80349Zm-1.68809-4.83235l.60856-.25925c.20403,.52407,.40806,1.0477,.70554,1.81076-1.21891-.28608-1.44045-.81818-1.3141-1.55151Zm-1.24574,10.52221l-.08096-1.2201q.87015,.65656,.08096,1.2201Zm3.30623,12.1264c-2.71885-2.08184-2.31102-5.26808-2.80722-8.20962l3.39851-.22545c2.36967,1.68323,2.71652,4.62993,4.41378,6.77876-.95449,1.16795-2.03448,1.88914-3.39376,2.50253l-.08348-1.25806c-.42853,.11541-.86904,.23429-1.52782,.41186Zm8.12836,5.99932c-.27896,.24989-.38889,.68851-.61431,1.12244-2.27205-1.15383-4.48406-1.92796-5.83749-4.22898,.65091-.43301,1.31236-.89223,1.9933-1.32074,.70963-.44676,1.43817-.86415,2.33165-1.39791,1.12015,1.6623,2.2311,3.31102,3.46767,5.14555-.54398,.26312-1.01638,.38872-1.34083,.67964Zm25.70291,29.37899c-.81572,.7318-1.40511,1.2605-2.1226,1.90361-.53556-.70092-.97244-1.2724-1.68333-2.20241,1.52433,.11982,2.48972,.1956,3.80594,.2988Zm-5.51759-9.536c.36297,.58407,.74867,1.20477,1.19707,1.92599-.15496,.89047-.32746,1.88158-.5071,2.91472-.68462,.19215-1.23244,.34628-1.90965,.53654-2.80854-3.77138-3.50003-8.25053-4.9379-12.80081,2.16441,1.10875,3.06029,3.35812,5.3869,3.47775,.83485,.82317,1.66743,1.64444,2.61206,2.57596-.64946,.48297-1.17431,.87351-1.84138,1.36984Zm-.57455-16.72266c1.2873,3.04636,2.18873,6.25512,3.26398,9.39092,.34676,1.01097,.42406,1.97959-.27864,2.84899-.93373-.15937-1.80582-.30818-2.93789-.50166-2.78609-2.33795-5.33585-5.25899-7.77162-8.38515,1.15515-.01598,2.18493-.03018,2.98391-.04125q2.33265-2.28931,2.3421-4.17219c-.78277,.94639-1.44206,1.74387-1.95409,2.36296-.36374,.09496-.45122,.14651-.52731,.13364-2.83379-.48298-5.52915-1.43793-8.05396-2.75894-.91348-.47794-1.57084-1.51531-2.23835-2.37984-1.44644-1.87375-2.73194-3.85296-3.53399-6.10511,.22619-.04939,.45462-.09946,.73232-.16031,.37873-.60294-.38789-.7909-.54885-1.44301,.59673-.62238,1.28203-1.33738,2.07062-2.16051-.28-.31888-.5859-.66681-.97801-1.11345-.89217,.67112-1.67967,1.26354-2.75859,2.07523-.05024-2.08364-.30538-3.82502-2.20242-4.44836-1.20469-3.55178-2.34576-6.9069-3.46679-10.26885-.03112-.09274,.15582-.25796,.38215-.60666,1.43292,3.11398,2.70901,6.26309,6.428,7.91619-.1872-.66351-.18338-1.01776-.35757-1.21317-4.17029-4.67914-3.49182-4.79545-4.99874-10.24116-.73147-.36482-1.54697-.77135-2.35656-1.17507-.17636-1.3229,.56249-1.51448,1.71844-1.44436,.41011,.58455,.8876,1.26545,1.36531,1.94642l.1204-.14393c1.0998,.89603,2.2767,1.71421,3.27815,2.70921,1.0201,1.0136,1.90009,2.17597,2.78414,3.31726,2.75643,3.55942,5.50103,7.12877,8.22033,10.71664,1.42751,1.88337,2.7926,3.81394,4.2152,5.76373-.05284,.61699-.10223,1.19082-.15437,1.79844,.11017,.19612,.17803,.51297,.3666,.62278,2.76258,1.61112,3.72129,4.49825,4.84612,7.16053Zm-6.74634-25.3615l.19347,2.9159c-.87703-1.29879-1.75486-2.55385-1.90872-4.2326,.57045,.43789,1.14067,.87559,1.71525,1.31671Zm-9.33517-25.65236c-.10111-.31517-.20222-.63033-.3036-.94547,.11578-.0407,.23181-.08155,.34761-.12204,.11818,.30931,.23662,.61848,.35474,.92768-.13279,.04666-.26564,.09323-.39876,.13982Zm7.85113-12.04722c1.95203-1.33816,3.9482-2.61223,5.9369-3.89596,.19729-.12725,.48132-.12009,.72538-.17499,.09479-.04252,.18963-.08505,.2845-.12725-.08815,.04936-.17601,.09901-.26385,.14822-2.17215,2.67512-4.33068,5.32867-7.63126,6.77476-2.46853,1.08157-4.84134,2.38136-7.11459,3.51347-.92665,1.27368-1.79147,2.46264-2.69544,3.70566-1.28265-.35949-2.48812-.69715-3.79415-1.06306-.13621-.90712,.31402-1.50359,1.15366-1.86742,1.00978-.43736,1.99699-.96687,3.04855-1.26135,3.91669-1.09666,7.07915-3.5096,10.35032-5.75207Zm-10.77224,13.53327c-1.08943-.31651-2.13193-.61955-3.34989-.97324,.70351-1.14383,1.4385-.74569,2.13919-.55422,.67154,.1832,1.27311,.43495,1.21071,1.52746Zm-10.23666-5.42978c2.8828-3.4256,6.66055-5.01109,11.60218-4.82941-2.99481,1.35648-5.59751,2.53541-8.24365,3.73398-.05804,.6991-.10503,1.26673-.13417,1.62008-1.19416,1.43797-2.27432,2.74901-3.37409,4.04276-.08357,.09833-.30762,.07717-.61417,.14386-.65456-1.72505-.31793-3.42542,.7639-4.71127Zm4.16807,3.18507c.31515-.40343,.6303-.80685,.94568-1.21009,.19406,.9344-.21221,1.25153-.94568,1.21009Zm-7.5206,1.13918c.96293,.68975,1.1259,1.60702,1.61438,2.93315-1.38051-.87666-1.9635-1.5817-1.61438-2.93315Zm.55123,4.82236c-.06367,.11938-.12738,.23844-.19135,.35753-.20044-.19147-.40121-.383-.60193-.57455,.26448,.07248,.52888,.14475,.79328,.21702Zm-16.27584-9.86078c2.31495-.40186,4.30375-.42838,6.02738,1.03852,3.52273,2.99696,4.01862,2.71133,4.74668,6.2736-.895,.39644-1.49964,.1542-2.09488-.2218-3.70278-2.33911-7.72188-3.68417-12.46358-3.78406,1.4601-1.27578,2.69866-2.35795,3.7844-3.30626Zm.04651,4.84865c2.60525,.4999,4.71638,.91974,6.78058,2.39779-.83133,.5015-1.58046,.36046-2.257,.4435-.66615,.0817-1.34013,.09707-2.0951,.14719-.73074-.89911-1.44478-1.7778-2.42848-2.98848Zm-2.41053,11.73123c-.02006-2.38633,1.7398-4.10469,1.83556-6.33915,.59681-.0911,1.07319-.16388,1.51276-.23103,1.09337,2.56537,.2387,4.2289-3.34832,6.57018Zm-3.31607-14.31997c-.14126,.88488-.699,1.05888-1.52645,.9119,.27846-.8346,.92342-.83622,1.52645-.9119Zm-1.87615,4.87551c1.00489-.91077,2.12046-1.64934,3.67779-1.85196,.40351,.19406,.92105,.44331,1.54381,.74286-.19435,.83482-.37756,1.62166-.58083,2.49451-1.63252,.43925-3.23841,.87161-4.82256,1.29835-.73847-1.49805-.73521-1.853,.18179-2.68376Zm3.91692,9.30936c-1.51143-.59247-2.78831-2.28111-3.68356-4.78027,.96622-.24942,1.91378-.49422,3.15679-.81486-.13615,.9501-.23575,1.64735-.33791,2.36034,.27367,1.02369,.55147,2.06291,.86468,3.23479Zm.72231,1.05902c.02941-.01206,.15943,.21657,.2987,.41168-.19004,.09957-.36071,.23126-.54836,.26403-.06259,.01093-.16924-.23127-.25578-.35782,.16573-.11204,.32431-.24209,.50544-.31789Zm-9.01764-8.60476c1.16379-.0665,1.83853,.32243,1.85958,1.69942-.88363,.29766-1.80237,.60715-2.72139,.91656-.10685-.13794-.21365-.276-.32047-.41416,.39006-.72633,.78014-1.45299,1.18228-2.20181Zm.4404,14.4975c-1.9929-.34146-3.36601-1.4787-4.58536-3.10523,.09044-.41079,.19371-.87979,.30014-1.3634,.4214-.05793,.74397-.10206,1.0666-.14609,.01367-.36257,.02714-.72489,.0411-1.08727l.45328,1.05033c1.09918,1.02809,2.19863,2.05615,3.4558,3.23205-.16513,.32118-.41617,.80781-.73156,1.41961Zm-1.73335-9.50162c1.42837-.475,2.71448-1.52724,4.34962-1.57795,2.86432,3.34438,3.58335,4.94251,3.33665,7.55051-.8347,.33975-1.5371,.62543-2.17757,.88621-4.11905-1.073-5.87042-3.22133-5.5087-6.85877Zm12.74685,14.48445c-2.77472,.2391-5.61649-.04611-7.86203-2.46416,.36195-.34124,.68719-.64758,1.12268-1.0583,.03663-.46055,.08212-1.03105,.1316-1.65458,1.06177-.7798,2.14267-1.57389,3.42243-2.51397,1.69872,.64453,3.35466,1.27255,5.11485,1.94041,.47712-.1165,1.04348-.25461,1.5583-.38051,1.24939,.39919,1.67988,.91801,2.55688,3.06705-1.28214,2.39642-3.74409,2.86616-6.04471,3.06405Zm7.94677-4.48015c-.49648-.56336-.88545-1.00495-1.25942-1.42937,.06973-.33822,.13144-.63711,.1974-.95742-2.04155-1.35296-4.73774-1.57541-6.38659-3.88904,.86655-1.21421,1.94969-2.34337,2.55183-3.68795,.56584-1.26437,.62415-2.75597,.94069-4.31967,1.68923-.53087,3.56064-.41951,5.39432-.34616,1.02878,.041,1.67712,.76591,2.29763,1.72684,1.27013,1.96749,1.07048,3.79345,.24042,5.76935-1.05023,2.5001-2.19159,4.93745-3.97628,7.13343Zm1.46495,.25332c1.24918-2.28363,2.53169-4.48146,3.66211-6.75473,.59799-1.20275,1.07413-2.50821,1.33543-3.82115,.18515-.93006-.08173-1.94995-.15611-3.07108,1.19296,.0906,1.86675,1.30548,2.91032,1.8443,1.12925,.58262,2.19807,1.28221,2.87571,1.68336,1.3916,1.3925,2.45404,2.45613,3.5168,3.51962,.04268-.04397,.08506-.08769,.12771-.13133,.39835,.64211,.79717,1.28405,1.2439,2.00384,1.29464-.81005-.25461-1.76919,.19114-2.56629,.32418-.58165,.6483-1.1633,.97342-1.74679-.08975-.43781-.17394-.85094-.30303-1.48169,1.17902-.32749,2.37725-.6601,3.88611-1.07896-3.57024-1.00895-7.05054-1.72992-9.35322-4.86724,.27899-.52056,.54758-1.0212,.78558-1.46503,3.13871-.25546,6.14431-.3737,8.91452,1.74089,.93475,5.67616,3.02943,11.09539,6.467,15.98661-.37525,.49909-.66692,.88699-1.0213,1.35864,.1983,.33578,.34203,.75906,.62952,1.02972,.75751,.71366,1.39269,1.45599,1.58485,2.53501,.21212,1.19176,.25971,2.33212-.63768,3.36402,.40768,.55576,.74183,1.01121,1.15294,1.57167,.67653-.29118,1.27148-.54743,2.03354-.87581,2.11754,3.14217,3.64405,6.52806,4.05137,11.03398-6.14884-8.0771-11.3292-16.15697-18.34547-23.04871-1.8665-.46854-3.83258,.68926-5.86136-.40835-.78722,.62371-1.63854,1.29848-2.58681,2.04992-.34401-.10993-.80904-.25851-1.43745-.45926-.38604,.26189-.85326,.57874-1.31381,.89077,.00953,.94782,.01797,1.79359,.02619,2.62739-.32591,.88081-.6474,1.74969-1.02147,2.7604-2.05562-.79939-3.23889-2.48235-4.33045-4.2237Zm5.65259,7.15566l.20664,3.11449c-.2614,.08704-.42702,.20457-.56498,.17803-.7367-.14089-1.46609-.31778-2.1513-.47184-.87377-1.22969-1.758-2.35779-1.55854-3.98628,.91995-.46083,1.41897-.11398,1.79881,.80611,.29353-.05436,.66946-.21631,1.01276-.16388,.39914,.06136,.76955,.31044,1.25661,.52337Zm-13.27904,8.66186c.68107-.12415,1.4299-.61601,2.24744,.2609-1.52544,1.13461-3.41201,1.28942-4.98032,2.1428-1.57712,.85823-3.3378,1.37972-5.01784,2.04882,2.24393-2.16688,4.69711-3.89602,7.75072-4.45251Zm-15.95395,10.02062c.41664-.29082,.82543-.61308,1.28317-.82208,3.30016-1.5075,6.58746-3.04772,9.92787-4.46186,2.69511-1.14073,5.44401-2.16062,8.19882-3.15103,1.20784-.43421,2.49042-.66088,3.73892-.98169-1.89878,2.02675-4.15472,3.2869-6.67002,4.1029-1.99727,.64827-4.02446,1.22722-5.96795,2.01166-1.49734,.60425-2.94262,1.2323-4.58648,1.37933-.71704,.06424-1.40788,.5164-2.0927,.83106-1.52737,.70138-3.04374,1.42726-4.77754,1.8282,.31464-.24665,.61893-.50794,.9459-.73649Zm-11.74045,2.77697c.27671,.13163,.49806,.16323,.55838,.27914,.18688,.35939,.31253,.75051,.48441,1.18627-1.57547,1.77397-3.59031,2.13426-6.17231,2.51037,1.79353-1.81222,3.25008-3.2196,5.12952-3.97578Zm-6.32008,5.00832c.21978,.32577,.43441,.6439,.53317,.79039-.69782,1.5314-1.312,2.87945-2.02232,4.43878-.9534,.10545-2.11436,.23408-3.33716,.36912,.46094-1.73865,2.56925-4.13193,4.82631-5.59829Zm-27.24513,26.60319c-2.98693,.6946-5.92416,.63895-8.84291,1.0103,2.8681-2.10413,5.88748-3.79638,9.6811-5.10062-.34562,1.68677-.58032,2.83155-.83819,4.09032Zm19.22536-12.20393c-3.25503,2.5723-6.52908,5.12032-9.93807,7.78134-.57381-.06446-1.32131-.14844-2.04096-.22897-1.20229,.41579-2.12673,1.09896-2.73503,2.57523,1.08853-.37638,1.98283-.68558,2.83897-.98133,1.11417,.24123,1.31063,.99208,1.18045,2.12676-2.3611,.31487-4.76067,.63459-7.3667,.98199-.2851-1.69469,.26841-3.10926,.59095-4.65655,2.5231-1.02487,5.07686-2.06173,7.68136-3.11967,.11461,.29879,.19528,.50968,.27401,.71518,.2999-.13466,.64866-.21588,.8782-.42668,2.46642-2.26253,5.46455-3.64399,8.40477-5.12424,.13256-.06662,.25016-.16239,.37252-.24918-.03112,.22179-.01328,.50585-.14049,.60613Zm.24624-.66054c.34371-.13004,.68741-.26018,1.03114-.39011-.20865,.46235-.62673,.4091-1.03114,.39011Zm3.5355-1.81473c-.05817-.08028-.11665-.16053-.17511-.241,.22308-.16214,.44618-.3245,.66953-.48667l.16966,.2336-.66407,.49407Zm-6.07055,1.0418c1.26672-1.33657,2.53494-2.67482,4.02507-4.24723,.05212-.31697,.1597-.97178,.30056-1.82767,1.38008-.18977,2.77901-.38204,4.27165-.58711-.87721,2.45089-4.8366,5.4549-8.59728,6.662Zm8.11342-2.61226c.91201-1.1415,1.72399-2.39307,2.79362-3.36037,.73256-.6629,1.60242-1.34401,2.8141-1.32835,.97401,.01273,1.95199-.31855,2.99163-.38448-2.78437,1.83189-5.46095,3.83607-8.59935,5.07319Zm12.8157-7.55653c-3.01031,.68721-6.04782,1.25523-9.35937,1.92366,.19241-.6713,.18451-1.17474,.425-1.36588,.44418-.35377,1.01268-.65996,1.56721-.74849,2.90839-.46494,5.82833-.85813,8.74625-1.26136,.1164-.01615,.25358,.11665,.58456,.28147-.72203,.44444-1.29493,1.01789-1.96365,1.17061Zm7.01617-1.50748c1.30065-1.68126,3.132-1.53021,4.85354-1.75429l.12006,.50233-4.97359,1.25196Zm3.09344-3.97522c-.95166,.5197-1.99265,.99675-3.04791,1.18448-3.50155,.62271-7.02734,1.10777-10.54624,1.62976-.11093,.01631-.24744-.14163-.56046-.33432,.48255-.31388,.84506-.68607,1.27875-.81015,3.58239-1.025,6.8253-2.87729,10.29396-4.18455,2.60763-.98268,5.08898-2.29441,7.65724-3.38804,2.69718-1.14851,5.41583-2.25962,8.92569-2.81595-2.72293,1.81191-4.93217,3.35578-7.21619,4.78037-2.21806,1.38326-4.48992,2.68555-6.78484,3.93839Zm3.57249,2.30265c.86697-.82747,1.92664-.7205,2.94809-.82106-.98259,.27367-1.96518,.54735-2.94809,.82106Zm6.38497-1.21757c-.47955,.05315-.95933,.1061-1.43887,.15924,.0071-.13255,.01444-.26479,.02155-.39723l1.40497-.0066,.01235,.24459Zm2.61546-.86429l1.79235-.33841c-.48692,.62003-1.15596,.40426-1.79235,.33841Zm-.91915-1.70193c-2.62568,.5417-5.26402,1.02267-7.89638,1.53129-.05939-.13804-.11879-.27576-.17793-.4135,1.11228-.70138,2.19831-1.44894,3.34314-2.09208,1.39935-.78582,2.82559-1.49237,4.02528-2.61167,.72959-.68029,1.64144-1.1802,2.51333-1.68958,2.68658-1.57065,5.38339-3.12534,8.10149-4.64067,.49897-.27819,1.11681-.34285,1.65947-.50019,.6506-1.7684,2.32566-3.31345,4.30668-3.98695,.97374,2.26162,.40759,5.12565,2.80119,6.98027-1.00934,2.21773-2.33638,4.01906-4.97827,4.54827-4.57453,.91629-9.12891,1.9318-13.69799,2.87482Z"/>
</svg>