<?xml version="1.0" encoding="UTF-8"?>
<svg id="Capa_2" data-name="Capa 2" xmlns="http://www.w3.org/2000/svg" width="210mm" height="209.99999mm" viewBox="0 0 595.27559 595.27557">
  <path d="M337.78731,302.44903c.80621-4.25488-2.92584-6.70557-5.65674-6.58691-5.23914,.22778-5.49976,6.30396-2.68695,6.89062,1.09241,.22778,1.89166,3.47632-1.24243,3.53076-4.31873,.07495-8.88373-3.41675-8.71289-13.55347,.1344-7.97314,11.84497-15.77441,13.89508-13.89502,1.8703,1.71436,.98712,5.08716-2.05011,4.78345-3.03717-.30371-6.37805,8.20044,2.42975,7.89673,8.80786-.30371,5.49023-14.98364,6.60791-19.72266,1.42365-6.03638-.83722-5.64453-1.52063-5.37207-20.42102,8.1416-28.86798,20.47925-31.88959,24.99561-.6452,.96436-.56519,2.53857-.05981,3.58301,4.4115,9.11816,30.80548,37.27026,31.26605,25.06543,.15186-4.02417-3.1131-3.18896-.37964-17.61548Z"/>
  <path d="M367.93129,332.82085c-1.50018-.75024-3.49487-26.27783-3.87244-30.90332-.3241-3.97021,9.76886-5.74585,10.11359-21.94189,.2912-13.68262-4.229-22.09717-9.43018-21.11011-4.41827,.83862-16.76538,4.11182-18.49884,4.69409-2.10681,.70752-1.97156,2.94824-1.92621,3.88574,.34167,7.06152,.4657,16.04346-1.13892,48.6709-.56946,11.57935-3.94836,5.01147-4.70758,9.87085-.42267,2.70483,11.3924,7.09521,13.81915,7.28931,1.42365,.11377,2.57037-1.43457,.96808-2.9043-1.28058-1.1748-.73785-6.35229-.36066-22.00049,.03418-1.42041,1.24335-1.3479,1.3667-.22803,.36951,3.354,2.02252,18.42651,2.36273,22.21289,.14294,1.59106-1.52777,1.14526-1.4516,3.14771,.0625,1.64209,2.61957,2.80933,11.69318,3.5686,4.08685,.34204,2.88531-3.34082,1.06299-4.25195Zm-12.14868-36.44629c-1.51862,1.21484-1.06396-1.27246-.91113-6.302,.17883-5.88525-.12811-13.21045,.15179-18.52686,.05231-.99194,.32483-2.13452,2.20197-2.88525,1.89825-.75928,5.24835-1.47876,6.2262,.07593,2.9613,4.70752,2.13635,13.89502,.41663,17.1709-2.40546,4.58203-6.56683,9.25244-8.08545,10.46729Z"/>
  <path d="M401.20741,262.37725c-.01514-1.92603,2.12756-.92456,2.66058-2.31079,.52106-1.35522,.8891-3.46362-2.67957-4.16211-3.12964-.61279-11.22955-1.24683-17.44586-.18994-2.90326,.49365-4.6496,1.97168-3.73846,3.9104,.91113,1.93872,3.19891,.74023,3.17896,3.32202-.11633,15.03345-11.39935,32.06494-13.10779,46.52563-2.46802,20.89038,3.31158,26.31006,4.35626,28.13184,1.11029,1.93628,4.75531,1.36255,8.74158-2.50562,2.1416-2.07812,1.35468-4.41992-.17084-6.20728-2.24878-2.63477-8.19055-22.83569,7.70465-22.83569,16.87805,0,11.48651,19.02026,8.63922,22.20923-2.84735,3.18921-3.30298,5.12524-1.13898,6.83374,2.164,1.7085,2.93115,2.27783,4.0282,3.18896,1.09698,.91113,3.48883,1.3667,5.08331-1.7085,1.59454-3.07495,7.09973-9.65869,2.9613-30.52344-2.73352-13.78125-8.90173-21.9248-9.07257-43.67847Zm-7.68896,36.05542c-1.44495-.30811-4.57996-.36816-6.94641,.04907-2.36658,.41724-3.54626-.55249-3.37213-2.67041,.52472-6.38428,4.85864-16.96216,5.93475-18.9126,.91113-1.65161,2.72607-2.33032,4.04321-.11377,2.33484,3.9292,4.89746,17.57788,4.89746,19.81738,0,2.96143-2.55853,2.25659-4.55688,1.83032Z"/>
  <path d="M433.49642,265.16753c-6.07812-3.69043-15.94519-6.38037-18.33698,5.54297-2.44275,12.17725-2.7049,37.44824-1.67047,52.37231,1.10101,15.88403,12.39441,13.2688,18.07117,9.28247,5.17041-3.63086,5.31665-11.77002,4.83228-15.87622-.39868-3.37866-3.2937-6.15894-6.66235-6.19287-2.61182-.02637-5.45532,.88306-5.32007,4.99512,.16467,5.00122,2.93604,1.92603,4.53064,4.31763,.67395,1.01099,.74036,7.28931-3.64465,7.17554-3.64648-.09473-2.44824-4.83618-3.07507-15.14795-.42188-6.93994-.22791-21.75391,.68335-36.26025,.20959-3.33618,.48303-6.76562,4.08142-5.63403,5.70337,1.79346,5.56152,7.27051,5.14404,11.6709-.29468,3.10449-5.80859-1.66699-5.99976,4.12891-.25989,7.88794,11.94775,6.28223,12.30884-1.01245,.48096-9.71655,.70569-15.93237-4.94238-19.36206Z"/>
  <path d="M464.36165,304.23345c-1.10913,.25269-1.28638,.87305-2.46338,.60742-1.33301-.30127-4.03564-3.44775-5.42896-5.23926-.56201-.7229,.09021-1.18262,1.11548-2.65234,.93042-1.33398,2.05701-2.98096,2.79065-3.87744,1.02502-1.25293,1.53284-1.4436,4.66968-1.33838,1.69885,.05688,1.84778-1.45312,.88269-2.27783-1.146-.97949-4.94141-4.5061-7.64038-6.44458-1.5509-1.11401-2.35388-1.21484-2.09766,2.05957,.07349,.93848,.39575,2.99976-.44153,4.29614-2.02148,3.12964-3.66956,5.25537-4.19958,5.92578-.64551,.81641-2.07861,2.73364-2.10278,1.36694-.04028-2.28906,.05273-9.56519,.1665-12.4126,.11401-2.84741,.80322-3.41528,2.56274-4.04517,1.18433-.42407,2.23987-1.06299,1.0249-2.16406-.77808-.70508-7.28918-4.89746-8.71289-5.97949-1.26294-.95972-4.49268-2.31006-4.38489-.51245,.11389,1.89819,1.82666,1.67041,1.82666,6.60596,0,3.84595-.27234,31.35986-.11389,42.71021,.07153,5.12524-1.49219,5.68994-2.66187,7.70679-.82556,1.42383-.95129,2.77515,2.66187,.72144,2.63025-1.49512,6.17041-3.53711,8.65601-4.78369,1.51416-.75928,1.09204-2.32349-.15625-2.84717-.76538-.32129-.99487-1.57007-.98267-2.16406,.06396-3.12207-.13794-9.72534-.08032-11.65527,.0481-1.61279,2.4353-2.9668,3.85742-.93018,5.04956,7.23242,7.23657,8.28027,12.28198,5.52393,4.1001-2.23975,1.96973-8.88379-1.02954-8.2002Z"/>
  <path d="M203.64809,312.33282c-6.54663-.49365-8.35223,7.9646-3.92456,8.8418,2.01898,.40015,1.95111,9.27661-1.26483,9.16382-5.54327-.19434-8.68488-10.38745-8.87805-21.27026-.05591-3.14941,.98126-6.45386,3.91376-6.35596,3.01703,.10059,.89099,3.59351,5.9314,3.59131,2.68512-.00122,2.67584-5.2832,2.72455-9.31152,.04749-3.93237-.56476-8.18921-3.23456-8.1416-4.85193,.08643-2.10065,4.69897-5.18988,4.63965-2.0686-.03979-4.28052,.77808-4.28052-3.9856,0-14.92822,1.98694-29.80859,9.82568-25.27759,2.46906,1.427,1.64465,8.9231-1.74854,8.57544-3.39325-.3479-5.71399,10.16748,4.03729,8.76831,10.78357-1.54712,2.98834-13.99731,6.05981-22.31079,1.61853-4.38086-.57404-6.70361-1.97095-5.92676-12.59143,7.00244-27.71094-10.4165-27.71094,44.71289,0,55.54053,13.30688,38.76636,25.05621,43.54907,3.98022,1.62036,6.5368-.75122,5.38214-6.83691-2.55109-13.44531,5.5946-21.64722-4.72803-22.42529Z"/>
  <path d="M175.17525,327.78033v-57.5791c0-8.08643,3.95197-6.52661,3.26495-10.28857-.33282-1.82227-1.28302-3.06104-7.15161-.72363-4.5282,1.80347-5.80176,2.23926-7.27496,6.6604-2.9502,8.85376-11.87555,32.20874-11.87555,32.20874-.5069,1.43091-2.49249,1.53076-3.1402,.15771l-8.85266-18.76538c-.50165-1.06348-1.8092-1.19971-2.73798-.47876-2.72107,2.1123-7.76471,7.00439-8.90747,9.30078-.3219,.64648-.3783,2.00879,.64325,2.79028,1.02814,.78662,1.53412,1.96265,1.53412,3.58765v7.72656c0,.7522-.49408,1.41479-1.21484,1.62939h0c-2.133,.54736-2.15265,2.10498-1.40131,3.02051,1.02142,1.24463,4.72937,5.86157,10.6571,10.48364,1.08679,.84741,3.38953-.64771,3.23798-2.01733-.15759-1.4248-1.55652-2.65771-1.63245-4.7915-.05304-1.48926,0-5.96143,0-5.96143,0-2.29248-.16809-3.59399,.7785-3.88989,.95331-.2981,1.33691,.75,2.45367,3.15283,1.41937,3.05396,5.84003,12.13916,5.84003,12.13916,.64648,1.34399,2.58661,1.26343,3.11975-.12915,0,0,6.52765-17.13721,8.74164-22.83496,1.20074-3.08984,1.89001-3.79858,2.75415-3.19434,.78662,.55029,.53375,1.83423,.53375,3.80225v31.88379c0,1.47827-1.67474,1.71948-1.67474,1.71948-2.06482,.11938-3.0481,3.61426-.73938,4.68237,3.59045,1.66064,7.34143,3.17139,12.28497,4.71948,3.00708,.94165,3.93695-2.19043,3.35986-4.49878-.68335-2.7334-2.60059-1.87939-2.60059-4.51221Z"/>
  <path d="M279.1227,284.89361c1.09509-.26074,1.48059-1.74658-.64972-4.79712-3.75269-5.37402-18.88177-13.83643-21.43298-14.22729-1.52832-.23389-2.72729,1.61743-1.00531,4.21704,4.9549,7.47998-25.03217,33.53149-13.74719,61.17969,3.03717,7.44116,14.12286,1.62036,12.05658-3.24438l-2.00256-3.71143c-1.6618-3.08008-.85718-8.74121,.96515-11.62646,3.97681-6.29663,13.70734-8.46606,17.60999-3.60889,2.77753,3.45703-1.83374,5.13574-1.05737,8.92407,1.0271,5.01123,14.14166-5.16333,14.1416-10.37378-.00012-11.94971-4.34851-16.94019-6.35883-20.11182-.85645-1.35156-.11383-2.24023,1.48065-2.61963Zm-6.41107,12.83838c-1.46777,1.3645-4.52911,.17456-7.57892,.19287-3.17279,.01904-6.33539,1.19995-7.80176,.25635-3.29834-2.1228,4.37463-12.74365,5.40997-14.40771,1.59448-2.5625,3.98627-1.99316,5.01135-.05688,2.13202,4.0271,6.88202,12.22827,4.95935,14.01538Z"/>
  <path d="M235.80495,330.81182c-2.03748-.3396-3.53076-1.08203-3.53076-3.53833v-56.38281c0-1.58838,1.15881-3.06152,5.56525-1.85938,6.0788,1.65796,3.95868,4.48804,4.86359,6.47607,1.03656,2.27734,4.22559,2.27734,4.53809-.35498,.35101-2.9563,1.10022-8.2771,1.20105-11.74512,.04419-1.52051-1.28937-2.31885-2.5575-2.95874-6.9411-3.50269-22.06439-7.00537-29.30798-7.07739-3.87244-.03857-5.15674,.77856-6.24609,4.18506-1.21484,3.79932,.0166,6.5647-1.21484,13.21436-.75934,4.10034,4.59167,4.7627,5.61877,.91113,.60742-2.27783,1.46582-4.46924,4.45776-4.26343,2.37585,.16333,2.44574,2.5481,2.44574,4.71899v55.62549c0,2.25195-.41156,4.35889-3.3728,5.6687-2.72913,1.20703-2.3833,2.75903-2.164,5.6377,.45557,5.97949,16.40369,.23999,20.02454-.79224,2.63287-.75098,2.41266-7.00952-.3208-7.46509Z"/>
</svg>