<?xml version="1.0" encoding="UTF-8"?>
<svg id="Capa_2" data-name="Capa 2" xmlns="http://www.w3.org/2000/svg" width="210mm" height="209.99999mm" viewBox="0 0 595.27559 595.27557">
  <path d="M428.36259,297.52112c0-72.08196-58.64261-130.72502-130.72502-130.72502s-130.72458,58.64305-130.72458,130.72502c0,67.50274,51.42972,123.21716,117.16313,130.02335,4.43508,.61158,8.9609,.935,13.56145,.935,4.60027,0,9.12582-.32336,13.56063-.93489,65.73417-6.80575,117.16439-62.52045,117.16439-130.02346Zm-72.67047-47.72004c-16.30894-11.88493-36.37531-18.9096-58.05455-18.9096s-41.74534,7.02451-58.05422,18.90916c-1.4735-5.21356-2.27922-10.70447-2.27922-16.38323,0-33.26789,27.06511-60.33344,60.33344-60.33344s60.33388,27.06555,60.33388,60.33344c0,5.67892-.80572,11.17-2.27933,16.38367Zm-45.29257,171.50613c-4.19654,.42945-8.45393,.65018-12.76198,.65018s-8.56561-.22078-12.76225-.65023c-44.98988-6.23628-79.74388-44.94377-79.74388-91.62212,0-27.66458,12.21043-52.52778,31.52076-69.49429,10.33007,23.43789,33.77108,39.84798,60.98538,39.84798s50.65531-16.40998,60.9856-39.8476c19.30994,16.96652,31.5201,41.82955,31.5201,69.49391,0,46.67846-34.75373,85.38606-79.74371,91.62217Zm-12.76198-127.68881c-15.49247,0-28.09628-12.60424-28.09628-28.09672s12.60381-28.09628,28.09628-28.09628,28.09628,12.60381,28.09628,28.09628-12.60381,28.09672-28.09628,28.09672Zm-34.38415-28.09672c0,8.47602,3.08905,16.24013,8.19224,22.24088-13.4263-6.49703-24.08292-17.83162-29.72318-31.71961,9.62945-7.32923,20.72999-12.81998,32.77813-15.93387-6.90603,6.29319-11.2472,15.35519-11.2472,25.41261Zm60.57599,22.24088c5.10325-6.00074,8.1923-13.7648,8.1923-22.24088,0-10.05742-4.34117-19.11942-11.2472-25.41261,12.04837,3.11394,23.14896,8.60486,32.77841,15.9342-5.64043,13.88794-16.2972,25.22231-29.72351,31.71928Zm-150.62856,9.75856c0-55.09681,35.99701-101.93695,85.70515-118.25789-16.8686,12.0993-27.88975,31.85771-27.88975,54.15418,0,7.16525,1.15058,14.06371,3.2537,20.53689-21.64015,18.13705-35.42638,45.35239-35.42638,75.73074,0,28.83708,12.42091,54.82569,32.19117,72.90304-34.7375-22.09816-57.83388-60.93422-57.83388-105.06695Zm191.03828,105.06778c19.77075-18.07735,32.19199-44.06634,32.19199-72.90386,0-30.37807-13.78602-57.59325-35.42573-75.73024,2.10323-6.47329,3.25391-13.37197,3.25391-20.53738,0-22.29641-11.02131-42.05489-27.88997-54.15413,49.70808,16.32094,85.70537,63.16109,85.70537,118.25784,0,44.13328-23.0972,82.96978-57.83558,105.06778Z"/>
</svg>