<?xml version="1.0" encoding="UTF-8"?>
<svg id="Capa_2" data-name="Capa 2" xmlns="http://www.w3.org/2000/svg" width="210mm" height="209.99999mm" viewBox="0 0 595.27559 595.27557">
  <defs>
    <style>
      .cls-1 {
        fill: #fff;
      }
    </style>
  </defs>
  <path class="cls-1" d="M269.25016,300.59384h-41.73541v24.89258c0,5.07056-1.30432,8.88525-3.89404,11.42383-.15192-8.97095-3.28656-17.50854-8.86554-24.10693-6.99359-8.27393-17.05731-12.83179-28.33514-12.83179-14.95319,0-27.74359,6.89014-35.09161,18.90332-5.74554,9.39209-6.60358,19.448-6.60358,24.6062,0,19.16895,10.68567,43.94043,40.66516,56.0459l.55023,.22876,.25745,.10718,.25977,.10132c5.44891,2.12524,11.14789,3.64722,16.94946,4.52759,3.08771,.58081,6.12207,.87524,9.03046,.87524,.21857,0,.43634-.00146,.65344-.00488,.83374,.02661,1.6189,.03955,2.38,.03955,44.06616,0,79.91663-35.84961,79.91663-79.91528v-24.89258h-26.13727Zm-53.77936,79.91528c-.76099,0-1.51929-.02051-2.27649-.05225l-.03534,.00366c-.23865,.00952-.479,.01392-.72162,.01392-1.54321,0-3.16528-.1875-4.83423-.52563-4.14111-.59229-8.18982-1.65063-12.1012-3.17603l-.68665-.28564c-23.38068-9.38818-25.19781-27.63721-25.19781-33.0061,0-2.30322,.33911-7.35571,2.94629-11.61743,2.3349-3.81738,6.48938-6.99951,13.85626-6.99951,3.8822,0,7.10809,1.38672,9.32623,4.01099,1.92664,2.27881,2.98761,5.37598,2.98761,8.71948,0,6.22461-3.69989,12.52417-10.77142,12.52417-3.07745,0-5.05627-1.2605-6.3374-2.76538,3.87805,12.11646,17.50549,18.21143,30.95056,18.21143,.58752,0,1.17639-.01172,1.76239-.03491,18.94904-.75366,38.0694-13.42847,38.0694-40.04346h18.0874c0,30.33911-24.68365,55.02271-55.02399,55.02271Z"/>
  <path class="cls-1" d="M215.4708,189.87387c-.76117,0-1.54645,.01294-2.38025,.03955-.21729-.00342-.43524-.00488-.65387-.00488-2.90948,0-5.94354,.29395-9.03033,.87524-5.80029,.88013-11.49902,2.4021-16.94891,4.52759l-.25977,.10132-.25745,.10718-.55377,.23047c-29.97559,12.10547-40.66162,36.87598-40.66162,56.04395,0,5.15845,.85803,15.21484,6.60504,24.60815,7.34595,12.01123,20.13654,18.90161,35.09015,18.90161,11.27783,0,21.34155-4.55786,28.33728-12.83423,5.57727-6.59766,8.71155-15.13403,8.8634-24.10474,2.58984,2.53882,3.89404,6.35352,3.89404,11.42407v24.89258h67.87268v-24.89258c0-44.06567-35.85046-79.91528-79.91663-79.91528Zm53.77936,79.91528h-16.84277c0-26.61523-19.12036-39.29004-38.0694-40.04346-.58685-.02319-1.17407-.03491-1.76245-.03491-13.44427,.00049-27.07269,6.09521-30.9505,18.21094,1.28113-1.50464,3.25995-2.76514,6.3374-2.76514,7.07153,0,10.77142,6.29932,10.77142,12.52417,0,3.34351-1.06097,6.44067-2.98761,8.71973-2.21814,2.62427-5.44403,4.01099-9.32623,4.01099-7.36688,0-11.52136-3.18213-13.85626-7-2.60718-4.26123-2.94629-9.31396-2.94629-11.61719,0-5.36914,1.81714-23.61792,25.19781-33.00586l.68665-.28564c3.91138-1.52539,7.96008-2.58398,12.1012-3.17603,1.66882-.33862,3.29047-.52563,4.83356-.52563,.24274,0,.48352,.00439,.72229,.01392l.03534,.00366c.7572-.03174,1.5155-.05225,2.27649-.05225,30.34033,0,55.02399,24.68335,55.02399,55.02271h-1.24463Z"/>
  <path class="cls-1" d="M326.02555,294.68173h41.73523v-24.89258c0-5.07056,1.30438-8.88525,3.89404-11.42407,.15192,8.96997,3.28595,17.50659,8.86389,24.10522,6.9953,8.27588,17.05902,12.83374,28.33685,12.83374,14.95361,0,27.74414-6.89038,35.09204-18.90454,5.74506-9.39038,6.60315-19.44678,6.60315-24.60522,0-19.16797-10.68689-43.93872-40.66223-56.04443l-.55487-.23096-.25665-.10645-.25885-.10107c-5.45001-2.12549-11.14899-3.64746-16.94934-4.52759-3.08655-.5813-6.12048-.87524-9.02991-.87524-.21869,0-.43652,.00146-.65375,.00488-.83386-.02661-1.61914-.03955-2.38043-.03955-44.06604,0-79.91644,35.84961-79.91644,79.91528v24.89258h26.13727Zm53.77917-79.91528c.76099,0,1.51947,.02051,2.27667,.05225l.03528-.00366c.23883-.00952,.47943-.01392,.72223-.01392,1.54297,0,3.16486,.18701,4.8335,.52563,4.14124,.59204,8.18988,1.65063,12.1012,3.17603l.68683,.28564c23.38049,9.38794,25.19769,27.63672,25.19769,33.00586,0,2.30322-.33917,7.35596-2.94629,11.61719-2.33496,3.81787-6.48938,7-13.85626,7-3.88226,0-7.10809-1.38672-9.32623-4.01099-1.92651-2.27905-2.98767-5.37622-2.98767-8.71973,0-6.22485,3.69995-12.52417,10.77142-12.52417,3.07764,0,5.05634,1.2605,6.33746,2.76514-3.87793-12.11621-17.50543-18.21143-30.95044-18.21094-.58752,0-1.17645,.01172-1.76245,.03491-18.9491,.75342-38.06952,13.42822-38.06952,40.04346h-18.08722c0-30.33936,24.68353-55.02271,55.0238-55.02271Z"/>
  <path class="cls-1" d="M408.85557,299.97153c-11.27783,0-21.34155,4.55786-28.33728,12.83423-5.57715,6.59692-8.71155,15.13403-8.86346,24.10449-2.58984-2.53882-3.89404-6.35327-3.89404-11.42383v-24.89258h-67.8725v24.89258c0,44.06567,35.8504,79.91528,79.91644,79.91528,.76135,0,1.54688-.01294,2.3808-.03955,.21692,.00342,.43451,.00488,.65277,.00488,2.9082,0,5.9425-.29395,9.0304-.87524,5.80157-.88037,11.50049-2.40234,16.94946-4.52759l.25885-.10107,.25665-.10645,.55975-.23315c29.97107-12.10693,40.65735-36.87573,40.65735-56.04248,0-5.1582-.85809-15.21411-6.60461-24.60767-7.34698-12.01172-20.13745-18.90186-35.09058-18.90186Zm-8.39514,76.51562l-.68683,.28564c-3.91132,1.52539-7.95996,2.58374-12.1012,3.17603-1.66901,.33813-3.29089,.52563-4.83411,.52563-.24255,0-.48309-.00439-.72162-.01392l-.03528-.00366c-.7572,.03174-1.51569,.05225-2.27667,.05225-30.34027,0-55.0238-24.68359-55.0238-55.02271h18.08722c0,26.61499,19.12042,39.28979,38.06952,40.04346,.58685,.02319,1.17395,.03491,1.76239,.03491,13.44415,0,27.07281-6.0957,30.9505-18.21143-1.28113,1.50488-3.25983,2.76538-6.33746,2.76538-7.07147,0-10.77142-6.29956-10.77142-12.52417,0-3.34351,1.06116-6.44067,2.98767-8.71948,2.21814-2.62427,5.44397-4.01099,9.32623-4.01099,7.36688,0,11.5213,3.18213,13.85626,6.99951,2.60712,4.26172,2.94629,9.31421,2.94629,11.61743,0,5.3689-1.8172,23.61792-25.19769,33.0061Z"/>
</svg>