<?xml version="1.0" encoding="UTF-8"?>
<svg id="Capa_2" data-name="Capa 2" xmlns="http://www.w3.org/2000/svg" width="210mm" height="209.99999mm" viewBox="0 0 595.27559 595.27557">
  <path d="M402.48768,264.59647c-.21647,2.56917-3.10981,35.32368,7.45766,29.6178,2.42444-1.30601,2.21748-3.3068,3.80168-4.08277,5.20484-2.53966,5.24964,4.4862,7.04198,5.86925,6.37005,4.88296,14.26316-18.0184,15.88189-21.81677,15.88798-37.28908-31.16501-45.32379-34.1832-9.5875Zm17.39822,10.2074c-.46017,4.5866-4.98142,4.08191-5.95939-.35556-1.57815-7.17942,.59318-17.80808,4.87652-19.2974,5.18615-1.80152,1.62653,14.2108,1.08287,19.65297Z"/>
  <path d="M414.27318,294.81218c-2.8502-.64634-6.11437,5.86754-7.90809,8.03579-11.61609,14.02999-11.85399,1.57895-12.01314-1.18356-2.60199-45.01022-20.30124-51.73002-24.10742-47.40326-6.78852,10.34951,20.57424,17.2916,15.33544,79.30527-1.45901,17.27132,41.80171-35.75993,28.69321-38.75424Z"/>
  <path d="M348.93944,267.01094c-15.33851,6.7785-13.53112,33.7453,2.23526,37.25045,33.95397,7.56085,26.50884-34.55688-4.54984-11.6002-.13607-.12439-5.86981-12.12215,11.2819-15.9734,22.67924-5.09384,27.78978,58.7283,.74258,43.43679-10.29419-5.82389-14.79012-13.91865-17.84421-14.69434-12.8119-3.25363-8.85296,15.48621-3.9798,23.62274,10.63642,17.75936-31.43459,13.29545-22.41331-2.49014,9.16601-16.0391,17.29918-46.90468,1.38755-57.29601-13.96042-9.11701-7.52165,17.11696-6.56259,21.08616,6.98021,28.88656-8.11397,36.47527-10.74827,39.91364-16.74521,21.85712,49.92292,28.60638,65.52987,17.20009,4.50347-3.29141-10.39459-11.84698-13.44816-14.27427-2.12654-1.69052-4.08026-3.88738-5.91181-6.03865-3.31848-3.88077-7.96347-13.88253-2.39726-13.14884,1.19975,.15664,8.2726,11.32144,8.98156,12.24403,40.80032,53.21741,43.24095-79.35958-2.30347-59.23805Z"/>
  <path d="M307.34474,304.1309c.43625,31.34639-33.76142,16.52458-29.30309-2.90474,4.39827-19.16441,28.98702-19.2868,29.30309,2.90474Zm-15.24694-6.64858c-8.09533,2.35715-7.46102,17.41936,3.02047,14.85742,6.1366-.47853,6.91121-17.2279-3.02047-14.85742Z"/>
  <path d="M288.05788,264.10598c-10.52815-12.31999-21.56828-14.91309-18.67916-5.56012,4.87902,15.79898,2.33042,26.75227-.99717,34.98561-4.72324,11.68561-21.94669,25.08517-24.43296,4.45611,.71004,3.77951,12.66945,6.75097,16.38879-2.91135,.98162-2.55305,1.28208-7.27628-1.36886-6.72203-11.59883,2.42837-14.69719-3.62589-14.69719-3.62589,0,0,.6811-7.84604,10.81084-21.08531,3.15181-4.12226,19.41598-31.51112-47.34121-18.67693-3.21853,.62098,7.76593,20.96508,21.00963,14.93754,19.69417-8.959,21.89108-8.80093,15.49846,.83466-7.32295,11.04685-8.35796,16.50458-8.35796,16.50458,0,0-13.92703-11.22264-28.37714-20.40421-19.94568-12.67167-17.81783,3.01602-14.86414,6.65969,17.7221,21.85991,8.5183,37.0334,17.60414,39.36383,9.99395,2.56638,22.91936-16.58242,24.27267-9.01461,3.64595,20.38421,5.82058,16.67592-14.75058,11.4586-11.54453-2.92667-19.90368,14.10065-14.38749,16.93633,10.55937,5.41995,75.74479,5.67813,74.57622-41.1311-.27152-10.88212,10.81534,1.70944,15.40057,2.1813,6.16333,.62765,4.2936-5.61579-7.30745-19.18669Zm-66.68591,17.24129c-9.55548,2.06113-11.74795-22.43639-14.00492-14.1251,.00445-.00672,23.1531,12.14636,14.00492,14.1251Z"/>
  <path d="M190.75814,264.91312c-7.97237-8.13123-10.78246,2.67938-7.87721,8.20303,16.61917,31.59733,7.87721,34.24195-16.7427,14.03638-8.75506-7.18529-12.88758,2.2033-9.76557,8.0934,7.34745,13.86224,34.07613,24.24292,34.38548,23.99363-3.57467,21.42839-20.82262,10.2931-27.53576,14.46653-7.02779,4.36876,.0086,25.3205,16.86043,18.72537,23.14865-9.05912,28.23161-69.61207,10.67533-87.51833Z"/>
</svg>