<?xml version="1.0" encoding="UTF-8"?>
<svg id="Capa_1" data-name="Capa 1" xmlns="http://www.w3.org/2000/svg" width="210mm" height="209.99999mm" viewBox="0 0 595.27559 595.27557">
  <path d="M310.25833,199.62017c.30344-.44762-3.73237-4.52745-3.23346-4.7314,.85897-.35113,1.81798,1.19991,2.84224,.91538-.84214-.45235-1.56858-.94495-1.63821-1.91479-.06378-.8884,.54611-1.52811,1.06741-2.37523-1.31881,.04488-2.23025,.78265-3.27316,1.1-1.05126,.31989-2.08559,.69537-3.27365,1.09581,1.16004,.61031,1.20712,1.5761,1.1721,2.52846-.02967,.80614-.39546,1.46348-1.15463,1.86294-.38166,.20083-.71037,.50712-1.0989,.68921-1.17194,.54923-3.26992,.104-4.18734-.8548-.37209-.38888-.39069-1.64457,.01439-2.29434,.26043-.41775,.59749-.78772,.94395-1.23564-1.46892-.04984-2.76198,.37284-4.0468,1.0472,.33334,.88368,.75234,1.78698,1.0091,2.73424,.24918,.91937,.52091,1.87044,.21015,2.94152l-1.76432-.16891c.31114,1.84791,.62908,3.78689,.97401,5.72107,.04338,.24324,.22877,.46115,.37442,.74085,.2352-.12324,.40049-.2266,.57824-.29967,.43151-.17738,.78907-.11268,1.00455,.34816,.01414,.03026,.03297,.05849,.05118,.08666,.81977,1.26822,.8182,1.26197,2.26731,.89144,.58148-.14869,1.16912-.27674,1.75885-.38835,.35609-.06739,.63714,.04432,.84475,.38797,.67244,1.113,1.7919,1.02269,2.8599,.98024,.4965-.01973,.98761-.17565,1.53476-.28006l-.30542-.45889c1.49236-.0262,2.66901-.74974,4.00141-1.59974-.26857,1.52887-.49725,2.83059-.72966,4.15348,.53579,.11507,1.02462,.21444,1.51068,.32591,.56753,.13015,1.05348,.38133,1.46992,.81809,.2941,.30845,.68562,.53547,1.05987,.75395,1.22678,.7162,1.87106,1.87488,2.39205,3.12154,.18805,.44997,.2983,.93244,.47403,1.49622,1.54241-.21094,3.02845-.46065,4.52467-.60405,1.18931-.11398,2.39179-.08372,3.58708-.14398,1.04929-.05291,2.08382,.18301,3.15435-.00089,.69228-.11893,1.47286,.0689,2.17225,.26658,.52643,.14878,.89753,.04961,1.30798-.23402,2.21434-1.5302,4.99355-.5446,5.88499,2.02991,.52785,1.52447,.84039,3.07185,1.057,4.67259,.36571,2.70279,1.35169,5.23906,2.4366,7.73618,.81505,1.87602,1.57389,3.77795,2.29993,5.6903,.26362,.69438,.26871,1.48956,.54872,2.17459,.94722,2.31729,1.41619,4.73641,1.70232,7.20444,.0187,.16128,.0824,.31733,.12516,.47582l.00071-.00403-.55314,.17015c.08653,.60633,.13014,1.24018,.27385,1.85046,.29632,1.25841,.2536,2.51355-.01421,3.75479-.10787,.49998-.01301,.88274,.17397,1.33427,.44884,1.08391,.76313,2.21121,.66894,3.41073-.01299,.16556-.00113,.3349,.0161,.50073,.1455,1.39884-.27879,2.68877-.68478,4.00105-.78822,2.5478-1.94293,4.93619-3.181,7.27398-1.07791,2.03538-2.28523,4.01552-3.73513,5.81996-1.65852,2.0641-3.37541,4.08122-5.04061,6.14005-.77904,.96317-1.50193,1.9721-2.23942,2.96834-.49867,.67361-1.02925,1.33136-1.4522,2.05108-.42151,.71722-.69309,1.52116-1.09274,2.25306-.34805,.63739-.75342,1.24963-1.19105,1.82954-.25024,.33163-.54092,.62414-1.10239,.4827-.27143-.06839-.64188,.25628-1.01873,.42605-.05083-.19975-.05829-.33418-.11632-.44118-.76945-1.41844-.13893-2.75803,.34664-4.03083,1.00507-2.63461,2.30721-5.14017,3.72444-7.57765,.96112-1.65304,2.01996-3.24902,2.99656-4.89339,.95728-1.61185,1.86139-3.25518,2.79798-4.87942,.36497-.6329,.30687-1.29991,.16272-1.95962-.16104-.73705-.21974-1.4269,.15503-2.14162,.24339-.46419,.34552-1.0091,.46976-1.52772,.25473-1.06332,.837-1.94893,1.40434-2.86335,.84679-1.36484,1.63591-2.77072,2.36307-4.20306,.7393-1.45624,1.77634-2.67203,2.8536-3.86607,.3411-.37808,.33666-.45523-.13787-.64277-.13204-.05218-.30132-.11504-.36326-.2242-1.26736-2.23386-2.72697-4.34348-4.1831-6.45386-.27482-.3983-.72476-.67113-1.0407-1.04664-.77485-.92099-1.51677-1.86965-2.27562-2.80419-.51453-.63364-1.12848-1.10672-1.93731-1.33696-.73189-.20831-1.30813-.64769-1.65366-1.36203-.64-1.32318-1.55903-2.50458-1.97613-3.94429-.09065-.31293-.29322-.60526-.4899-.8736-.84781-1.15655-1.18179-2.44074-1.11361-3.87037,.05522-1.15741,.0112-2.31955,.0112-3.56223-.60518-.0855-1.27193-.143-1.9225-.27831-2.23402-.46457-4.47336-.89131-6.76095-.96057-1.16485-.03526-2.13508-.43483-2.87974-1.38738-.75299,.39649-1.01909,1.09739-1.14891,1.80962-.23335,1.28026-.41617,2.57422-.53147,3.87033-.13886,1.56124-.16458,3.13225-.28235,4.69578-.04497,.59721-.15237,1.20318-.33078,1.77408-.3696,1.18263-.80983,2.34306-1.21199,3.51571-.10854,.31648-.24183,.63978-.26621,.96722-.1268,1.7024-.2529,3.40447-.05293,5.11438,.04858,.41537-.0857,.85165-.13232,1.27872-.07918,.72554-.15302,1.45167-.23398,2.17702-.05188,.46465-.06425,.94063-.17868,1.39005-.2941,1.15487-.40778,2.28956-.05954,3.46435,.12535,.42283,.07125,.91706,.0212,1.37011-.13153,1.19057-.34426,2.35367-.28779,3.58179,.06057,1.31713-.27556,2.64903-.39029,3.97865-.11469,1.32907-.16535,2.66358-.25231,3.99516-.0608,.93118-.12053,1.86286-.20708,2.79185-.18051,1.93746-.40897,3.87092-.55974,5.81054-.12474,1.60482-.16992,3.21593-.24354,4.82458-.06737,1.47238-.11512,2.94574-.19075,4.41767-.07927,1.54264-.17966,3.0842-.27457,4.626-.03704,.60177-.10651,1.20231-.12281,1.80445-.05258,1.94522-.07172,3.89149-.14141,5.83599-.01497,.41754-.19296,.82828-.28694,1.24418-.10979,.48585-.24141,.96984-.30497,1.46219-.06064,.46962-.10704,.8984-.45774,1.28965-.2256,.25168-.31581,.65931-.38237,1.0129-.27775,1.4759-.45325,2.97479-.80496,4.43176-.24947,1.03332-.68597,2.02788-1.10244,3.01292-.54559,1.29048-1.10357,2.5624-1.46544,3.93186-.3665,1.3869-.97085,2.71025-1.45484,4.06721-.14377,.40311-.23283,.82572-.38345,1.37161,.2703-.06015,.42532-.06621,.55379-.12771,1.05742-.50615,2.11684-1.00894,3.16151-1.54058,.71596-.36438,1.41896-.75723,2.10584-1.1735,.17097-.1036,.35998-.34537,.36308-.52669,.00951-.55475,.35697-.84344,.73744-1.12672,.6132-.45663,1.23923-.89645,1.84371-1.36421,.28085-.21732,.66102-.43148,.31382-.92894,.22622-.15019,.44194-.30424,.66784-.44153,1.06063-.64457,2.03824-1.36108,2.80769-2.37676,.34563-.45625,.97536-.69533,1.47088-1.04056,.40495-.28216,.80203-.57565,1.37216-.98622h-.73842c-.00398-.05522-.03333-.14846-.00876-.16596,1.61147-1.14677,3.22856-2.2856,4.84181-3.42983,.41053-.29115,.81851-.58706,1.21335-.89889,2.53714-2.0038,5.4182-3.4807,8.08665-5.28333,.77859-.52597,1.41236-1.08144,1.6552-2.09511,.67059-2.79936,1.44036-5.57549,2.20186-8.3523,.24555-.89532,.41662-1.81967,1.10914-2.55293,.4141-.43845,.80038-.53269,1.3354-.35864,.78372,.25498,1.31415,.75622,1.66265,1.50266,.66591,1.42624,1.28255,2.88495,2.07149,4.24189,.95481,1.64223,1.26189,3.29081,.89611,5.17505-.27561,1.41973-.62418,2.80977-1.03286,4.18898-.30361,1.02458-.79588,2.01005-.97032,3.05208-.24853,1.48443-.87914,2.80413-1.44793,4.15702-.57889,1.37685-1.63594,2.1401-3.11828,2.35621-.31386,.04576-.6483,.20581-.89598,.40789-1.42372,1.16159-2.92583,2.23236-4.1107,3.66996-.64398,.78133-1.00819,1.61795-1.09139,2.63741-.2377,2.91278-.10288,5.80928,.09722,8.72024,.21555,3.13574,.55171,6.26679,.46376,9.42527-.06807,2.44475,.08286,4.89495,.08145,7.34269-.00036,.61538-.21173,1.23067-.32785,1.85532,.11517,.01032,.15744,.02523,.16861,.01264,.01982-.0224,.02454-.06094,.02901-.09366,.01559-.11428,.02837-.22896,.06388-.52266,.24282,1.35597,.51925,2.51185,.64206,3.68382,.15215,1.45202,.17167,2.91769,.26028,4.37675,.024,.39514,.10586,.78664,.13339,1.18173,.02765,.39689,.13705,.84154,.0035,1.18461-.24381,.62632-.12909,1.10266,.30201,1.55682,.31416,.3309,.44827,.68864,.40507,1.17463-.04334,.48755,.08385,.98929,.12705,1.48565,.1183,1.3592-.24759,2.70043,.04564,4.0906,.43277,2.05166,.67355,4.14173,1.26525,6.16635,.15264,.52229,.03906,1.11641,.11403,1.66856,.2292,1.68778,.48242,3.37249,.74851,5.0549,.03971,.25097,.19809,.48341,.30305,.72375,.06495,.14876,.21752,.31814,.1859,.44097-.28214,1.09576,.11104,2.14909,.14308,3.21577,.03848,1.2816,.42693,2.48694,.52498,3.74338,.00726,.09309,.0701,.18185,.16349,.41096l.25965-.64771c.39269,.44576,.59361,.87158,.40761,1.43864-.15422,.47025-.28669,.94762-.44228,1.46688,.77432,.45125,.74934,1.14004,.49675,1.83077-.2445,.66856-.18802,1.31536-.0423,1.9769,.02814,.12771,.04333,.33697,.11725,.3639,.86885,.31676,.46286,.92623,.26702,1.38581-.30765,.72198-.28816,1.32938,.22928,1.93919,.20931,.24668,.32349,.57409,.48412,.87057-.32639,.15553-.53693,.41044-.20919,.66053,.35885,.27379,.32945,.60412,.2067,.88656-.48399,1.11372-.0432,2.09729,.29883,3.19236-.39774,.69892-.4389,2.1207,.1912,2.57621,.51915,.37528,.36769,.67531,.2797,1.07745-.05587,.25533-.14854,.50817-.16258,.7655-.01513,.27711,.00048,.33433,.50443,.47991,.5225,.15095,.59128,.46192,.48767,.89659-.06844,.28714-.12105,.59478-.2666,.84289-.22694,.38686-.14664,.69404,.05564,1.05404,.23002,.40939,.41973,.8461,.02507,1.30013-.08879,.10216-.0598,.31242-.07049,.4739-.00413,.06237,.04669,.1271,.04789,.19124,.0234,1.25023,.49801,2.35972,1.05056,3.45001,.09346,.18441,.11224,.4153,.12977,.62768,.03248,.39361,.02163,.79102,.05948,1.18392,.06056,.62864,.14615,1.25492,.22115,1.88218-.6183,.50374-.02665,.79068,.13737,1.2301,.28267,.75727,.31473,1.60731,.45921,2.41708,.36347,2.03692-.1374,4.11275,.28018,6.14583,.05284,.25723,.15649,.50406,.22802,.72868,1.39683,.20299,2.47583,1.01186,2.5161,2.25273,.04759,1.46614,.71959,2.6887,1.1739,4.0147,.77548,2.26337,.71475,4.5553-.52435,6.70357-.26052,.45167-.54441,.78188-1.20833,.6191-.58038-.14228-1.18045,.41729-1.17208,1.08095,.01262,1.00055-.55792,1.52715-1.37683,1.74098-1.16095,.30321-2.35971,.46537-3.54575,.66767-1.45425,.24804-2.90993,.48971-4.36941,.70399-.52655,.07735-1.07175,.13124-1.5981,.08299-.86803-.07952-1.73125-.23121-2.58979-.38896-.86858-.15957-1.38365-.73955-1.6679-1.54363-.12141-.3434-.21631-.69618-.3343-1.0807l-2.00414,.39633-1.65315-1.75084c.28598-.51071,.63713-.93579,.77244-1.42104,.29059-1.04192,.91917-1.87254,1.80048-2.33278,1.35437-.70724,2.22571-1.74756,2.92253-3.05282,.77162-1.44544,1.64498-2.83652,2.47328-4.25172,.76308-1.30383,1.4903-2.61874,1.96806-4.06803,.23856-.72368,.60174-1.42528,1.01915-2.06469,.30767-.47126,.34678-.90974,.27714-1.42479-.24754-1.83026-.48424-3.66204-.70658-5.4955-.04591-.37856-.22484-.8495,.46066-1.0105-.4417-.13148-.6766-.30806-.76598-.77451-.42963-2.24206-.80532-4.47852-.95154-6.76942-.14721-2.30615-.57294-4.595-.88985-6.88961-.11462-.82996-.20183-1.67226-.41813-2.47762-.33143-1.23397-.85183-2.4213-1.12766-3.6649-.25778-1.16224-.30556-2.37155-.43452-3.56136-.01715-.15817,.08958-.34335,.04173-.48259-.60059-1.74749-.57084-3.61241-1.02665-5.39102-.31349-1.22325-.43778-2.495-.66533-3.85693-.37889,.32277-.29889,.65158-.28345,.96112l.01732-.01937c-.09057-.12991-.24013-.2503-.26286-.39115-.33676-2.08652-.62369-4.18167-.99402-6.26198-.19639-1.10318-.09807-2.29228-.82021-3.26705,.17276-.87123-.38393-1.58902-.5069-2.40008-.1258-.82966-.31709-1.64932-.4469-2.47849-.16073-1.02669-.34179-2.05496-.41259-3.08948-.05918-.86477,.02502-1.7396,.05086-2.60985,.01908-.6431,.12383-1.20105-.34943-1.86416-.45835-.64219-.55293-1.62581-.18924-2.49633,.08359-.20011,.17623-.43011,.15525-.63517-.37266-3.6408-.76198-7.27993-1.14908-10.91925-.01417-.13311-.00021-.29436-.06975-.39268-.84748-1.19809-.63369-2.63639-.8646-3.96237-.37433-2.14953-.57986-4.32828-.8709-6.49277-.03473-.25836-.15826-.50477-.41428-.76052-.06387,.72188-.20405,1.44709-.17283,2.16483,.04173,.95959,.20888,1.91436,.33563,2.86944,.21539,1.62293,.45171,3.24315,.65684,4.86731,.06683,.52921,.04411,1.0692,.09611,1.60092,.34903,3.56833,.7226,7.13427,1.0559,10.70404,.17137,1.83543,.24863,3.67966,.42035,5.51504,.12482,1.33389,.3361,2.65962,.50582,3.9894,.03819,.29917,.13912,.61504,.08246,.8974-.25661,1.27899,.1096,2.51954,.18425,3.77638,.07354,1.23784,.40136,2.50384,.22968,3.70191-.21016,1.46653,.2416,2.85912,.12694,4.2927-.03076,.38465,.17526,.78297,.22591,1.18097,.03988,.31326,.00802,.63566,.00802,1.04623-.98404-.34419-.30696-1.37122-1.03942-1.86029,.08639,1.32048,.15615,2.54857,.2499,3.7748,.09688,1.26721,.21709,2.5326,.22082,3.80779-.29859-.65488-.62804-1.29801-.88354-1.96931-.14023-.36846-.25259-.79524-.20962-1.17683,.13442-1.19368-.13921-2.31504-.39126-3.4641-.40945-1.8666-.75951-3.7504-1.02569-5.64229-.11334-.80551-.32898-1.59439-.30318-2.44502,.02385-.78664-.35203-1.58064-.51465-2.37901-.16734-.82158-.28078-1.65398-.43415-2.47859-.15321-.8238-.32723-1.64368-.49108-2.4655-.97798-4.90496-1.94485-9.8122-2.9377-14.71416-.55231-2.72692-1.17504-5.43967-1.71569-8.1688-.49403-2.49367-.95354-4.99529-1.36495-7.50379-.29021-1.76947-.46952-3.557-.71004-5.33487-.05356-.39596-.1562-.78526-.26314-1.30937-1.56006,.74603-3.00435,.37102-4.53935-.32667-.58983,.2795-.98991,.91908-1.49667,1.43711-1.47351,1.50635-2.90319,3.05861-4.43068,4.50787-.83243,.78984-1.92256,1.21951-3.04545,1.4892-1.63609,.39302-2.69003-.19129-3.16778-1.78748-.2265-.7568-.35734-1.5422-.57158-2.49226-.18383,.9142-.26291,1.62187,.16889,2.31366,.10464,.16766,.09566,.47212,.02435,.67302-.45366,1.278-.1225,2.57996-.14154,3.86922-.0025,.16882,.20645,.33068,.26106,.51273,.08481,.28268,.22729,.60794,.15908,.86593-.25273,.95585-.18653,1.91022-.11477,2.87077,.00749,.10024,.03912,.19868,.04571,.29889,.03451,.525,.65758,.85088,.46748,1.46301-.14339,.46165-.22506,.94247-.33342,1.41493-.00743,.03238-.02346,.07471-.01024,.09819,.51086,.90674-.13636,1.80229-.02368,2.71573,.11453,.92855,.10269,1.87266,.14652,2.80996,.00313,.06717-.00127,.13681,.01487,.20102,.34861,1.3864,.05681,2.80045,.17923,4.19934,.08125,.92832-.02662,1.8722,.03484,2.8035,.05478,.82981,.33579,1.65333,.3249,2.47711-.03137,2.37081,.18925,4.72934,.25264,7.09465,.01414,.52761,.15548,1.05237,.24593,1.5771,.02256,.13094,.10527,.25585,.10897,.38499,.03771,1.31686,.03834,2.6353,.10445,3.95054,.04193,.83417,.19004,1.66245,.26669,2.49556,.09178,.99769,.13857,1.99976,.24205,2.99605,.07519,.72393,.09309,1.46308,.62886,2.07216,.21443,.24377,.33153,.57002-.04021,.92209-.17746,.1681-.14311,.61957-.11516,.93473,.13747,1.55043,.30869,3.09784,.45716,4.64734,.01844,.19247-.06837,.39835-.03532,.58542,.07355,.41651,.13812,.84876,.30583,1.23091,.21577,.49164,.74978,.96358-.16535,1.30025-.05378,.01979-.0984,.19121-.07593,.27223,.29142,1.0501-.01289,2.12336,.134,3.17723,.02717,.19498,.00436,.46379,.12122,.56861,.82524,.74068,.67637,1.68921,.62046,2.62515-.00999,.16731-.00143,.33576-.06606,.54227l-.16195-.62963-.19623,.04384c.05757,.60792,.17799,1.2182,.15521,1.82309-.02325,.61735-.22224,1.22616-.27947,1.84472-.05496,.59377-.05234,1.16924,.45249,1.66339,.34253,.33531,.29175,.91977-.07223,1.16988-.61642,.4236-.41457,.91807-.31548,1.42812,.04417,.22731,.17472,.43642,.24078,.66122,.08098,.27563,.1176,.49905-.04458,.82752-.26938,.54565-.32728,1.19568-.48385,1.8413l.49404,.31117c-.11109,.41123-.2495,.76357-.29638,1.12767-.13233,1.02777-.27839,2.05801-.32538,3.09158-.08378,1.84273-.10418,3.68846-.13877,5.53318-.00882,.47,.07774,.94533,.0354,1.41047-.10984,1.20637,.21168,2.29023,.65831,3.40575,.60575,1.51288,.72423,3.15732,.4873,4.75797-.09431,.63714-.65149,1.22347-1.05612,1.79152-.34751,.48787-.77788,.91672-1.09726,1.28579,.69155,1.6678,1.3539,3.25879,2.00867,4.85291,.07602,.18505,.12407,.38474,.16038,.58222,.07389,.40172,.13502,.81557-.23167,1.11946-.34282,.28413-.69685,.10374-1.04888-.00968-1.58712-.5115-3.20459-.65745-4.8436-.32119-1.44419,.29631-2.88119,.62854-4.31733,.96228-.17549,.04081-.32591,.18946-.51544,.30488,.23378,.4977,.47327,.93737,.65009,1.40094,.2437,.63892,.15547,.9026-.38659,1.28584-.7705,.54474-1.60578,.87976-2.54008,1.12666-1.04667,.27659-2.0295,.45756-3.11066,.30185-1.0549-.15191-2.13093-.18109-3.19904-.20607-.45518-.01064-.9139,.12582-1.37072,.19732-.03217,.00508-.06383,.04051-.09249,.03681-.58409-.07587-1.16959-.14373-1.75089-.23749-.55845-.09009-1.21316,.27825-1.66383-.38915-.10266-.15201-.41239-.17956-.63434-.23318-1.10748-.2675-2.23248-.47466-3.32146-.80231-.75982-.22859-1.45347-.04753-2.17472,.07942-.42288,.07439-.85024,.12325-1.16877,.16847l-1.29547-1.5716c-.0224-.26041,.04197-.59542,.46929-.92771,.4237-.32943,.62252-.93143,.99664-1.34444,1.08185-1.19425,2.32167-2.21779,3.57356-3.23036,.64323-.52022,1.26242-1.09583,1.78489-1.73445,1.21213-1.48161,2.80446-2.47965,4.35934-3.5157,.54105-.3605,1.24519-.47594,1.87451-.70426,1.13278-.41096,2.31012-.7323,3.38272-1.26462,.75804-.37624,1.38497-1.02551,2.0501-1.57739,.56273-.46692,1.01941-1.18279,1.65821-1.41252,1.48065-.53247,2.24386-1.78102,3.09546-2.87967,.7175-.92564,1.07398-2.12405,.44232-3.34223-.04145-.07996-.01168-.19683-.01721-.29828,.44863-.60245,.49548-1.84093-.01819-2.84436,.01259,1.10372-.5094,1.97179,.04672,2.86776-.12961,.10435-.25786,.21051-.39029,.31117-.02077,.01584-.06062,.00655-.1937,.01651,.46854-1.76331-.28555-3.42443-.27632-5.15341-.69628,1.90687-.3551,3.88531-.61177,5.82374,0-.20836-.00129-.4167,.0002-.62507,.01361-1.90578,.02876-3.81156,.03875-5.71737,.00051-.09672-.02159-.20477-.06747-.28879-.56094-1.02758-.56562-1.10197-.04747-2.1124l-.61521-.40847c-.35829,1.65156-.21362,3.23595-.46323,4.7837l-.29028-5.66922-.54391,.83109c.11191-.64271,.07784-1.12491,.27924-1.46949,.49583-.84846,.36806-1.77053,.28229-2.61852-.07745-.76569,.04384-1.51995-.06556-2.26951-.04049-.27741-.1696-.54181-.25701-.81251-.11829-.36641-.38056-.75921-.32062-1.09406,.10248-.57256,.04381-1.0328-.29771-1.49393-.08157-.11012-.02694-.32115-.03704-.52828l.45911,.11719c.40884-.45421,.3604-1.05276,.3308-1.5853-.09677-1.74187-.26479-3.4798-.4068-5.21913-.02097-.25686-.04945-.5131-.27282-.81594l-.50879,1.29358c-.15497-1.08782-.33832-2.01896-.40919-2.95859-.09832-1.3038-.06508-2.61798-.17483-3.9204-.1208-1.43334-.34178-2.8582-.51507-4.28726-.06449-.53178-.1129-1.0655-.17713-1.59733-.06768-.56029-.1455-1.11932-.22551-1.72933l-.50348,.27075c-.25868-2.56328-.62719-5.07542-.47813-7.64279l.48288,2.28713c.18263-.73354-.46454-12.71863-.75018-13.91106l-.45853-.0617c.04586-.29574-.07667-.64663,.38775-.71683,.05781-.00875,.1054-.28263,.10666-.4341,.00557-.67073,.00966-1.34232-.0179-2.01226-.04141-1.00676-.11867-2.01198-.16321-3.01864-.02671-.60393-.0166-1.1803-.48991-1.68544-.33881-.36161-.32772-.86076-.01968-1.30287,.39593-.56827,.51585-1.22798,.09486-1.76272-.61781-.78472-.47471-1.6297-.43066-2.48792,.01014-.19725,.10185-.39554,.08714-.58806-.11511-1.50549-.17675-3.01963-.38732-4.5124-.56695-4.01924-1.2679-8.02049-1.78237-12.04591-.34412-2.69264-.45607-5.41473-.68052-8.12294-.09965-1.20232-.18905-2.40687-.33985-3.60324-.18893-1.49905-.23365-2.99292-.08664-4.49754,.1075-1.10024,.10492-2.2141,.26159-3.30608,.32626-2.27407,.54453-4.56592,1.16702-6.79452,.25547-.91459,.7757-1.61878,1.39008-2.27797,.19044-.20435,.38442-.33639,.33077-.65931-.37952-2.28408,.49432-4.29417,1.46195-6.25372,.51963-1.05234,.74849-2.15599,.84458-3.28325,.14242-1.67089,.21383-3.35125,.23213-5.02848,.02627-2.41016-.04072-4.82124-.02547-7.23167,.00355-.55914,.21571-1.11394,.26499-1.67661,.06019-.68694,.05526-1.37997,.06844-2.07054,.01407-.73688-.01268-1.4756,.02879-2.21069,.21206-3.75777,.42225-7.51581,.67047-11.27131,.13065-1.97671,.31524-3.95069,.51751-5.92157,.16083-1.56723,.38797-3.12759,.58025-4.69166,.06142-.49973,.14607-1.00143,.14806-1.50252,.00309-.77714-.08171-1.53699-.61593-2.18246-.25425-.3072-.38585-.7153-.63752-1.02532-.5845-.71998-.75581-1.5577-.80906-2.44595-.07806-1.3022-.16523-2.60384-.24889-3.91129-.43109-.16405-.87355-.2953-1.28262-.49495-1.29844-.63375-1.5431-1.87048-1.65049-3.11962-.11123-1.29384-.42062-2.58192-.20288-3.89637,.02409-.14537-.05807-.30832-.10183-.51429-2.12878,.82-4.34277,1.24723-6.3467,2.41323,.26159,.57285,.49597,1.11961,.75829,1.65263,.38451,.7813,.79639,1.54913,1.18285,2.32951,.35889,.72472,.72224,.86181,1.42977,.51091,.82356-.40846,1.61348-.23527,2.20266,.50291,1.30395,1.63368,2.0438,3.49323,2.22464,5.57799,.03451,.39782,.12628,.79037,.18117,1.18681,.12914,.9325,.08733,1.8522-.07025,2.78697-.1315,.78007-.08839,1.58869-.13952,2.38357-.02772,.43102-.09553,.85932-.13709,1.28962-.18906,1.9574-.4171,3.91852-.68412,5.85754-.21013,1.52593-.09782,3.08835-.46781,4.56391-.42609,1.69933-.3493,3.43474-.62594,5.14231-.22034,1.36005-.51917,2.6872-.87515,4.00937-.06948,.25802-.11401,.57027-.28491,.74545-.88149,.9036-.95922,2.12602-1.2755,3.23101-.51512,1.79965-.53868,3.60375,.11091,5.43241,.67258,1.89334,1.15755,3.85347,1.71658,5.7867,.04401,.15218,.05973,.32909,.02989,.48312-.11266,.58163-.24959,1.15856-.36966,1.70207l-1.31096,.49036c-1.28671-.75083-1.55003-2.38086-2.55834-3.45753-.11397,.09005-.23033,.13443-.25806,.21091-.57346,1.58216-1.81678,2.84733-2.11511,4.57351-.07825,.45278-.55617,.82208-.75988,1.27087-.32952,.72587-.56316,1.49462-.87435,2.22959-.6929,1.63646-1.44649,3.2481-2.10754,4.89702-1.46135,3.6453-2.87384,7.31015-4.31983,10.96166-.98895,2.49735-1.97009,4.99864-3.01873,7.47103-.37576,.88594-.95303,1.68481-1.41272,2.53723-.3804,.70538-.72917,1.42815-1.08021,2.14893-.19423,.39879-.09734,.69256,.32192,.90367,1.90985,.96179,3.80201,1.95938,5.72387,2.8962,.5249,.25587,1.10106,.35594,1.73773,.31521,.55861-.03575,1.14069,.26363,1.70952,.42518,1.73793,.49361,3.48514,.95829,5.20739,1.50187,.97058,.30636,1.92552,.41912,2.94196,.35875,.88495-.05253,1.77671,.91682,1.77863,1.9357,.00175,.93131-.16007,1.86402-.26691,2.79414-.0963,.83846-.4475,1.58949-.76102,2.36681-.40892,1.01385-.63877,2.10059-.93559,3.1588-.24141,.86064-.51763,1.67334-1.54535,1.90928-.28259,.0649-.53904,.24382-.96108,.44282l1.17815,.37905-.01381,.17029c-.16972,.02072-.34712,.08395-.50786,.05495-.74739-.13493-1.43765-.1254-2.11721,.33251-.25057,.16884-.69194,.06288-1.04646,.06685-.39588,.00441-.8015-.06599-1.18591-.00195-.7448,.12409-1.46101,.09967-2.19457-.09041-.79834-.20686-1.59139-.55395-2.45258-.27982-.07912,.02518-.18889-.04904-.28518-.07419-1.61821-.42358-3.2279-.88424-4.85746-1.25846-1.39661-.32075-2.8272-.49449-4.22224-.82094-1.49848-.35067-2.98473-.76747-4.44842-1.24156-.3046-.09864-.60556-.53986-.70572-.88239-.49154-1.68101-.68355-3.40129-.64037-5.1626,.02773-1.13149-.1601-2.26657-.20128-3.40186-.05698-1.57076-.11488-3.14461-.07047-4.71426,.01521-.53779,.2653-1.1067,.53395-1.59168,.55058-.99391,1.2417-1.91104,1.77676-2.91227,1.7571-3.28789,3.43939-6.61355,4.84217-10.07352,.24955-.61551,.61082-1.18544,.8656-1.7992,.21488-.51767,.35103-1.0681,.51984-1.60473,.04969-.15796,.04576-.35944,.14506-.47091,.78816-.88488,1.09707-2.01759,1.41167-3.08584,.84122-2.85628,2.11138-5.54289,3.12682-8.32836,.55361-1.51862,1.33792-2.95161,1.972-4.44284,.6899-1.62253,1.53062-3.15907,2.40638-4.68697,.64563-1.1264,1.1382-2.34267,1.66175-3.53524,.11396-.25959,.1217-.59462,.08947-.88505-.29118-2.62398-.02848-5.21729,.35949-7.81061,.1338-.89442,.14027-1.80734,.2213-2.71035,.0959-1.06864,.17543-2.14056,.32698-3.2018,.10824-.75797,.38574-1.4138,.94919-2.03653,.87863-.97108,1.32118-2.24193,1.64796-3.51065,.08388-.32567-.12397-.71694-.14709-1.08128-.16106-2.53811-.99367-4.91071-1.80999-7.28286-.17768-.51634-.5617-.95864-.82207-1.45019-.59455-1.12245-1.11341-2.28924-1.76825-3.37454-1.14558-1.89864-1.13833-3.90107-.62638-5.93832,.55353-2.20275,1.1815-4.38769,1.82174-6.56725,.2153-.73295,.56772-1.4256,.88889-2.21381l-1.18544-1.27803,.84677-1.12423c-.34513-.68766-.44799-1.40548,.11706-2.09788,.10948-.13415,.05961-.39124,.10408-.58686,.12979-.57094,.37069-1.07256,.86567-1.43059,.43488-.31454,.80806-.74958,1.28377-.96569,1.2604-.57261,2.30994-1.43631,3.39925-2.25376,.20781-.15594,.48119-.22369,.72256-.33592,.27261-.12674,.58183-.21059,.80765-.3955,.73909-.60523,1.53265-1.05628,2.49633-1.20156,.18958-.0286,.36168-.26405,.51474-.42922,.93366-1.00758,1.81445-2.06913,2.80146-3.02082,.87245-.84127,1.62189-1.83751,2.85387-2.277,.6767-.24141,1.26411-.72731,1.90441-1.08004,.19209-.10581,.42676-.13431,.69798-.21488,.16731,.60555,.34786,1.13688,.45624,1.68255,.13161,.66252,.84867,.54068,1.19272,.93604,.12024,.13817,.5327,.02203,.88831,.02203,.04538,.35176-.0887,.85258,.47702,1.15665,.20851,.11206,.25343,.66205,.24871,1.01062-.01125,.8296-.08826,1.65889-.15821,2.48668-.0166,.19641-.08389,.39927-.17235,.57704-.42943,.86298-.87812,1.7163-1.31201,2.57709-.45265,.898-.87639,1.81112-1.34811,2.69885-.79754,1.50089-.60564,2.97811,.02664,4.46683,.81261,1.91337,1.61328,3.83182,2.41112,5.7514,.08866,.21332,.168,.44625,.17914,.67365,.10496,2.14132,.20245,4.28309,.28404,6.42544,.03552,.9333,.07118,1.86999,.03171,2.80196-.05921,1.39817-.11221,2.80321-.2975,4.18797-.33343,2.49197-.94694,4.92515-1.65765,7.34011-.37543,1.27572-.50255,2.62274-.78263,3.9288-.28837,1.34477-.73758,2.66437-.91482,4.02131-.22524,1.72446-1.15926,3.20482-1.48016,4.87889-.19436,1.01395-.33873,2.03807-.47959,3.0612-.02523,.1834,.01956,.42734,.12817,.57029,.94126,1.23901,1.00182,2.74956,1.30532,4.18082,.17302,.81597,.2654,1.64904,.39783,2.49837,.27331,.05366,.50106,.09079,.7251,.14364,1.1235,.26503,1.38451,.55622,1.57214,1.74146,.15397,.97267,.15482,1.00227,1.12146,.97448,.93896-.02698,1.87505-.14191,2.81391-.18582,2.75216-.12872,5.50556-.23165,8.25734-.36751,.63305-.03126,1.26159-.15396,1.88478-.23363,.36655-.76454,.18746-1.51622,.19726-2.23693,.03936-2.88728,.05319-5.77531,.03386-8.66279-.00962-1.43803-.22819-2.8822-.14528-4.3116,.13939-2.40384-.49765-4.72505-.57715-7.09969-.04929-1.4718-.13056-2.9426-.20671-4.41338-.01902-.36729-.06477-.73393-.11395-1.09875-.10692-.79318-.21457-1.58651-.33971-2.37695-.11042-.6975-.41109-1.26536-1.09401-1.58517-1.00202-.46925-1.8365-1.97634-1.7078-3.04293,.05194-.43042,.11951-.85912,.16381-1.29026,.20303-1.97526,.73676-3.87705,1.25877-5.78322,.36258-1.324,.68957-2.65784,1.02526-3.98909,.2411-.95612,.66696-1.77781,1.31976-2.55463,.80438-.95719,1.45728-2.04561,1.66967-3.34844,.08481-.52023,.03568-.82673-.46881-1.0237-.2159-.08431-.41477-.22412-.60432-.36215-1.00579-.73239-1.77005-1.57994-1.87295-2.93577-.10219-1.34654-.23738-2.63756,.47585-3.90127,.32776-.58074,.37564-1.31946,.60138-2.18093-.46649,.0895-.74004,.14544-1.01488,.1941-1.21251,.21468-2.37787,.71519-3.65108,.56284-1.05376-.12611-1.4981-.69991-1.18394-1.70809,.35996-1.15511,.84908-2.25254,1.63128-3.20826,.47755-.58349,.87172-1.23522,1.45579-2.07567l-5.34911,.25454c.01827,1.83013,.51508,3.75804-.58071,5.68098-.76336-.77727-1.57564-1.2544-2.06409-2.21475-1.10071-2.16423-1.54122-4.47933-1.91914-6.82923-.0636-.3955-.15844-.79387-.30125-1.16703-.27653-.72255-.32939-1.43622-.03828-2.15898,.13661-.33916,.19495-.67153-.15725-.8965-.55558-.35489-.7715-.89689-.85216-1.51627-.80408-.25142-1.58177-.44585-2.31401-.74976-.25896-.10748-.50598-.4533-.5893-.73953-.44932-1.54345-.889-3.09271-1.23807-4.66086-.13562-.60935-.26455-1.05373-.93591-1.25215-.91853-.27147-1.80928-.63694-2.90539-1.0318-.38579-.51196-.00244-1.31272-.08327-2.06412-.23015-.26758-.73514-.21583-.78291-.70707-.00541-.05576-.44834-.55955-.87854-.12112-.15831,.16133-.61892,.02603-.92581,.02603-.25874-.58304-.2838-1.03626-.08325-1.60419,.67371-1.90785,1.49305-3.74045,2.56373-5.45309,.85467-1.36712,.99979-2.90633,1.16841-4.4407,.05256-.47832-.27163-.74767-.79243-.85194-.91786-.18377-1.83005-.39623-2.7487-.57572-.58997-.11528-1.20965-.12273-1.77645-.30291-1.04632-.33259-2.13352-.63519-3.07324-1.17669-.94076-.5421-1.32336-1.52507-1.16135-2.65761,.04705-.32893,.03733-.66598,.05117-.94902,.26882-.18356,.54399-.31191,.7387-.51675,.4117-.43314,.81697-.88181,1.15382-1.37285,.17892-.26081,.25038-.61779,.2953-.94177,.04555-.32857-.00432-.66993-.00712-1.00574-.00594-.71306,.17099-.96795,.83874-.9779,1.29271-.01928,2.60968-.08648,3.70758,.81398,.04639,.03803,.12775,.03339,.28141,.06939l-.92958,.54043,2.0674,.79678-.36288,.26195c.41408,.50619,.63745,1.19331,1.51657,1.38568-.35848-1.46439-.70951-2.87312-1.04667-4.28516-.2018-.84509-.38468-1.69476-.57076-2.54353-.11359-.51816-.186-1.04746-.33185-1.55598-.27423-.95614-.20473-1.91573-.10007-2.87965,.05881-.54161,.37273-.8691,.90833-.90971,.61553-.04666,1.0601-.31733,1.44359-.79501,.16613-.20694,.47519-.35866,.74405-.41287,.95263-.19208,1.91489-.33794,2.87548-.48868,1.02622-.16103,1.73545,.16658,2.26427,1.08887,.33174,.57857,.68842,1.15735,.62147,1.88388-.01589,.17232,.12442,.35903,.24406,.67373,1.06342-1.04902,2.35879-1.65566,3.2095-2.82397,.61047-.83839,1.26833-1.65065,1.98129-2.40224,.32087-.33825,.8088-.55193,1.25949-.71677,.18529-.06777,.52227,.08302,.70355,.23667,.58001,.49159,.93818,1.14412,1.07612,1.888,.15231,.82136,.21844,1.659,.37914,2.47836,.08679,.44247-.02448,1.03487,.69098,1.23867,.20334-.39722,.37725-.79107,.59695-1.15747,1.55597-2.59484,3.30338-5.02629,5.3672-7.2705,1.41428-1.5379,2.9706-2.78113,4.74745-3.80372,.75695-.43563,1.27453-.40742,1.75924,.02163,.44949,.39788,.6136,1.19866,.25933,1.86615-.43369,.81713-.96484,1.58253-1.45345,2.36964,.67961-.04132,1.37099-.10701,2.06298-.11413,.28941-.00298,.71278,.02243,.84318,.20276,.29081,.4021,.64625,.93288,.59836,1.36992-.11889,1.08508-.42678,2.15294-.70978,3.21411-.0714,.26774-.34277,.47883-.50648,.72638-.12408,.1876-.35559,.43198-.31017,.58149,.18664,.61432-.15694,1.01685-.45178,1.45669-.07315,.10912-.16029,.23599-.16661,.35854-.05569,1.08187-.6152,2.0133-.90411,3.02502-.21758,.76196-.59889,1.47716-.91679,2.2358,.39031,.26453,.69203,.08419,1.00539,.01778,.75405-.15982,1.50805-.35132,2.27222-.42535,1.61301-.15628,1.91496,.63296,1.44727,1.96454-.5713,1.62661-2.64761,2.98891-4.32476,2.92523-.30593-.01161-.60399-.23039-.96748-.37877-.37223,.54705-.47631,1.11427-.09864,1.72621,.36966,.59895,.74437,1.19481,1.11211,1.79492,.27997,.45684,.56273,.91245,.82638,1.37872,.69065,1.22137,1.91454,1.6638,3.21958,1.15095,.0937-.03682,.18323-.08454,.27376-.12909,1.45438-.7156,2.78472-.47391,4.0409,.49223,.21651,.16652,.51305,.32573,.77013,.32188,.48265-.00721,.83555,.15211,1.14454,.50075,.41696,.47044,.88162,.90144,1.27124,1.39264,.6985,.88062,.55236,2.12891-.32865,2.83537-.36322,.29125-.789,.50509-1.18926,.74934-.39424,.24058-.79219,.47512-1.22219,.73247,.08472,.22738,.13954,.37742,.1964,.52668,.3803,.9984,.32692,1.28901-.55771,1.93757-.96389,.70668-1.62088,1.56875-1.5785,2.93189,.06734-.12165,.12251-.25242,.20514-.36262,.1001-.13354,.21913-.25395,.3374-.37265,1.03509-1.03888,2.06568-2.0824,3.11096-3.11096,.46899-.46148,.81744-.46968,1.43994-.12697,.32165,.17708,.6485,.35211,.99002,.48403,.56722,.21911,1.11364,.26927,1.51703-.33241,.07119-.10616,.20149-.17682,.31299-.25112,.6604-.44012,.84634-.38073,1.20869,.27892-.29862,.75571-.55866,1.42943-.83075,2.09826-.31478,.77373-.72024,1.52071-.94386,2.3192-.43339,1.54765-1.5079,2.72984-2.22031,4.11532-.16075,.31261-.47477,.55622-.74673,.79978-.56926,.5098-1.20844,.56428-1.85834,.17342-1.09195-.65673-2.18419-1.31482-3.24968-2.01296-.53503-.35057-.74844-.99471-.69138-1.80293-.28811,.03697-.60468,.17138-.83296,.08152-.24757-.09744-.4091-.4075-.61512-.61802-.24832-.25376-.46993-.20057-.62666,.09537-.0603,.11386-.06822,.25985-.08233,.39308-.11236,1.06045-.86413,1.43097-1.76509,1.63461-.42193,.09537-.84815,.17172-1.30103,.26242m-1.27867,3.20631-3.99141-33.44711c.21192-.61239,.3683-.99892,.47937-1.39807,.27689-.99503,.51399-1.99387,1.09228-2.88527,.28011-.43177,.28396-.97237,.16128-1.51806-1.26567,.63478-2.52162,1.80508-3.11215,2.84754-.19457,.34348-.2933,.67205-.03134,1.02598,.42688,.57678,.84781,1.15795,1.41057,1.92788Zm-8.54249,23.70268c1.26504-.49587,2.69466-.15008,3.95672-.84203l-1.6138-1.37015c-.94789,.33174-1.49287,1.44424-2.34292,2.21218Zm14.69669-5.57409l-1.61757,1.94452c1.33507,.02378,2.12058-.47057,2.52501-1.60899l-.90744-.33553Zm-21.23338,15.93984l.22303,.00815,.15383-1.13936,.99902-.36912c-.47042-.51213-.76408-1.14966-1.61338-.9306-.01454,.19371-.06129,.3909-.03759,.57924,.07794,.61897,.18142,1.23471,.27509,1.85169Zm-.88417-7.98962l.83553,.67064,.85243-.94246-.07299-.1341-1.61497,.40591Zm35.80451,180.82428c-.06717,.67839-.26889,1.39391,.36711,2.20325,.04701-.88269-.04775-1.54575-.36711-2.20325Zm-40.20289,14.07137l-.27087,.07119,.2865,1.39803,.1341-.02299-.14973-1.44623Zm-.04759-2.12206l-.72536-.93325c-.38361,.70885,.23001,.81357,.72536,.93325Zm8.85453-58.07656q.39615-.556,0-.95949v.95949Zm33.09512-26.1861l.05857,.1295c.10385-.03829,.21977-.05888,.30848-.11937,.11012-.07513,.19776-.18325,.2951-.27714l-.10493-.11374-.55722,.38075Zm-34.37134-109.29412l-.02894-.12608-.48585,.07935,.02937,.15345,.48541-.10672Zm25.39105,115.51138l-.05198-.02934-.52786,.31394,.12019,.12616,.45965-.41076Zm21.09742,109.9074l-.14905,.00461,.0377,.61265,.11135-.00323v-.61403Z"/>
  <path d="M330.09499,259.46523c-.02856,.11153-.07396,.18576-.05316,.22257,.69428,1.22822,.60114,2.55587,.53438,3.89273-.11189,2.24012-.1705,4.48284-.27536,6.72337-.03124,.66782-.11023,1.33739-.2232,1.99658-.23494,1.37085-.99478,2.05288-2.40539,2.17274-1.25648-1.26197-1.45088-2.9574-1.68271-4.67809-.79095,.33995-1.50421,.64648-2.3372,1.00449-.15595-.88312-.33432-1.65337-.42243-2.43381-.36799-3.25949-1.02036-6.49657-.77624-9.80596,.20378-2.76276,.8805-5.42682,1.63755-8.07647,.54365-1.90274,1.08996-3.80501,1.60062-5.71668,.10863-.4067,.06786-.85328,.09612-1.28147,.03293-.49894,.00282-1.01306,.11786-1.49233,.10424-.43433,.16014-.81738,.03922-1.26587-.15573-.57757,.02704-.70138,.67161-.71041,.56018-.00785,1.11891-.09129,1.67941-.11771,.21569-.01016,.50749-.03561,.63946,.084,.64429,.58383,1.31997,1.16817,1.17996,2.19153-.09819,.71769,.13452,1.37101,.35012,2.05476,.42275,1.34062,.72734,2.72008,1.04602,4.09156,.55326,2.38098,1.10772,4.7624,1.60381,7.15563,.18646,.89958,.13596,1.80846-.53785,2.57088-.13857,.15682-.18598,.41378-.22733,.63363-.22877,1.21623-.83821,1.53379-1.91432,.98114-.11186-.05744-.21822-.12561-.34094-.19682Z"/>
  <path d="M304.59009,207.26155c.04564-.40045,.2668-.82115,.51588-1.15046,.69406-.91756,1.19138-2.02771,2.31132-2.5546,.26467-.12452,.56741-.1681,1.03565-.30076-.1376,.41804-.26694,.66409-.22309,.70027,.49746,.41048,.52314,1.05117,.75263,1.57426"/>
  <path d="M281.94749,366.4701c-.31947-.70242-.49064-1.40907-.22206-2.19208,.40367,.46633,.4644,.96041,.22206,2.19208Z"/>
  <path d="M285.28835,393.39109v2.69922l-.10899,.00266v-2.71782l.10899,.01594Z"/>
  <path d="M281.5052,362.13681v-1.97862c.03142,.6654,.48222,1.31723,.23405,1.98853l-.23405-.00991Z"/>
  <path d="M326.15348,380.7518c.25284,.81177,.34969,1.64023,.14947,2.49808-.04578-.8373-.09157-1.67458-.13475-2.51466l-.01472,.01658Z"/>
  <path d="M281.11499,352.00809v-1.57034c.28093,.65562,.41155,1.09847,.25374,1.56919l-.25374,.00116Z"/>
  <path d="M283.06359,241.71075l-.0521,.95904c-.37364-.44661-.43712-.66151,.0521-.95904Z"/>
  <path d="M327.83935,392.25152l.03016,.65126-.10334,.00936-.03318-.6552,.10636-.00542Z"/>
  <path d="M287.79758,417.22366v-.58981l.10792-.00724,.07837,.59668-.18629,.00037Z"/>
  <path d="M344.76911,247.02615l.06048,.94831-.13952-.00313c.02634-.31508,.05269-.63018,.07941-.94724l-.00037,.00206Z"/>
  <path d="M281.61429,371.48377l.12192,.44386-.16705,.03957-.09104-.44684,.13617-.03659Z"/>
  <path d="M282.75149,377.92438l-.15176-.52685,.17087-.03731,.10572,.53476-.12483,.0294Z"/>
  <path d="M287.34364,418.86832l-.08372,.41197-.08371-.01478,.05573-.41547,.1117,.01828Z"/>
</svg>