<?xml version="1.0" encoding="UTF-8"?>
<svg id="Capa_2" data-name="Capa 2" xmlns="http://www.w3.org/2000/svg" width="210mm" height="209.99999mm" viewBox="0 0 595.27559 595.27557">
  <path d="M199.5047,289.51397v-16.36449h-24.54659l-8.1821,8.18155v40.91186h40.91102l8.18238-8.18322v-24.5457h-16.36471Zm8.18233,24.5457h-24.54681v-32.7278h8.18266v8.1821l-8.18266,8.18183h24.54681v16.36387Z"/>
  <polygon points="264.95897 314.04256 264.95897 273.17647 240.43936 273.17647 232.26573 281.34904 240.43936 281.34904 232.26573 289.52295 232.26573 314.04256 224.09316 322.21563 240.43936 322.21563 248.61249 314.04256 248.61305 289.52295 256.78562 281.34904 256.78562 322.21563 264.95897 322.21563 273.13238 314.04256 264.95897 314.04256"/>
  <polygon points="403.92991 273.03268 395.74073 281.22243 412.11904 281.22243 412.11904 289.41105 403.92991 297.60186 412.11904 305.7916 412.11904 313.98045 403.92991 322.16991 420.30935 322.16991 428.49959 313.98045 428.49959 273.03268 403.92991 273.03268"/>
  <g>
    <polygon points="387.55484 273.17647 346.72549 273.17647 338.55916 281.34246 354.89126 281.34246 354.89126 322.17265 363.05808 322.1732 371.22275 314.0066 371.22275 305.84055 363.05808 297.67456 371.22275 289.50907 371.22275 281.34246 379.38906 281.34246 387.55484 273.17647"/>
    <rect x="373.61505" y="291.90052" width="11.54832" height="11.54832" transform="translate(-99.36413 355.4815) rotate(-45.0031)"/>
  </g>
  <polygon points="297.65143 289.43313 297.65143 281.25019 314.01669 281.25019 322.1988 273.0678 297.65143 273.0678 281.28616 289.43313 281.28616 305.79812 314.01669 305.79812 314.01669 313.98045 297.65143 313.98045 289.46876 322.16339 314.01669 322.16339 330.38196 305.79812 330.38196 289.43313 297.65143 289.43313"/>
</svg>