<?xml version="1.0" encoding="UTF-8"?>
<svg id="Capa_2" data-name="Capa 2" xmlns="http://www.w3.org/2000/svg" width="210mm" height="209.99999mm" viewBox="0 0 595.27559 595.27557">
  <defs>
    <style>
      .cls-1 {
        fill: #fff;
      }
    </style>
  </defs>
  <path class="cls-1" d="M374.88356,184.71388h-105.10419l-.0093,.18903c-.74529,15.48758-6.30628,34.05083-14.51375,48.44604-9.29983,16.31344-20.53958,25.29718-31.64917,25.29718h-.15959l-6.08471,27.69574-.05268,.24094h30.04703l-17.52744,103.18907c-.14914,.87699-.20007,1.75795-.15669,2.62855,.10827,2.1766,.80591,4.28841,2.0323,6.11231,.2452,.3647,.51171,.71798,.79874,1.05789,2.29629,2.71929,5.65396,4.27882,9.21306,4.27882,5.90342,0,10.90507-4.22536,11.88897-10.04589l14.52304-85.83904,.02169-.12318-.00155-.00107,3.59629-21.25746h40.75842l-4.58581,25.6093-.00058,.0001-17.57237,98.13629-.04184,.23319h12.41888l19.40693-103.89639,.09452-.51132-.00019,.0001,3.71114-19.86721h54.42151v-.19833h.19833v-101.37465h-5.67101Zm-41.48143,101.17632h-7.79589l-3.85253,20.62422c-3.89049,2.98696-8.52413,4.92088-13.4208,5.61358l4.60343-25.70866,.04184-.23319h-41.56723l-3.61778,21.38452c-9.09104-6.64067-13.04196-19.11263-9.81909-31.16777l24.38939-91.29235h27.95372l-21.40359,83.09496v.00077c-.59344,2.33658-.08367,4.76767,1.39606,6.66963,1.47973,1.90273,3.71095,2.99355,6.1219,2.99355h2.56745c3.5529,0,6.64406-2.40475,7.51796-5.84687l22.30751-86.66645,.06295-.24559h31.43999l-26.92527,100.77966Zm46.75578,0h-29.88395l24.51238-100.77966h5.37157v100.77966Z"/>
  <path class="cls-1" d="M372.67868,332.59466c.39821-2.34123-.25256-4.72429-1.78497-6.5387-1.53241-1.81364-3.77292-2.8541-6.14669-2.8541h-6.27374l-2.69295,15.86022-.04029,.23164h9.00698c3.93717,0,7.27314-2.81768,7.93166-6.69907Z"/>
  <path class="cls-1" d="M363.19137,372.95177h-12.41733l-6.45193,37.37751-.04029,.23242h36.27275v-40.13864l-.25411,.0736c-5.60593,1.62925-11.36215,2.45511-17.10908,2.45511Z"/>
  <path class="cls-1" d="M228.28031,213.55157c.39821-2.34045-.25101-4.72274-1.78342-6.53715s-3.77292-2.85565-6.14824-2.85565h-5.62762v16.09187h5.62762c3.93717,0,7.27314-2.81768,7.93166-6.69907Z"/>
</svg>