<?xml version="1.0" encoding="UTF-8"?>
<svg id="Capa_2" data-name="Capa 2" xmlns="http://www.w3.org/2000/svg" width="210mm" height="209.99999mm" viewBox="0 0 595.27559 595.27557">
  <path d="M274.10291,300.08852h-34.60092v20.6373c0,4.20377-1.08135,7.36636-3.22837,9.47097-.12595-7.4374-2.72474-14.51553-7.35001-19.98595-5.79807-6.85953-14.14144-10.63825-23.49137-10.63825-12.397,0-23.00094,5.7123-29.09285,15.67188-4.76337,7.78655-5.47472,16.12344-5.47472,20.39987,0,15.89209,8.859,36.429,33.71362,46.46509l.45617,.18965,.21344,.08886,.21536,.084c4.51744,1.76194,9.2422,3.02374,14.05202,3.75362,2.55988,.48152,5.07553,.72562,7.48674,.72562,.1812,0,.36175-.00121,.54174-.00405,.69122,.02206,1.34215,.03279,1.97315,.03279,36.53324,0,66.25522-29.72127,66.25522-66.2541v-20.6373h-21.66921Zm-44.586,66.2541c-.6309,0-1.25957-.017-1.88733-.04331l-.0293,.00304c-.19785,.00789-.39712,.01154-.59826,.01154-1.27941,0-2.62419-.15545-4.00784-.43578-3.43321-.49104-6.7898-1.36847-10.03255-2.6331l-.56927-.23681c-19.38385-7.78331-20.89035-22.91274-20.89035-27.36385,0-1.9095,.28114-6.09828,2.44263-9.63148,1.93576-3.16482,5.38005-5.80297,11.48759-5.80297,3.21856,0,5.89299,1.14967,7.73195,3.32533,1.59729,1.88926,2.47689,4.45698,2.47689,7.22892,0,5.16054-3.06741,10.38322-8.93009,10.38322-2.55138,0-4.19193-1.04502-5.25405-2.29265,3.21512,10.0452,14.513,15.09826,25.65969,15.09826,.48709,0,.97529-.00972,1.46112-.02894,15.70978-.62483,31.56159-11.13293,31.56159-33.1982h14.99544c0,25.15277-20.46409,45.61681-45.61787,45.61681Z"/>
  <path d="M229.5169,208.29566c-.63105,0-1.28209,.01073-1.97336,.03279-.18014-.00283-.36084-.00405-.54209-.00405-2.41212,0-4.92752,.2437-7.48664,.72562-4.80876,.72967-9.53331,1.99147-14.05157,3.75362l-.21536,.084-.21344,.08886-.45911,.19107c-24.85139,10.03609-33.71069,30.57218-33.71069,46.46347,0,4.27663,.71136,12.61393,5.47594,20.40149,6.09019,9.95796,16.69428,15.67046,29.09164,15.67046,9.34993,0,17.6933-3.77871,23.49314-10.64027,4.62386-5.46981,7.22235-12.54693,7.34824-19.98413,2.14712,2.10482,3.22837,5.26741,3.22837,9.47118v20.6373h56.27013v-20.6373c0-36.53283-29.72198-66.2541-66.25522-66.2541Zm44.586,66.2541h-13.96357c0-22.06547-15.85182-32.57357-31.56159-33.1982-.48653-.01923-.97337-.02894-1.46117-.02894-11.14603,.0004-22.44473,5.05326-25.65964,15.09785,1.06212-1.24743,2.70267-2.29245,5.25405-2.29245,5.86268,0,8.93009,5.22247,8.93009,10.38322,0,2.77195-.87961,5.33967-2.47689,7.22913-1.83896,2.17566-4.5134,3.32533-7.73195,3.32533-6.10754,0-9.55183-2.63816-11.48759-5.80338-2.16149-3.53279-2.44263-7.72178-2.44263-9.63128,0-4.45131,1.50651-19.58054,20.89035-27.36365l.56927-.23681c3.24274-1.26463,6.59934-2.14226,10.03255-2.6331,1.38354-.28074,2.72797-.43578,4.00728-.43578,.20124,0,.40086,.00364,.59882,.01154l.0293,.00304c.62776-.02631,1.25643-.04331,1.88733-.04331,25.15378,0,45.61787,20.46383,45.61787,45.61681h-1.03186Z"/>
  <path d="M321.17278,295.18706h34.60077v-20.6373c0-4.20377,1.0814-7.36636,3.22837-9.47118,.12595,7.43659,2.72423,14.51391,7.34865,19.98454,5.79948,6.86115,14.14285,10.63987,23.49279,10.63987,12.39736,0,23.0014-5.7125,29.0932-15.67289,4.76296-7.78513,5.47437-16.12243,5.47437-20.39907,0-15.89129-8.86001-36.42758-33.71119-46.46387l-.46002-.19148-.21278-.08825-.2146-.0838c-4.51836-1.76215-9.24311-3.02394-14.05192-3.75362-2.55892-.48193-5.07421-.72562-7.48628-.72562-.18131,0-.3619,.00121-.54199,.00405-.69132-.02206-1.34236-.03279-1.97351-.03279-36.53314,0-66.25506,29.72127-66.25506,66.2541v20.6373h21.66921Zm44.58585-66.2541c.6309,0,1.25972,.017,1.88748,.04331l.02925-.00304c.198-.00789,.39747-.01154,.59877-.01154,1.2792,0,2.62384,.15504,4.00723,.43578,3.43331,.49083,6.78985,1.36847,10.03255,2.6331l.56942,.23681c19.3837,7.78311,20.89025,22.91234,20.89025,27.36365,0,1.9095-.28119,6.09849-2.44263,9.63128-1.93581,3.16522-5.38005,5.80338-11.48759,5.80338-3.21861,0-5.89299-1.14967-7.73195-3.32533-1.59718-1.88946-2.47694-4.45718-2.47694-7.22913,0-5.16074,3.06746-10.38322,8.93009-10.38322,2.55153,0,4.19198,1.04502,5.2541,2.29245-3.21501-10.045-14.51295-15.09826-25.65959-15.09785-.48709,0-.97534,.00972-1.46117,.02894-15.70983,.62462-31.5617,11.13272-31.5617,33.1982h-14.99529c0-25.15297,20.46399-45.61681,45.61772-45.61681Z"/>
  <path d="M389.84336,299.57258c-9.34993,0-17.6933,3.77871-23.49314,10.64027-4.62376,5.46921-7.22235,12.54693-7.34829,19.98393-2.14712-2.10482-3.22837-5.26721-3.22837-9.47097v-20.6373h-56.26998v20.6373c0,36.53283,29.72193,66.2541,66.25506,66.2541,.6312,0,1.28244-.01073,1.97381-.03279,.17984,.00283,.36023,.00405,.54118,.00405,2.41106,0,4.92666-.2437,7.48669-.72562,4.80982-.72988,9.53453-1.99167,14.05202-3.75362l.2146-.0838,.21278-.08825,.46407-.1933c24.84764-10.0373,33.70715-30.57198,33.70715-46.46225,0-4.27643-.71141-12.61332-5.47558-20.40109-6.09105-9.95837-16.69504-15.67066-29.09199-15.67066Zm-6.96003,63.4356l-.56942,.23681c-3.24269,1.26463-6.59924,2.14206-10.03255,2.6331-1.3837,.28033-2.72833,.43578-4.00774,.43578-.20109,0-.40051-.00364-.59826-.01154l-.02925-.00304c-.62776,.02631-1.25659,.04331-1.88748,.04331-25.15373,0-45.61772-20.46404-45.61772-45.61681h14.99529c0,22.06527,15.85187,32.57337,31.5617,33.1982,.48653,.01923,.97327,.02894,1.46112,.02894,11.14593,0,22.44483-5.05367,25.65964-15.09826-1.06212,1.24763-2.70257,2.29265-5.2541,2.29265-5.86263,0-8.93009-5.22268-8.93009-10.38322,0-2.77195,.87976-5.33967,2.47694-7.22892,1.83896-2.17566,4.51335-3.32533,7.73195-3.32533,6.10754,0,9.55178,2.63816,11.48759,5.80297,2.16144,3.5332,2.44263,7.72198,2.44263,9.63148,0,4.45111-1.50656,19.58054-20.89025,27.36385Z"/>
</svg>