<?xml version="1.0" encoding="UTF-8"?>
<svg id="Capa_2" data-name="Capa 2" xmlns="http://www.w3.org/2000/svg" width="210mm" height="209.99999mm" viewBox="0 0 595.27559 595.27557">
  <defs>
    <style>
      .cls-1 {
        fill: #fff;
      }
    </style>
  </defs>
  <path class="cls-1" d="M434.96819,297.51522c0-75.72431-61.60586-137.33062-137.33062-137.33062s-137.33016,61.60632-137.33016,137.33062c0,70.9137,54.0285,129.4434,123.08345,136.59351,4.65919,.64249,9.4137,.98225,14.24672,.98225,4.83273,0,9.58695-.3397,14.24585-.98213,69.05576-7.14965,123.08477-65.67964,123.08477-136.59362Zm-76.34254-50.13136c-17.13304-12.48548-38.21338-19.86511-60.98808-19.86511s-43.85475,7.37946-60.98773,19.86465c-1.54796-5.477-2.39439-11.24538-2.39439-17.21108,0-34.94894,28.43273-63.38212,63.38212-63.38212s63.38259,28.43319,63.38259,63.38212c0,5.96588-.84643,11.73443-2.39451,17.21154Zm-47.58123,180.17243c-4.40859,.45115-8.88111,.68303-13.40685,.68303s-8.99843-.23194-13.40714-.68309c-47.26324-6.5514-83.77338-47.2148-83.77338-96.25184,0-29.06249,12.82743-55.18203,33.11352-73.00588,10.85205,24.62222,35.47755,41.86152,64.067,41.86152s53.21495-17.23919,64.06723-41.86112c20.28568,17.82385,33.11283,43.94322,33.11283,73.00548,0,49.03715-36.50985,89.70067-83.77321,96.25189Zm-13.40685-134.141c-16.27531,0-29.516-13.24114-29.516-29.51646s13.24068-29.516,29.516-29.516,29.516,13.24068,29.516,29.516-13.24068,29.51646-29.516,29.51646Zm-36.1216-29.51646c0,8.90432,3.24514,17.06075,8.6062,23.36472-14.10474-6.82533-25.29984-18.73266-31.22511-33.32242,10.11603-7.69958,21.77748-13.46779,34.43443-16.73902-7.25499,6.61118-11.81552,16.13109-11.81552,26.69672Zm63.63693,23.36472c5.36112-6.30397,8.60626-14.46034,8.60626-23.36472,0-10.56563-4.56053-20.08554-11.81552-26.69672,12.65718,3.27129,24.31869,9.03967,34.43472,16.73937-5.92544,14.5897-17.12071,26.4968-31.22545,33.32207Zm-158.2399,10.25167c0-57.88088,37.81596-107.08788,90.03588-124.23353-17.72098,12.71068-29.29903,33.4675-29.29903,56.89063,0,7.52731,1.20871,14.77436,3.41811,21.57463-22.73364,19.05353-37.2165,47.64407-37.2165,79.55745,0,30.29424,13.04854,57.59606,33.8178,76.58687-36.4928-23.2148-60.75625-64.01326-60.75625-110.37605Zm200.69155,110.37691c20.76978-18.9908,33.81867-46.29303,33.81867-76.58773,0-31.9131-14.48263-60.50346-37.21581-79.55693,2.20951-6.80039,3.41834-14.04766,3.41834-21.57515,0-23.42306-11.57823-44.17994-29.29926-56.89057,52.21986,17.14565,90.03611,66.35265,90.03611,124.23347,0,46.36336-24.26432,87.16229-60.75804,110.37691Z"/>
</svg>