<?xml version="1.0" encoding="UTF-8"?>
<svg id="Capa_2" data-name="Capa 2" xmlns="http://www.w3.org/2000/svg" width="210mm" height="209.99999mm" viewBox="0 0 595.27559 595.27557">
  <defs>
    <style>
      .cls-1 {
        fill-rule: evenodd;
      }
    </style>
  </defs>
  <path class="cls-1" d="M368.02502,273.3298c10.12544-6.03467,14.93324-22.80868,1.02293-19.33107l4.80651-9.30773c15.54715-1.12503,5.20759,18.13211,1.62156,23.80575v42.13942l3.01387,3.64828-6.98767,9.78274-7.40729-8.41766,3.52099-4.37359-.8101-31.38581c-1.62957,.98749-7.67978,2.23554-14.51499,1.47282-7.06323-.78831-4.22708,17.00436-3.61977,27.06089,1.12632,18.65783-7.29263,29.14593-17.0641,37.57486-11.48353,9.90603-32.96162,1.45592-38.09196-2.58557,.09743-1.74091,5.61994-8.8797,6.205-9.99679,9.71908,7.20444,38.65454,14.88423,38.95353,.5171,.22742-10.89583,.17304-19.4773,.17304-19.4773,.23272-17.83904,1.81715-26.82689,10.85871-33.43792-9.93123-1.68592-19.45674,1.68456-21.7174,10.3416,.51309-6.4109,3.43416-11.44545,8.2791-15.47329,8.7962-7.31286,24.92019,1.51783,31.75804-2.55672Z"/>
  <path class="cls-1" d="M176.6531,274.64078c-5.40711,10.32041,.39979,24.94837,8.39152,21.49431l7.46594-9.08425c2.71021,2.17383,5.45525,4.31195,7.92873,6.7221,2.8912-2.73899,4.7412-6.51959,7.41197-9.48003,27.77427,5.61831,7.26377,45.49565-17.06403,40.16076,0,0-5.94716-2.64259-16.02983-3.10267-22.58628-1.02891-17.32859,26.64325-1.55137,11.54884-1.84505,10.06251-16.38421,19.81138-20.8559,6.20405,.00197-2.07906,8.01495-17.86694,24.3073-28.33915,16.97849-.99971,26.38867,9.61438,32.57249,6.27696,9.05675-6.66942,3.33668-21.27483-7.23927-22.75159-2.36711,1.3103-7.32182,8.12663-8.6182,8.96327-2.69134-2.33764-4.78397-4.33313-7.584-6.3777,0,0-3.74414,5.90833-7.49452,7.13811-12.47829,4.09118-13.7055-14.72843-8.01821-22.82321l13.61663-16.02983c4.83435,8.79023,23.69672,7.81998,27.75043,.34473,4.02153-7.41564-9.96672-9.6395-14.30583-5.86026,4.74087-11.20384,11.20344-11.20384,11.20344-11.20384,17.98723,.70142,9.67201,15.87009,.84696,23.25186-7.97782,5.70514-17.38758,13.11677-32.73426,2.94755Z"/>
  <path class="cls-1" d="M421.75239,295.66904h-8.27382l17.60701-21.07565,.31886,12.45745,11.52101-.07026-6.60248,8.44183-5.43494,.07427c-.32289,6.58592-.02851,10.90316-.02851,10.90316,.39578,8.75642,6.50567,4.85288,6.50567,4.85288,0,0-3.61584,11.66092-12.05006,6.44403-4.40741-2.7261-3.13581-19.89726-3.56274-22.02771Z"/>
  <path class="cls-1" d="M404.43969,300.81764c2.36146-6.37906-8.28772-3.75867-8.28772-3.75867,0,0-1.89542,17.92756,5.87519,12.72662-4.71567,8.39112-9.97696,9.44392-13.0319,6.739-5.04583-5.15851,1.16949-20.57545-6.71322-21.54502l12.75412-10.16957,.63909,7.49086c1.45327-1.36142,2.92107-3.87374,4.35968-5.25002l10.85211-.05899c3.90552,.16076,.62315,7.87999-6.44734,13.82579Z"/>
  <path class="cls-1" d="M308.05016,266.97993s-7.8863,49.66266,8.59437,40.94867c-2.80036,10.33698-14.25572,9.65478-15.6914,5.10617-3.22963-6.56731,.57215-34.09331-4.60992-38.09433,.65335-1.34214,11.70695-7.9605,11.70695-7.9605Z"/>
  <path class="cls-1" d="M254.4302,304.54216c-.73753,5.83745-4.26185,11.35726-11.39175,11.37783-3.90516,.01127-13.63713,.57609-13.42436-11.50641,.05403-3.05759,1.54803-7.11333,3.27109-9.92592-11.8654-.49225-5.51757-12.46213,.67989-16.05468-5.83447,6.06481-.61227,7.32311,10.81063,6.53914,12.90096-.43224,10.0545,19.57004,10.0545,19.57004Zm-16.87741-10.0545c.05303,9.97629,.56219,13.54039,10.57561,12.86152,.33944-10.54247-.16972-12.89865-10.57561-12.86152Z"/>
  <path class="cls-1" d="M287.96859,285.53396l.45316,18.50637c.32586,4.72294,3.27238,4.42132,7.12222,2.14267-4.2015,9.94778-8.42893,9.35512-8.42893,9.35512-6.72508,1.02232-7.75569-4.71106-7.75569-4.71106,0,0-10.86466,9.92992-17.56559,3.6417-3.39438-3.39438-2.51429-15.74742-2.51429-15.74742-.23503-1.08362-.65172-2.47885-1.64681-3.2525l11.55779-9.96937s-.1074,10.92007,.87976,17.09356c.81608,5.10284,8.21148,4.86951,9.39952,2.32373l-.26884-8.45812-2.61272-2.51727,11.38041-8.40741Z"/>
  <polygon class="cls-1" points="357.04827 289.14979 364.04654 296.61709 357.59722 304.46395 351.14789 297.06325 357.04827 289.14979"/>
</svg>