<?xml version="1.0" encoding="UTF-8"?>
<svg id="Capa_2" data-name="Capa 2" xmlns="http://www.w3.org/2000/svg" width="210mm" height="209.99999mm" viewBox="0 0 595.27559 595.27557">
  <path d="M264.37357,165.09267c55.2913-9.13596,39.36973,58.07287,3.83617,55.37765-35.05572-2.66136-42.98257-48.90969-3.83617-55.37765Z"/>
  <path d="M339.57309,166.98797c-36.73089-13.56289-50.38938,32.92667-7.52908,46.38556,11.66814,3.66383,37.81274,6.95321,39.60063-2.19034,.66126-3.39108-.23694-4.4416-2.76067-6.66882-2.98815-2.63976-4.64168-2.94574-5.82609-5.21477-3.8873-7.44571,5.50998-8.22825,7.18127-11.02474,5.93525-9.92228-25.41248-19.34754-30.66604-21.2869Z"/>
  <path d="M190.994,212.74541c-18.96792,21.90011-20.60893,42.10755-4.8451,34.50511,26.6245-12.8386,49.20592-11.66258,63.56664-11.40186,42.74646,.77643,62.00633,44.48488,8.57789,59.25549,.26253-.49384,12.92446-37.6202-5.15414-41.61753-4.77051-1.05482-8.53089,.39547-11.51342,4.21316-10.29587,13.17582,.78903,37.42949,.78903,37.42949,0,0-18.95349,3.22605-43.2701-18.99733-6.85026-6.26025-9.53157-10.56022-16.96324-10.06313-39.92896,2.6706-8.82141,89.57219-3.58886,93.77093,4.57043,3.66526,34.98511-19.32233,20.80012-41.12828-21.09245-32.42309-17.61981-41.89821-2.65801-27.62517,23.76402,22.67425,40.46759,17.12187,40.46759,17.12187,0,0-25.18824,20.8686-37.56099,48.86259-17.07841,38.64379,11.15892,31.52403,15.74196,24.49757,27.94452-42.83413,60.33495-25.4843,64.89182-41.62259,3.531-12.50569-4.9789-12.88158-12.6647-17.82638,0,0-17.26588-9.60243,2.6944-17.39233,5.16541-2.01585,17.36282-8.81435,19.86697-13.45507,0,0-1.18441,25.44791-1.64187,29.46243-.63003,5.51648-1.78321,24.58429,.80441,27.21335,3.03849,3.08892,17.93879,3.41716,20.90728-.27791,4.18757-5.21716-1.28097-36.12292-1.92121-57.1892-.4523-14.8854-9.53481-62.16629,64.18311-51.60932,13.17811,1.88674,26.91119,5.05816,46.06848,11.20237,21.67349,6.95187-34.58869-75.37373-43.25195-56.43284-1.88397,4.11986,2.62907,10.76306,5.20313,14.23712,16.68304,22.50494-1.53413,18.28013-5.65916,17.89354-57.27315-5.36959-73.07996,14.22873-75.69137,16.40884-.47885,.40007-12.37514-24.45468-75.95715-19.66746-19.40713,1.46051,.14039-19.57512-.25269-27.80749-.52832-11.06245-11.07316-6.08825-31.96888,18.04004Z"/>
  <path d="M314.42648,283.0139c4.87117,25.69412,39.80204,32.22673,50.09189,9.414,22.15472-49.1256-41.78027-52.22712-18.4373,2.95367-.22663,.15949-19.61705,4.7816-19.62546-22.6644-.01031-36.29215,81.55805-25.8919,57.44946,16.03286-9.03352,15.70748-16.58696,13.8408-17.62965,21.80834-1.97813,15.11709,25.61113,13.87385,31.54265,12.52813,2.42766-.54933,7.51238-2.35776,7.31565,1.07621-1.42136,24.89582-11.88274,38.43111-20.09742,31.91015-22.00928-17.47198-32.18148-32.07517-55.49836-24.32968-23.64646,7.8556,3.17754,16.84338,15.94251,20.23074,34.93651,9.2676,35.24985,24.75304,39.74149,29.62144,11.58429,12.55516,23.06963-6.39786,27.9026-14.66757,4.58858-7.84901,14.48754-29.11594,16.84243-41.27754,.67148-3.4628,5.48391-31.07909,1.84195-37.97175-4.03456-7.62755-20.70538,11.77214-25.24927,15.5904-3.1635,2.65935-7.01614,4.88091-10.7495,6.93697-6.76344,3.72027-22.89715,7.36874-19.99103-.86276,.62392-1.77061,19.23934-8.71636,20.81827-9.47742,91.07185-43.89353-96.67514-93.12457-82.2109-16.85179Z"/>
  <path d="M225.05895,382.07754c-18.31602,47.08596,47.36952,41.07518,34.93985,4.45889-7.39586-21.78351,30.78953-20.75858,31.47084-20.54313,38.61667,12.24735,17.81941,51.5906,10.68056,35.56042-9.74091-21.87863-31.57064-5.57149-26.32414,10.10515,12.10801,36.18443,71.78915,17.49623,54.12321-21.50101-5.89524-13.0149-20.26942-24.15988-20.79687-24.64302,38.84434,.60252,31.50913,13.25184,31.41028,22.98578-.50368,49.78591,51.544,19.58629,35.38976-8.44504-19.54246-33.91062-136.65395-34.58773-150.89348,2.02197Z"/>
</svg>