<?xml version="1.0" encoding="UTF-8"?>
<svg id="Capa_2" data-name="Capa 2" xmlns="http://www.w3.org/2000/svg" width="210mm" height="209.99999mm" viewBox="0 0 595.27559 595.27557">
  <rect x="343.03814" y="237.64331" width="10.20258" height="22.44615"/>
  <rect x="242.03487" y="237.64331" width="10.20258" height="22.44615"/>
  <rect x="355.87375" y="226.54342" width="10.9491" height="24.08885"/>
  <rect x="228.45161" y="226.54342" width="10.9491" height="24.08885"/>
  <rect x="370.01524" y="214.72364" width="11.69562" height="25.73118"/>
  <polygon points="353.66221 225.72933 365.35789 225.72933 365.35789 199.9981 360.87366 199.9981 360.87366 173.07266 348.43071 173.07266 348.43071 200.44697 353.66221 200.44697 353.66221 225.72933"/>
  <polygon points="334.60477 214.72665 340.29575 214.72665 340.29575 237.56052 351.24485 237.56052 351.24485 213.47167 346.3004 213.47167 346.3004 188.99547 338.91201 188.99547 338.91201 164.28194 326.46906 164.28194 326.46906 191.65625 334.60477 191.65625 334.60477 214.72665"/>
  <polygon points="248.97519 213.47017 244.03224 213.47017 244.03224 237.55897 254.98134 237.55897 254.98134 214.72665 260.67082 214.72665 260.67082 191.65625 268.80653 191.65625 268.80653 164.28194 256.36358 164.28194 256.36358 188.99547 248.97519 188.99547 248.97519 213.47017"/>
  <polygon points="241.61338 200.44697 246.84488 200.44697 246.84488 173.07266 234.40198 173.07266 234.40198 199.9981 229.9177 199.9981 229.9177 225.72933 241.61338 225.72933 241.61338 200.44697"/>
  <rect x="213.56473" y="214.72364" width="11.69562" height="25.73118"/>
  <polygon points="303.48558 390.42299 303.11232 390.42299 303.11232 374.24769 303.11232 374.24614 302.73906 374.24614 302.73906 359.56544 302.3658 359.56544 302.3658 346.37634 302.3658 346.37522 301.99254 346.37522 301.99254 334.68029 301.61927 334.68029 301.61927 324.47739 301.24596 324.47739 301.24596 315.76753 300.8727 315.76753 300.8727 308.55083 294.40289 308.55083 294.40289 315.76753 294.02963 315.76753 294.02963 324.47739 293.65632 324.47739 293.65632 334.68029 293.28305 334.68029 293.28305 346.37522 292.90979 346.37522 292.90979 346.37634 292.90979 359.56544 292.53653 359.56544 292.53653 374.24614 292.16327 374.24614 292.16327 374.24769 292.16327 390.42299 291.79001 390.42299 291.79001 408.09251 291.41632 408.09251 291.41632 408.09444 291.41632 435.46682 291.41632 435.46869 303.85927 435.46869 303.85927 435.46682 303.85927 408.09444 303.85927 408.09251 303.48558 408.09251 303.48558 390.42299"/>
  <path d="M428.14261,289.58299h-1.12589v-23.62294h-5.57443v-22.99066h-9.82546v-21.51734h-12.44295v27.37426h9.82546v21.51734h5.57443v22.99066h1.12589v19.66276h-3.36632v22.3527h-7.73887v20.48827h-9.94736v-12.41937h8.95136v-21.52644h4.57457v-47.73569h-4.57457v-21.52644h-8.95136v-20.10322h-11.69562v25.73118h8.9513v20.10322h4.57462v39.32622h-4.57462v20.10316h-8.36312v-11.84105h5.8372v-20.29992h1.17755v-24.08885h-3.53146v-20.03029h-8.0518v-18.67506h-10.9491v24.08885h8.05175v18.67506h3.53151v16.24136h-1.17755v19.48385h-5.8372v17.61261h-7.99934v-9.88129h7.13472v-18.48484h2.43365v-22.44609h-2.43365v-18.48484h-7.13472v-17.22526h-10.20258v22.44615h7.13472v17.22526h2.4337v14.52348h-2.4337v17.22526h-6.3449v-9.17389h3.76353v-20.80377h-1.26226v-16.86266h-6.17815v-15.7447h-9.456v20.80382h6.17815v15.7447h1.26226v12.54621h-3.76353v14.64619h-6.01526v-7.15637h5.17304v-34.28532h-5.17304v-14.21249h-8.70948v19.16149h5.17304v24.38731h-4.25714v-6.09124h1.38411v-17.51916h-4.09307v-12.36242h.78071v-19.16149h-3.00366v-19.24926h-5.75779v-19.36388h-7.94431v-19.50593h-9.79401v-12.47103h10.19042v20.74499h8.44553v20.50268h6.12505v20.31016h3.25427v20.11308h9.456v-20.80382h-2.5077v-21.75541h-5.37853v-21.95286h-7.69895v-22.14506h-9.68764v-22.38801h-12.443v20.08763h-11.20646v-20.08763h-12.443v22.38801h-9.68764v22.14506h-7.69895v21.95286h-5.37848v21.75428h-2.50775v20.80382h9.456v-20.11195h3.25427v-20.31016h6.12505v-20.50268h8.44553v-20.74499h10.19042v12.47103h-9.79401v19.50593h-7.94431v19.36313h-5.75779v19.25001h-3.00366v19.16149h.78071v12.36242h-4.09307v17.51916h1.38411v6.09124h-4.25714v-24.38731h5.17304v-19.16149h-8.70948v14.21249h-5.17304v34.28532h5.17304v7.15707h-6.01639v-14.64689h-3.7624v-12.54621h1.26301v-15.74583h6.1774v-20.80382h-9.456v15.74583h-6.1774v16.86266h-1.26296v20.80377h3.7623v9.17389h-6.34373v-17.22526h-2.4337v-14.52348h2.4337v-17.22526h7.13472v-22.44615h-10.20253v17.22526h-7.13472v18.48484h-2.4337v22.44609h2.4337v18.48484h7.13472v9.88129h-7.9994v-17.61261h-5.8372v-19.48385h-1.17867v-16.23986h3.53264v-18.67806h8.05175v-24.0889h-10.9491v18.67812h-8.05175v20.02767h-3.53264v24.08885h1.17867v20.30105h5.8372v11.84105h-8.36312v-20.10316h-4.57462v-39.32622h4.57462v-20.10322h8.95136v-25.73118h-11.69568v20.10322h-8.95136v21.52644h-4.57457v47.73569h4.57457v21.52644h8.95136v12.4175h-9.94929v-20.48446h-7.73507v-22.35656h-3.36819v-19.66271h1.12402v-22.98879h5.57631v-21.51921h9.82546v-27.37431h-12.44295v21.51926h-9.82546v22.98879h-5.57631v23.62482h-1.12402v27.3742h3.36819v23.4122h7.73507v22.35656h11.82857v20.48446h12.44295v-19.68859h9.81641v-18.08838h9.57941v10.16046h-8.33885v18.11989h-8.01076v27.37426h12.44295v-19.76296h7.26343v-18.27903h7.59232v-16.74489h8.03428v-15.13262h7.666v7.47803h-6.51809v15.10524h-6.1759v16.56758h-5.94126v18.0177h-5.77033v27.37431h12.44295v-19.66083h5.02306v-18.20991h5.19469v-16.74794h5.42938v-15.27724h5.77146v-13.74851h6.26898v-12.08067h5.70732v4.50475h-4.69497v12.02409h-4.34068v13.48188h-4.12307v14.92906h-3.9739v16.39595h-3.87739v17.85443h-3.80222v27.37431h12.44295v-19.49757h3.05489v-18.03828h3.13087v-16.57176h3.22732v-15.12415h3.37655v-13.66647h3.5941v-12.1954h3.94845v-10.63805h4.54842v-8.7277h3.58842v.7754h-2.88026v8.85641h-2.50389v10.33091h-2.31255v11.79931h-2.20131v13.27837h-2.13524v14.75132h-2.08696v16.23943h-2.06081v17.7201h-2.03456v27.37426h12.44295v-19.36313h1.28728v-17.88182h1.31424v-16.39402h1.34044v-14.9207h1.38866v-13.44164h1.45473v-11.97324h1.56603v-10.49874h1.75737v-8.98629h2.13369v-14.23413h-4.42577v-2.14885h1.5372v-12.1297h.75488v-12.25841h4.57575v-12.24282h5.28197v12.24282h4.57575v12.25841h.75488v12.1297h1.5372v2.14885h-4.42577v14.23413h2.13369v8.98629h1.75737v10.49874h1.56603v11.97324h1.45473v13.44164h1.38866v14.9207h1.34044v16.39247h1.31424v17.88337h1.28728v19.36313h12.44295v-27.37426h-2.03456v-17.7201h-2.06081v-16.24099h-2.08696v-14.74977h-2.13524v-13.27837h-2.20131v-11.79931h-2.31249v-10.33091h-2.50395v-8.85641h-2.88026v-.7754h3.58847v8.7277h4.54836v10.63805h3.94845v12.1954h3.59297v13.66647h3.37768v15.12415h3.22732v16.57176h3.13087v18.03828h3.05494v19.49757h12.4429v-27.37431h-3.80222v-17.85443h-3.87739v-16.39595h-3.97384v-14.92906h-4.12425v-13.48188h-4.33955v-12.02409h-4.69497v-4.50475h5.70732v12.08067h6.26973v13.74776h5.77071v15.27799h5.42938v16.74794h5.19469v18.20991h5.02118v19.66083h12.44295v-27.37431h-5.76846v-18.0177h-5.94126v-16.56758h-6.1759v-15.10524h-6.51728v-7.47803h7.6652v15.13262h8.03433v16.74489h7.59227v18.27903h7.26155v19.76296h12.44295v-27.37426h-8.00888v-18.11989h-8.33879v-10.16046h9.57941v18.08838h9.81635v19.69052h12.44295v-20.48832h11.82664v-22.3527h7.73887v-23.41413h3.36632v-27.3742Zm-104.19191,24.355h-3.95525v-3.94384h2.90079v-15.77733h2.43858v8.25038h-1.38411v11.47079Zm-40.74602-24.79776h-.00836v8.71704h-.6998v-13.48343h.40021v-15.00418h4.13717v5.99817h-3.82922v13.77241Zm-5.45478-47.53599h6.50437v-17.86317h8.28226v9.7962h-8.08138v16.67089h-6.06691v16.64656h-3.45441v17.51911h.34631v9.74348h-1.24629v-17.41966h-.03419v-17.37261h3.75024v-17.7208Zm43.49184,52.51307h-1.24629v-9.74348h.34631v-17.51911h-3.45441v-16.64656h-6.06691v-16.67089h-8.08138v-9.7962h8.28226v17.86317h6.50437v17.72155h3.75024v17.37186h-.03419v17.41966Zm-18.91126-77.39292h-9.38538v-11.09871h9.38538v11.09871Zm-27.05035,93.26976v3.94384h-3.95525v-11.47079h-1.38411v-8.25038h2.43858v15.77733h2.90079Zm4.3156-10.8249h2.06349v5.77301h-2.06349v-5.77301Zm7.50193-44.82816h6.18539v7.12599h-6.18539v-7.12599Zm6.81349-15.1705h7.45328v8.41134h-7.45328v-8.41134Zm8.08138,15.1705h6.18539v7.12599h-6.18539v-7.12599Zm6.24915,15.02856h4.13717v15.00418h.40027v13.48343h-.69985v-8.71704h-.00836v-13.77241h-3.82922v-5.99817Zm5.37467,29.7996h2.06349v5.77301h-2.06349v-5.77301Z"/>
  <rect x="385.45044" y="202.18269" width="12.44295" height="27.37431"/>
  <rect x="368.33037" y="185.86004" width="12.44295" height="27.37426"/>
  <rect x="214.50227" y="185.86004" width="12.44295" height="27.37426"/>
  <rect x="197.3822" y="202.18269" width="12.44295" height="27.37431"/>
</svg>