<?xml version="1.0" encoding="UTF-8"?>
<svg id="Capa_2" data-name="Capa 2" xmlns="http://www.w3.org/2000/svg" width="210mm" height="209.99999mm" viewBox="0 0 595.27559 595.27557">
  <defs>
    <style>
      .cls-1 {
        fill: #fff;
      }
    </style>
  </defs>
  <path class="cls-1" d="M351.18017,233.56882h-16.58926v-41.49042c0-9.31046-7.54746-16.85808-16.85792-16.85808h-58.07985l-39.46984,43.85552c-4.26373,4.73753-5.75027,11.35465-3.9223,17.46051l16.27616,54.3697c3.92572,13.11358,19.01673,19.18199,30.92805,12.43706l14.49167-8.20622c6.01094-3.40372,9.72646-9.77758,9.72646-16.68533v-5.4116c0-7.89833,6.40284-14.30117,14.30101-14.30117h1.41131c20.16688,0,30.26652,24.38258,16.00637,38.64272l-81.43569,81.43569c-5.16037,5.16037-8.05952,12.1593-8.05952,19.45715v4.33342c0,9.63593,7.81155,17.44748,17.44748,17.44748h79.80001c29.06573,0,52.62803-23.56246,52.62803-52.62803v-105.25622c0-15.7965-12.80552-28.60219-28.60219-28.60219Zm-43.5421-13.20931l-5.65371,14.92558-21.59301-6.21186c-10.65762-3.06587-16.1477-14.84255-11.64381-24.97638l2.91852-6.5668h20.20709c11.79409,0,19.94268,11.80012,15.76491,22.82945Z"/>
</svg>